  0
SECTION
  2
HEADER
  9
$ACADVER
  1
AC1015
  9
$ACADMAINTVER
 70
     6
  9
$DWGCODEPAGE
  3
DOS932
  9
$INSBASE
 10
0.0
 20
0.0
 30
0.0
  9
$EXTMIN
 10
0.0
 20
0.0
 30
0.0
  9
$EXTMAX
 10
300.0
 20
300.0
 30
0.0
  9
$LIMMIN
 10
0.0
 20
0.0
  9
$LIMMAX
 10
300.0
 20
300.0
  9
$ORTHOMODE
 70
     0
  9
$REGENMODE
 70
     1
  9
$FILLMODE
 70
     1
  9
$QTEXTMODE
 70
     0
  9
$MIRRTEXT
 70
     1
  9
$LTSCALE
 40
1.0
  9
$ATTMODE
 70
     1
  9
$TEXTSIZE
 40
3.5
  9
$TRACEWID
 40
1.0
  9
$TEXTSTYLE
  7
Standard
  9
$CLAYER
  8
0
  9
$CELTYPE
  6
ByLayer
  9
$CECOLOR
 62
   256
  9
$CELTSCALE
 40
1.0
  9
$DISPSILH
 70
     0
  9
$DIMSCALE
 40
1.0
  9
$DIMASZ
 40
3.302
  9
$DIMEXO
 40
1.0
  9
$DIMDLI
 40
3.75
  9
$DIMRND
 40
0.0
  9
$DIMDLE
 40
0.0
  9
$DIMEXE
 40
1.0
  9
$DIMTP
 40
0.0
  9
$DIMTM
 40
0.0
  9
$DIMTXT
 40
3.5
  9
$DIMCEN
 40
2.5
  9
$DIMTSZ
 40
0.0
  9
$DIMTOL
 70
     0
  9
$DIMLIM
 70
     0
  9
$DIMTIH
 70
     1
  9
$DIMTOH
 70
     1
  9
$DIMSE1
 70
     0
  9
$DIMSE2
 70
     0
  9
$DIMTAD
 70
     1
  9
$DIMZIN
 70
     1
  9
$DIMBLK
  1

  9
$DIMASO
 70
     1
  9
$DIMSHO
 70
     1
  9
$DIMPOST
  1

  9
$DIMAPOST
  1

  9
$DIMALT
 70
     0
  9
$DIMALTD
 70
     3
  9
$DIMALTF
 40
0.0393700787
  9
$DIMLFAC
 40
1.0
  9
$DIMTOFL
 70
     1
  9
$DIMTVP
 40
0.0
  9
$DIMTIX
 70
     0
  9
$DIMSOXD
 70
     0
  9
$DIMSAH
 70
     0
  9
$DIMBLK1
  1

  9
$DIMBLK2
  1

  9
$DIMSTYLE
  2
ISO-25
  9
$DIMCLRD
 70
     0
  9
$DIMCLRE
 70
     0
  9
$DIMCLRT
 70
     0
  9
$DIMTFAC
 40
1.0
  9
$DIMGAP
 40
1.524
  9
$DIMJUST
 70
     0
  9
$DIMSD1
 70
     0
  9
$DIMSD2
 70
     0
  9
$DIMTOLJ
 70
     0
  9
$DIMTZIN
 70
     1
  9
$DIMALTZ
 70
     0
  9
$DIMALTTZ
 70
     0
  9
$DIMUPT
 70
     0
  9
$DIMDEC
 70
     2
  9
$DIMTDEC
 70
     2
  9
$DIMALTU
 70
     2
  9
$DIMALTTD
 70
     3
  9
$DIMTXSTY
  7
Standard
  9
$DIMAUNIT
 70
     0
  9
$DIMADEC
 70
     2
  9
$DIMALTRND
 40
0.0
  9
$DIMAZIN
 70
     0
  9
$DIMDSEP
 70
    44
  9
$DIMATFIT
 70
     3
  9
$DIMFRAC
 70
     0
  9
$DIMLDRBLK
  1

  9
$DIMLUNIT
 70
     2
  9
$DIMLWD
 70
    -2
  9
$DIMLWE
 70
    -2
  9
$DIMTMOVE
 70
     0
  9
$LUNITS
 70
     2
  9
$LUPREC
 70
     2
  9
$SKETCHINC
 40
1.0
  9
$FILLETRAD
 40
10.0
  9
$AUNITS
 70
     0
  9
$AUPREC
 70
     2
  9
$MENU
  1
.
  9
$ELEVATION
 40
0.0
  9
$PELEVATION
 40
0.0
  9
$THICKNESS
 40
0.0
  9
$LIMCHECK
 70
     0
  9
$CHAMFERA
 40
0.0
  9
$CHAMFERB
 40
0.0
  9
$CHAMFERC
 40
0.0
  9
$CHAMFERD
 40
0.0
  9
$SKPOLY
 70
     0
  9
$TDCREATE
 40
2459474.434770857
  9
$TDUCREATE
 40
2459474.059770857
  9
$TDUPDATE
 40
2459474.434772662
  9
$TDUUPDATE
 40
2459474.059772662
  9
$TDINDWG
 40
0.0000000116
  9
$TDUSRTIMER
 40
0.0000000116
  9
$USRTIMER
 70
     1
  9
$ANGBASE
 50
0.0
  9
$ANGDIR
 70
     0
  9
$PDMODE
 70
     0
  9
$PDSIZE
 40
-1.0
  9
$PLINEWID
 40
0.0
  9
$SPLFRAME
 70
     0
  9
$SPLINETYPE
 70
     6
  9
$SPLINESEGS
 70
     8
  9
$HANDSEED
  5
360
  9
$SURFTAB1
 70
     6
  9
$SURFTAB2
 70
     6
  9
$SURFTYPE
 70
     6
  9
$SURFU
 70
     6
  9
$SURFV
 70
     6
  9
$UCSBASE
  2

  9
$UCSNAME
  2

  9
$UCSORG
 10
0.0
 20
0.0
 30
0.0
  9
$UCSXDIR
 10
1.0
 20
0.0
 30
0.0
  9
$UCSYDIR
 10
0.0
 20
1.0
 30
0.0
  9
$UCSORTHOREF
  2

  9
$UCSORTHOVIEW
 70
     0
  9
$UCSORGTOP
 10
0.0
 20
0.0
 30
0.0
  9
$UCSORGBOTTOM
 10
0.0
 20
0.0
 30
0.0
  9
$UCSORGLEFT
 10
0.0
 20
0.0
 30
0.0
  9
$UCSORGRIGHT
 10
0.0
 20
0.0
 30
0.0
  9
$UCSORGFRONT
 10
0.0
 20
0.0
 30
0.0
  9
$UCSORGBACK
 10
0.0
 20
0.0
 30
0.0
  9
$PUCSBASE
  2

  9
$PUCSNAME
  2

  9
$PUCSORG
 10
0.0
 20
0.0
 30
0.0
  9
$PUCSXDIR
 10
1.0
 20
0.0
 30
0.0
  9
$PUCSYDIR
 10
0.0
 20
1.0
 30
0.0
  9
$PUCSORTHOREF
  2

  9
$PUCSORTHOVIEW
 70
     0
  9
$PUCSORGTOP
 10
0.0
 20
0.0
 30
0.0
  9
$PUCSORGBOTTOM
 10
0.0
 20
0.0
 30
0.0
  9
$PUCSORGLEFT
 10
0.0
 20
0.0
 30
0.0
  9
$PUCSORGRIGHT
 10
0.0
 20
0.0
 30
0.0
  9
$PUCSORGFRONT
 10
0.0
 20
0.0
 30
0.0
  9
$PUCSORGBACK
 10
0.0
 20
0.0
 30
0.0
  9
$USERI1
 70
     0
  9
$USERI2
 70
     0
  9
$USERI3
 70
     0
  9
$USERI4
 70
     0
  9
$USERI5
 70
     0
  9
$USERR1
 40
0.0
  9
$USERR2
 40
0.0
  9
$USERR3
 40
0.0
  9
$USERR4
 40
0.0
  9
$USERR5
 40
0.0
  9
$WORLDVIEW
 70
     1
  9
$SHADEDGE
 70
     3
  9
$SHADEDIF
 70
    70
  9
$TILEMODE
 70
     1
  9
$MAXACTVP
 70
    64
  9
$PINSBASE
 10
0.0
 20
0.0
 30
0.0
  9
$PLIMCHECK
 70
     0
  9
$PEXTMIN
 10
1.0000000000E+20
 20
1.0000000000E+20
 30
1.0000000000E+20
  9
$PEXTMAX
 10
-1.0000000000E+20
 20
-1.0000000000E+20
 30
-1.0000000000E+20
  9
$PLIMMIN
 10
0.0
 20
0.0
  9
$PLIMMAX
 10
420.0
 20
297.0
  9
$UNITMODE
 70
     0
  9
$VISRETAIN
 70
     1
  9
$PLINEGEN
 70
     0
  9
$PSLTSCALE
 70
     1
  9
$TREEDEPTH
 70
  3020
  9
$CMLSTYLE
  2
Standard
  9
$CMLJUST
 70
     0
  9
$CMLSCALE
 40
20.0
  9
$PROXYGRAPHICS
 70
     1
  9
$MEASUREMENT
 70
     1
  9
$CELWEIGHT
370
    -1
  9
$ENDCAPS
280
     0
  9
$JOINSTYLE
280
     0
  9
$LWDISPLAY
290
     1
  9
$INSUNITS
 70
     4
  9
$HYPERLINKBASE
  1

  9
$STYLESHEET
  1

  9
$XEDIT
290
     1
  9
$CEPSNTYPE
380
     0
  9
$PSTYLEMODE
290
     1
  9
$FINGERPRINTGUID
  2
{45b48839-31ce-4f35-9c5f-7d8e1aee0305}
  9
$VERSIONGUID
  2
{FAEB1C32-E019-11D5-929B-00C0DF256EC4}
  9
$EXTNAMES
290
     1
  9
$PSVPSCALE
 40
0.0
  9
$OLESTARTUP
290
     0
  0
ENDSEC
  0
SECTION
  2
CLASSES
  0
CLASS
  1
ACDBDICTIONARYWDFLT
  2
AcDbDictionaryWithDefault
  3
ObjectDBX Classes
 90
        0
280
     0
281
     0
  0
CLASS
  1
VISUALSTYLE
  2
AcDbVisualStyle
  3
ObjectDBX Classes
 90
     4095
280
     0
281
     0
  0
CLASS
  1
MATERIAL
  2
AcDbMaterial
  3
ObjectDBX Classes
 90
     1153
280
     0
281
     0
  0
CLASS
  1
SCALE
  2
AcDbScale
  3
ObjectDBX Classes
 90
     1153
280
     0
281
     0
  0
CLASS
  1
TABLESTYLE
  2
AcDbTableStyle
  3
ObjectDBX Classes
 90
     4095
280
     0
281
     0
  0
CLASS
  1
MLEADERSTYLE
  2
AcDbMLeaderStyle
  3
ACDB_MLEADERSTYLE_CLASS
 90
     4095
280
     0
281
     0
  0
CLASS
  1
SUN
  2
AcDbSun
  3
SCENEOE
 90
     1153
280
     0
281
     0
  0
CLASS
  1
ACDBPLACEHOLDER
  2
AcDbPlaceHolder
  3
ObjectDBX Classes
 90
        0
280
     0
281
     0
  0
CLASS
  1
LAYOUT
  2
AcDbLayout
  3
ObjectDBX Classes
 90
        0
280
     0
281
     0
  0
ENDSEC
  0
SECTION
  2
TABLES
  0
TABLE
  2
VPORT
  5
8
330
0
100
AcDbSymbolTable
 70
     1
  0
VPORT
  5
29
330
8
100
AcDbSymbolTableRecord
100
AcDbViewportTableRecord
  2
*Active
 70
     0
 10
0.0
 20
0.0
 11
1.0
 21
1.0
 12
150.0
 22
150.0
 13
0.0
 23
0.0
 14
10.0
 24
10.0
 15
10.0
 25
10.0
 16
0.0
 26
0.0
 36
1.0
 17
0.0
 27
0.0
 37
0.0
 40
300.0
 41
1.0
 42
50.0
 43
0.0
 44
0.0
 50
0.0
 51
0.0
 71
     0
 72
  2000
 73
     1
 74
     3
 75
     0
 76
     0
 77
     0
 78
     0
281
     0
 65
     1
110
0.0
120
0.0
130
0.0
111
1.0
121
0.0
131
0.0
112
0.0
122
1.0
132
0.0
 79
     0
146
0.0
  0
ENDTAB
  0
TABLE
  2
LTYPE
  5
5
330
0
100
AcDbSymbolTable
 70
     6
  0
LTYPE
  5
14
330
5
100
AcDbSymbolTableRecord
100
AcDbLinetypeTableRecord
  2
ByBlock
 70
     0
  3

 72
    65
 73
     0
 40
0.0
  0
LTYPE
  5
15
330
5
100
AcDbSymbolTableRecord
100
AcDbLinetypeTableRecord
  2
ByLayer
 70
     0
  3

 72
    65
 73
     0
 40
0.0
  0
LTYPE
  5
16
330
5
100
AcDbSymbolTableRecord
100
AcDbLinetypeTableRecord
  2
Continuous
 70
     0
  3
Solid line
 72
    65
 73
     0
 40
0.0
  0
LTYPE
  5
6E
330
5
100
AcDbSymbolTableRecord
100
AcDbLinetypeTableRecord
  2
HIDDEN
 70
     0
  3
Hidden __ __ __ __ __ __ __ __ __ __ __ __ __ __
 72
    65
 73
     2
 40
1.905
 49
1.27
 74
     0
 49
-0.635
 74
     0
  0
LTYPE
  5
6F
330
5
100
AcDbSymbolTableRecord
100
AcDbLinetypeTableRecord
  2
PHANTOM
 70
     0
  3
Phantom ______  __  __  ______  __  __  ______
 72
    65
 73
     6
 40
12.7
 49
6.35
 74
     0
 49
-1.27
 74
     0
 49
1.27
 74
     0
 49
-1.27
 74
     0
 49
1.27
 74
     0
 49
-1.27
 74
     0
  0
LTYPE
  5
70
330
5
100
AcDbSymbolTableRecord
100
AcDbLinetypeTableRecord
  2
CENTER
 70
     0
  3
Center ____ _ ____ _ ____ _ ____ _ ____ _ ____
 72
    65
 73
     4
 40
10.16
 49
6.35
 74
     0
 49
-1.27
 74
     0
 49
1.27
 74
     0
 49
-1.27
 74
     0
  0
LTYPE
  5
71
330
5
100
AcDbSymbolTableRecord
100
AcDbLinetypeTableRecord
  2
CENTERX2
 70
     0
  3
Center (2x) ________  __  ________  __  _____
 72
    65
 73
     4
 40
20.32
 49
12.7
 74
     0
 49
-2.54
 74
     0
 49
2.54
 74
     0
 49
-2.54
 74
     0
  0
LTYPE
  5
72
330
5
100
AcDbSymbolTableRecord
100
AcDbLinetypeTableRecord
  2
DOT2
 70
     0
  3
Dot (.5x) ........................................
 72
    65
 73
     2
 40
0.635
 49
0.0
 74
     0
 49
-0.635
 74
     0
  0
ENDTAB
  0
TABLE
  2
LAYER
  5
2
330
0
100
AcDbSymbolTable
 70
     1
  0
LAYER
  5
10
330
2
100
AcDbSymbolTableRecord
100
AcDbLayerTableRecord
  2
0
 70
     0
 62
     7
  6
Continuous
370
    -3
390
F
  0
ENDTAB
  0
TABLE
  2
STYLE
  5
3
330
0
100
AcDbSymbolTable
 70
     2
  0
STYLE
  5
11
330
3
100
AcDbSymbolTableRecord
100
AcDbTextStyleTableRecord
  2
Standard
 70
     0
 40
0.0
 41
1.0
 50
0.0
 71
     0
 42
3.5
  3
txt
  4
bigfont
  0
STYLE
  5
35D
330
3
100
AcDbSymbolTableRecord
100
AcDbTextStyleTableRecord
  2
SLDTEXTSTYLE0
 70
     0
 40
0.0
 41
0.7
 50
0.0
 71
     0
 42
3.5
  3
TXT
  4
bigfont
  0
ENDTAB
  0
TABLE
  2
VIEW
  5
6
330
0
100
AcDbSymbolTable
 70
     0
  0
ENDTAB
  0
TABLE
  2
UCS
  5
7
330
0
100
AcDbSymbolTable
 70
     0
  0
ENDTAB
  0
TABLE
  2
APPID
  5
9
330
0
100
AcDbSymbolTable
 70
     1
  0
APPID
  5
12
330
9
100
AcDbSymbolTableRecord
100
AcDbRegAppTableRecord
  2
ACAD
 70
     0
  0
ENDTAB
  0
TABLE
  2
DIMSTYLE
  5
A
330
0
100
AcDbSymbolTable
 70
     1
100
AcDbDimStyleTable
  0
DIMSTYLE
105
27
330
A
100
AcDbSymbolTableRecord
100
AcDbDimStyleTableRecord
  2
ISO-25
 70
     0
 41
2.5
 42
0.625
 43
3.75
 44
1.25
 73
     0
 74
     0
 77
     1
 78
     8
140
2.5
141
2.5
143
0.0393700787
147
0.625
171
     3
172
     1
178
     0
271
     2
272
     2
274
     3
278
    44
283
     0
284
     8
340
11
  0
ENDTAB
  0
TABLE
  2
BLOCK_RECORD
  5
1
330
0
100
AcDbSymbolTable
 70
     1
  0
BLOCK_RECORD
  5
1F
330
1
100
AcDbSymbolTableRecord
100
AcDbBlockTableRecord
  2
*Model_Space
340
22
  0
BLOCK_RECORD
  5
1B
330
1
100
AcDbSymbolTableRecord
100
AcDbBlockTableRecord
  2
*Paper_Space
340
1E
  0
BLOCK_RECORD
  5
23
330
1
100
AcDbSymbolTableRecord
100
AcDbBlockTableRecord
  2
*Paper_Space0
340
26
  0
ENDTAB
  0
ENDSEC
  0
SECTION
  2
BLOCKS
  0
BLOCK
  5
20
330
1F
100
AcDbEntity
  8
0
100
AcDbBlockBegin
  2
*Model_Space
 70
     0
 10
0.0
 20
0.0
 30
0.0
  3
*Model_Space
  1

  0
ENDBLK
  5
21
330
1F
100
AcDbEntity
  8
0
100
AcDbBlockEnd
  0
BLOCK
  5
1C
330
1B
100
AcDbEntity
 67
     1
  8
0
100
AcDbBlockBegin
  2
*Paper_Space
 70
     0
 10
0.0
 20
0.0
 30
0.0
  3
*Paper_Space
  1

  0
ENDBLK
  5
1D
330
1B
100
AcDbEntity
 67
     1
  8
0
100
AcDbBlockEnd
  0
BLOCK
  5
24
330
23
100
AcDbEntity
  8
0
100
AcDbBlockBegin
  2
*Paper_Space0
 70
     0
 10
0.0
 20
0.0
 30
0.0
  3
*Paper_Space0
  1

  0
ENDBLK
  5
25
330
23
100
AcDbEntity
  8
0
100
AcDbBlockEnd
  0
ENDSEC
  0
SECTION
  2
ENTITIES
  0
CIRCLE
  5
73
330
1F
100
AcDbEntity
  8
0
  6
Continuous
 62
     7
370
    25
100
AcDbCircle
 10
4.0058542548
 20
52.5746371129
 30
0.0
 40
1.549999999999997
  0
CIRCLE
  5
74
330
1F
100
AcDbEntity
  8
0
  6
Continuous
 62
     7
370
    25
100
AcDbCircle
 10
20.5058542548
 20
43.0483576713
 30
0.0
 40
1.549999999999997
  0
CIRCLE
  5
75
330
1F
100
AcDbEntity
  8
0
  6
Continuous
 62
     7
370
    25
100
AcDbCircle
 10
20.5058542548
 20
62.1009165546
 30
0.0
 40
1.550000000000004
  0
ARC
  5
76
330
1F
100
AcDbEntity
  8
0
  6
Continuous
 62
     7
370
    25
100
AcDbCircle
 10
23.7522820971
 20
47.4246371129
 30
0.0
 40
2.100000000000009
100
AcDbArc
 50
90.0
 51
148.257824915
  0
ARC
  5
77
330
1F
100
AcDbEntity
  8
0
  6
Continuous
 62
     7
370
    25
100
AcDbCircle
 10
23.8104221201
 20
47.5246782315
 30
0.0
 40
2.1
100
AcDbArc
 50
151.4151845449
 51
210.0
  0
LINE
  5
78
330
1F
100
AcDbEntity
  8
0
  6
Continuous
 62
     7
370
    25
100
AcDbLine
 10
23.1039304661
 20
44.5483576713
 30
0.0
 11
21.9917687722
 21
46.4746782315
 31
0.0
  0
ARC
  5
79
330
1F
100
AcDbEntity
  8
0
  6
Continuous
 62
     7
370
    25
100
AcDbCircle
 10
20.5058542548
 20
43.0483576713
 30
0.0
 40
3.000000000000002
100
AcDbArc
 50
210.0
 51
30.0
  0
LINE
  5
7A
330
1F
100
AcDbEntity
  8
0
  6
Continuous
 62
     7
370
    25
100
AcDbLine
 10
16.7956163495
 20
43.4746782315
 30
0.0
 11
17.9077780434
 21
41.5483576713
 31
0.0
  0
ARC
  5
7B
330
1F
100
AcDbEntity
  8
0
  6
Continuous
 62
     7
370
    25
100
AcDbCircle
 10
14.9769630015
 20
42.4246782315
 30
0.0
 40
2.099999999999999
100
AcDbArc
 50
30.0
 51
89.8369114176
  0
ARC
  5
7C
330
1F
100
AcDbEntity
  8
0
  6
Continuous
 62
     7
370
    25
100
AcDbCircle
 10
6.2301776427
 20
47.4746371129
 30
0.0
 40
2.1
100
AcDbArc
 50
30.1630885824
 51
90.0
  0
LINE
  5
7D
330
1F
100
AcDbEntity
  8
0
  6
Continuous
 62
     7
370
    25
100
AcDbLine
 10
4.0058542548
 20
49.5746371129
 30
0.0
 11
6.2301776427
 21
49.5746371129
 31
0.0
  0
ARC
  5
7E
330
1F
100
AcDbEntity
  8
0
  6
Continuous
 62
     7
370
    25
100
AcDbCircle
 10
4.0058542548
 20
52.5746371129
 30
0.0
 40
3.000000000000007
100
AcDbArc
 50
90.0
 51
270.0
  0
LINE
  5
7F
330
1F
100
AcDbEntity
  8
0
  6
Continuous
 62
     7
370
    25
100
AcDbLine
 10
6.2301776427
 20
55.5746371129
 30
0.0
 11
4.0058542548
 21
55.5746371129
 31
0.0
  0
ARC
  5
80
330
1F
100
AcDbEntity
  8
0
  6
Continuous
 62
     7
370
    25
100
AcDbCircle
 10
6.2301776427
 20
57.6746371129
 30
0.0
 40
2.100000000000001
100
AcDbArc
 50
270.0
 51
329.8369114176
  0
ARC
  5
81
330
1F
100
AcDbEntity
  8
0
  6
Continuous
 62
     7
370
    25
100
AcDbCircle
 10
14.9769630015
 20
62.7245959944
 30
0.0
 40
2.1
100
AcDbArc
 50
270.1630885824
 51
330.0
  0
LINE
  5
82
330
1F
100
AcDbEntity
  8
0
  6
Continuous
 62
     7
370
    25
100
AcDbLine
 10
17.9077780434
 20
63.6009165546
 30
0.0
 11
16.7956163495
 21
61.6745959944
 31
0.0
  0
ARC
  5
83
330
1F
100
AcDbEntity
  8
0
  6
Continuous
 62
     7
370
    25
100
AcDbCircle
 10
20.5058542548
 20
62.1009165546
 30
0.0
 40
3.000000000000004
100
AcDbArc
 50
330.0
 51
150.0
  0
LINE
  5
84
330
1F
100
AcDbEntity
  8
0
  6
Continuous
 62
     7
370
    25
100
AcDbLine
 10
21.9917687722
 20
58.6745959944
 30
0.0
 11
23.1039304661
 21
60.6009165546
 31
0.0
  0
ARC
  5
85
330
1F
100
AcDbEntity
  8
0
  6
Continuous
 62
     7
370
    25
100
AcDbCircle
 10
23.8104221201
 20
57.6245959944
 30
0.0
 40
2.100000000000003
100
AcDbArc
 50
150.0
 51
208.5848154551
  0
ARC
  5
86
330
1F
100
AcDbEntity
  8
0
  6
Continuous
 62
     7
370
    25
100
AcDbCircle
 10
23.7522820971
 20
57.7246371129
 30
0.0
 40
2.100000000000004
100
AcDbArc
 50
211.742175085
 51
270.0
  0
ARC
  5
87
330
1F
100
AcDbEntity
  8
0
  6
Continuous
 62
     7
370
    25
100
AcDbCircle
 10
26.6039842824
 20
56.3246371129
 30
0.0
 40
1.050000000000003
100
AcDbArc
 50
221.8103148958
 51
318.1896851042
  0
ARC
  5
88
330
1F
100
AcDbEntity
  8
0
  6
Continuous
 62
     7
370
    25
100
AcDbCircle
 10
21.7512230364
 20
54.6246371129
 30
0.0
 40
1.0
100
AcDbArc
 50
196.9046677439
 51
270.0
  0
ARC
  5
89
330
1F
100
AcDbEntity
  8
0
  6
Continuous
 62
     7
370
    25
100
AcDbCircle
 10
21.7512230364
 20
50.5246371129
 30
0.0
 40
1.0
100
AcDbArc
 50
90.0
 51
163.0953322561
  0
ARC
  5
8A
330
1F
100
AcDbEntity
  8
0
  6
Continuous
 62
     7
370
    25
100
AcDbCircle
 10
26.6039842824
 20
48.8246371129
 30
0.0
 40
1.050000000000002
100
AcDbArc
 50
41.8103148958
 51
138.1896851042
  0
LINE
  5
8B
330
1F
100
AcDbEntity
  8
0
  6
Continuous
 62
     7
370
    25
100
AcDbLine
 10
29.4556864677
 20
51.5246371129
 30
0.0
 11
21.7512230364
 21
51.5246371129
 31
0.0
  0
LINE
  5
8C
330
1F
100
AcDbEntity
  8
0
  6
Continuous
 62
     7
370
    25
100
AcDbLine
 10
29.4556864677
 20
49.5246371129
 30
0.0
 11
29.4556864677
 21
51.5246371129
 31
0.0
  0
LINE
  5
8D
330
1F
100
AcDbEntity
  8
0
  6
Continuous
 62
     7
370
    25
100
AcDbLine
 10
27.3866080745
 20
49.5246371129
 30
0.0
 11
29.4556864677
 21
49.5246371129
 31
0.0
  0
LINE
  5
8E
330
1F
100
AcDbEntity
  8
0
  6
Continuous
 62
     7
370
    25
100
AcDbLine
 10
25.8213604902
 20
55.6246371129
 30
0.0
 11
23.7522820971
 21
55.6246371129
 31
0.0
  0
LINE
  5
8F
330
1F
100
AcDbEntity
  8
0
  6
Continuous
 62
     7
370
    25
100
AcDbLine
 10
29.4556864677
 20
53.6246371129
 30
0.0
 11
29.4556864677
 21
55.6246371129
 31
0.0
  0
LINE
  5
90
330
1F
100
AcDbEntity
  8
0
  6
Continuous
 62
     7
370
    25
100
AcDbLine
 10
21.7512230364
 20
53.6246371129
 30
0.0
 11
29.4556864677
 21
53.6246371129
 31
0.0
  0
ARC
  5
91
330
1F
100
AcDbEntity
  8
0
  6
Continuous
 62
     7
370
    25
100
AcDbCircle
 10
15.0058542548
 20
52.5746371129
 30
0.0
 40
6.050000000000002
100
AcDbArc
 50
16.9046677439
 51
343.0953322561
  0
ARC
  5
92
330
1F
100
AcDbEntity
  8
0
  6
Continuous
 62
     7
370
    25
100
AcDbCircle
 10
15.0058542548
 20
52.5746371129
 30
0.0
 40
8.049999999999999
100
AcDbArc
 50
90.1630885824
 51
149.8369114176
  0
ARC
  5
93
330
1F
100
AcDbEntity
  8
0
  6
Continuous
 62
     7
370
    25
100
AcDbCircle
 10
15.0058542548
 20
52.5746371129
 30
0.0
 40
8.050000000000004
100
AcDbArc
 50
210.1630885824
 51
269.8369114176
  0
LINE
  5
94
330
1F
100
AcDbEntity
  8
0
  6
Continuous
 62
     7
370
    25
100
AcDbLine
 10
23.7522820971
 20
49.5246371129
 30
0.0
 11
25.8213604902
 21
49.5246371129
 31
0.0
  0
LINE
  5
95
330
1F
100
AcDbEntity
  8
0
  6
Continuous
 62
     7
370
    25
100
AcDbLine
 10
29.4556864677
 20
55.6246371129
 30
0.0
 11
27.3866080745
 21
55.6246371129
 31
0.0
  0
CIRCLE
  5
96
330
1F
100
AcDbEntity
  8
0
  6
Continuous
 62
     7
370
    25
100
AcDbCircle
 10
81.0712026318
 20
3.8343596558
 30
0.0
 40
1.549999999999997
  0
CIRCLE
  5
97
330
1F
100
AcDbEntity
  8
0
  6
Continuous
 62
     7
370
    25
100
AcDbCircle
 10
90.5974820735
 20
20.3343596558
 30
0.0
 40
1.549999999999997
  0
CIRCLE
  5
98
330
1F
100
AcDbEntity
  8
0
  6
Continuous
 62
     7
370
    25
100
AcDbCircle
 10
71.5449231902
 20
20.3343596558
 30
0.0
 40
1.549999999999997
  0
ARC
  5
99
330
1F
100
AcDbEntity
  8
0
  6
Continuous
 62
     7
370
    25
100
AcDbCircle
 10
86.2212026318
 20
23.5807874981
 30
0.0
 40
2.100000000000009
100
AcDbArc
 50
180.0
 51
238.257824915
  0
ARC
  5
9A
330
1F
100
AcDbEntity
  8
0
  6
Continuous
 62
     7
370
    25
100
AcDbCircle
 10
86.1211615133
 20
23.6389275212
 30
0.0
 40
2.100000000000007
100
AcDbArc
 50
241.4151845449
 51
300.0
  0
LINE
  5
9B
330
1F
100
AcDbEntity
  8
0
  6
Continuous
 62
     7
370
    25
100
AcDbLine
 10
89.0974820735
 20
22.9324358672
 30
0.0
 11
87.1711615133
 21
21.8202741732
 31
0.0
  0
ARC
  5
9C
330
1F
100
AcDbEntity
  8
0
  6
Continuous
 62
     7
370
    25
100
AcDbCircle
 10
90.5974820735
 20
20.3343596558
 30
0.0
 40
3.000000000000005
100
AcDbArc
 50
300.0
 51
120.0
  0
LINE
  5
9D
330
1F
100
AcDbEntity
  8
0
  6
Continuous
 62
     7
370
    25
100
AcDbLine
 10
90.1711615133
 20
16.6241217505
 30
0.0
 11
92.0974820735
 21
17.7362834445
 31
0.0
  0
ARC
  5
9E
330
1F
100
AcDbEntity
  8
0
  6
Continuous
 62
     7
370
    25
100
AcDbCircle
 10
91.2211615133
 20
14.8054684026
 30
0.0
 40
2.100000000000006
100
AcDbArc
 50
120.0
 51
179.8369114176
  0
ARC
  5
9F
330
1F
100
AcDbEntity
  8
0
  6
Continuous
 62
     7
370
    25
100
AcDbCircle
 10
86.1712026318
 20
6.0586830437
 30
0.0
 40
2.100000000000009
100
AcDbArc
 50
120.1630885824
 51
180.0
  0
LINE
  5
A0
330
1F
100
AcDbEntity
  8
0
  6
Continuous
 62
     7
370
    25
100
AcDbLine
 10
84.0712026318
 20
3.8343596558
 30
0.0
 11
84.0712026318
 21
6.0586830437
 31
0.0
  0
ARC
  5
A1
330
1F
100
AcDbEntity
  8
0
  6
Continuous
 62
     7
370
    25
100
AcDbCircle
 10
81.0712026318
 20
3.8343596558
 30
0.0
 40
3.0
100
AcDbArc
 50
180.0
 51
0.0
  0
LINE
  5
A2
330
1F
100
AcDbEntity
  8
0
  6
Continuous
 62
     7
370
    25
100
AcDbLine
 10
78.0712026318
 20
6.0586830437
 30
0.0
 11
78.0712026318
 21
3.8343596558
 31
0.0
  0
ARC
  5
A3
330
1F
100
AcDbEntity
  8
0
  6
Continuous
 62
     7
370
    25
100
AcDbCircle
 10
75.9712026318
 20
6.0586830437
 30
0.0
 40
2.099999999999999
100
AcDbArc
 50
360.0
 51
59.8369114176
  0
ARC
  5
A4
330
1F
100
AcDbEntity
  8
0
  6
Continuous
 62
     7
370
    25
100
AcDbCircle
 10
70.9212437504
 20
14.8054684026
 30
0.0
 40
2.099999999999992
100
AcDbArc
 50
0.1630885824
 51
60.0
  0
LINE
  5
A5
330
1F
100
AcDbEntity
  8
0
  6
Continuous
 62
     7
370
    25
100
AcDbLine
 10
70.0449231902
 20
17.7362834445
 30
0.0
 11
71.9712437504
 21
16.6241217505
 31
0.0
  0
ARC
  5
A6
330
1F
100
AcDbEntity
  8
0
  6
Continuous
 62
     7
370
    25
100
AcDbCircle
 10
71.5449231902
 20
20.3343596558
 30
0.0
 40
3.000000000000014
100
AcDbArc
 50
60.0
 51
240.0
  0
LINE
  5
A7
330
1F
100
AcDbEntity
  8
0
  6
Continuous
 62
     7
370
    25
100
AcDbLine
 10
74.9712437504
 20
21.8202741732
 30
0.0
 11
73.0449231902
 21
22.9324358672
 31
0.0
  0
ARC
  5
A8
330
1F
100
AcDbEntity
  8
0
  6
Continuous
 62
     7
370
    25
100
AcDbCircle
 10
76.0212437504
 20
23.6389275212
 30
0.0
 40
2.099999999999999
100
AcDbArc
 50
240.0
 51
298.5848154551
  0
ARC
  5
A9
330
1F
100
AcDbEntity
  8
0
  6
Continuous
 62
     7
370
    25
100
AcDbCircle
 10
75.9212026318
 20
23.5807874981
 30
0.0
 40
2.100000000000001
100
AcDbArc
 50
301.742175085
 51
0.0
  0
ARC
  5
AA
330
1F
100
AcDbEntity
  8
0
  6
Continuous
 62
     7
370
    25
100
AcDbCircle
 10
77.3212026318
 20
26.4324896834
 30
0.0
 40
1.050000000000005
100
AcDbArc
 50
311.8103148958
 51
48.1896851042
  0
ARC
  5
AB
330
1F
100
AcDbEntity
  8
0
  6
Continuous
 62
     7
370
    25
100
AcDbCircle
 10
79.0212026318
 20
21.5797284374
 30
0.0
 40
1.000000000000001
100
AcDbArc
 50
286.9046677439
 51
0.0
  0
ARC
  5
AC
330
1F
100
AcDbEntity
  8
0
  6
Continuous
 62
     7
370
    25
100
AcDbCircle
 10
83.1212026318
 20
21.5797284374
 30
0.0
 40
1.000000000000001
100
AcDbArc
 50
180.0
 51
253.0953322561
  0
ARC
  5
AD
330
1F
100
AcDbEntity
  8
0
  6
Continuous
 62
     7
370
    25
100
AcDbCircle
 10
84.8212026318
 20
26.4324896834
 30
0.0
 40
1.050000000000014
100
AcDbArc
 50
131.8103148958
 51
228.1896851042
  0
LINE
  5
AE
330
1F
100
AcDbEntity
  8
0
  6
Continuous
 62
     7
370
    25
100
AcDbLine
 10
82.1212026318
 20
29.2841918687
 30
0.0
 11
82.1212026318
 21
21.5797284374
 31
0.0
  0
LINE
  5
AF
330
1F
100
AcDbEntity
  8
0
  6
Continuous
 62
     7
370
    25
100
AcDbLine
 10
84.1212026318
 20
29.2841918687
 30
0.0
 11
82.1212026318
 21
29.2841918687
 31
0.0
  0
LINE
  5
B0
330
1F
100
AcDbEntity
  8
0
  6
Continuous
 62
     7
370
    25
100
AcDbLine
 10
84.1212026318
 20
27.2151134755
 30
0.0
 11
84.1212026318
 21
29.2841918687
 31
0.0
  0
LINE
  5
B1
330
1F
100
AcDbEntity
  8
0
  6
Continuous
 62
     7
370
    25
100
AcDbLine
 10
78.0212026318
 20
25.6498658913
 30
0.0
 11
78.0212026318
 21
23.5807874981
 31
0.0
  0
LINE
  5
B2
330
1F
100
AcDbEntity
  8
0
  6
Continuous
 62
     7
370
    25
100
AcDbLine
 10
80.0212026318
 20
29.2841918687
 30
0.0
 11
78.0212026318
 21
29.2841918687
 31
0.0
  0
LINE
  5
B3
330
1F
100
AcDbEntity
  8
0
  6
Continuous
 62
     7
370
    25
100
AcDbLine
 10
80.0212026318
 20
21.5797284374
 30
0.0
 11
80.0212026318
 21
29.2841918687
 31
0.0
  0
ARC
  5
B4
330
1F
100
AcDbEntity
  8
0
  6
Continuous
 62
     7
370
    25
100
AcDbCircle
 10
81.0712026318
 20
14.8343596558
 30
0.0
 40
6.049999999999999
100
AcDbArc
 50
106.9046677439
 51
73.0953322561
  0
ARC
  5
B5
330
1F
100
AcDbEntity
  8
0
  6
Continuous
 62
     7
370
    25
100
AcDbCircle
 10
81.0712026318
 20
14.8343596558
 30
0.0
 40
8.049999999999995
100
AcDbArc
 50
180.1630885824
 51
239.8369114176
  0
ARC
  5
B6
330
1F
100
AcDbEntity
  8
0
  6
Continuous
 62
     7
370
    25
100
AcDbCircle
 10
81.0712026318
 20
14.8343596558
 30
0.0
 40
8.050000000000004
100
AcDbArc
 50
300.1630885824
 51
359.8369114176
  0
LINE
  5
B7
330
1F
100
AcDbEntity
  8
0
  6
Continuous
 62
     7
370
    25
100
AcDbLine
 10
84.1212026318
 20
23.5807874981
 30
0.0
 11
84.1212026318
 21
25.6498658913
 31
0.0
  0
LINE
  5
B8
330
1F
100
AcDbEntity
  8
0
  6
Continuous
 62
     7
370
    25
100
AcDbLine
 10
78.0212026318
 20
29.2841918687
 30
0.0
 11
78.0212026318
 21
27.2151134755
 31
0.0
  0
CIRCLE
  5
B9
330
1F
100
AcDbEntity
  8
0
  6
Continuous
 62
     7
370
    25
100
AcDbCircle
 10
26.6471350176
 20
30.2232586232
 30
0.0
 40
1.549999999999994
  0
CIRCLE
  5
BA
330
1F
100
AcDbEntity
  8
0
  6
Continuous
 62
     7
370
    25
100
AcDbCircle
 10
10.1471350176
 20
39.7495380648
 30
0.0
 40
1.54999999999999
  0
CIRCLE
  5
BB
330
1F
100
AcDbEntity
  8
0
  6
Continuous
 62
     7
370
    25
100
AcDbCircle
 10
10.1471350176
 20
20.6969791816
 30
0.0
 40
1.549999999999997
  0
ARC
  5
BC
330
1F
100
AcDbEntity
  8
0
  6
Continuous
 62
     7
370
    25
100
AcDbCircle
 10
6.9007071753
 20
35.3732586232
 30
0.0
 40
2.099999999999998
100
AcDbArc
 50
270.0
 51
328.257824915
  0
ARC
  5
BD
330
1F
100
AcDbEntity
  8
0
  6
Continuous
 62
     7
370
    25
100
AcDbCircle
 10
6.8425671522
 20
35.2732175047
 30
0.0
 40
2.100000000000003
100
AcDbArc
 50
331.4151845449
 51
30.0
  0
LINE
  5
BE
330
1F
100
AcDbEntity
  8
0
  6
Continuous
 62
     7
370
    25
100
AcDbLine
 10
7.5490588062
 20
38.2495380648
 30
0.0
 11
8.6612205002
 21
36.3232175047
 31
0.0
  0
ARC
  5
BF
330
1F
100
AcDbEntity
  8
0
  6
Continuous
 62
     7
370
    25
100
AcDbCircle
 10
10.1471350176
 20
39.7495380648
 30
0.0
 40
3.000000000000007
100
AcDbArc
 50
30.0
 51
210.0
  0
LINE
  5
C0
330
1F
100
AcDbEntity
  8
0
  6
Continuous
 62
     7
370
    25
100
AcDbLine
 10
13.8573729229
 20
39.3232175047
 30
0.0
 11
12.7452112289
 21
41.2495380648
 31
0.0
  0
ARC
  5
C1
330
1F
100
AcDbEntity
  8
0
  6
Continuous
 62
     7
370
    25
100
AcDbCircle
 10
15.6760262708
 20
40.3732175047
 30
0.0
 40
2.1
100
AcDbArc
 50
210.0
 51
269.8369114176
  0
ARC
  5
C2
330
1F
100
AcDbEntity
  8
0
  6
Continuous
 62
     7
370
    25
100
AcDbCircle
 10
24.4228116297
 20
35.3232586232
 30
0.0
 40
2.100000000000009
100
AcDbArc
 50
210.1630885824
 51
270.0
  0
LINE
  5
C3
330
1F
100
AcDbEntity
  8
0
  6
Continuous
 62
     7
370
    25
100
AcDbLine
 10
26.6471350176
 20
33.2232586232
 30
0.0
 11
24.4228116297
 21
33.2232586232
 31
0.0
  0
ARC
  5
C4
330
1F
100
AcDbEntity
  8
0
  6
Continuous
 62
     7
370
    25
100
AcDbCircle
 10
26.6471350176
 20
30.2232586232
 30
0.0
 40
3.000000000000004
100
AcDbArc
 50
270.0
 51
90.0
  0
LINE
  5
C5
330
1F
100
AcDbEntity
  8
0
  6
Continuous
 62
     7
370
    25
100
AcDbLine
 10
24.4228116297
 20
27.2232586232
 30
0.0
 11
26.6471350176
 21
27.2232586232
 31
0.0
  0
ARC
  5
C6
330
1F
100
AcDbEntity
  8
0
  6
Continuous
 62
     7
370
    25
100
AcDbCircle
 10
24.4228116297
 20
25.1232586232
 30
0.0
 40
2.100000000000003
100
AcDbArc
 50
90.0
 51
149.8369114176
  0
ARC
  5
C7
330
1F
100
AcDbEntity
  8
0
  6
Continuous
 62
     7
370
    25
100
AcDbCircle
 10
15.6760262708
 20
20.0732997417
 30
0.0
 40
2.1
100
AcDbArc
 50
90.1630885824
 51
150.0
  0
LINE
  5
C8
330
1F
100
AcDbEntity
  8
0
  6
Continuous
 62
     7
370
    25
100
AcDbLine
 10
12.7452112289
 20
19.1969791816
 30
0.0
 11
13.8573729229
 21
21.1232997417
 31
0.0
  0
ARC
  5
C9
330
1F
100
AcDbEntity
  8
0
  6
Continuous
 62
     7
370
    25
100
AcDbCircle
 10
10.1471350176
 20
20.6969791816
 30
0.0
 40
3.000000000000005
100
AcDbArc
 50
150.0
 51
330.0
  0
LINE
  5
CA
330
1F
100
AcDbEntity
  8
0
  6
Continuous
 62
     7
370
    25
100
AcDbLine
 10
8.6612205002
 20
24.1232997417
 30
0.0
 11
7.5490588062
 21
22.1969791816
 31
0.0
  0
ARC
  5
CB
330
1F
100
AcDbEntity
  8
0
  6
Continuous
 62
     7
370
    25
100
AcDbCircle
 10
6.8425671522
 20
25.1732997417
 30
0.0
 40
2.100000000000001
100
AcDbArc
 50
330.0
 51
28.5848154551
  0
ARC
  5
CC
330
1F
100
AcDbEntity
  8
0
  6
Continuous
 62
     7
370
    25
100
AcDbCircle
 10
6.9007071753
 20
25.0732586232
 30
0.0
 40
2.100000000000001
100
AcDbArc
 50
31.742175085
 51
90.0
  0
ARC
  5
CD
330
1F
100
AcDbEntity
  8
0
  6
Continuous
 62
     7
370
    25
100
AcDbCircle
 10
4.04900499
 20
26.4732586232
 30
0.0
 40
1.050000000000001
100
AcDbArc
 50
41.8103148958
 51
138.1896851042
  0
ARC
  5
CE
330
1F
100
AcDbEntity
  8
0
  6
Continuous
 62
     7
370
    25
100
AcDbCircle
 10
8.901766236
 20
28.1732586232
 30
0.0
 40
1.000000000000002
100
AcDbArc
 50
16.9046677439
 51
90.0
  0
ARC
  5
CF
330
1F
100
AcDbEntity
  8
0
  6
Continuous
 62
     7
370
    25
100
AcDbCircle
 10
8.901766236
 20
32.2732586232
 30
0.0
 40
1.000000000000003
100
AcDbArc
 50
270.0
 51
343.0953322561
  0
ARC
  5
D0
330
1F
100
AcDbEntity
  8
0
  6
Continuous
 62
     7
370
    25
100
AcDbCircle
 10
4.04900499
 20
33.9732586232
 30
0.0
 40
1.049999999999997
100
AcDbArc
 50
221.8103148958
 51
318.1896851042
  0
LINE
  5
D1
330
1F
100
AcDbEntity
  8
0
  6
Continuous
 62
     7
370
    25
100
AcDbLine
 10
1.1973028047
 20
31.2732586232
 30
0.0
 11
8.901766236
 21
31.2732586232
 31
0.0
  0
LINE
  5
D2
330
1F
100
AcDbEntity
  8
0
  6
Continuous
 62
     7
370
    25
100
AcDbLine
 10
1.1973028047
 20
33.2732586232
 30
0.0
 11
1.1973028047
 21
31.2732586232
 31
0.0
  0
LINE
  5
D3
330
1F
100
AcDbEntity
  8
0
  6
Continuous
 62
     7
370
    25
100
AcDbLine
 10
3.2663811979
 20
33.2732586232
 30
0.0
 11
1.1973028047
 21
33.2732586232
 31
0.0
  0
LINE
  5
D4
330
1F
100
AcDbEntity
  8
0
  6
Continuous
 62
     7
370
    25
100
AcDbLine
 10
4.8316287821
 20
27.1732586232
 30
0.0
 11
6.9007071753
 21
27.1732586232
 31
0.0
  0
LINE
  5
D5
330
1F
100
AcDbEntity
  8
0
  6
Continuous
 62
     7
370
    25
100
AcDbLine
 10
1.1973028047
 20
29.1732586232
 30
0.0
 11
1.1973028047
 21
27.1732586232
 31
0.0
  0
LINE
  5
D6
330
1F
100
AcDbEntity
  8
0
  6
Continuous
 62
     7
370
    25
100
AcDbLine
 10
8.901766236
 20
29.1732586232
 30
0.0
 11
1.1973028047
 21
29.1732586232
 31
0.0
  0
ARC
  5
D7
330
1F
100
AcDbEntity
  8
0
  6
Continuous
 62
     7
370
    25
100
AcDbCircle
 10
15.6471350176
 20
30.2232586232
 30
0.0
 40
6.049999999999999
100
AcDbArc
 50
196.9046677439
 51
163.0953322561
  0
ARC
  5
D8
330
1F
100
AcDbEntity
  8
0
  6
Continuous
 62
     7
370
    25
100
AcDbCircle
 10
15.6471350176
 20
30.2232586232
 30
0.0
 40
8.050000000000004
100
AcDbArc
 50
270.1630885824
 51
329.8369114176
  0
ARC
  5
D9
330
1F
100
AcDbEntity
  8
0
  6
Continuous
 62
     7
370
    25
100
AcDbCircle
 10
15.6471350176
 20
30.2232586232
 30
0.0
 40
8.049999999999999
100
AcDbArc
 50
30.1630885824
 51
89.8369114176
  0
LINE
  5
DA
330
1F
100
AcDbEntity
  8
0
  6
Continuous
 62
     7
370
    25
100
AcDbLine
 10
6.9007071753
 20
33.2732586232
 30
0.0
 11
4.8316287821
 21
33.2732586232
 31
0.0
  0
LINE
  5
DB
330
1F
100
AcDbEntity
  8
0
  6
Continuous
 62
     7
370
    25
100
AcDbLine
 10
1.1973028047
 20
27.1732586232
 30
0.0
 11
3.2663811979
 21
27.1732586232
 31
0.0
  0
CIRCLE
  5
DC
330
1F
100
AcDbEntity
  8
0
  6
Continuous
 62
     7
370
    25
100
AcDbCircle
 10
58.8760020319
 20
25.9054903157
 30
0.0
 40
1.549999999999997
  0
CIRCLE
  5
DD
330
1F
100
AcDbEntity
  8
0
  6
Continuous
 62
     7
370
    25
100
AcDbCircle
 10
49.3497225903
 20
9.4054903157
 30
0.0
 40
1.549999999999997
  0
CIRCLE
  5
DE
330
1F
100
AcDbEntity
  8
0
  6
Continuous
 62
     7
370
    25
100
AcDbCircle
 10
68.4022814736
 20
9.4054903157
 30
0.0
 40
1.549999999999997
  0
ARC
  5
DF
330
1F
100
AcDbEntity
  8
0
  6
Continuous
 62
     7
370
    25
100
AcDbCircle
 10
53.7260020319
 20
6.1590624734
 30
0.0
 40
2.100000000000002
100
AcDbArc
 50
0.0
 51
58.257824915
  0
ARC
  5
E0
330
1F
100
AcDbEntity
  8
0
  6
Continuous
 62
     7
370
    25
100
AcDbCircle
 10
53.8260431505
 20
6.1009224504
 30
0.0
 40
2.100000000000004
100
AcDbArc
 50
61.4151845449
 51
120.0
  0
LINE
  5
E1
330
1F
100
AcDbEntity
  8
0
  6
Continuous
 62
     7
370
    25
100
AcDbLine
 10
50.8497225903
 20
6.8074141044
 30
0.0
 11
52.7760431505
 21
7.9195757983
 31
0.0
  0
ARC
  5
E2
330
1F
100
AcDbEntity
  8
0
  6
Continuous
 62
     7
370
    25
100
AcDbCircle
 10
49.3497225903
 20
9.4054903157
 30
0.0
 40
3.000000000000003
100
AcDbArc
 50
120.0
 51
300.0
  0
LINE
  5
E3
330
1F
100
AcDbEntity
  8
0
  6
Continuous
 62
     7
370
    25
100
AcDbLine
 10
49.7760431505
 20
13.115728221
 30
0.0
 11
47.8497225903
 21
12.0035665271
 31
0.0
  0
ARC
  5
E4
330
1F
100
AcDbEntity
  8
0
  6
Continuous
 62
     7
370
    25
100
AcDbCircle
 10
48.7260431505
 20
14.934381569
 30
0.0
 40
2.099999999999999
100
AcDbArc
 50
300.0
 51
359.8369114176
  0
ARC
  5
E5
330
1F
100
AcDbEntity
  8
0
  6
Continuous
 62
     7
370
    25
100
AcDbCircle
 10
53.7760020319
 20
23.6811669278
 30
0.0
 40
2.099999999999999
100
AcDbArc
 50
300.1630885824
 51
360.0
  0
LINE
  5
E6
330
1F
100
AcDbEntity
  8
0
  6
Continuous
 62
     7
370
    25
100
AcDbLine
 10
55.8760020319
 20
25.9054903157
 30
0.0
 11
55.8760020319
 21
23.6811669278
 31
0.0
  0
ARC
  5
E7
330
1F
100
AcDbEntity
  8
0
  6
Continuous
 62
     7
370
    25
100
AcDbCircle
 10
58.8760020319
 20
25.9054903157
 30
0.0
 40
3.0
100
AcDbArc
 50
0.0
 51
180.0
  0
LINE
  5
E8
330
1F
100
AcDbEntity
  8
0
  6
Continuous
 62
     7
370
    25
100
AcDbLine
 10
61.8760020319
 20
23.6811669278
 30
0.0
 11
61.8760020319
 21
25.9054903157
 31
0.0
  0
ARC
  5
E9
330
1F
100
AcDbEntity
  8
0
  6
Continuous
 62
     7
370
    25
100
AcDbCircle
 10
63.9760020319
 20
23.6811669278
 30
0.0
 40
2.100000000000002
100
AcDbArc
 50
180.0
 51
239.8369114176
  0
ARC
  5
EA
330
1F
100
AcDbEntity
  8
0
  6
Continuous
 62
     7
370
    25
100
AcDbCircle
 10
69.0259609134
 20
14.934381569
 30
0.0
 40
2.100000000000006
100
AcDbArc
 50
180.1630885824
 51
240.0
  0
LINE
  5
EB
330
1F
100
AcDbEntity
  8
0
  6
Continuous
 62
     7
370
    25
100
AcDbLine
 10
69.9022814736
 20
12.0035665271
 30
0.0
 11
67.9759609134
 21
13.115728221
 31
0.0
  0
ARC
  5
EC
330
1F
100
AcDbEntity
  8
0
  6
Continuous
 62
     7
370
    25
100
AcDbCircle
 10
68.4022814736
 20
9.4054903157
 30
0.0
 40
3.000000000000005
100
AcDbArc
 50
240.0
 51
60.0
  0
LINE
  5
ED
330
1F
100
AcDbEntity
  8
0
  6
Continuous
 62
     7
370
    25
100
AcDbLine
 10
64.9759609134
 20
7.9195757983
 30
0.0
 11
66.9022814736
 21
6.8074141044
 31
0.0
  0
ARC
  5
EE
330
1F
100
AcDbEntity
  8
0
  6
Continuous
 62
     7
370
    25
100
AcDbCircle
 10
63.9259609134
 20
6.1009224504
 30
0.0
 40
2.100000000000003
100
AcDbArc
 50
60.0
 51
118.5848154551
  0
ARC
  5
EF
330
1F
100
AcDbEntity
  8
0
  6
Continuous
 62
     7
370
    25
100
AcDbCircle
 10
64.0260020319
 20
6.1590624734
 30
0.0
 40
2.100000000000001
100
AcDbArc
 50
121.742175085
 51
180.0
  0
ARC
  5
F0
330
1F
100
AcDbEntity
  8
0
  6
Continuous
 62
     7
370
    25
100
AcDbCircle
 10
62.6260020319
 20
3.3073602881
 30
0.0
 40
1.049999999999998
100
AcDbArc
 50
131.8103148958
 51
228.1896851042
  0
ARC
  5
F1
330
1F
100
AcDbEntity
  8
0
  6
Continuous
 62
     7
370
    25
100
AcDbCircle
 10
60.9260020319
 20
8.1601215341
 30
0.0
 40
1.000000000000003
100
AcDbArc
 50
106.9046677439
 51
180.0
  0
ARC
  5
F2
330
1F
100
AcDbEntity
  8
0
  6
Continuous
 62
     7
370
    25
100
AcDbCircle
 10
56.8260020319
 20
8.1601215341
 30
0.0
 40
1.000000000000003
100
AcDbArc
 50
0.0
 51
73.0953322561
  0
ARC
  5
F3
330
1F
100
AcDbEntity
  8
0
  6
Continuous
 62
     7
370
    25
100
AcDbCircle
 10
55.1260020319
 20
3.3073602881
 30
0.0
 40
1.050000000000002
100
AcDbArc
 50
311.8103148958
 51
48.1896851042
  0
LINE
  5
F4
330
1F
100
AcDbEntity
  8
0
  6
Continuous
 62
     7
370
    25
100
AcDbLine
 10
57.8260020319
 20
0.4556581028
 30
0.0
 11
57.8260020319
 21
8.1601215341
 31
0.0
  0
LINE
  5
F5
330
1F
100
AcDbEntity
  8
0
  6
Continuous
 62
     7
370
    25
100
AcDbLine
 10
55.8260020319
 20
0.4556581028
 30
0.0
 11
57.8260020319
 21
0.4556581028
 31
0.0
  0
LINE
  5
F6
330
1F
100
AcDbEntity
  8
0
  6
Continuous
 62
     7
370
    25
100
AcDbLine
 10
55.8260020319
 20
2.524736496
 30
0.0
 11
55.8260020319
 21
0.4556581028
 31
0.0
  0
LINE
  5
F7
330
1F
100
AcDbEntity
  8
0
  6
Continuous
 62
     7
370
    25
100
AcDbLine
 10
61.9260020319
 20
4.0899840803
 30
0.0
 11
61.9260020319
 21
6.1590624734
 31
0.0
  0
LINE
  5
F8
330
1F
100
AcDbEntity
  8
0
  6
Continuous
 62
     7
370
    25
100
AcDbLine
 10
59.9260020319
 20
0.4556581028
 30
0.0
 11
61.9260020319
 21
0.4556581028
 31
0.0
  0
LINE
  5
F9
330
1F
100
AcDbEntity
  8
0
  6
Continuous
 62
     7
370
    25
100
AcDbLine
 10
59.9260020319
 20
8.1601215341
 30
0.0
 11
59.9260020319
 21
0.4556581028
 31
0.0
  0
ARC
  5
FA
330
1F
100
AcDbEntity
  8
0
  6
Continuous
 62
     7
370
    25
100
AcDbCircle
 10
58.8760020319
 20
14.9054903157
 30
0.0
 40
6.049999999999999
100
AcDbArc
 50
286.9046677439
 51
253.0953322561
  0
ARC
  5
FB
330
1F
100
AcDbEntity
  8
0
  6
Continuous
 62
     7
370
    25
100
AcDbCircle
 10
58.8760020319
 20
14.9054903157
 30
0.0
 40
8.049999999999997
100
AcDbArc
 50
0.1630885824
 51
59.8369114176
  0
ARC
  5
FC
330
1F
100
AcDbEntity
  8
0
  6
Continuous
 62
     7
370
    25
100
AcDbCircle
 10
58.8760020319
 20
14.9054903157
 30
0.0
 40
8.050000000000004
100
AcDbArc
 50
120.1630885824
 51
179.8369114176
  0
LINE
  5
FD
330
1F
100
AcDbEntity
  8
0
  6
Continuous
 62
     7
370
    25
100
AcDbLine
 10
55.8260020319
 20
6.1590624734
 30
0.0
 11
55.8260020319
 21
4.0899840803
 31
0.0
  0
LINE
  5
FE
330
1F
100
AcDbEntity
  8
0
  6
Continuous
 62
     7
370
    25
100
AcDbLine
 10
61.9260020319
 20
0.4556581028
 30
0.0
 11
61.9260020319
 21
2.524736496
 31
0.0
  0
CIRCLE
  5
FF
330
1F
100
AcDbEntity
  8
0
  6
Continuous
 62
     7
370
    25
100
AcDbCircle
 10
38.5326785413
 20
56.451600133
 30
0.0
 40
1.550000000000004
  0
CIRCLE
  5
100
330
1F
100
AcDbEntity
  8
0
  6
Continuous
 62
     7
370
    25
100
AcDbCircle
 10
29.0063990997
 20
39.951600133
 30
0.0
 40
1.549999999999997
  0
CIRCLE
  5
101
330
1F
100
AcDbEntity
  8
0
  6
Continuous
 62
     7
370
    25
100
AcDbCircle
 10
48.058957983
 20
39.951600133
 30
0.0
 40
1.549999999999997
  0
ARC
  5
102
330
1F
100
AcDbEntity
  8
0
  6
Continuous
 62
     7
370
    25
100
AcDbCircle
 10
33.3826785413
 20
36.7051722907
 30
0.0
 40
2.100000000000001
100
AcDbArc
 50
0.0
 51
58.257824915
  0
ARC
  5
103
330
1F
100
AcDbEntity
  8
0
  6
Continuous
 62
     7
370
    25
100
AcDbCircle
 10
33.4827196599
 20
36.6470322676
 30
0.0
 40
2.100000000000007
100
AcDbArc
 50
61.4151845449
 51
120.0
  0
LINE
  5
104
330
1F
100
AcDbEntity
  8
0
  6
Continuous
 62
     7
370
    25
100
AcDbLine
 10
30.5063990997
 20
37.3535239216
 30
0.0
 11
32.4327196599
 21
38.4656856156
 31
0.0
  0
ARC
  5
105
330
1F
100
AcDbEntity
  8
0
  6
Continuous
 62
     7
370
    25
100
AcDbCircle
 10
29.0063990997
 20
39.951600133
 30
0.0
 40
3.000000000000008
100
AcDbArc
 50
120.0
 51
300.0
  0
LINE
  5
106
330
1F
100
AcDbEntity
  8
0
  6
Continuous
 62
     7
370
    25
100
AcDbLine
 10
29.4327196599
 20
43.6618380383
 30
0.0
 11
27.5063990997
 21
42.5496763443
 31
0.0
  0
ARC
  5
107
330
1F
100
AcDbEntity
  8
0
  6
Continuous
 62
     7
370
    25
100
AcDbCircle
 10
28.3827196599
 20
45.4804913862
 30
0.0
 40
2.100000000000003
100
AcDbArc
 50
300.0
 51
359.8369114176
  0
ARC
  5
108
330
1F
100
AcDbEntity
  8
0
  6
Continuous
 62
     7
370
    25
100
AcDbCircle
 10
33.4326785413
 20
54.227276745
 30
0.0
 40
2.099999999999999
100
AcDbArc
 50
300.1630885824
 51
360.0
  0
LINE
  5
109
330
1F
100
AcDbEntity
  8
0
  6
Continuous
 62
     7
370
    25
100
AcDbLine
 10
35.5326785413
 20
56.451600133
 30
0.0
 11
35.5326785413
 21
54.227276745
 31
0.0
  0
ARC
  5
10A
330
1F
100
AcDbEntity
  8
0
  6
Continuous
 62
     7
370
    25
100
AcDbCircle
 10
38.5326785413
 20
56.451600133
 30
0.0
 40
3.0
100
AcDbArc
 50
0.0
 51
180.0
  0
LINE
  5
10B
330
1F
100
AcDbEntity
  8
0
  6
Continuous
 62
     7
370
    25
100
AcDbLine
 10
41.5326785413
 20
54.227276745
 30
0.0
 11
41.5326785413
 21
56.451600133
 31
0.0
  0
ARC
  5
10C
330
1F
100
AcDbEntity
  8
0
  6
Continuous
 62
     7
370
    25
100
AcDbCircle
 10
43.6326785413
 20
54.227276745
 30
0.0
 40
2.099999999999999
100
AcDbArc
 50
180.0
 51
239.8369114176
  0
ARC
  5
10D
330
1F
100
AcDbEntity
  8
0
  6
Continuous
 62
     7
370
    25
100
AcDbCircle
 10
48.6826374228
 20
45.4804913862
 30
0.0
 40
2.100000000000003
100
AcDbArc
 50
180.1630885824
 51
240.0
  0
LINE
  5
10E
330
1F
100
AcDbEntity
  8
0
  6
Continuous
 62
     7
370
    25
100
AcDbLine
 10
49.558957983
 20
42.5496763443
 30
0.0
 11
47.6326374228
 21
43.6618380383
 31
0.0
  0
ARC
  5
10F
330
1F
100
AcDbEntity
  8
0
  6
Continuous
 62
     7
370
    25
100
AcDbCircle
 10
48.058957983
 20
39.951600133
 30
0.0
 40
3.000000000000007
100
AcDbArc
 50
240.0
 51
60.0
  0
LINE
  5
110
330
1F
100
AcDbEntity
  8
0
  6
Continuous
 62
     7
370
    25
100
AcDbLine
 10
44.6326374228
 20
38.4656856156
 30
0.0
 11
46.558957983
 21
37.3535239216
 31
0.0
  0
ARC
  5
111
330
1F
100
AcDbEntity
  8
0
  6
Continuous
 62
     7
370
    25
100
AcDbCircle
 10
43.5826374228
 20
36.6470322676
 30
0.0
 40
2.100000000000005
100
AcDbArc
 50
60.0
 51
118.5848154551
  0
ARC
  5
112
330
1F
100
AcDbEntity
  8
0
  6
Continuous
 62
     7
370
    25
100
AcDbCircle
 10
43.6826785413
 20
36.7051722907
 30
0.0
 40
2.099999999999997
100
AcDbArc
 50
121.742175085
 51
180.0
  0
ARC
  5
113
330
1F
100
AcDbEntity
  8
0
  6
Continuous
 62
     7
370
    25
100
AcDbCircle
 10
42.2826785413
 20
33.8534701054
 30
0.0
 40
1.05
100
AcDbArc
 50
131.8103148958
 51
228.1896851042
  0
ARC
  5
114
330
1F
100
AcDbEntity
  8
0
  6
Continuous
 62
     7
370
    25
100
AcDbCircle
 10
40.5826785413
 20
38.7062313513
 30
0.0
 40
1.000000000000007
100
AcDbArc
 50
106.9046677439
 51
180.0
  0
ARC
  5
115
330
1F
100
AcDbEntity
  8
0
  6
Continuous
 62
     7
370
    25
100
AcDbCircle
 10
36.4826785413
 20
38.7062313513
 30
0.0
 40
1.0
100
AcDbArc
 50
0.0
 51
73.0953322561
  0
ARC
  5
116
330
1F
100
AcDbEntity
  8
0
  6
Continuous
 62
     7
370
    25
100
AcDbCircle
 10
34.7826785413
 20
33.8534701054
 30
0.0
 40
1.050000000000005
100
AcDbArc
 50
311.8103148958
 51
48.1896851042
  0
LINE
  5
117
330
1F
100
AcDbEntity
  8
0
  6
Continuous
 62
     7
370
    25
100
AcDbLine
 10
37.4826785413
 20
31.0017679201
 30
0.0
 11
37.4826785413
 21
38.7062313513
 31
0.0
  0
LINE
  5
118
330
1F
100
AcDbEntity
  8
0
  6
Continuous
 62
     7
370
    25
100
AcDbLine
 10
35.4826785413
 20
31.0017679201
 30
0.0
 11
37.4826785413
 21
31.0017679201
 31
0.0
  0
LINE
  5
119
330
1F
100
AcDbEntity
  8
0
  6
Continuous
 62
     7
370
    25
100
AcDbLine
 10
35.4826785413
 20
33.0708463133
 30
0.0
 11
35.4826785413
 21
31.0017679201
 31
0.0
  0
LINE
  5
11A
330
1F
100
AcDbEntity
  8
0
  6
Continuous
 62
     7
370
    25
100
AcDbLine
 10
41.5826785413
 20
34.6360938975
 30
0.0
 11
41.5826785413
 21
36.7051722907
 31
0.0
  0
LINE
  5
11B
330
1F
100
AcDbEntity
  8
0
  6
Continuous
 62
     7
370
    25
100
AcDbLine
 10
39.5826785413
 20
31.0017679201
 30
0.0
 11
41.5826785413
 21
31.0017679201
 31
0.0
  0
LINE
  5
11C
330
1F
100
AcDbEntity
  8
0
  6
Continuous
 62
     7
370
    25
100
AcDbLine
 10
39.5826785413
 20
38.7062313513
 30
0.0
 11
39.5826785413
 21
31.0017679201
 31
0.0
  0
ARC
  5
11D
330
1F
100
AcDbEntity
  8
0
  6
Continuous
 62
     7
370
    25
100
AcDbCircle
 10
38.5326785413
 20
45.451600133
 30
0.0
 40
6.050000000000006
100
AcDbArc
 50
286.9046677439
 51
253.0953322561
  0
ARC
  5
11E
330
1F
100
AcDbEntity
  8
0
  6
Continuous
 62
     7
370
    25
100
AcDbCircle
 10
38.5326785413
 20
45.451600133
 30
0.0
 40
8.049999999999999
100
AcDbArc
 50
0.1630885824
 51
59.8369114176
  0
ARC
  5
11F
330
1F
100
AcDbEntity
  8
0
  6
Continuous
 62
     7
370
    25
100
AcDbCircle
 10
38.5326785413
 20
45.451600133
 30
0.0
 40
8.050000000000004
100
AcDbArc
 50
120.1630885824
 51
179.8369114176
  0
LINE
  5
120
330
1F
100
AcDbEntity
  8
0
  6
Continuous
 62
     7
370
    25
100
AcDbLine
 10
35.4826785413
 20
36.7051722907
 30
0.0
 11
35.4826785413
 21
34.6360938975
 31
0.0
  0
LINE
  5
121
330
1F
100
AcDbEntity
  8
0
  6
Continuous
 62
     7
370
    25
100
AcDbLine
 10
41.5826785413
 20
31.0017679201
 30
0.0
 11
41.5826785413
 21
33.0708463133
 31
0.0
  0
CIRCLE
  5
122
330
1F
100
AcDbEntity
  8
0
  6
Continuous
 62
     7
370
    25
100
AcDbCircle
 10
60.7299885059
 20
33.9345306577
 30
0.0
 40
1.54999999999999
  0
CIRCLE
  5
123
330
1F
100
AcDbEntity
  8
0
  6
Continuous
 62
     7
370
    25
100
AcDbCircle
 10
70.2562679475
 20
50.4345306577
 30
0.0
 40
1.549999999999997
  0
CIRCLE
  5
124
330
1F
100
AcDbEntity
  8
0
  6
Continuous
 62
     7
370
    25
100
AcDbCircle
 10
51.2037090643
 20
50.4345306577
 30
0.0
 40
1.550000000000004
  0
ARC
  5
125
330
1F
100
AcDbEntity
  8
0
  6
Continuous
 62
     7
370
    25
100
AcDbCircle
 10
65.8799885059
 20
53.6809585
 30
0.0
 40
2.100000000000001
100
AcDbArc
 50
180.0
 51
238.257824915
  0
ARC
  5
126
330
1F
100
AcDbEntity
  8
0
  6
Continuous
 62
     7
370
    25
100
AcDbCircle
 10
65.7799473874
 20
53.7390985231
 30
0.0
 40
2.100000000000007
100
AcDbArc
 50
241.4151845449
 51
300.0
  0
LINE
  5
127
330
1F
100
AcDbEntity
  8
0
  6
Continuous
 62
     7
370
    25
100
AcDbLine
 10
68.7562679475
 20
53.0326068691
 30
0.0
 11
66.8299473874
 21
51.9204451751
 31
0.0
  0
ARC
  5
128
330
1F
100
AcDbEntity
  8
0
  6
Continuous
 62
     7
370
    25
100
AcDbCircle
 10
70.2562679475
 20
50.4345306577
 30
0.0
 40
3.000000000000005
100
AcDbArc
 50
300.0
 51
120.0
  0
LINE
  5
129
330
1F
100
AcDbEntity
  8
0
  6
Continuous
 62
     7
370
    25
100
AcDbLine
 10
69.8299473874
 20
46.7242927524
 30
0.0
 11
71.7562679475
 21
47.8364544464
 31
0.0
  0
ARC
  5
12A
330
1F
100
AcDbEntity
  8
0
  6
Continuous
 62
     7
370
    25
100
AcDbCircle
 10
70.8799473874
 20
44.9056394045
 30
0.0
 40
2.100000000000006
100
AcDbArc
 50
120.0
 51
179.8369114176
  0
ARC
  5
12B
330
1F
100
AcDbEntity
  8
0
  6
Continuous
 62
     7
370
    25
100
AcDbCircle
 10
65.8299885059
 20
36.1588540456
 30
0.0
 40
2.10000000000001
100
AcDbArc
 50
120.1630885824
 51
180.0
  0
LINE
  5
12C
330
1F
100
AcDbEntity
  8
0
  6
Continuous
 62
     7
370
    25
100
AcDbLine
 10
63.7299885059
 20
33.9345306577
 30
0.0
 11
63.7299885059
 21
36.1588540456
 31
0.0
  0
ARC
  5
12D
330
1F
100
AcDbEntity
  8
0
  6
Continuous
 62
     7
370
    25
100
AcDbCircle
 10
60.7299885059
 20
33.9345306577
 30
0.0
 40
3.000000000000007
100
AcDbArc
 50
180.0
 51
0.0
  0
LINE
  5
12E
330
1F
100
AcDbEntity
  8
0
  6
Continuous
 62
     7
370
    25
100
AcDbLine
 10
57.7299885059
 20
36.1588540456
 30
0.0
 11
57.7299885059
 21
33.9345306577
 31
0.0
  0
ARC
  5
12F
330
1F
100
AcDbEntity
  8
0
  6
Continuous
 62
     7
370
    25
100
AcDbCircle
 10
55.6299885059
 20
36.1588540456
 30
0.0
 40
2.100000000000009
100
AcDbArc
 50
360.0
 51
59.8369114176
  0
ARC
  5
130
330
1F
100
AcDbEntity
  8
0
  6
Continuous
 62
     7
370
    25
100
AcDbCircle
 10
50.5800296244
 20
44.9056394045
 30
0.0
 40
2.099999999999999
100
AcDbArc
 50
0.1630885824
 51
60.0
  0
LINE
  5
131
330
1F
100
AcDbEntity
  8
0
  6
Continuous
 62
     7
370
    25
100
AcDbLine
 10
49.7037090643
 20
47.8364544464
 30
0.0
 11
51.6300296244
 21
46.7242927524
 31
0.0
  0
ARC
  5
132
330
1F
100
AcDbEntity
  8
0
  6
Continuous
 62
     7
370
    25
100
AcDbCircle
 10
51.2037090643
 20
50.4345306577
 30
0.0
 40
3.000000000000007
100
AcDbArc
 50
60.0
 51
240.0
  0
LINE
  5
133
330
1F
100
AcDbEntity
  8
0
  6
Continuous
 62
     7
370
    25
100
AcDbLine
 10
54.6300296244
 20
51.9204451751
 30
0.0
 11
52.7037090643
 21
53.0326068691
 31
0.0
  0
ARC
  5
134
330
1F
100
AcDbEntity
  8
0
  6
Continuous
 62
     7
370
    25
100
AcDbCircle
 10
55.6800296244
 20
53.7390985231
 30
0.0
 40
2.099999999999997
100
AcDbArc
 50
240.0
 51
298.5848154551
  0
ARC
  5
135
330
1F
100
AcDbEntity
  8
0
  6
Continuous
 62
     7
370
    25
100
AcDbCircle
 10
55.5799885059
 20
53.6809585
 30
0.0
 40
2.099999999999994
100
AcDbArc
 50
301.742175085
 51
0.0
  0
ARC
  5
136
330
1F
100
AcDbEntity
  8
0
  6
Continuous
 62
     7
370
    25
100
AcDbCircle
 10
56.9799885059
 20
56.5326606853
 30
0.0
 40
1.050000000000005
100
AcDbArc
 50
311.8103148958
 51
48.1896851042
  0
ARC
  5
137
330
1F
100
AcDbEntity
  8
0
  6
Continuous
 62
     7
370
    25
100
AcDbCircle
 10
58.6799885059
 20
51.6798994393
 30
0.0
 40
1.0
100
AcDbArc
 50
286.9046677439
 51
0.0
  0
ARC
  5
138
330
1F
100
AcDbEntity
  8
0
  6
Continuous
 62
     7
370
    25
100
AcDbCircle
 10
62.7799885059
 20
51.6798994393
 30
0.0
 40
0.9999999999999973
100
AcDbArc
 50
180.0
 51
253.0953322561
  0
ARC
  5
139
330
1F
100
AcDbEntity
  8
0
  6
Continuous
 62
     7
370
    25
100
AcDbCircle
 10
64.4799885059
 20
56.5326606853
 30
0.0
 40
1.050000000000009
100
AcDbArc
 50
131.8103148958
 51
228.1896851042
  0
LINE
  5
13A
330
1F
100
AcDbEntity
  8
0
  6
Continuous
 62
     7
370
    25
100
AcDbLine
 10
61.7799885059
 20
59.3843628706
 30
0.0
 11
61.7799885059
 21
51.6798994393
 31
0.0
  0
LINE
  5
13B
330
1F
100
AcDbEntity
  8
0
  6
Continuous
 62
     7
370
    25
100
AcDbLine
 10
63.7799885059
 20
59.3843628706
 30
0.0
 11
61.7799885059
 21
59.3843628706
 31
0.0
  0
LINE
  5
13C
330
1F
100
AcDbEntity
  8
0
  6
Continuous
 62
     7
370
    25
100
AcDbLine
 10
63.7799885059
 20
57.3152844774
 30
0.0
 11
63.7799885059
 21
59.3843628706
 31
0.0
  0
LINE
  5
13D
330
1F
100
AcDbEntity
  8
0
  6
Continuous
 62
     7
370
    25
100
AcDbLine
 10
57.6799885059
 20
55.7500368932
 30
0.0
 11
57.6799885059
 21
53.6809585
 31
0.0
  0
LINE
  5
13E
330
1F
100
AcDbEntity
  8
0
  6
Continuous
 62
     7
370
    25
100
AcDbLine
 10
59.6799885059
 20
59.3843628706
 30
0.0
 11
57.6799885059
 21
59.3843628706
 31
0.0
  0
LINE
  5
13F
330
1F
100
AcDbEntity
  8
0
  6
Continuous
 62
     7
370
    25
100
AcDbLine
 10
59.6799885059
 20
51.6798994393
 30
0.0
 11
59.6799885059
 21
59.3843628706
 31
0.0
  0
ARC
  5
140
330
1F
100
AcDbEntity
  8
0
  6
Continuous
 62
     7
370
    25
100
AcDbCircle
 10
60.7299885059
 20
44.9345306577
 30
0.0
 40
6.049999999999997
100
AcDbArc
 50
106.9046677439
 51
73.0953322561
  0
ARC
  5
141
330
1F
100
AcDbEntity
  8
0
  6
Continuous
 62
     7
370
    25
100
AcDbCircle
 10
60.7299885059
 20
44.9345306577
 30
0.0
 40
8.049999999999999
100
AcDbArc
 50
180.1630885824
 51
239.8369114176
  0
ARC
  5
142
330
1F
100
AcDbEntity
  8
0
  6
Continuous
 62
     7
370
    25
100
AcDbCircle
 10
60.7299885059
 20
44.9345306577
 30
0.0
 40
8.05
100
AcDbArc
 50
300.1630885824
 51
359.8369114176
  0
LINE
  5
143
330
1F
100
AcDbEntity
  8
0
  6
Continuous
 62
     7
370
    25
100
AcDbLine
 10
63.7799885059
 20
53.6809585
 30
0.0
 11
63.7799885059
 21
55.7500368932
 31
0.0
  0
LINE
  5
144
330
1F
100
AcDbEntity
  8
0
  6
Continuous
 62
     7
370
    25
100
AcDbLine
 10
57.6799885059
 20
59.3843628706
 30
0.0
 11
57.6799885059
 21
57.3152844774
 31
0.0
  0
CIRCLE
  5
145
330
1F
100
AcDbEntity
  8
0
  6
Continuous
 62
     7
370
    25
100
AcDbCircle
 10
84.0394452466
 20
57.0524234828
 30
0.0
 40
1.549999999999997
  0
CIRCLE
  5
146
330
1F
100
AcDbEntity
  8
0
  6
Continuous
 62
     7
370
    25
100
AcDbCircle
 10
74.513165805
 20
40.5524234828
 30
0.0
 40
1.549999999999997
  0
CIRCLE
  5
147
330
1F
100
AcDbEntity
  8
0
  6
Continuous
 62
     7
370
    25
100
AcDbCircle
 10
93.5657246882
 20
40.5524234828
 30
0.0
 40
1.549999999999997
  0
ARC
  5
148
330
1F
100
AcDbEntity
  8
0
  6
Continuous
 62
     7
370
    25
100
AcDbCircle
 10
78.8894452466
 20
37.3059956405
 30
0.0
 40
2.100000000000009
100
AcDbArc
 50
0.0
 51
58.257824915
  0
ARC
  5
149
330
1F
100
AcDbEntity
  8
0
  6
Continuous
 62
     7
370
    25
100
AcDbCircle
 10
78.9894863651
 20
37.2478556174
 30
0.0
 40
2.100000000000007
100
AcDbArc
 50
61.4151845449
 51
120.0
  0
LINE
  5
14A
330
1F
100
AcDbEntity
  8
0
  6
Continuous
 62
     7
370
    25
100
AcDbLine
 10
76.013165805
 20
37.9543472714
 30
0.0
 11
77.9394863651
 21
39.0665089654
 31
0.0
  0
ARC
  5
14B
330
1F
100
AcDbEntity
  8
0
  6
Continuous
 62
     7
370
    25
100
AcDbCircle
 10
74.513165805
 20
40.5524234828
 30
0.0
 40
3.000000000000011
100
AcDbArc
 50
120.0
 51
300.0
  0
LINE
  5
14C
330
1F
100
AcDbEntity
  8
0
  6
Continuous
 62
     7
370
    25
100
AcDbLine
 10
74.9394863651
 20
44.2626613881
 30
0.0
 11
73.013165805
 21
43.1504996941
 31
0.0
  0
ARC
  5
14D
330
1F
100
AcDbEntity
  8
0
  6
Continuous
 62
     7
370
    25
100
AcDbCircle
 10
73.8894863651
 20
46.081314736
 30
0.0
 40
2.100000000000001
100
AcDbArc
 50
300.0
 51
359.8369114176
  0
ARC
  5
14E
330
1F
100
AcDbEntity
  8
0
  6
Continuous
 62
     7
370
    25
100
AcDbCircle
 10
78.9394452466
 20
54.8281000949
 30
0.0
 40
2.100000000000009
100
AcDbArc
 50
300.1630885824
 51
360.0
  0
LINE
  5
14F
330
1F
100
AcDbEntity
  8
0
  6
Continuous
 62
     7
370
    25
100
AcDbLine
 10
81.0394452466
 20
57.0524234828
 30
0.0
 11
81.0394452466
 21
54.8281000949
 31
0.0
  0
ARC
  5
150
330
1F
100
AcDbEntity
  8
0
  6
Continuous
 62
     7
370
    25
100
AcDbCircle
 10
84.0394452466
 20
57.0524234828
 30
0.0
 40
3.0
100
AcDbArc
 50
0.0
 51
180.0
  0
LINE
  5
151
330
1F
100
AcDbEntity
  8
0
  6
Continuous
 62
     7
370
    25
100
AcDbLine
 10
87.0394452466
 20
54.8281000949
 30
0.0
 11
87.0394452466
 21
57.0524234828
 31
0.0
  0
ARC
  5
152
330
1F
100
AcDbEntity
  8
0
  6
Continuous
 62
     7
370
    25
100
AcDbCircle
 10
89.1394452466
 20
54.8281000949
 30
0.0
 40
2.100000000000009
100
AcDbArc
 50
180.0
 51
239.8369114176
  0
ARC
  5
153
330
1F
100
AcDbEntity
  8
0
  6
Continuous
 62
     7
370
    25
100
AcDbCircle
 10
94.1894041281
 20
46.081314736
 30
0.0
 40
2.099999999999996
100
AcDbArc
 50
180.1630885824
 51
240.0
  0
LINE
  5
154
330
1F
100
AcDbEntity
  8
0
  6
Continuous
 62
     7
370
    25
100
AcDbLine
 10
95.0657246882
 20
43.1504996941
 30
0.0
 11
93.1394041281
 21
44.2626613881
 31
0.0
  0
ARC
  5
155
330
1F
100
AcDbEntity
  8
0
  6
Continuous
 62
     7
370
    25
100
AcDbCircle
 10
93.5657246882
 20
40.5524234828
 30
0.0
 40
3.000000000000007
100
AcDbArc
 50
240.0
 51
60.0
  0
LINE
  5
156
330
1F
100
AcDbEntity
  8
0
  6
Continuous
 62
     7
370
    25
100
AcDbLine
 10
90.1394041281
 20
39.0665089654
 30
0.0
 11
92.0657246882
 21
37.9543472714
 31
0.0
  0
ARC
  5
157
330
1F
100
AcDbEntity
  8
0
  6
Continuous
 62
     7
370
    25
100
AcDbCircle
 10
89.0894041281
 20
37.2478556174
 30
0.0
 40
2.100000000000003
100
AcDbArc
 50
60.0
 51
118.5848154551
  0
ARC
  5
158
330
1F
100
AcDbEntity
  8
0
  6
Continuous
 62
     7
370
    25
100
AcDbCircle
 10
89.1894452466
 20
37.3059956405
 30
0.0
 40
2.100000000000009
100
AcDbArc
 50
121.742175085
 51
180.0
  0
ARC
  5
159
330
1F
100
AcDbEntity
  8
0
  6
Continuous
 62
     7
370
    25
100
AcDbCircle
 10
87.7894452466
 20
34.4542934552
 30
0.0
 40
1.050000000000005
100
AcDbArc
 50
131.8103148958
 51
228.1896851042
  0
ARC
  5
15A
330
1F
100
AcDbEntity
  8
0
  6
Continuous
 62
     7
370
    25
100
AcDbCircle
 10
86.0894452466
 20
39.3070547012
 30
0.0
 40
1.0
100
AcDbArc
 50
106.9046677439
 51
180.0
  0
ARC
  5
15B
330
1F
100
AcDbEntity
  8
0
  6
Continuous
 62
     7
370
    25
100
AcDbCircle
 10
81.9894452466
 20
39.3070547012
 30
0.0
 40
1.0
100
AcDbArc
 50
0.0
 51
73.0953322561
  0
ARC
  5
15C
330
1F
100
AcDbEntity
  8
0
  6
Continuous
 62
     7
370
    25
100
AcDbCircle
 10
80.2894452466
 20
34.4542934552
 30
0.0
 40
1.050000000000005
100
AcDbArc
 50
311.8103148958
 51
48.1896851042
  0
LINE
  5
15D
330
1F
100
AcDbEntity
  8
0
  6
Continuous
 62
     7
370
    25
100
AcDbLine
 10
82.9894452466
 20
31.6025912699
 30
0.0
 11
82.9894452466
 21
39.3070547012
 31
0.0
  0
LINE
  5
15E
330
1F
100
AcDbEntity
  8
0
  6
Continuous
 62
     7
370
    25
100
AcDbLine
 10
80.9894452466
 20
31.6025912699
 30
0.0
 11
82.9894452466
 21
31.6025912699
 31
0.0
  0
LINE
  5
15F
330
1F
100
AcDbEntity
  8
0
  6
Continuous
 62
     7
370
    25
100
AcDbLine
 10
80.9894452466
 20
33.6716696631
 30
0.0
 11
80.9894452466
 21
31.6025912699
 31
0.0
  0
LINE
  5
160
330
1F
100
AcDbEntity
  8
0
  6
Continuous
 62
     7
370
    25
100
AcDbLine
 10
87.0894452466
 20
35.2369172473
 30
0.0
 11
87.0894452466
 21
37.3059956405
 31
0.0
  0
LINE
  5
161
330
1F
100
AcDbEntity
  8
0
  6
Continuous
 62
     7
370
    25
100
AcDbLine
 10
85.0894452466
 20
31.6025912699
 30
0.0
 11
87.0894452466
 21
31.6025912699
 31
0.0
  0
LINE
  5
162
330
1F
100
AcDbEntity
  8
0
  6
Continuous
 62
     7
370
    25
100
AcDbLine
 10
85.0894452466
 20
39.3070547012
 30
0.0
 11
85.0894452466
 21
31.6025912699
 31
0.0
  0
ARC
  5
163
330
1F
100
AcDbEntity
  8
0
  6
Continuous
 62
     7
370
    25
100
AcDbCircle
 10
84.0394452466
 20
46.0524234828
 30
0.0
 40
6.050000000000004
100
AcDbArc
 50
286.9046677439
 51
253.0953322561
  0
ARC
  5
164
330
1F
100
AcDbEntity
  8
0
  6
Continuous
 62
     7
370
    25
100
AcDbCircle
 10
84.0394452466
 20
46.0524234828
 30
0.0
 40
8.050000000000006
100
AcDbArc
 50
0.1630885824
 51
59.8369114176
  0
ARC
  5
165
330
1F
100
AcDbEntity
  8
0
  6
Continuous
 62
     7
370
    25
100
AcDbCircle
 10
84.0394452466
 20
46.0524234828
 30
0.0
 40
8.050000000000004
100
AcDbArc
 50
120.1630885824
 51
179.8369114176
  0
LINE
  5
166
330
1F
100
AcDbEntity
  8
0
  6
Continuous
 62
     7
370
    25
100
AcDbLine
 10
80.9894452466
 20
37.3059956405
 30
0.0
 11
80.9894452466
 21
35.2369172473
 31
0.0
  0
LINE
  5
167
330
1F
100
AcDbEntity
  8
0
  6
Continuous
 62
     7
370
    25
100
AcDbLine
 10
87.0894452466
 20
31.6025912699
 30
0.0
 11
87.0894452466
 21
33.6716696631
 31
0.0
  0
CIRCLE
  5
168
330
1F
100
AcDbEntity
  8
0
  6
Continuous
 62
     7
370
    25
100
AcDbCircle
 10
126.2632261138
 20
5.0632366955
 30
0.0
 40
1.549999999999997
  0
CIRCLE
  5
169
330
1F
100
AcDbEntity
  8
0
  6
Continuous
 62
     7
370
    25
100
AcDbCircle
 10
135.7895055555
 20
21.5632366955
 30
0.0
 40
1.549999999999983
  0
CIRCLE
  5
16A
330
1F
100
AcDbEntity
  8
0
  6
Continuous
 62
     7
370
    25
100
AcDbCircle
 10
116.7369466722
 20
21.5632366955
 30
0.0
 40
1.549999999999997
  0
ARC
  5
16B
330
1F
100
AcDbEntity
  8
0
  6
Continuous
 62
     7
370
    25
100
AcDbCircle
 10
131.4132261138
 20
24.8096645377
 30
0.0
 40
2.100000000000005
100
AcDbArc
 50
180.0
 51
238.257824915
  0
ARC
  5
16C
330
1F
100
AcDbEntity
  8
0
  6
Continuous
 62
     7
370
    25
100
AcDbCircle
 10
131.3131849953
 20
24.8678045608
 30
0.0
 40
2.100000000000003
100
AcDbArc
 50
241.4151845449
 51
300.0
  0
LINE
  5
16D
330
1F
100
AcDbEntity
  8
0
  6
Continuous
 62
     7
370
    25
100
AcDbLine
 10
134.2895055555
 20
24.1613129068
 30
0.0
 11
132.3631849953
 21
23.0491512129
 31
0.0
  0
ARC
  5
16E
330
1F
100
AcDbEntity
  8
0
  6
Continuous
 62
     7
370
    25
100
AcDbCircle
 10
135.7895055555
 20
21.5632366955
 30
0.0
 40
3.000000000000016
100
AcDbArc
 50
300.0
 51
120.0
  0
LINE
  5
16F
330
1F
100
AcDbEntity
  8
0
  6
Continuous
 62
     7
370
    25
100
AcDbLine
 10
135.3631849953
 20
17.8529987902
 30
0.0
 11
137.2895055555
 21
18.9651604841
 31
0.0
  0
ARC
  5
170
330
1F
100
AcDbEntity
  8
0
  6
Continuous
 62
     7
370
    25
100
AcDbCircle
 10
136.4131849953
 20
16.0343454422
 30
0.0
 40
2.099999999999997
100
AcDbArc
 50
120.0
 51
179.8369114176
  0
ARC
  5
171
330
1F
100
AcDbEntity
  8
0
  6
Continuous
 62
     7
370
    25
100
AcDbCircle
 10
131.3632261138
 20
7.2875600834
 30
0.0
 40
2.100000000000001
100
AcDbArc
 50
120.1630885824
 51
180.0
  0
LINE
  5
172
330
1F
100
AcDbEntity
  8
0
  6
Continuous
 62
     7
370
    25
100
AcDbLine
 10
129.2632261138
 20
5.0632366955
 30
0.0
 11
129.2632261138
 21
7.2875600834
 31
0.0
  0
ARC
  5
173
330
1F
100
AcDbEntity
  8
0
  6
Continuous
 62
     7
370
    25
100
AcDbCircle
 10
126.2632261138
 20
5.0632366955
 30
0.0
 40
3.000000000000014
100
AcDbArc
 50
180.0
 51
0.0
  0
LINE
  5
174
330
1F
100
AcDbEntity
  8
0
  6
Continuous
 62
     7
370
    25
100
AcDbLine
 10
123.2632261138
 20
7.2875600834
 30
0.0
 11
123.2632261138
 21
5.0632366955
 31
0.0
  0
ARC
  5
175
330
1F
100
AcDbEntity
  8
0
  6
Continuous
 62
     7
370
    25
100
AcDbCircle
 10
121.1632261138
 20
7.2875600834
 30
0.0
 40
2.100000000000009
100
AcDbArc
 50
360.0
 51
59.8369114176
  0
ARC
  5
176
330
1F
100
AcDbEntity
  8
0
  6
Continuous
 62
     7
370
    25
100
AcDbCircle
 10
116.1132672324
 20
16.0343454422
 30
0.0
 40
2.099999999999996
100
AcDbArc
 50
0.1630885824
 51
60.0
  0
LINE
  5
177
330
1F
100
AcDbEntity
  8
0
  6
Continuous
 62
     7
370
    25
100
AcDbLine
 10
115.2369466722
 20
18.9651604841
 30
0.0
 11
117.1632672324
 21
17.8529987902
 31
0.0
  0
ARC
  5
178
330
1F
100
AcDbEntity
  8
0
  6
Continuous
 62
     7
370
    25
100
AcDbCircle
 10
116.7369466722
 20
21.5632366955
 30
0.0
 40
3.000000000000004
100
AcDbArc
 50
60.0
 51
240.0
  0
LINE
  5
179
330
1F
100
AcDbEntity
  8
0
  6
Continuous
 62
     7
370
    25
100
AcDbLine
 10
120.1632672324
 20
23.0491512129
 30
0.0
 11
118.2369466722
 21
24.1613129068
 31
0.0
  0
ARC
  5
17A
330
1F
100
AcDbEntity
  8
0
  6
Continuous
 62
     7
370
    25
100
AcDbCircle
 10
121.2132672324
 20
24.8678045608
 30
0.0
 40
2.100000000000006
100
AcDbArc
 50
240.0
 51
298.5848154551
  0
ARC
  5
17B
330
1F
100
AcDbEntity
  8
0
  6
Continuous
 62
     7
370
    25
100
AcDbCircle
 10
121.1132261138
 20
24.8096645377
 30
0.0
 40
2.100000000000009
100
AcDbArc
 50
301.742175085
 51
0.0
  0
ARC
  5
17C
330
1F
100
AcDbEntity
  8
0
  6
Continuous
 62
     7
370
    25
100
AcDbCircle
 10
122.5132261138
 20
27.6613667231
 30
0.0
 40
1.050000000000005
100
AcDbArc
 50
311.8103148958
 51
48.1896851042
  0
ARC
  5
17D
330
1F
100
AcDbEntity
  8
0
  6
Continuous
 62
     7
370
    25
100
AcDbCircle
 10
124.2132261138
 20
22.8086054771
 30
0.0
 40
1.000000000000005
100
AcDbArc
 50
286.9046677439
 51
0.0
  0
ARC
  5
17E
330
1F
100
AcDbEntity
  8
0
  6
Continuous
 62
     7
370
    25
100
AcDbCircle
 10
128.3132261138
 20
22.8086054771
 30
0.0
 40
1.000000000000005
100
AcDbArc
 50
180.0
 51
253.0953322561
  0
ARC
  5
17F
330
1F
100
AcDbEntity
  8
0
  6
Continuous
 62
     7
370
    25
100
AcDbCircle
 10
130.0132261138
 20
27.6613667231
 30
0.0
 40
1.04999999999999
100
AcDbArc
 50
131.8103148958
 51
228.1896851042
  0
LINE
  5
180
330
1F
100
AcDbEntity
  8
0
  6
Continuous
 62
     7
370
    25
100
AcDbLine
 10
127.3132261138
 20
30.5130689084
 30
0.0
 11
127.3132261138
 21
22.8086054771
 31
0.0
  0
LINE
  5
181
330
1F
100
AcDbEntity
  8
0
  6
Continuous
 62
     7
370
    25
100
AcDbLine
 10
129.3132261138
 20
30.5130689084
 30
0.0
 11
127.3132261138
 21
30.5130689084
 31
0.0
  0
LINE
  5
182
330
1F
100
AcDbEntity
  8
0
  6
Continuous
 62
     7
370
    25
100
AcDbLine
 10
129.3132261138
 20
28.4439905152
 30
0.0
 11
129.3132261138
 21
30.5130689084
 31
0.0
  0
LINE
  5
183
330
1F
100
AcDbEntity
  8
0
  6
Continuous
 62
     7
370
    25
100
AcDbLine
 10
123.2132261138
 20
26.8787429309
 30
0.0
 11
123.2132261138
 21
24.8096645377
 31
0.0
  0
LINE
  5
184
330
1F
100
AcDbEntity
  8
0
  6
Continuous
 62
     7
370
    25
100
AcDbLine
 10
125.2132261138
 20
30.5130689084
 30
0.0
 11
123.2132261138
 21
30.5130689084
 31
0.0
  0
LINE
  5
185
330
1F
100
AcDbEntity
  8
0
  6
Continuous
 62
     7
370
    25
100
AcDbLine
 10
125.2132261138
 20
22.8086054771
 30
0.0
 11
125.2132261138
 21
30.5130689084
 31
0.0
  0
ARC
  5
186
330
1F
100
AcDbEntity
  8
0
  6
Continuous
 62
     7
370
    25
100
AcDbCircle
 10
126.2632261138
 20
16.0632366955
 30
0.0
 40
6.050000000000001
100
AcDbArc
 50
106.9046677439
 51
73.0953322561
  0
ARC
  5
187
330
1F
100
AcDbEntity
  8
0
  6
Continuous
 62
     7
370
    25
100
AcDbCircle
 10
126.2632261138
 20
16.0632366955
 30
0.0
 40
8.050000000000018
100
AcDbArc
 50
180.1630885824
 51
239.8369114176
  0
ARC
  5
188
330
1F
100
AcDbEntity
  8
0
  6
Continuous
 62
     7
370
    25
100
AcDbCircle
 10
126.2632261138
 20
16.0632366955
 30
0.0
 40
8.050000000000004
100
AcDbArc
 50
300.1630885824
 51
359.8369114176
  0
LINE
  5
189
330
1F
100
AcDbEntity
  8
0
  6
Continuous
 62
     7
370
    25
100
AcDbLine
 10
129.3132261138
 20
24.8096645377
 30
0.0
 11
129.3132261138
 21
26.8787429309
 31
0.0
  0
LINE
  5
18A
330
1F
100
AcDbEntity
  8
0
  6
Continuous
 62
     7
370
    25
100
AcDbLine
 10
123.2132261138
 20
30.5130689084
 30
0.0
 11
123.2132261138
 21
28.4439905152
 31
0.0
  0
CIRCLE
  5
18B
330
1F
100
AcDbEntity
  8
0
  6
Continuous
 62
     7
370
    25
100
AcDbCircle
 10
104.0684717204
 20
26.6875638541
 30
0.0
 40
1.549999999999997
  0
CIRCLE
  5
18C
330
1F
100
AcDbEntity
  8
0
  6
Continuous
 62
     7
370
    25
100
AcDbCircle
 10
94.5421922787
 20
10.1875638541
 30
0.0
 40
1.549999999999997
  0
CIRCLE
  5
18D
330
1F
100
AcDbEntity
  8
0
  6
Continuous
 62
     7
370
    25
100
AcDbCircle
 10
113.594751162
 20
10.1875638541
 30
0.0
 40
1.550000000000011
  0
ARC
  5
18E
330
1F
100
AcDbEntity
  8
0
  6
Continuous
 62
     7
370
    25
100
AcDbCircle
 10
98.9184717204
 20
6.9411360118
 30
0.0
 40
2.100000000000009
100
AcDbArc
 50
0.0
 51
58.257824915
  0
ARC
  5
18F
330
1F
100
AcDbEntity
  8
0
  6
Continuous
 62
     7
370
    25
100
AcDbCircle
 10
99.0185128389
 20
6.8829959887
 30
0.0
 40
2.100000000000003
100
AcDbArc
 50
61.4151845449
 51
120.0
  0
LINE
  5
190
330
1F
100
AcDbEntity
  8
0
  6
Continuous
 62
     7
370
    25
100
AcDbLine
 10
96.0421922787
 20
7.5894876427
 30
0.0
 11
97.9685128389
 21
8.7016493367
 31
0.0
  0
ARC
  5
191
330
1F
100
AcDbEntity
  8
0
  6
Continuous
 62
     7
370
    25
100
AcDbCircle
 10
94.5421922787
 20
10.1875638541
 30
0.0
 40
3.000000000000008
100
AcDbArc
 50
120.0
 51
300.0
  0
LINE
  5
192
330
1F
100
AcDbEntity
  8
0
  6
Continuous
 62
     7
370
    25
100
AcDbLine
 10
94.9685128389
 20
13.8978017594
 30
0.0
 11
93.0421922787
 21
12.7856400654
 31
0.0
  0
ARC
  5
193
330
1F
100
AcDbEntity
  8
0
  6
Continuous
 62
     7
370
    25
100
AcDbCircle
 10
93.9185128389
 20
15.7164551073
 30
0.0
 40
2.100000000000006
100
AcDbArc
 50
300.0
 51
359.8369114176
  0
ARC
  5
194
330
1F
100
AcDbEntity
  8
0
  6
Continuous
 62
     7
370
    25
100
AcDbCircle
 10
98.9684717204
 20
24.4632404661
 30
0.0
 40
2.1
100
AcDbArc
 50
300.1630885824
 51
360.0
  0
LINE
  5
195
330
1F
100
AcDbEntity
  8
0
  6
Continuous
 62
     7
370
    25
100
AcDbLine
 10
101.0684717204
 20
26.6875638541
 30
0.0
 11
101.0684717204
 21
24.4632404661
 31
0.0
  0
ARC
  5
196
330
1F
100
AcDbEntity
  8
0
  6
Continuous
 62
     7
370
    25
100
AcDbCircle
 10
104.0684717204
 20
26.6875638541
 30
0.0
 40
3.000000000000014
100
AcDbArc
 50
0.0
 51
180.0
  0
LINE
  5
197
330
1F
100
AcDbEntity
  8
0
  6
Continuous
 62
     7
370
    25
100
AcDbLine
 10
107.0684717204
 20
24.4632404661
 30
0.0
 11
107.0684717204
 21
26.6875638541
 31
0.0
  0
ARC
  5
198
330
1F
100
AcDbEntity
  8
0
  6
Continuous
 62
     7
370
    25
100
AcDbCircle
 10
109.1684717204
 20
24.4632404661
 30
0.0
 40
2.099999999999999
100
AcDbArc
 50
180.0
 51
239.8369114176
  0
ARC
  5
199
330
1F
100
AcDbEntity
  8
0
  6
Continuous
 62
     7
370
    25
100
AcDbCircle
 10
114.2184306018
 20
15.7164551073
 30
0.0
 40
2.100000000000006
100
AcDbArc
 50
180.1630885824
 51
240.0
  0
LINE
  5
19A
330
1F
100
AcDbEntity
  8
0
  6
Continuous
 62
     7
370
    25
100
AcDbLine
 10
115.094751162
 20
12.7856400654
 30
0.0
 11
113.1684306018
 21
13.8978017594
 31
0.0
  0
ARC
  5
19B
330
1F
100
AcDbEntity
  8
0
  6
Continuous
 62
     7
370
    25
100
AcDbCircle
 10
113.594751162
 20
10.1875638541
 30
0.0
 40
3.000000000000004
100
AcDbArc
 50
240.0
 51
60.0
  0
LINE
  5
19C
330
1F
100
AcDbEntity
  8
0
  6
Continuous
 62
     7
370
    25
100
AcDbLine
 10
110.1684306018
 20
8.7016493367
 30
0.0
 11
112.094751162
 21
7.5894876427
 31
0.0
  0
ARC
  5
19D
330
1F
100
AcDbEntity
  8
0
  6
Continuous
 62
     7
370
    25
100
AcDbCircle
 10
109.1184306018
 20
6.8829959887
 30
0.0
 40
2.099999999999999
100
AcDbArc
 50
60.0
 51
118.5848154551
  0
ARC
  5
19E
330
1F
100
AcDbEntity
  8
0
  6
Continuous
 62
     7
370
    25
100
AcDbCircle
 10
109.2184717204
 20
6.9411360118
 30
0.0
 40
2.100000000000002
100
AcDbArc
 50
121.742175085
 51
180.0
  0
ARC
  5
19F
330
1F
100
AcDbEntity
  8
0
  6
Continuous
 62
     7
370
    25
100
AcDbCircle
 10
107.8184717204
 20
4.0894338265
 30
0.0
 40
1.049999999999994
100
AcDbArc
 50
131.8103148958
 51
228.1896851042
  0
ARC
  5
1A0
330
1F
100
AcDbEntity
  8
0
  6
Continuous
 62
     7
370
    25
100
AcDbCircle
 10
106.1184717204
 20
8.9421950724
 30
0.0
 40
1.000000000000014
100
AcDbArc
 50
106.9046677439
 51
180.0
  0
ARC
  5
1A1
330
1F
100
AcDbEntity
  8
0
  6
Continuous
 62
     7
370
    25
100
AcDbCircle
 10
102.0184717204
 20
8.9421950724
 30
0.0
 40
1.000000000000005
100
AcDbArc
 50
0.0
 51
73.0953322561
  0
ARC
  5
1A2
330
1F
100
AcDbEntity
  8
0
  6
Continuous
 62
     7
370
    25
100
AcDbCircle
 10
100.3184717204
 20
4.0894338265
 30
0.0
 40
1.050000000000011
100
AcDbArc
 50
311.8103148958
 51
48.1896851042
  0
LINE
  5
1A3
330
1F
100
AcDbEntity
  8
0
  6
Continuous
 62
     7
370
    25
100
AcDbLine
 10
103.0184717204
 20
1.2377316412
 30
0.0
 11
103.0184717204
 21
8.9421950724
 31
0.0
  0
LINE
  5
1A4
330
1F
100
AcDbEntity
  8
0
  6
Continuous
 62
     7
370
    25
100
AcDbLine
 10
101.0184717204
 20
1.2377316412
 30
0.0
 11
103.0184717204
 21
1.2377316412
 31
0.0
  0
LINE
  5
1A5
330
1F
100
AcDbEntity
  8
0
  6
Continuous
 62
     7
370
    25
100
AcDbLine
 10
101.0184717204
 20
3.3068100344
 30
0.0
 11
101.0184717204
 21
1.2377316412
 31
0.0
  0
LINE
  5
1A6
330
1F
100
AcDbEntity
  8
0
  6
Continuous
 62
     7
370
    25
100
AcDbLine
 10
107.1184717204
 20
4.8720576186
 30
0.0
 11
107.1184717204
 21
6.9411360118
 31
0.0
  0
LINE
  5
1A7
330
1F
100
AcDbEntity
  8
0
  6
Continuous
 62
     7
370
    25
100
AcDbLine
 10
105.1184717204
 20
1.2377316412
 30
0.0
 11
107.1184717204
 21
1.2377316412
 31
0.0
  0
LINE
  5
1A8
330
1F
100
AcDbEntity
  8
0
  6
Continuous
 62
     7
370
    25
100
AcDbLine
 10
105.1184717204
 20
8.9421950724
 30
0.0
 11
105.1184717204
 21
1.2377316412
 31
0.0
  0
ARC
  5
1A9
330
1F
100
AcDbEntity
  8
0
  6
Continuous
 62
     7
370
    25
100
AcDbCircle
 10
104.0684717204
 20
15.6875638541
 30
0.0
 40
6.049999999999999
100
AcDbArc
 50
286.9046677439
 51
253.0953322561
  0
ARC
  5
1AA
330
1F
100
AcDbEntity
  8
0
  6
Continuous
 62
     7
370
    25
100
AcDbCircle
 10
104.0684717204
 20
15.6875638541
 30
0.0
 40
8.049999999999992
100
AcDbArc
 50
0.1630885824
 51
59.8369114176
  0
ARC
  5
1AB
330
1F
100
AcDbEntity
  8
0
  6
Continuous
 62
     7
370
    25
100
AcDbCircle
 10
104.0684717204
 20
15.6875638541
 30
0.0
 40
8.050000000000004
100
AcDbArc
 50
120.1630885824
 51
179.8369114176
  0
LINE
  5
1AC
330
1F
100
AcDbEntity
  8
0
  6
Continuous
 62
     7
370
    25
100
AcDbLine
 10
101.0184717204
 20
6.9411360118
 30
0.0
 11
101.0184717204
 21
4.8720576186
 31
0.0
  0
LINE
  5
1AD
330
1F
100
AcDbEntity
  8
0
  6
Continuous
 62
     7
370
    25
100
AcDbLine
 10
107.1184717204
 20
1.2377316412
 30
0.0
 11
107.1184717204
 21
3.3068100344
 31
0.0
  0
CIRCLE
  5
1AE
330
1F
100
AcDbEntity
  8
0
  6
Continuous
 62
     7
370
    25
100
AcDbCircle
 10
36.3415532824
 20
3.9998766408
 30
0.0
 40
1.549999999999997
  0
CIRCLE
  5
1AF
330
1F
100
AcDbEntity
  8
0
  6
Continuous
 62
     7
370
    25
100
AcDbCircle
 10
45.867832724
 20
20.4998766408
 30
0.0
 40
1.549999999999997
  0
CIRCLE
  5
1B0
330
1F
100
AcDbEntity
  8
0
  6
Continuous
 62
     7
370
    25
100
AcDbCircle
 10
26.8152738408
 20
20.4998766408
 30
0.0
 40
1.550000000000001
  0
ARC
  5
1B1
330
1F
100
AcDbEntity
  8
0
  6
Continuous
 62
     7
370
    25
100
AcDbCircle
 10
41.4915532824
 20
23.746304483
 30
0.0
 40
2.100000000000001
100
AcDbArc
 50
180.0
 51
238.257824915
  0
ARC
  5
1B2
330
1F
100
AcDbEntity
  8
0
  6
Continuous
 62
     7
370
    25
100
AcDbCircle
 10
41.3915121639
 20
23.8044445061
 30
0.0
 40
2.100000000000005
100
AcDbArc
 50
241.4151845449
 51
300.0
  0
LINE
  5
1B3
330
1F
100
AcDbEntity
  8
0
  6
Continuous
 62
     7
370
    25
100
AcDbLine
 10
44.367832724
 20
23.0979528521
 30
0.0
 11
42.4415121639
 21
21.9857911582
 31
0.0
  0
ARC
  5
1B4
330
1F
100
AcDbEntity
  8
0
  6
Continuous
 62
     7
370
    25
100
AcDbCircle
 10
45.867832724
 20
20.4998766408
 30
0.0
 40
3.000000000000005
100
AcDbArc
 50
300.0
 51
120.0
  0
LINE
  5
1B5
330
1F
100
AcDbEntity
  8
0
  6
Continuous
 62
     7
370
    25
100
AcDbLine
 10
45.4415121639
 20
16.7896387355
 30
0.0
 11
47.367832724
 21
17.9018004294
 31
0.0
  0
ARC
  5
1B6
330
1F
100
AcDbEntity
  8
0
  6
Continuous
 62
     7
370
    25
100
AcDbCircle
 10
46.4915121639
 20
14.9709853875
 30
0.0
 40
2.099999999999999
100
AcDbArc
 50
120.0
 51
179.8369114176
  0
ARC
  5
1B7
330
1F
100
AcDbEntity
  8
0
  6
Continuous
 62
     7
370
    25
100
AcDbCircle
 10
41.4415532824
 20
6.2242000287
 30
0.0
 40
2.100000000000001
100
AcDbArc
 50
120.1630885824
 51
180.0
  0
LINE
  5
1B8
330
1F
100
AcDbEntity
  8
0
  6
Continuous
 62
     7
370
    25
100
AcDbLine
 10
39.3415532824
 20
3.9998766408
 30
0.0
 11
39.3415532824
 21
6.2242000287
 31
0.0
  0
ARC
  5
1B9
330
1F
100
AcDbEntity
  8
0
  6
Continuous
 62
     7
370
    25
100
AcDbCircle
 10
36.3415532824
 20
3.9998766408
 30
0.0
 40
3.000000000000007
100
AcDbArc
 50
180.0
 51
0.0
  0
LINE
  5
1BA
330
1F
100
AcDbEntity
  8
0
  6
Continuous
 62
     7
370
    25
100
AcDbLine
 10
33.3415532824
 20
6.2242000287
 30
0.0
 11
33.3415532824
 21
3.9998766408
 31
0.0
  0
ARC
  5
1BB
330
1F
100
AcDbEntity
  8
0
  6
Continuous
 62
     7
370
    25
100
AcDbCircle
 10
31.2415532824
 20
6.2242000287
 30
0.0
 40
2.100000000000005
100
AcDbArc
 50
360.0
 51
59.8369114176
  0
ARC
  5
1BC
330
1F
100
AcDbEntity
  8
0
  6
Continuous
 62
     7
370
    25
100
AcDbCircle
 10
26.1915944009
 20
14.9709853875
 30
0.0
 40
2.100000000000002
100
AcDbArc
 50
0.1630885824
 51
60.0
  0
LINE
  5
1BD
330
1F
100
AcDbEntity
  8
0
  6
Continuous
 62
     7
370
    25
100
AcDbLine
 10
25.3152738408
 20
17.9018004294
 30
0.0
 11
27.2415944009
 21
16.7896387355
 31
0.0
  0
ARC
  5
1BE
330
1F
100
AcDbEntity
  8
0
  6
Continuous
 62
     7
370
    25
100
AcDbCircle
 10
26.8152738408
 20
20.4998766408
 30
0.0
 40
3.000000000000009
100
AcDbArc
 50
60.0
 51
240.0
  0
LINE
  5
1BF
330
1F
100
AcDbEntity
  8
0
  6
Continuous
 62
     7
370
    25
100
AcDbLine
 10
30.2415944009
 20
21.9857911582
 30
0.0
 11
28.3152738408
 21
23.0979528521
 31
0.0
  0
ARC
  5
1C0
330
1F
100
AcDbEntity
  8
0
  6
Continuous
 62
     7
370
    25
100
AcDbCircle
 10
31.2915944009
 20
23.8044445061
 30
0.0
 40
2.100000000000004
100
AcDbArc
 50
240.0
 51
298.5848154551
  0
ARC
  5
1C1
330
1F
100
AcDbEntity
  8
0
  6
Continuous
 62
     7
370
    25
100
AcDbCircle
 10
31.1915532824
 20
23.746304483
 30
0.0
 40
2.100000000000005
100
AcDbArc
 50
301.742175085
 51
0.0
  0
ARC
  5
1C2
330
1F
100
AcDbEntity
  8
0
  6
Continuous
 62
     7
370
    25
100
AcDbCircle
 10
32.5915532824
 20
26.5980066683
 30
0.0
 40
1.050000000000005
100
AcDbArc
 50
311.8103148958
 51
48.1896851042
  0
ARC
  5
1C3
330
1F
100
AcDbEntity
  8
0
  6
Continuous
 62
     7
370
    25
100
AcDbCircle
 10
34.2915532824
 20
21.7452454224
 30
0.0
 40
1.0
100
AcDbArc
 50
286.9046677439
 51
0.0
  0
ARC
  5
1C4
330
1F
100
AcDbEntity
  8
0
  6
Continuous
 62
     7
370
    25
100
AcDbCircle
 10
38.3915532824
 20
21.7452454224
 30
0.0
 40
1.000000000000007
100
AcDbArc
 50
180.0
 51
253.0953322561
  0
ARC
  5
1C5
330
1F
100
AcDbEntity
  8
0
  6
Continuous
 62
     7
370
    25
100
AcDbCircle
 10
40.0915532824
 20
26.5980066683
 30
0.0
 40
1.049999999999997
100
AcDbArc
 50
131.8103148958
 51
228.1896851042
  0
LINE
  5
1C6
330
1F
100
AcDbEntity
  8
0
  6
Continuous
 62
     7
370
    25
100
AcDbLine
 10
37.3915532824
 20
29.4497088537
 30
0.0
 11
37.3915532824
 21
21.7452454224
 31
0.0
  0
LINE
  5
1C7
330
1F
100
AcDbEntity
  8
0
  6
Continuous
 62
     7
370
    25
100
AcDbLine
 10
39.3915532824
 20
29.4497088537
 30
0.0
 11
37.3915532824
 21
29.4497088537
 31
0.0
  0
LINE
  5
1C8
330
1F
100
AcDbEntity
  8
0
  6
Continuous
 62
     7
370
    25
100
AcDbLine
 10
39.3915532824
 20
27.3806304605
 30
0.0
 11
39.3915532824
 21
29.4497088537
 31
0.0
  0
LINE
  5
1C9
330
1F
100
AcDbEntity
  8
0
  6
Continuous
 62
     7
370
    25
100
AcDbLine
 10
33.2915532824
 20
25.8153828762
 30
0.0
 11
33.2915532824
 21
23.746304483
 31
0.0
  0
LINE
  5
1CA
330
1F
100
AcDbEntity
  8
0
  6
Continuous
 62
     7
370
    25
100
AcDbLine
 10
35.2915532824
 20
29.4497088537
 30
0.0
 11
33.2915532824
 21
29.4497088537
 31
0.0
  0
LINE
  5
1CB
330
1F
100
AcDbEntity
  8
0
  6
Continuous
 62
     7
370
    25
100
AcDbLine
 10
35.2915532824
 20
21.7452454224
 30
0.0
 11
35.2915532824
 21
29.4497088537
 31
0.0
  0
ARC
  5
1CC
330
1F
100
AcDbEntity
  8
0
  6
Continuous
 62
     7
370
    25
100
AcDbCircle
 10
36.3415532824
 20
14.9998766408
 30
0.0
 40
6.050000000000002
100
AcDbArc
 50
106.9046677439
 51
73.0953322561
  0
ARC
  5
1CD
330
1F
100
AcDbEntity
  8
0
  6
Continuous
 62
     7
370
    25
100
AcDbCircle
 10
36.3415532824
 20
14.9998766408
 30
0.0
 40
8.049999999999999
100
AcDbArc
 50
180.1630885824
 51
239.8369114176
  0
ARC
  5
1CE
330
1F
100
AcDbEntity
  8
0
  6
Continuous
 62
     7
370
    25
100
AcDbCircle
 10
36.3415532824
 20
14.9998766408
 30
0.0
 40
8.049999999999997
100
AcDbArc
 50
300.1630885824
 51
359.8369114176
  0
LINE
  5
1CF
330
1F
100
AcDbEntity
  8
0
  6
Continuous
 62
     7
370
    25
100
AcDbLine
 10
39.3915532824
 20
23.746304483
 30
0.0
 11
39.3915532824
 21
25.8153828762
 31
0.0
  0
LINE
  5
1D0
330
1F
100
AcDbEntity
  8
0
  6
Continuous
 62
     7
370
    25
100
AcDbLine
 10
33.2915532824
 20
29.4497088537
 30
0.0
 11
33.2915532824
 21
27.3806304605
 31
0.0
  0
CIRCLE
  5
1D1
330
1F
100
AcDbEntity
  8
0
  6
Continuous
 62
     7
370
    25
100
AcDbCircle
 10
129.0455565148
 20
57.4238196771
 30
0.0
 40
1.549999999999997
  0
CIRCLE
  5
1D2
330
1F
100
AcDbEntity
  8
0
  6
Continuous
 62
     7
370
    25
100
AcDbCircle
 10
119.5192770732
 20
40.9238196771
 30
0.0
 40
1.549999999999997
  0
CIRCLE
  5
1D3
330
1F
100
AcDbEntity
  8
0
  6
Continuous
 62
     7
370
    25
100
AcDbCircle
 10
138.5718359564
 20
40.9238196771
 30
0.0
 40
1.550000000000011
  0
ARC
  5
1D4
330
1F
100
AcDbEntity
  8
0
  6
Continuous
 62
     7
370
    25
100
AcDbCircle
 10
123.8955565148
 20
37.6773918349
 30
0.0
 40
2.100000000000002
100
AcDbArc
 50
0.0
 51
58.257824915
  0
ARC
  5
1D5
330
1F
100
AcDbEntity
  8
0
  6
Continuous
 62
     7
370
    25
100
AcDbCircle
 10
123.9955976333
 20
37.6192518118
 30
0.0
 40
2.100000000000012
100
AcDbArc
 50
61.4151845449
 51
120.0
  0
LINE
  5
1D6
330
1F
100
AcDbEntity
  8
0
  6
Continuous
 62
     7
370
    25
100
AcDbLine
 10
121.0192770732
 20
38.3257434658
 30
0.0
 11
122.9455976333
 21
39.4379051597
 31
0.0
  0
ARC
  5
1D7
330
1F
100
AcDbEntity
  8
0
  6
Continuous
 62
     7
370
    25
100
AcDbCircle
 10
119.5192770732
 20
40.9238196771
 30
0.0
 40
2.999999999999998
100
AcDbArc
 50
120.0
 51
300.0
  0
LINE
  5
1D8
330
1F
100
AcDbEntity
  8
0
  6
Continuous
 62
     7
370
    25
100
AcDbLine
 10
119.9455976333
 20
44.6340575824
 30
0.0
 11
118.0192770732
 21
43.5218958885
 31
0.0
  0
ARC
  5
1D9
330
1F
100
AcDbEntity
  8
0
  6
Continuous
 62
     7
370
    25
100
AcDbCircle
 10
118.8955976333
 20
46.4527109304
 30
0.0
 40
2.100000000000006
100
AcDbArc
 50
300.0
 51
359.8369114176
  0
ARC
  5
1DA
330
1F
100
AcDbEntity
  8
0
  6
Continuous
 62
     7
370
    25
100
AcDbCircle
 10
123.9455565148
 20
55.1994962892
 30
0.0
 40
2.100000000000002
100
AcDbArc
 50
300.1630885824
 51
360.0
  0
LINE
  5
1DB
330
1F
100
AcDbEntity
  8
0
  6
Continuous
 62
     7
370
    25
100
AcDbLine
 10
126.0455565148
 20
57.4238196771
 30
0.0
 11
126.0455565148
 21
55.1994962892
 31
0.0
  0
ARC
  5
1DC
330
1F
100
AcDbEntity
  8
0
  6
Continuous
 62
     7
370
    25
100
AcDbCircle
 10
129.0455565148
 20
57.4238196771
 30
0.0
 40
3.000000000000014
100
AcDbArc
 50
0.0
 51
180.0
  0
LINE
  5
1DD
330
1F
100
AcDbEntity
  8
0
  6
Continuous
 62
     7
370
    25
100
AcDbLine
 10
132.0455565148
 20
55.1994962892
 30
0.0
 11
132.0455565148
 21
57.4238196771
 31
0.0
  0
ARC
  5
1DE
330
1F
100
AcDbEntity
  8
0
  6
Continuous
 62
     7
370
    25
100
AcDbCircle
 10
134.1455565148
 20
55.1994962892
 30
0.0
 40
2.099999999999999
100
AcDbArc
 50
180.0
 51
239.8369114176
  0
ARC
  5
1DF
330
1F
100
AcDbEntity
  8
0
  6
Continuous
 62
     7
370
    25
100
AcDbCircle
 10
139.1955153963
 20
46.4527109304
 30
0.0
 40
2.099999999999989
100
AcDbArc
 50
180.1630885824
 51
240.0
  0
LINE
  5
1E0
330
1F
100
AcDbEntity
  8
0
  6
Continuous
 62
     7
370
    25
100
AcDbLine
 10
140.0718359564
 20
43.5218958885
 30
0.0
 11
138.1455153963
 21
44.6340575824
 31
0.0
  0
ARC
  5
1E1
330
1F
100
AcDbEntity
  8
0
  6
Continuous
 62
     7
370
    25
100
AcDbCircle
 10
138.5718359564
 20
40.9238196771
 30
0.0
 40
3.000000000000014
100
AcDbArc
 50
240.0
 51
60.0
  0
LINE
  5
1E2
330
1F
100
AcDbEntity
  8
0
  6
Continuous
 62
     7
370
    25
100
AcDbLine
 10
135.1455153963
 20
39.4379051597
 30
0.0
 11
137.0718359564
 21
38.3257434658
 31
0.0
  0
ARC
  5
1E3
330
1F
100
AcDbEntity
  8
0
  6
Continuous
 62
     7
370
    25
100
AcDbCircle
 10
134.0955153963
 20
37.6192518118
 30
0.0
 40
2.100000000000012
100
AcDbArc
 50
60.0
 51
118.5848154551
  0
ARC
  5
1E4
330
1F
100
AcDbEntity
  8
0
  6
Continuous
 62
     7
370
    25
100
AcDbCircle
 10
134.1955565148
 20
37.6773918349
 30
0.0
 40
2.100000000000023
100
AcDbArc
 50
121.742175085
 51
180.0
  0
ARC
  5
1E5
330
1F
100
AcDbEntity
  8
0
  6
Continuous
 62
     7
370
    25
100
AcDbCircle
 10
132.7955565148
 20
34.8256896495
 30
0.0
 40
1.050000000000019
100
AcDbArc
 50
131.8103148958
 51
228.1896851042
  0
ARC
  5
1E6
330
1F
100
AcDbEntity
  8
0
  6
Continuous
 62
     7
370
    25
100
AcDbCircle
 10
131.0955565148
 20
39.6784508955
 30
0.0
 40
1.0
100
AcDbArc
 50
106.9046677439
 51
180.0
  0
ARC
  5
1E7
330
1F
100
AcDbEntity
  8
0
  6
Continuous
 62
     7
370
    25
100
AcDbCircle
 10
126.9955565148
 20
39.6784508955
 30
0.0
 40
1.0
100
AcDbArc
 50
0.0
 51
73.0953322561
  0
ARC
  5
1E8
330
1F
100
AcDbEntity
  8
0
  6
Continuous
 62
     7
370
    25
100
AcDbCircle
 10
125.2955565148
 20
34.8256896495
 30
0.0
 40
1.049999999999986
100
AcDbArc
 50
311.8103148958
 51
48.1896851042
  0
LINE
  5
1E9
330
1F
100
AcDbEntity
  8
0
  6
Continuous
 62
     7
370
    25
100
AcDbLine
 10
127.9955565148
 20
31.9739874642
 30
0.0
 11
127.9955565148
 21
39.6784508955
 31
0.0
  0
LINE
  5
1EA
330
1F
100
AcDbEntity
  8
0
  6
Continuous
 62
     7
370
    25
100
AcDbLine
 10
125.9955565148
 20
31.9739874642
 30
0.0
 11
127.9955565148
 21
31.9739874642
 31
0.0
  0
LINE
  5
1EB
330
1F
100
AcDbEntity
  8
0
  6
Continuous
 62
     7
370
    25
100
AcDbLine
 10
125.9955565148
 20
34.0430658574
 30
0.0
 11
125.9955565148
 21
31.9739874642
 31
0.0
  0
LINE
  5
1EC
330
1F
100
AcDbEntity
  8
0
  6
Continuous
 62
     7
370
    25
100
AcDbLine
 10
132.0955565148
 20
35.6083134417
 30
0.0
 11
132.0955565148
 21
37.6773918349
 31
0.0
  0
LINE
  5
1ED
330
1F
100
AcDbEntity
  8
0
  6
Continuous
 62
     7
370
    25
100
AcDbLine
 10
130.0955565148
 20
31.9739874642
 30
0.0
 11
132.0955565148
 21
31.9739874642
 31
0.0
  0
LINE
  5
1EE
330
1F
100
AcDbEntity
  8
0
  6
Continuous
 62
     7
370
    25
100
AcDbLine
 10
130.0955565148
 20
39.6784508955
 30
0.0
 11
130.0955565148
 21
31.9739874642
 31
0.0
  0
ARC
  5
1EF
330
1F
100
AcDbEntity
  8
0
  6
Continuous
 62
     7
370
    25
100
AcDbCircle
 10
129.0455565148
 20
46.4238196771
 30
0.0
 40
6.050000000000005
100
AcDbArc
 50
286.9046677439
 51
253.0953322561
  0
ARC
  5
1F0
330
1F
100
AcDbEntity
  8
0
  6
Continuous
 62
     7
370
    25
100
AcDbCircle
 10
129.0455565148
 20
46.4238196771
 30
0.0
 40
8.050000000000018
100
AcDbArc
 50
0.1630885824
 51
59.8369114176
  0
ARC
  5
1F1
330
1F
100
AcDbEntity
  8
0
  6
Continuous
 62
     7
370
    25
100
AcDbCircle
 10
129.0455565148
 20
46.4238196771
 30
0.0
 40
8.049999999999997
100
AcDbArc
 50
120.1630885824
 51
179.8369114176
  0
LINE
  5
1F2
330
1F
100
AcDbEntity
  8
0
  6
Continuous
 62
     7
370
    25
100
AcDbLine
 10
125.9955565148
 20
37.6773918349
 30
0.0
 11
125.9955565148
 21
35.6083134417
 31
0.0
  0
LINE
  5
1F3
330
1F
100
AcDbEntity
  8
0
  6
Continuous
 62
     7
370
    25
100
AcDbLine
 10
132.0955565148
 20
31.9739874642
 30
0.0
 11
132.0955565148
 21
34.0430658574
 31
0.0
  0
CIRCLE
  5
1F4
330
1F
100
AcDbEntity
  8
0
  6
Continuous
 62
     7
370
    25
100
AcDbCircle
 10
106.5636816184
 20
35.4793507102
 30
0.0
 40
1.549999999999997
  0
CIRCLE
  5
1F5
330
1F
100
AcDbEntity
  8
0
  6
Continuous
 62
     7
370
    25
100
AcDbCircle
 10
116.08996106
 20
51.9793507102
 30
0.0
 40
1.549999999999997
  0
CIRCLE
  5
1F6
330
1F
100
AcDbEntity
  8
0
  6
Continuous
 62
     7
370
    25
100
AcDbCircle
 10
97.0374021768
 20
51.9793507102
 30
0.0
 40
1.549999999999997
  0
ARC
  5
1F7
330
1F
100
AcDbEntity
  8
0
  6
Continuous
 62
     7
370
    25
100
AcDbCircle
 10
111.7136816184
 20
55.2257785524
 30
0.0
 40
2.100000000000001
100
AcDbArc
 50
180.0
 51
238.257824915
  0
ARC
  5
1F8
330
1F
100
AcDbEntity
  8
0
  6
Continuous
 62
     7
370
    25
100
AcDbCircle
 10
111.6136404999
 20
55.2839185755
 30
0.0
 40
2.100000000000001
100
AcDbArc
 50
241.4151845449
 51
300.0
  0
LINE
  5
1F9
330
1F
100
AcDbEntity
  8
0
  6
Continuous
 62
     7
370
    25
100
AcDbLine
 10
114.58996106
 20
54.5774269215
 30
0.0
 11
112.6636404999
 21
53.4652652275
 31
0.0
  0
ARC
  5
1FA
330
1F
100
AcDbEntity
  8
0
  6
Continuous
 62
     7
370
    25
100
AcDbCircle
 10
116.08996106
 20
51.9793507102
 30
0.0
 40
3.000000000000005
100
AcDbArc
 50
300.0
 51
120.0
  0
LINE
  5
1FB
330
1F
100
AcDbEntity
  8
0
  6
Continuous
 62
     7
370
    25
100
AcDbLine
 10
115.6636404999
 20
48.2691128048
 30
0.0
 11
117.58996106
 21
49.3812744988
 31
0.0
  0
ARC
  5
1FC
330
1F
100
AcDbEntity
  8
0
  6
Continuous
 62
     7
370
    25
100
AcDbCircle
 10
116.7136404999
 20
46.4504594569
 30
0.0
 40
2.100000000000007
100
AcDbArc
 50
120.0
 51
179.8369114176
  0
ARC
  5
1FD
330
1F
100
AcDbEntity
  8
0
  6
Continuous
 62
     7
370
    25
100
AcDbCircle
 10
111.6636816184
 20
37.7036740981
 30
0.0
 40
2.100000000000009
100
AcDbArc
 50
120.1630885824
 51
180.0
  0
LINE
  5
1FE
330
1F
100
AcDbEntity
  8
0
  6
Continuous
 62
     7
370
    25
100
AcDbLine
 10
109.5636816184
 20
35.4793507102
 30
0.0
 11
109.5636816184
 21
37.7036740981
 31
0.0
  0
ARC
  5
1FF
330
1F
100
AcDbEntity
  8
0
  6
Continuous
 62
     7
370
    25
100
AcDbCircle
 10
106.5636816184
 20
35.4793507102
 30
0.0
 40
3.0
100
AcDbArc
 50
180.0
 51
0.0
  0
LINE
  5
200
330
1F
100
AcDbEntity
  8
0
  6
Continuous
 62
     7
370
    25
100
AcDbLine
 10
103.5636816184
 20
37.7036740981
 30
0.0
 11
103.5636816184
 21
35.4793507102
 31
0.0
  0
ARC
  5
201
330
1F
100
AcDbEntity
  8
0
  6
Continuous
 62
     7
370
    25
100
AcDbCircle
 10
101.4636816184
 20
37.7036740981
 30
0.0
 40
2.100000000000009
100
AcDbArc
 50
360.0
 51
59.8369114176
  0
ARC
  5
202
330
1F
100
AcDbEntity
  8
0
  6
Continuous
 62
     7
370
    25
100
AcDbCircle
 10
96.4137227369
 20
46.4504594569
 30
0.0
 40
2.099999999999992
100
AcDbArc
 50
0.1630885824
 51
60.0
  0
LINE
  5
203
330
1F
100
AcDbEntity
  8
0
  6
Continuous
 62
     7
370
    25
100
AcDbLine
 10
95.5374021768
 20
49.3812744988
 30
0.0
 11
97.4637227369
 21
48.2691128048
 31
0.0
  0
ARC
  5
204
330
1F
100
AcDbEntity
  8
0
  6
Continuous
 62
     7
370
    25
100
AcDbCircle
 10
97.0374021768
 20
51.9793507102
 30
0.0
 40
3.000000000000007
100
AcDbArc
 50
60.0
 51
240.0
  0
LINE
  5
205
330
1F
100
AcDbEntity
  8
0
  6
Continuous
 62
     7
370
    25
100
AcDbLine
 10
100.4637227369
 20
53.4652652275
 30
0.0
 11
98.5374021768
 21
54.5774269215
 31
0.0
  0
ARC
  5
206
330
1F
100
AcDbEntity
  8
0
  6
Continuous
 62
     7
370
    25
100
AcDbCircle
 10
101.5137227369
 20
55.2839185755
 30
0.0
 40
2.099999999999997
100
AcDbArc
 50
240.0
 51
298.5848154551
  0
ARC
  5
207
330
1F
100
AcDbEntity
  8
0
  6
Continuous
 62
     7
370
    25
100
AcDbCircle
 10
101.4136816184
 20
55.2257785524
 30
0.0
 40
2.100000000000009
100
AcDbArc
 50
301.742175085
 51
0.0
  0
ARC
  5
208
330
1F
100
AcDbEntity
  8
0
  6
Continuous
 62
     7
370
    25
100
AcDbCircle
 10
102.8136816184
 20
58.0774807377
 30
0.0
 40
1.050000000000014
100
AcDbArc
 50
311.8103148958
 51
48.1896851042
  0
ARC
  5
209
330
1F
100
AcDbEntity
  8
0
  6
Continuous
 62
     7
370
    25
100
AcDbCircle
 10
104.5136816184
 20
53.2247194918
 30
0.0
 40
1.000000000000004
100
AcDbArc
 50
286.9046677439
 51
0.0
  0
ARC
  5
20A
330
1F
100
AcDbEntity
  8
0
  6
Continuous
 62
     7
370
    25
100
AcDbCircle
 10
108.6136816184
 20
53.2247194918
 30
0.0
 40
1.000000000000008
100
AcDbArc
 50
180.0
 51
253.0953322561
  0
ARC
  5
20B
330
1F
100
AcDbEntity
  8
0
  6
Continuous
 62
     7
370
    25
100
AcDbCircle
 10
110.3136816184
 20
58.0774807377
 30
0.0
 40
1.049999999999999
100
AcDbArc
 50
131.8103148958
 51
228.1896851042
  0
LINE
  5
20C
330
1F
100
AcDbEntity
  8
0
  6
Continuous
 62
     7
370
    25
100
AcDbLine
 10
107.6136816184
 20
60.929182923
 30
0.0
 11
107.6136816184
 21
53.2247194918
 31
0.0
  0
LINE
  5
20D
330
1F
100
AcDbEntity
  8
0
  6
Continuous
 62
     7
370
    25
100
AcDbLine
 10
109.6136816184
 20
60.929182923
 30
0.0
 11
107.6136816184
 21
60.929182923
 31
0.0
  0
LINE
  5
20E
330
1F
100
AcDbEntity
  8
0
  6
Continuous
 62
     7
370
    25
100
AcDbLine
 10
109.6136816184
 20
58.8601045298
 30
0.0
 11
109.6136816184
 21
60.929182923
 31
0.0
  0
LINE
  5
20F
330
1F
100
AcDbEntity
  8
0
  6
Continuous
 62
     7
370
    25
100
AcDbLine
 10
103.5136816184
 20
57.2948569456
 30
0.0
 11
103.5136816184
 21
55.2257785524
 31
0.0
  0
LINE
  5
210
330
1F
100
AcDbEntity
  8
0
  6
Continuous
 62
     7
370
    25
100
AcDbLine
 10
105.5136816184
 20
60.929182923
 30
0.0
 11
103.5136816184
 21
60.929182923
 31
0.0
  0
LINE
  5
211
330
1F
100
AcDbEntity
  8
0
  6
Continuous
 62
     7
370
    25
100
AcDbLine
 10
105.5136816184
 20
53.2247194918
 30
0.0
 11
105.5136816184
 21
60.929182923
 31
0.0
  0
ARC
  5
212
330
1F
100
AcDbEntity
  8
0
  6
Continuous
 62
     7
370
    25
100
AcDbCircle
 10
106.5636816184
 20
46.4793507102
 30
0.0
 40
6.050000000000004
100
AcDbArc
 50
106.9046677439
 51
73.0953322561
  0
ARC
  5
213
330
1F
100
AcDbEntity
  8
0
  6
Continuous
 62
     7
370
    25
100
AcDbCircle
 10
106.5636816184
 20
46.4793507102
 30
0.0
 40
8.050000000000004
100
AcDbArc
 50
180.1630885824
 51
239.8369114176
  0
ARC
  5
214
330
1F
100
AcDbEntity
  8
0
  6
Continuous
 62
     7
370
    25
100
AcDbCircle
 10
106.5636816184
 20
46.4793507102
 30
0.0
 40
8.050000000000004
100
AcDbArc
 50
300.1630885824
 51
359.8369114176
  0
LINE
  5
215
330
1F
100
AcDbEntity
  8
0
  6
Continuous
 62
     7
370
    25
100
AcDbLine
 10
109.6136816184
 20
55.2257785524
 30
0.0
 11
109.6136816184
 21
57.2948569456
 31
0.0
  0
LINE
  5
216
330
1F
100
AcDbEntity
  8
0
  6
Continuous
 62
     7
370
    25
100
AcDbLine
 10
103.5136816184
 20
60.929182923
 30
0.0
 11
103.5136816184
 21
58.8601045298
 31
0.0
  0
ARC
  5
217
330
1F
100
AcDbEntity
  8
0
  6
Continuous
 62
     7
370
    25
100
AcDbCircle
 10
116.802245282
 20
116.5961858094
 30
0.0
 40
0.999999999999998
100
AcDbArc
 50
135.0
 51
225.0
  0
LINE
  5
218
330
1F
100
AcDbEntity
  8
0
  6
Continuous
 62
     7
370
    25
100
AcDbLine
 10
116.0951385008
 20
115.8890790282
 30
0.0
 11
120.7519927503
 21
111.2322247787
 31
0.0
  0
ARC
  5
219
330
1F
100
AcDbEntity
  8
0
  6
Continuous
 62
     7
370
    25
100
AcDbCircle
 10
120.0448859691
 20
110.5251179975
 30
0.0
 40
0.9999999999999879
100
AcDbArc
 50
0.0
 51
45.0
  0
LINE
  5
21A
330
1F
100
AcDbEntity
  8
0
  6
Continuous
 62
     7
370
    25
100
AcDbLine
 10
121.0448859691
 20
109.1458477633
 30
0.0
 11
121.0448859691
 21
110.5251179975
 31
0.0
  0
ARC
  5
21B
330
1F
100
AcDbEntity
  8
0
  6
Continuous
 62
     7
370
    25
100
AcDbCircle
 10
131.0448859691
 20
109.1458477633
 30
0.0
 40
10.00000000000002
100
AcDbArc
 50
180.0
 51
225.0
  0
LINE
  5
21C
330
1F
100
AcDbEntity
  8
0
  6
Continuous
 62
     7
370
    25
100
AcDbLine
 10
125.1870215928
 20
100.8615765159
 30
0.0
 11
123.9738181572
 21
102.0747799515
 31
0.0
  0
ARC
  5
21D
330
1F
100
AcDbEntity
  8
0
  6
Continuous
 62
     7
370
    25
100
AcDbCircle
 10
132.2580894047
 20
107.9326443278
 30
0.0
 40
10.0
100
AcDbArc
 50
225.0
 51
270.0
  0
LINE
  5
21E
330
1F
100
AcDbEntity
  8
0
  6
Continuous
 62
     7
370
    25
100
AcDbLine
 10
133.6373596389
 20
97.9326443278
 30
0.0
 11
132.2580894047
 21
97.9326443278
 31
0.0
  0
ARC
  5
21F
330
1F
100
AcDbEntity
  8
0
  6
Continuous
 62
     7
370
    25
100
AcDbCircle
 10
133.6373596389
 20
96.9326443278
 30
0.0
 40
1.0
100
AcDbArc
 50
45.0
 51
90.0
  0
LINE
  5
220
330
1F
100
AcDbEntity
  8
0
  6
Continuous
 62
     7
370
    25
100
AcDbLine
 10
134.34446642
 20
97.6397511089
 30
0.0
 11
139.0013206695
 21
92.9828968594
 31
0.0
  0
ARC
  5
221
330
1F
100
AcDbEntity
  8
0
  6
Continuous
 62
     7
370
    25
100
AcDbCircle
 10
139.7084274507
 20
93.6900036406
 30
0.0
 40
0.999999999999998
100
AcDbArc
 50
225.0
 51
315.0
  0
LINE
  5
222
330
1F
100
AcDbEntity
  8
0
  6
Continuous
 62
     7
370
    25
100
AcDbLine
 10
140.4155342319
 20
92.9828968594
 30
0.0
 11
144.5559219296
 21
97.1232845571
 31
0.0
  0
ARC
  5
223
330
1F
100
AcDbEntity
  8
0
  6
Continuous
 62
     7
370
    25
100
AcDbCircle
 10
145.2630287108
 20
96.4161777759
 30
0.0
 40
1.000000000000015
100
AcDbArc
 50
70.4954238969
 51
135.0
  0
ARC
  5
224
330
1F
100
AcDbEntity
  8
0
  6
Continuous
 62
     7
370
    25
100
AcDbCircle
 10
142.2580894047
 20
87.9326443278
 30
0.0
 40
9.999999999999996
100
AcDbArc
 50
45.0
 51
70.4954238969
  0
LINE
  5
225
330
1F
100
AcDbEntity
  8
0
  6
Continuous
 62
     7
370
    25
100
AcDbLine
 10
149.3291572166
 20
95.0037121396
 30
0.0
 11
151.4002250284
 21
92.9326443278
 31
0.0
  0
LINE
  5
226
330
1F
100
AcDbEntity
  8
0
  6
Continuous
 62
     7
370
    25
100
AcDbLine
 10
148.3696663694
 20
89.9020856687
 30
0.0
 11
151.4002250284
 21
92.9326443278
 31
0.0
  0
LINE
  5
227
330
1F
100
AcDbEntity
  8
0
  6
Continuous
 62
     7
370
    25
100
AcDbLine
 10
146.4002250284
 20
87.9326443278
 30
0.0
 11
147.3597158756
 21
88.8921351749
 31
0.0
  0
LINE
  5
228
330
1F
100
AcDbEntity
  8
0
  6
Continuous
 62
     7
370
    25
100
AcDbLine
 10
132.2580894047
 20
87.9326443278
 30
0.0
 11
146.4002250284
 21
87.9326443278
 31
0.0
  0
ARC
  5
229
330
1F
100
AcDbEntity
  8
0
  6
Continuous
 62
     7
370
    25
100
AcDbCircle
 10
132.2580894047
 20
77.9326443278
 30
0.0
 40
10.00000000000001
100
AcDbArc
 50
90.0
 51
135.0
  0
LINE
  5
22A
330
1F
100
AcDbEntity
  8
0
  6
Continuous
 62
     7
370
    25
100
AcDbLine
 10
123.9738181572
 20
83.790508704
 30
0.0
 11
125.1870215928
 21
85.0037121396
 31
0.0
  0
ARC
  5
22B
330
1F
100
AcDbEntity
  8
0
  6
Continuous
 62
     7
370
    25
100
AcDbCircle
 10
131.0448859691
 20
76.7194408922
 30
0.0
 40
10.00000000000001
100
AcDbArc
 50
135.0
 51
180.0
  0
LINE
  5
22C
330
1F
100
AcDbEntity
  8
0
  6
Continuous
 62
     7
370
    25
100
AcDbLine
 10
121.0448859691
 20
62.5773052684
 30
0.0
 11
121.0448859691
 21
76.7194408922
 31
0.0
  0
LINE
  5
22D
330
1F
100
AcDbEntity
  8
0
  6
Continuous
 62
     7
370
    25
100
AcDbLine
 10
120.0853951219
 20
61.6178144213
 30
0.0
 11
121.0448859691
 21
62.5773052684
 31
0.0
  0
LINE
  5
22E
330
1F
100
AcDbEntity
  8
0
  6
Continuous
 62
     7
370
    25
100
AcDbLine
 10
116.0448859691
 20
57.5773052684
 30
0.0
 11
119.0754446281
 21
60.6078639274
 31
0.0
  0
LINE
  5
22F
330
1F
100
AcDbEntity
  8
0
  6
Continuous
 62
     7
370
    25
100
AcDbLine
 10
116.0448859691
 20
57.5773052684
 30
0.0
 11
113.9738181572
 21
59.6483730803
 31
0.0
  0
ARC
  5
230
330
1F
100
AcDbEntity
  8
0
  6
Continuous
 62
     7
370
    25
100
AcDbCircle
 10
121.0448859691
 20
66.7194408922
 30
0.0
 40
10.0
100
AcDbArc
 50
199.5045761031
 51
225.0
  0
ARC
  5
231
330
1F
100
AcDbEntity
  8
0
  6
Continuous
 62
     7
370
    25
100
AcDbCircle
 10
112.5613525209
 20
63.7145015861
 30
0.0
 40
1.000000000000003
100
AcDbArc
 50
135.0
 51
199.5045761031
  0
LINE
  5
232
330
1F
100
AcDbEntity
  8
0
  6
Continuous
 62
     7
370
    25
100
AcDbLine
 10
111.8542457397
 20
64.4216083672
 30
0.0
 11
115.9946334374
 21
68.5619960649
 31
0.0
  0
ARC
  5
233
330
1F
100
AcDbEntity
  8
0
  6
Continuous
 62
     7
370
    25
100
AcDbCircle
 10
115.2875266562
 20
69.2691028461
 30
0.0
 40
1.000000000000018
100
AcDbArc
 50
315.0
 51
45.0
  0
LINE
  5
234
330
1F
100
AcDbEntity
  8
0
  6
Continuous
 62
     7
370
    25
100
AcDbLine
 10
115.9946334374
 20
69.9762096273
 30
0.0
 11
111.3377791879
 21
74.6330638768
 31
0.0
  0
ARC
  5
235
330
1F
100
AcDbEntity
  8
0
  6
Continuous
 62
     7
370
    25
100
AcDbCircle
 10
112.0448859691
 20
75.340170658
 30
0.0
 40
1.0
100
AcDbArc
 50
180.0
 51
225.0
  0
LINE
  5
236
330
1F
100
AcDbEntity
  8
0
  6
Continuous
 62
     7
370
    25
100
AcDbLine
 10
111.0448859691
 20
76.7194408922
 30
0.0
 11
111.0448859691
 21
75.340170658
 31
0.0
  0
ARC
  5
237
330
1F
100
AcDbEntity
  8
0
  6
Continuous
 62
     7
370
    25
100
AcDbCircle
 10
101.0448859691
 20
76.7194408922
 30
0.0
 40
10.0
100
AcDbArc
 50
0.0
 51
45.0
  0
LINE
  5
238
330
1F
100
AcDbEntity
  8
0
  6
Continuous
 62
     7
370
    25
100
AcDbLine
 10
106.9027503454
 20
85.0037121396
 30
0.0
 11
108.115953781
 21
83.790508704
 31
0.0
  0
ARC
  5
239
330
1F
100
AcDbEntity
  8
0
  6
Continuous
 62
     7
370
    25
100
AcDbCircle
 10
99.8316825335
 20
77.9326443278
 30
0.0
 40
10.0
100
AcDbArc
 50
45.0
 51
90.0
  0
LINE
  5
23A
330
1F
100
AcDbEntity
  8
0
  6
Continuous
 62
     7
370
    25
100
AcDbLine
 10
98.4524122993
 20
87.9326443278
 30
0.0
 11
99.8316825335
 21
87.9326443278
 31
0.0
  0
ARC
  5
23B
330
1F
100
AcDbEntity
  8
0
  6
Continuous
 62
     7
370
    25
100
AcDbCircle
 10
98.4524122993
 20
88.9326443278
 30
0.0
 40
1.000000000000014
100
AcDbArc
 50
225.0
 51
270.0
  0
LINE
  5
23C
330
1F
100
AcDbEntity
  8
0
  6
Continuous
 62
     7
370
    25
100
AcDbLine
 10
97.7453055181
 20
88.2255375466
 30
0.0
 11
93.0884512686
 21
92.8823917961
 31
0.0
  0
ARC
  5
23D
330
1F
100
AcDbEntity
  8
0
  6
Continuous
 62
     7
370
    25
100
AcDbCircle
 10
92.3813444875
 20
92.1752850149
 30
0.0
 40
0.999999999999998
100
AcDbArc
 50
45.0
 51
135.0
  0
LINE
  5
23E
330
1F
100
AcDbEntity
  8
0
  6
Continuous
 62
     7
370
    25
100
AcDbLine
 10
91.6742377063
 20
92.8823917961
 30
0.0
 11
87.5338500086
 21
88.7420040984
 31
0.0
  0
ARC
  5
23F
330
1F
100
AcDbEntity
  8
0
  6
Continuous
 62
     7
370
    25
100
AcDbCircle
 10
86.8267432274
 20
89.4491108796
 30
0.0
 40
1.000000000000008
100
AcDbArc
 50
250.4954238969
 51
315.0
  0
ARC
  5
240
330
1F
100
AcDbEntity
  8
0
  6
Continuous
 62
     7
370
    25
100
AcDbCircle
 10
89.8316825335
 20
97.9326443278
 30
0.0
 40
10.0
100
AcDbArc
 50
225.0
 51
250.4954238969
  0
LINE
  5
241
330
1F
100
AcDbEntity
  8
0
  6
Continuous
 62
     7
370
    25
100
AcDbLine
 10
82.7606147216
 20
90.8615765159
 30
0.0
 11
80.6895469098
 21
92.9326443278
 31
0.0
  0
LINE
  5
242
330
1F
100
AcDbEntity
  8
0
  6
Continuous
 62
     7
370
    25
100
AcDbLine
 10
83.7201055688
 20
95.9632029868
 30
0.0
 11
80.6895469098
 21
92.9326443278
 31
0.0
  0
LINE
  5
243
330
1F
100
AcDbEntity
  8
0
  6
Continuous
 62
     7
370
    25
100
AcDbLine
 10
85.6895469098
 20
97.9326443278
 30
0.0
 11
84.7300560626
 21
96.9731534806
 31
0.0
  0
LINE
  5
244
330
1F
100
AcDbEntity
  8
0
  6
Continuous
 62
     7
370
    25
100
AcDbLine
 10
99.8316825335
 20
97.9326443278
 30
0.0
 11
85.6895469098
 21
97.9326443278
 31
0.0
  0
ARC
  5
245
330
1F
100
AcDbEntity
  8
0
  6
Continuous
 62
     7
370
    25
100
AcDbCircle
 10
99.8316825335
 20
107.9326443278
 30
0.0
 40
10.0
100
AcDbArc
 50
270.0
 51
315.0
  0
LINE
  5
246
330
1F
100
AcDbEntity
  8
0
  6
Continuous
 62
     7
370
    25
100
AcDbLine
 10
108.115953781
 20
102.0747799515
 30
0.0
 11
106.9027503454
 21
100.8615765159
 31
0.0
  0
ARC
  5
247
330
1F
100
AcDbEntity
  8
0
  6
Continuous
 62
     7
370
    25
100
AcDbCircle
 10
101.0448859691
 20
109.1458477633
 30
0.0
 40
10.0
100
AcDbArc
 50
315.0
 51
0.0
  0
LINE
  5
248
330
1F
100
AcDbEntity
  8
0
  6
Continuous
 62
     7
370
    25
100
AcDbLine
 10
111.0448859691
 20
123.2879833871
 30
0.0
 11
111.0448859691
 21
109.1458477633
 31
0.0
  0
LINE
  5
249
330
1F
100
AcDbEntity
  8
0
  6
Continuous
 62
     7
370
    25
100
AcDbLine
 10
112.0043768162
 20
124.2474742342
 30
0.0
 11
111.0448859691
 21
123.2879833871
 31
0.0
  0
LINE
  5
24A
330
1F
100
AcDbEntity
  8
0
  6
Continuous
 62
     7
370
    25
100
AcDbLine
 10
116.0448859691
 20
128.2879833871
 30
0.0
 11
113.0143273101
 21
125.2574247281
 31
0.0
  0
LINE
  5
24B
330
1F
100
AcDbEntity
  8
0
  6
Continuous
 62
     7
370
    25
100
AcDbLine
 10
116.0448859691
 20
128.2879833871
 30
0.0
 11
118.115953781
 21
126.2169155752
 31
0.0
  0
ARC
  5
24C
330
1F
100
AcDbEntity
  8
0
  6
Continuous
 62
     7
370
    25
100
AcDbCircle
 10
111.0448859691
 20
119.1458477633
 30
0.0
 40
9.999999999999986
100
AcDbArc
 50
19.5045761031
 51
45.0
  0
ARC
  5
24D
330
1F
100
AcDbEntity
  8
0
  6
Continuous
 62
     7
370
    25
100
AcDbCircle
 10
119.5284194173
 20
122.1507870694
 30
0.0
 40
1.000000000000008
100
AcDbArc
 50
315.0
 51
19.5045761031
  0
LINE
  5
24E
330
1F
100
AcDbEntity
  8
0
  6
Continuous
 62
     7
370
    25
100
AcDbLine
 10
120.2355261985
 20
121.4436802883
 30
0.0
 11
116.0951385008
 21
117.3032925906
 31
0.0
  0
ARC
  5
24F
330
1F
100
AcDbEntity
  8
0
  6
Continuous
 62
     7
370
    25
100
AcDbCircle
 10
83.7301060689
 20
96.9631529805
 30
0.0
 40
1.000000000000013
100
AcDbArc
 50
269.4270040008
 51
0.5729959992
  0
ARC
  5
250
330
1F
100
AcDbEntity
  8
0
  6
Continuous
 62
     7
370
    25
100
AcDbCircle
 10
112.0143773163
 20
125.247424228
 30
0.0
 40
1.000000000000013
100
AcDbArc
 50
269.4270040008
 51
0.5729959992
  0
ARC
  5
251
330
1F
100
AcDbEntity
  8
0
  6
Continuous
 62
     7
370
    25
100
AcDbCircle
 10
148.3596658693
 20
88.902135675
 30
0.0
 40
1.000000000000027
100
AcDbArc
 50
89.4270040008
 51
180.5729959992
  0
ARC
  5
252
330
1F
100
AcDbEntity
  8
0
  6
Continuous
 62
     7
370
    25
100
AcDbCircle
 10
120.0753946219
 20
60.6178644275
 30
0.0
 40
1.000000000000013
100
AcDbArc
 50
89.4270040008
 51
180.5729959992
  0
ARC
  5
253
330
1F
100
AcDbEntity
  8
0
  6
Continuous
 62
     7
370
    25
100
AcDbCircle
 10
45.8044904547
 20
121.0736885867
 30
0.0
 40
1.000000000000003
100
AcDbArc
 50
135.0
 51
225.0
  0
LINE
  5
254
330
1F
100
AcDbEntity
  8
0
  6
Continuous
 62
     7
370
    25
100
AcDbLine
 10
45.0973836736
 20
120.3665818055
 30
0.0
 11
49.754237923
 21
115.709727556
 31
0.0
  0
ARC
  5
255
330
1F
100
AcDbEntity
  8
0
  6
Continuous
 62
     7
370
    25
100
AcDbCircle
 10
49.0471311419
 20
115.0026207748
 30
0.0
 40
1.000000000000008
100
AcDbArc
 50
0.0
 51
45.0
  0
LINE
  5
256
330
1F
100
AcDbEntity
  8
0
  6
Continuous
 62
     7
370
    25
100
AcDbLine
 10
50.0471311419
 20
113.6233505407
 30
0.0
 11
50.0471311419
 21
115.0026207748
 31
0.0
  0
ARC
  5
257
330
1F
100
AcDbEntity
  8
0
  6
Continuous
 62
     7
370
    25
100
AcDbCircle
 10
60.0471311419
 20
113.6233505407
 30
0.0
 40
9.999999999999996
100
AcDbArc
 50
180.0
 51
225.0
  0
LINE
  5
258
330
1F
100
AcDbEntity
  8
0
  6
Continuous
 62
     7
370
    25
100
AcDbLine
 10
54.1892667656
 20
105.3390792932
 30
0.0
 11
52.97606333
 21
106.5522827288
 31
0.0
  0
ARC
  5
259
330
1F
100
AcDbEntity
  8
0
  6
Continuous
 62
     7
370
    25
100
AcDbCircle
 10
61.2603345775
 20
112.4101471051
 30
0.0
 40
10.0
100
AcDbArc
 50
225.0
 51
270.0
  0
LINE
  5
25A
330
1F
100
AcDbEntity
  8
0
  6
Continuous
 62
     7
370
    25
100
AcDbLine
 10
62.6396048116
 20
102.4101471051
 30
0.0
 11
61.2603345775
 21
102.4101471051
 31
0.0
  0
ARC
  5
25B
330
1F
100
AcDbEntity
  8
0
  6
Continuous
 62
     7
370
    25
100
AcDbCircle
 10
62.6396048116
 20
101.4101471051
 30
0.0
 40
1.000000000000003
100
AcDbArc
 50
45.0
 51
90.0
  0
LINE
  5
25C
330
1F
100
AcDbEntity
  8
0
  6
Continuous
 62
     7
370
    25
100
AcDbLine
 10
63.3467115928
 20
102.1172538863
 30
0.0
 11
68.0035658423
 21
97.4603996368
 31
0.0
  0
ARC
  5
25D
330
1F
100
AcDbEntity
  8
0
  6
Continuous
 62
     7
370
    25
100
AcDbCircle
 10
68.7106726235
 20
98.167506418
 30
0.0
 40
1.000000000000018
100
AcDbArc
 50
225.0
 51
315.0
  0
LINE
  5
25E
330
1F
100
AcDbEntity
  8
0
  6
Continuous
 62
     7
370
    25
100
AcDbLine
 10
69.4177794047
 20
97.4603996368
 30
0.0
 11
73.5581671024
 21
101.6007873345
 31
0.0
  0
ARC
  5
25F
330
1F
100
AcDbEntity
  8
0
  6
Continuous
 62
     7
370
    25
100
AcDbCircle
 10
74.2652738835
 20
100.8936805533
 30
0.0
 40
1.000000000000006
100
AcDbArc
 50
70.4954238969
 51
135.0
  0
ARC
  5
260
330
1F
100
AcDbEntity
  8
0
  6
Continuous
 62
     7
370
    25
100
AcDbCircle
 10
71.2603345775
 20
92.4101471051
 30
0.0
 40
9.999999999999993
100
AcDbArc
 50
45.0
 51
70.4954238969
  0
LINE
  5
261
330
1F
100
AcDbEntity
  8
0
  6
Continuous
 62
     7
370
    25
100
AcDbLine
 10
78.3314023893
 20
99.4812149169
 30
0.0
 11
80.4024702012
 21
97.4101471051
 31
0.0
  0
LINE
  5
262
330
1F
100
AcDbEntity
  8
0
  6
Continuous
 62
     7
370
    25
100
AcDbLine
 10
77.3719115422
 20
94.3795884461
 30
0.0
 11
80.4024702012
 21
97.4101471051
 31
0.0
  0
LINE
  5
263
330
1F
100
AcDbEntity
  8
0
  6
Continuous
 62
     7
370
    25
100
AcDbLine
 10
75.4024702012
 20
92.4101471051
 30
0.0
 11
76.3619610483
 21
93.3696379522
 31
0.0
  0
LINE
  5
264
330
1F
100
AcDbEntity
  8
0
  6
Continuous
 62
     7
370
    25
100
AcDbLine
 10
61.2603345775
 20
92.4101471051
 30
0.0
 11
75.4024702012
 21
92.4101471051
 31
0.0
  0
ARC
  5
265
330
1F
100
AcDbEntity
  8
0
  6
Continuous
 62
     7
370
    25
100
AcDbCircle
 10
61.2603345775
 20
82.4101471051
 30
0.0
 40
10.0
100
AcDbArc
 50
90.0
 51
135.0
  0
LINE
  5
266
330
1F
100
AcDbEntity
  8
0
  6
Continuous
 62
     7
370
    25
100
AcDbLine
 10
52.97606333
 20
88.2680114813
 30
0.0
 11
54.1892667656
 21
89.4812149169
 31
0.0
  0
ARC
  5
267
330
1F
100
AcDbEntity
  8
0
  6
Continuous
 62
     7
370
    25
100
AcDbCircle
 10
60.0471311419
 20
81.1969436695
 30
0.0
 40
9.999999999999996
100
AcDbArc
 50
135.0
 51
180.0
  0
LINE
  5
268
330
1F
100
AcDbEntity
  8
0
  6
Continuous
 62
     7
370
    25
100
AcDbLine
 10
50.0471311419
 20
67.0548080457
 30
0.0
 11
50.0471311419
 21
81.1969436695
 31
0.0
  0
LINE
  5
269
330
1F
100
AcDbEntity
  8
0
  6
Continuous
 62
     7
370
    25
100
AcDbLine
 10
49.0876402947
 20
66.0953171986
 30
0.0
 11
50.0471311419
 21
67.0548080457
 31
0.0
  0
LINE
  5
26A
330
1F
100
AcDbEntity
  8
0
  6
Continuous
 62
     7
370
    25
100
AcDbLine
 10
45.0471311419
 20
62.0548080457
 30
0.0
 11
48.0776898009
 21
65.0853667048
 31
0.0
  0
LINE
  5
26B
330
1F
100
AcDbEntity
  8
0
  6
Continuous
 62
     7
370
    25
100
AcDbLine
 10
45.0471311419
 20
62.0548080457
 30
0.0
 11
42.97606333
 21
64.1258758576
 31
0.0
  0
ARC
  5
26C
330
1F
100
AcDbEntity
  8
0
  6
Continuous
 62
     7
370
    25
100
AcDbCircle
 10
50.0471311419
 20
71.1969436695
 30
0.0
 40
10.0
100
AcDbArc
 50
199.5045761031
 51
225.0
  0
ARC
  5
26D
330
1F
100
AcDbEntity
  8
0
  6
Continuous
 62
     7
370
    25
100
AcDbCircle
 10
41.5635976937
 20
68.1920043634
 30
0.0
 40
1.000000000000013
100
AcDbArc
 50
135.0
 51
199.5045761031
  0
LINE
  5
26E
330
1F
100
AcDbEntity
  8
0
  6
Continuous
 62
     7
370
    25
100
AcDbLine
 10
40.8564909125
 20
68.8991111446
 30
0.0
 11
44.9968786102
 21
73.0394988423
 31
0.0
  0
ARC
  5
26F
330
1F
100
AcDbEntity
  8
0
  6
Continuous
 62
     7
370
    25
100
AcDbCircle
 10
44.289771829
 20
73.7466056234
 30
0.0
 40
1.000000000000003
100
AcDbArc
 50
315.0
 51
45.0
  0
LINE
  5
270
330
1F
100
AcDbEntity
  8
0
  6
Continuous
 62
     7
370
    25
100
AcDbLine
 10
44.9968786102
 20
74.4537124046
 30
0.0
 11
40.3400243607
 21
79.1105666541
 31
0.0
  0
ARC
  5
271
330
1F
100
AcDbEntity
  8
0
  6
Continuous
 62
     7
370
    25
100
AcDbCircle
 10
41.0471311419
 20
79.8176734353
 30
0.0
 40
1.0
100
AcDbArc
 50
180.0
 51
225.0
  0
LINE
  5
272
330
1F
100
AcDbEntity
  8
0
  6
Continuous
 62
     7
370
    25
100
AcDbLine
 10
40.0471311419
 20
81.1969436695
 30
0.0
 11
40.0471311419
 21
79.8176734353
 31
0.0
  0
ARC
  5
273
330
1F
100
AcDbEntity
  8
0
  6
Continuous
 62
     7
370
    25
100
AcDbCircle
 10
30.0471311419
 20
81.1969436695
 30
0.0
 40
10.00000000000001
100
AcDbArc
 50
0.0
 51
45.0
  0
LINE
  5
274
330
1F
100
AcDbEntity
  8
0
  6
Continuous
 62
     7
370
    25
100
AcDbLine
 10
35.9049955181
 20
89.4812149169
 30
0.0
 11
37.1181989537
 21
88.2680114813
 31
0.0
  0
ARC
  5
275
330
1F
100
AcDbEntity
  8
0
  6
Continuous
 62
     7
370
    25
100
AcDbCircle
 10
28.8339277063
 20
82.4101471051
 30
0.0
 40
9.999999999999998
100
AcDbArc
 50
45.0
 51
90.0
  0
LINE
  5
276
330
1F
100
AcDbEntity
  8
0
  6
Continuous
 62
     7
370
    25
100
AcDbLine
 10
27.4546574721
 20
92.4101471051
 30
0.0
 11
28.8339277063
 21
92.4101471051
 31
0.0
  0
ARC
  5
277
330
1F
100
AcDbEntity
  8
0
  6
Continuous
 62
     7
370
    25
100
AcDbCircle
 10
27.4546574721
 20
93.4101471051
 30
0.0
 40
1.0
100
AcDbArc
 50
225.0
 51
270.0
  0
LINE
  5
278
330
1F
100
AcDbEntity
  8
0
  6
Continuous
 62
     7
370
    25
100
AcDbLine
 10
26.7475506909
 20
92.7030403239
 30
0.0
 11
22.0906964414
 21
97.3598945734
 31
0.0
  0
ARC
  5
279
330
1F
100
AcDbEntity
  8
0
  6
Continuous
 62
     7
370
    25
100
AcDbCircle
 10
21.3835896602
 20
96.6527877922
 30
0.0
 40
1.000000000000003
100
AcDbArc
 50
45.0
 51
135.0
  0
LINE
  5
27A
330
1F
100
AcDbEntity
  8
0
  6
Continuous
 62
     7
370
    25
100
AcDbLine
 10
20.676482879
 20
97.3598945734
 30
0.0
 11
16.5360951814
 21
93.2195068757
 31
0.0
  0
ARC
  5
27B
330
1F
100
AcDbEntity
  8
0
  6
Continuous
 62
     7
370
    25
100
AcDbCircle
 10
15.8289884002
 20
93.9266136569
 30
0.0
 40
1.000000000000006
100
AcDbArc
 50
250.4954238969
 51
315.0
  0
ARC
  5
27C
330
1F
100
AcDbEntity
  8
0
  6
Continuous
 62
     7
370
    25
100
AcDbCircle
 10
18.8339277063
 20
102.4101471051
 30
0.0
 40
10.0
100
AcDbArc
 50
225.0
 51
250.4954238969
  0
LINE
  5
27D
330
1F
100
AcDbEntity
  8
0
  6
Continuous
 62
     7
370
    25
100
AcDbLine
 10
11.7628598944
 20
95.3390792932
 30
0.0
 11
9.6917920825
 21
97.4101471051
 31
0.0
  0
LINE
  5
27E
330
1F
100
AcDbEntity
  8
0
  6
Continuous
 62
     7
370
    25
100
AcDbLine
 10
12.7223507415
 20
100.4407057641
 30
0.0
 11
9.6917920825
 21
97.4101471051
 31
0.0
  0
LINE
  5
27F
330
1F
100
AcDbEntity
  8
0
  6
Continuous
 62
     7
370
    25
100
AcDbLine
 10
14.6917920825
 20
102.4101471051
 30
0.0
 11
13.7323012354
 21
101.4506562579
 31
0.0
  0
LINE
  5
280
330
1F
100
AcDbEntity
  8
0
  6
Continuous
 62
     7
370
    25
100
AcDbLine
 10
28.8339277063
 20
102.4101471051
 30
0.0
 11
14.6917920825
 21
102.4101471051
 31
0.0
  0
ARC
  5
281
330
1F
100
AcDbEntity
  8
0
  6
Continuous
 62
     7
370
    25
100
AcDbCircle
 10
28.8339277063
 20
112.4101471051
 30
0.0
 40
10.00000000000001
100
AcDbArc
 50
270.0
 51
315.0
  0
LINE
  5
282
330
1F
100
AcDbEntity
  8
0
  6
Continuous
 62
     7
370
    25
100
AcDbLine
 10
37.1181989537
 20
106.5522827288
 30
0.0
 11
35.9049955181
 21
105.3390792932
 31
0.0
  0
ARC
  5
283
330
1F
100
AcDbEntity
  8
0
  6
Continuous
 62
     7
370
    25
100
AcDbCircle
 10
30.0471311419
 20
113.6233505407
 30
0.0
 40
10.00000000000001
100
AcDbArc
 50
315.0
 51
0.0
  0
LINE
  5
284
330
1F
100
AcDbEntity
  8
0
  6
Continuous
 62
     7
370
    25
100
AcDbLine
 10
40.0471311419
 20
127.7654861644
 30
0.0
 11
40.0471311419
 21
113.6233505407
 31
0.0
  0
LINE
  5
285
330
1F
100
AcDbEntity
  8
0
  6
Continuous
 62
     7
370
    25
100
AcDbLine
 10
41.006621989
 20
128.7249770116
 30
0.0
 11
40.0471311419
 21
127.7654861644
 31
0.0
  0
LINE
  5
286
330
1F
100
AcDbEntity
  8
0
  6
Continuous
 62
     7
370
    25
100
AcDbLine
 10
45.0471311419
 20
132.7654861644
 30
0.0
 11
42.0165724828
 21
129.7349275054
 31
0.0
  0
LINE
  5
287
330
1F
100
AcDbEntity
  8
0
  6
Continuous
 62
     7
370
    25
100
AcDbLine
 10
45.0471311419
 20
132.7654861644
 30
0.0
 11
47.1181989537
 21
130.6944183525
 31
0.0
  0
ARC
  5
288
330
1F
100
AcDbEntity
  8
0
  6
Continuous
 62
     7
370
    25
100
AcDbCircle
 10
40.0471311419
 20
123.6233505407
 30
0.0
 40
9.999999999999996
100
AcDbArc
 50
19.5045761031
 51
45.0
  0
ARC
  5
289
330
1F
100
AcDbEntity
  8
0
  6
Continuous
 62
     7
370
    25
100
AcDbCircle
 10
48.5306645901
 20
126.6282898468
 30
0.0
 40
1.000000000000001
100
AcDbArc
 50
315.0
 51
19.5045761031
  0
LINE
  5
28A
330
1F
100
AcDbEntity
  8
0
  6
Continuous
 62
     7
370
    25
100
AcDbLine
 10
49.2377713712
 20
125.9211830656
 30
0.0
 11
45.0973836736
 21
121.7807953679
 31
0.0
  0
ARC
  5
28B
330
1F
100
AcDbEntity
  8
0
  6
Continuous
 62
     7
370
    25
100
AcDbCircle
 10
12.7323512416
 20
101.4406557578
 30
0.0
 40
1.000000000000013
100
AcDbArc
 50
269.4270040008
 51
0.5729959992
  0
ARC
  5
28C
330
1F
100
AcDbEntity
  8
0
  6
Continuous
 62
     7
370
    25
100
AcDbCircle
 10
41.0166224891
 20
129.7249270053
 30
0.0
 40
1.000000000000006
100
AcDbArc
 50
269.4270040008
 51
0.5729959992
  0
ARC
  5
28D
330
1F
100
AcDbEntity
  8
0
  6
Continuous
 62
     7
370
    25
100
AcDbCircle
 10
77.3619110421
 20
93.3796384523
 30
0.0
 40
1.000000000000013
100
AcDbArc
 50
89.4270040008
 51
180.5729959992
  0
ARC
  5
28E
330
1F
100
AcDbEntity
  8
0
  6
Continuous
 62
     7
370
    25
100
AcDbCircle
 10
49.0776397946
 20
65.0953672048
 30
0.0
 40
0.9999999999999989
100
AcDbArc
 50
89.4270040008
 51
180.5729959992
  0
ARC
  5
28F
330
1F
100
AcDbEntity
  8
0
  6
Continuous
 62
     7
370
    25
100
AcDbCircle
 10
60.114681095
 20
84.6214956049
 30
0.0
 40
3.0
100
AcDbArc
 50
90.0
 51
180.0
  0
LINE
  5
290
330
1F
100
AcDbEntity
  8
0
  6
Continuous
 62
     7
370
    25
100
AcDbLine
 10
72.114681095
 20
87.6214956049
 30
0.0
 11
60.114681095
 21
87.6214956049
 31
0.0
  0
ARC
  5
291
330
1F
100
AcDbEntity
  8
0
  6
Continuous
 62
     7
370
    25
100
AcDbCircle
 10
73.614681095
 20
83.1214956049
 30
0.0
 40
2.000000000000003
100
AcDbArc
 50
138.5903778907
 51
221.4096221093
  0
ARC
  5
292
330
1F
100
AcDbEntity
  8
0
  6
Continuous
 62
     7
370
    25
100
AcDbCircle
 10
73.614681095
 20
67.1214956049
 30
0.0
 40
2.000000000000003
100
AcDbArc
 50
138.5903778907
 51
221.4096221093
  0
ARC
  5
293
330
1F
100
AcDbEntity
  8
0
  6
Continuous
 62
     7
370
    25
100
AcDbCircle
 10
60.114681095
 20
65.6214956049
 30
0.0
 40
2.999999999999993
100
AcDbArc
 50
180.0
 51
270.0
  0
LINE
  5
294
330
1F
100
AcDbEntity
  8
0
  6
Continuous
 62
     7
370
    25
100
AcDbLine
 10
57.114681095
 20
84.6214956049
 30
0.0
 11
57.114681095
 21
65.6214956049
 31
0.0
  0
CIRCLE
  5
295
330
1F
100
AcDbEntity
  8
0
  6
Continuous
 62
     7
370
    25
100
AcDbCircle
 10
63.114681095
 20
81.1214956049
 30
0.0
 40
3.0
  0
CIRCLE
  5
296
330
1F
100
AcDbEntity
  8
0
  6
Continuous
 62
     7
370
    25
100
AcDbCircle
 10
63.114681095
 20
69.1214956049
 30
0.0
 40
3.0
  0
LINE
  5
297
330
1F
100
AcDbEntity
  8
0
  6
Continuous
 62
     7
370
    25
100
AcDbLine
 10
72.114681095
 20
68.4443712604
 30
0.0
 11
72.114681095
 21
81.7986199494
 31
0.0
  0
LINE
  5
298
330
1F
100
AcDbEntity
  8
0
  6
Continuous
 62
     7
370
    25
100
AcDbLine
 10
72.114681095
 20
62.6214956049
 30
0.0
 11
72.114681095
 21
65.7986199494
 31
0.0
  0
LINE
  5
299
330
1F
100
AcDbEntity
  8
0
  6
Continuous
 62
     7
370
    25
100
AcDbLine
 10
72.114681095
 20
84.4443712604
 30
0.0
 11
72.114681095
 21
87.6214956049
 31
0.0
  0
LINE
  5
29A
330
1F
100
AcDbEntity
  8
0
  6
Continuous
 62
     7
370
    25
100
AcDbLine
 10
60.114681095
 20
62.6214956049
 30
0.0
 11
72.114681095
 21
62.6214956049
 31
0.0
  0
CIRCLE
  5
29B
330
1F
100
AcDbEntity
  8
0
  6
Continuous
 62
     7
370
    25
100
AcDbCircle
 10
63.114681095
 20
69.1214956049
 30
0.0
 40
1.550000000000011
  0
CIRCLE
  5
29C
330
1F
100
AcDbEntity
  8
0
  6
Continuous
 62
     7
370
    25
100
AcDbCircle
 10
63.114681095
 20
81.1214956049
 30
0.0
 40
1.549999999999997
  0
ARC
  5
29D
330
1F
100
AcDbEntity
  8
0
  6
Continuous
 62
     7
370
    25
100
AcDbCircle
 10
22.6611831015
 20
12.8662193912
 30
0.0
 40
3.000000000000004
100
AcDbArc
 50
0.0
 51
90.0
  0
LINE
  5
29E
330
1F
100
AcDbEntity
  8
0
  6
Continuous
 62
     7
370
    25
100
AcDbLine
 10
25.6611831015
 20
0.8662193912
 30
0.0
 11
25.6611831015
 21
12.8662193912
 31
0.0
  0
ARC
  5
29F
330
1F
100
AcDbEntity
  8
0
  6
Continuous
 62
     7
370
    25
100
AcDbCircle
 10
21.1611831015
 20
-0.6337806088
 30
0.0
 40
1.999999999999999
100
AcDbArc
 50
48.5903778907
 51
131.4096221093
  0
ARC
  5
2A0
330
1F
100
AcDbEntity
  8
0
  6
Continuous
 62
     7
370
    25
100
AcDbCircle
 10
5.1611831015
 20
-0.6337806088
 30
0.0
 40
2.0
100
AcDbArc
 50
48.5903778907
 51
131.4096221093
  0
ARC
  5
2A1
330
1F
100
AcDbEntity
  8
0
  6
Continuous
 62
     7
370
    25
100
AcDbCircle
 10
3.6611831015
 20
12.8662193912
 30
0.0
 40
3.000000000000001
100
AcDbArc
 50
90.0
 51
180.0
  0
LINE
  5
2A2
330
1F
100
AcDbEntity
  8
0
  6
Continuous
 62
     7
370
    25
100
AcDbLine
 10
22.6611831015
 20
15.8662193912
 30
0.0
 11
3.6611831015
 21
15.8662193912
 31
0.0
  0
CIRCLE
  5
2A3
330
1F
100
AcDbEntity
  8
0
  6
Continuous
 62
     7
370
    25
100
AcDbCircle
 10
19.1611831015
 20
9.8662193912
 30
0.0
 40
3.000000000000004
  0
CIRCLE
  5
2A4
330
1F
100
AcDbEntity
  8
0
  6
Continuous
 62
     7
370
    25
100
AcDbCircle
 10
7.1611831015
 20
9.8662193912
 30
0.0
 40
2.999999999999999
  0
LINE
  5
2A5
330
1F
100
AcDbEntity
  8
0
  6
Continuous
 62
     7
370
    25
100
AcDbLine
 10
6.484058757
 20
0.8662193912
 30
0.0
 11
19.838307446
 21
0.8662193912
 31
0.0
  0
LINE
  5
2A6
330
1F
100
AcDbEntity
  8
0
  6
Continuous
 62
     7
370
    25
100
AcDbLine
 10
0.6611831015
 20
0.8662193912
 30
0.0
 11
3.838307446
 21
0.8662193912
 31
0.0
  0
LINE
  5
2A7
330
1F
100
AcDbEntity
  8
0
  6
Continuous
 62
     7
370
    25
100
AcDbLine
 10
22.484058757
 20
0.8662193912
 30
0.0
 11
25.6611831015
 21
0.8662193912
 31
0.0
  0
LINE
  5
2A8
330
1F
100
AcDbEntity
  8
0
  6
Continuous
 62
     7
370
    25
100
AcDbLine
 10
0.6611831015
 20
12.8662193912
 30
0.0
 11
0.6611831015
 21
0.8662193912
 31
0.0
  0
CIRCLE
  5
2A9
330
1F
100
AcDbEntity
  8
0
  6
Continuous
 62
     7
370
    25
100
AcDbCircle
 10
7.1611831015
 20
9.8662193912
 30
0.0
 40
1.549999999999998
  0
CIRCLE
  5
2AA
330
1F
100
AcDbEntity
  8
0
  6
Continuous
 62
     7
370
    25
100
AcDbCircle
 10
19.1611831015
 20
9.8662193912
 30
0.0
 40
1.549999999999997
  0
ARC
  5
2AB
330
1F
100
AcDbEntity
  8
0
  6
Continuous
 62
     7
370
    25
100
AcDbCircle
 10
100.8641665362
 20
78.403193351
 30
0.0
 40
2.999999999999986
100
AcDbArc
 50
0.0
 51
90.0
  0
LINE
  5
2AC
330
1F
100
AcDbEntity
  8
0
  6
Continuous
 62
     7
370
    25
100
AcDbLine
 10
103.8641665362
 20
66.403193351
 30
0.0
 11
103.8641665362
 21
78.403193351
 31
0.0
  0
ARC
  5
2AD
330
1F
100
AcDbEntity
  8
0
  6
Continuous
 62
     7
370
    25
100
AcDbCircle
 10
99.3641665362
 20
64.903193351
 30
0.0
 40
2.000000000000003
100
AcDbArc
 50
48.5903778907
 51
131.4096221093
  0
ARC
  5
2AE
330
1F
100
AcDbEntity
  8
0
  6
Continuous
 62
     7
370
    25
100
AcDbCircle
 10
83.3641665362
 20
64.903193351
 30
0.0
 40
2.000000000000003
100
AcDbArc
 50
48.5903778907
 51
131.4096221093
  0
ARC
  5
2AF
330
1F
100
AcDbEntity
  8
0
  6
Continuous
 62
     7
370
    25
100
AcDbCircle
 10
81.8641665362
 20
78.403193351
 30
0.0
 40
3.0
100
AcDbArc
 50
90.0
 51
180.0
  0
LINE
  5
2B0
330
1F
100
AcDbEntity
  8
0
  6
Continuous
 62
     7
370
    25
100
AcDbLine
 10
100.8641665362
 20
81.403193351
 30
0.0
 11
81.8641665362
 21
81.403193351
 31
0.0
  0
CIRCLE
  5
2B1
330
1F
100
AcDbEntity
  8
0
  6
Continuous
 62
     7
370
    25
100
AcDbCircle
 10
97.3641665362
 20
75.403193351
 30
0.0
 40
2.999999999999986
  0
CIRCLE
  5
2B2
330
1F
100
AcDbEntity
  8
0
  6
Continuous
 62
     7
370
    25
100
AcDbCircle
 10
85.3641665362
 20
75.403193351
 30
0.0
 40
3.0
  0
LINE
  5
2B3
330
1F
100
AcDbEntity
  8
0
  6
Continuous
 62
     7
370
    25
100
AcDbLine
 10
84.6870421918
 20
66.403193351
 30
0.0
 11
98.0412908807
 21
66.403193351
 31
0.0
  0
LINE
  5
2B4
330
1F
100
AcDbEntity
  8
0
  6
Continuous
 62
     7
370
    25
100
AcDbLine
 10
78.8641665362
 20
66.403193351
 30
0.0
 11
82.0412908807
 21
66.403193351
 31
0.0
  0
LINE
  5
2B5
330
1F
100
AcDbEntity
  8
0
  6
Continuous
 62
     7
370
    25
100
AcDbLine
 10
100.6870421918
 20
66.403193351
 30
0.0
 11
103.8641665362
 21
66.403193351
 31
0.0
  0
LINE
  5
2B6
330
1F
100
AcDbEntity
  8
0
  6
Continuous
 62
     7
370
    25
100
AcDbLine
 10
78.8641665362
 20
78.403193351
 30
0.0
 11
78.8641665362
 21
66.403193351
 31
0.0
  0
CIRCLE
  5
2B7
330
1F
100
AcDbEntity
  8
0
  6
Continuous
 62
     7
370
    25
100
AcDbCircle
 10
85.3641665362
 20
75.403193351
 30
0.0
 40
1.550000000000011
  0
CIRCLE
  5
2B8
330
1F
100
AcDbEntity
  8
0
  6
Continuous
 62
     7
370
    25
100
AcDbCircle
 10
97.3641665362
 20
75.403193351
 30
0.0
 40
1.549999999999997
  0
ARC
  5
2B9
330
1F
100
AcDbEntity
  8
0
  6
Continuous
 62
     7
370
    25
100
AcDbCircle
 10
24.6568844
 20
124.1810495869
 30
0.0
 40
3.0
100
AcDbArc
 50
0.0
 51
90.0
  0
LINE
  5
2BA
330
1F
100
AcDbEntity
  8
0
  6
Continuous
 62
     7
370
    25
100
AcDbLine
 10
27.6568844
 20
112.1810495869
 30
0.0
 11
27.6568844
 21
124.1810495869
 31
0.0
  0
ARC
  5
2BB
330
1F
100
AcDbEntity
  8
0
  6
Continuous
 62
     7
370
    25
100
AcDbCircle
 10
23.1568844
 20
110.6810495869
 30
0.0
 40
2.000000000000001
100
AcDbArc
 50
48.5903778907
 51
131.4096221093
  0
ARC
  5
2BC
330
1F
100
AcDbEntity
  8
0
  6
Continuous
 62
     7
370
    25
100
AcDbCircle
 10
7.1568844
 20
110.6810495869
 30
0.0
 40
2.0
100
AcDbArc
 50
48.5903778907
 51
131.4096221093
  0
ARC
  5
2BD
330
1F
100
AcDbEntity
  8
0
  6
Continuous
 62
     7
370
    25
100
AcDbCircle
 10
5.6568844
 20
124.1810495869
 30
0.0
 40
3.000000000000014
100
AcDbArc
 50
90.0
 51
180.0
  0
LINE
  5
2BE
330
1F
100
AcDbEntity
  8
0
  6
Continuous
 62
     7
370
    25
100
AcDbLine
 10
24.6568844
 20
127.1810495869
 30
0.0
 11
5.6568844
 21
127.1810495869
 31
0.0
  0
CIRCLE
  5
2BF
330
1F
100
AcDbEntity
  8
0
  6
Continuous
 62
     7
370
    25
100
AcDbCircle
 10
21.1568844
 20
121.1810495869
 30
0.0
 40
2.999999999999996
  0
CIRCLE
  5
2C0
330
1F
100
AcDbEntity
  8
0
  6
Continuous
 62
     7
370
    25
100
AcDbCircle
 10
9.1568844
 20
121.1810495869
 30
0.0
 40
3.0
  0
LINE
  5
2C1
330
1F
100
AcDbEntity
  8
0
  6
Continuous
 62
     7
370
    25
100
AcDbLine
 10
8.4797600556
 20
112.1810495869
 30
0.0
 11
21.8340087445
 21
112.1810495869
 31
0.0
  0
LINE
  5
2C2
330
1F
100
AcDbEntity
  8
0
  6
Continuous
 62
     7
370
    25
100
AcDbLine
 10
2.6568844
 20
112.1810495869
 30
0.0
 11
5.8340087445
 21
112.1810495869
 31
0.0
  0
LINE
  5
2C3
330
1F
100
AcDbEntity
  8
0
  6
Continuous
 62
     7
370
    25
100
AcDbLine
 10
24.4797600556
 20
112.1810495869
 30
0.0
 11
27.6568844
 21
112.1810495869
 31
0.0
  0
LINE
  5
2C4
330
1F
100
AcDbEntity
  8
0
  6
Continuous
 62
     7
370
    25
100
AcDbLine
 10
2.6568844
 20
124.1810495869
 30
0.0
 11
2.6568844
 21
112.1810495869
 31
0.0
  0
CIRCLE
  5
2C5
330
1F
100
AcDbEntity
  8
0
  6
Continuous
 62
     7
370
    25
100
AcDbCircle
 10
9.1568844
 20
121.1810495869
 30
0.0
 40
1.549999999999999
  0
CIRCLE
  5
2C6
330
1F
100
AcDbEntity
  8
0
  6
Continuous
 62
     7
370
    25
100
AcDbCircle
 10
21.1568844
 20
121.1810495869
 30
0.0
 40
1.549999999999997
  0
ARC
  5
2C7
330
1F
100
AcDbEntity
  8
0
  6
Continuous
 62
     7
370
    25
100
AcDbCircle
 10
87.640582767
 20
120.4073272958
 30
0.0
 40
2.100000000000009
100
AcDbArc
 50
90.0
 51
180.0
  0
ARC
  5
2C8
330
1F
100
AcDbEntity
  8
0
  6
Continuous
 62
     7
370
    25
100
AcDbCircle
 10
69.447480344
 20
120.4073272958
 30
0.0
 40
2.100000000000009
100
AcDbArc
 50
90.0
 51
225.0
  0
ARC
  5
2C9
330
1F
100
AcDbEntity
  8
0
  6
Continuous
 62
     7
370
    25
100
AcDbCircle
 10
78.440582767
 20
111.4142248728
 30
0.0
 40
2.099999999999994
100
AcDbArc
 50
225.0
 51
0.0
  0
LINE
  5
2CA
330
1F
100
AcDbEntity
  8
0
  6
Continuous
 62
     7
370
    25
100
AcDbLine
 10
101.3523673838
 20
127.5073272958
 30
0.0
 11
72.9176149681
 21
127.5073272958
 31
0.0
  0
ARC
  5
2CB
330
1F
100
AcDbEntity
  8
0
  6
Continuous
 62
     7
370
    25
100
AcDbCircle
 10
103.0349911759
 20
124.6073272958
 30
0.0
 40
2.100000000000009
100
AcDbArc
 50
270.0
 51
0.0
  0
LINE
  5
2CC
330
1F
100
AcDbEntity
  8
0
  6
Continuous
 62
     7
370
    25
100
AcDbLine
 10
78.440582767
 20
122.5073272958
 30
0.0
 11
69.447480344
 21
122.5073272958
 31
0.0
  0
LINE
  5
2CD
330
1F
100
AcDbEntity
  8
0
  6
Continuous
 62
     7
370
    25
100
AcDbLine
 10
80.540582767
 20
111.4142248728
 30
0.0
 11
80.540582767
 21
120.4073272958
 31
0.0
  0
ARC
  5
2CE
330
1F
100
AcDbEntity
  8
0
  6
Continuous
 62
     7
370
    25
100
AcDbCircle
 10
78.440582767
 20
120.4073272958
 30
0.0
 40
2.100000000000009
100
AcDbArc
 50
0.0
 51
90.0
  0
LINE
  5
2CF
330
1F
100
AcDbEntity
  8
0
  6
Continuous
 62
     7
370
    25
100
AcDbLine
 10
71.3523673838
 20
127.5073272958
 30
0.0
 11
60.2048396569
 21
127.5073272958
 31
0.0
  0
LINE
  5
2D0
330
1F
100
AcDbEntity
  8
0
  6
Continuous
 62
     7
370
    25
100
AcDbLine
 10
105.1349911759
 20
124.6073272958
 30
0.0
 11
105.1349911759
 21
127.5073272958
 31
0.0
  0
LINE
  5
2D1
330
1F
100
AcDbEntity
  8
0
  6
Continuous
 62
     7
370
    25
100
AcDbLine
 10
87.640582767
 20
122.5073272958
 30
0.0
 11
103.0349911759
 21
122.5073272958
 31
0.0
  0
LINE
  5
2D2
330
1F
100
AcDbEntity
  8
0
  6
Continuous
 62
     7
370
    25
100
AcDbLine
 10
85.540582767
 20
102.2142248728
 30
0.0
 11
85.540582767
 21
120.4073272958
 31
0.0
  0
LINE
  5
2D3
330
1F
100
AcDbEntity
  8
0
  6
Continuous
 62
     7
370
    25
100
AcDbLine
 10
84.9041866639
 20
100.7079802888
 30
0.0
 11
84.9255070075
 21
100.7293006324
 31
0.0
  0
LINE
  5
2D4
330
1F
100
AcDbEntity
  8
0
  6
Continuous
 62
     7
370
    25
100
AcDbLine
 10
67.9625561036
 20
118.9224030553
 30
0.0
 11
76.9556585265
 21
109.9293006324
 31
0.0
  0
LINE
  5
2D5
330
1F
100
AcDbEntity
  8
0
  6
Continuous
 62
     7
370
    25
100
AcDbLine
 10
105.1349911759
 20
127.5073272958
 30
0.0
 11
102.9176149681
 21
127.5073272958
 31
0.0
  0
LINE
  5
2D6
330
1F
100
AcDbEntity
  8
0
  6
Continuous
 62
     7
370
    25
100
AcDbLine
 10
60.2739236724
 20
122.3683947993
 30
0.0
 11
80.3803299269
 21
102.2619885448
 31
0.0
  0
ARC
  5
2D7
330
1F
100
AcDbEntity
  8
0
  6
Continuous
 62
     7
370
    25
100
AcDbCircle
 10
83.440582767
 20
102.2142248728
 30
0.0
 40
2.100000000000009
100
AcDbArc
 50
315.0
 51
0.0
  0
ARC
  5
2D8
330
1F
100
AcDbEntity
  8
0
  6
Continuous
 62
     7
370
    25
100
AcDbCircle
 10
59.225550335
 20
122.426818643
 30
0.0
 40
1.049999999999998
100
AcDbArc
 50
356.8103148958
 51
93.1896851042
  0
ARC
  5
2D9
330
1F
100
AcDbEntity
  8
0
  6
Continuous
 62
     7
370
    25
100
AcDbCircle
 10
80.4387537706
 20
101.2136152074
 30
0.0
 40
1.049999999999998
100
AcDbArc
 50
356.8103148958
 51
93.1896851042
  0
ARC
  5
2DA
330
1F
100
AcDbEntity
  8
0
  6
Continuous
 62
     7
370
    25
100
AcDbCircle
 10
102.1349911759
 20
128.2073272958
 30
0.0
 40
1.050000000000022
100
AcDbArc
 50
221.8103148958
 51
318.1896851042
  0
ARC
  5
2DB
330
1F
100
AcDbEntity
  8
0
  6
Continuous
 62
     7
370
    25
100
AcDbCircle
 10
72.1349911759
 20
128.2073272958
 30
0.0
 40
1.050000000000033
100
AcDbArc
 50
221.8103148958
 51
318.1896851042
  0
ARC
  5
2DC
330
1F
100
AcDbEntity
  8
0
  6
Continuous
 62
     7
370
    25
100
AcDbCircle
 10
83.4192624234
 20
102.1929045293
 30
0.0
 40
2.100000000000001
100
AcDbArc
 50
225.0
 51
315.0
  0
ARC
  5
2DD
330
1F
100
AcDbEntity
  8
0
  6
Continuous
 62
     7
370
    25
100
AcDbCircle
 10
60.2048396569
 20
125.4073272958
 30
0.0
 40
2.100000000000001
100
AcDbArc
 50
90.0
 51
225.0
  0
LINE
  5
2DE
330
1F
100
AcDbEntity
  8
0
  6
Continuous
 62
     7
370
    25
100
AcDbLine
 10
81.487127108
 20
101.1551913637
 30
0.0
 11
81.9343381829
 21
100.7079802888
 31
0.0
  0
LINE
  5
2DF
330
1F
100
AcDbEntity
  8
0
  6
Continuous
 62
     7
370
    25
100
AcDbLine
 10
58.7199154164
 20
123.9224030553
 30
0.0
 11
59.1671264913
 21
123.4751919804
 31
0.0
  0
ARC
  5
2E0
330
1F
100
AcDbEntity
  8
0
  6
Continuous
 62
     7
370
    25
100
AcDbCircle
 10
7.7596742952
 20
89.2787814675
 30
0.0
 40
2.100000000000009
100
AcDbArc
 50
180.0
 51
270.0
  0
ARC
  5
2E1
330
1F
100
AcDbEntity
  8
0
  6
Continuous
 62
     7
370
    25
100
AcDbCircle
 10
7.7596742952
 20
71.0856790446
 30
0.0
 40
2.100000000000001
100
AcDbArc
 50
180.0
 51
315.0
  0
ARC
  5
2E2
330
1F
100
AcDbEntity
  8
0
  6
Continuous
 62
     7
370
    25
100
AcDbCircle
 10
16.7527767182
 20
80.0787814675
 30
0.0
 40
2.100000000000009
100
AcDbArc
 50
315.0
 51
90.0
  0
LINE
  5
2E3
330
1F
100
AcDbEntity
  8
0
  6
Continuous
 62
     7
370
    25
100
AcDbLine
 10
0.6596742952
 20
102.9905660843
 30
0.0
 11
0.6596742952
 21
74.5558136686
 31
0.0
  0
ARC
  5
2E4
330
1F
100
AcDbEntity
  8
0
  6
Continuous
 62
     7
370
    25
100
AcDbCircle
 10
3.5596742952
 20
104.6731898765
 30
0.0
 40
2.100000000000009
100
AcDbArc
 50
0.0
 51
90.0
  0
LINE
  5
2E5
330
1F
100
AcDbEntity
  8
0
  6
Continuous
 62
     7
370
    25
100
AcDbLine
 10
5.6596742952
 20
80.0787814675
 30
0.0
 11
5.6596742952
 21
71.0856790446
 31
0.0
  0
LINE
  5
2E6
330
1F
100
AcDbEntity
  8
0
  6
Continuous
 62
     7
370
    25
100
AcDbLine
 10
16.7527767182
 20
82.1787814675
 30
0.0
 11
7.7596742952
 21
82.1787814675
 31
0.0
  0
ARC
  5
2E7
330
1F
100
AcDbEntity
  8
0
  6
Continuous
 62
     7
370
    25
100
AcDbCircle
 10
7.7596742952
 20
80.0787814675
 30
0.0
 40
2.100000000000001
100
AcDbArc
 50
90.0
 51
180.0
  0
LINE
  5
2E8
330
1F
100
AcDbEntity
  8
0
  6
Continuous
 62
     7
370
    25
100
AcDbLine
 10
0.6596742952
 20
72.9905660843
 30
0.0
 11
0.6596742952
 21
61.8430383575
 31
0.0
  0
LINE
  5
2E9
330
1F
100
AcDbEntity
  8
0
  6
Continuous
 62
     7
370
    25
100
AcDbLine
 10
3.5596742952
 20
106.7731898765
 30
0.0
 11
0.6596742952
 21
106.7731898765
 31
0.0
  0
LINE
  5
2EA
330
1F
100
AcDbEntity
  8
0
  6
Continuous
 62
     7
370
    25
100
AcDbLine
 10
5.6596742952
 20
89.2787814675
 30
0.0
 11
5.6596742952
 21
104.6731898765
 31
0.0
  0
LINE
  5
2EB
330
1F
100
AcDbEntity
  8
0
  6
Continuous
 62
     7
370
    25
100
AcDbLine
 10
25.9527767182
 20
87.1787814675
 30
0.0
 11
7.7596742952
 21
87.1787814675
 31
0.0
  0
LINE
  5
2EC
330
1F
100
AcDbEntity
  8
0
  6
Continuous
 62
     7
370
    25
100
AcDbLine
 10
27.4590213022
 20
86.5423853644
 30
0.0
 11
27.4377009587
 21
86.563705708
 31
0.0
  0
LINE
  5
2ED
330
1F
100
AcDbEntity
  8
0
  6
Continuous
 62
     7
370
    25
100
AcDbLine
 10
9.2445985357
 20
69.6007548041
 30
0.0
 11
18.2377009587
 21
78.593857227
 31
0.0
  0
LINE
  5
2EE
330
1F
100
AcDbEntity
  8
0
  6
Continuous
 62
     7
370
    25
100
AcDbLine
 10
0.6596742952
 20
106.7731898765
 30
0.0
 11
0.6596742952
 21
104.5558136686
 31
0.0
  0
LINE
  5
2EF
330
1F
100
AcDbEntity
  8
0
  6
Continuous
 62
     7
370
    25
100
AcDbLine
 10
5.7986067917
 20
61.9121223729
 30
0.0
 11
25.9050130462
 21
82.0185286275
 31
0.0
  0
ARC
  5
2F0
330
1F
100
AcDbEntity
  8
0
  6
Continuous
 62
     7
370
    25
100
AcDbCircle
 10
25.9527767182
 20
85.0787814675
 30
0.0
 40
2.099999999999998
100
AcDbArc
 50
45.0
 51
90.0
  0
ARC
  5
2F1
330
1F
100
AcDbEntity
  8
0
  6
Continuous
 62
     7
370
    25
100
AcDbCircle
 10
5.740182948
 20
60.8637490356
 30
0.0
 40
1.049999999999998
100
AcDbArc
 50
86.8103148958
 51
183.1896851042
  0
ARC
  5
2F2
330
1F
100
AcDbEntity
  8
0
  6
Continuous
 62
     7
370
    25
100
AcDbCircle
 10
26.9533863836
 20
82.0769524712
 30
0.0
 40
1.049999999999998
100
AcDbArc
 50
86.8103148958
 51
183.1896851042
  0
ARC
  5
2F3
330
1F
100
AcDbEntity
  8
0
  6
Continuous
 62
     7
370
    25
100
AcDbCircle
 10
-0.0403257048
 20
103.7731898765
 30
0.0
 40
1.050000000000002
100
AcDbArc
 50
311.8103148958
 51
48.1896851042
  0
ARC
  5
2F4
330
1F
100
AcDbEntity
  8
0
  6
Continuous
 62
     7
370
    25
100
AcDbCircle
 10
-0.0403257048
 20
73.7731898765
 30
0.0
 40
1.050000000000006
100
AcDbArc
 50
311.8103148958
 51
48.1896851042
  0
ARC
  5
2F5
330
1F
100
AcDbEntity
  8
0
  6
Continuous
 62
     7
370
    25
100
AcDbCircle
 10
25.9740970617
 20
85.0574611239
 30
0.0
 40
2.100000000000001
100
AcDbArc
 50
315.0
 51
45.0
  0
ARC
  5
2F6
330
1F
100
AcDbEntity
  8
0
  6
Continuous
 62
     7
370
    25
100
AcDbCircle
 10
2.7596742952
 20
61.8430383575
 30
0.0
 40
2.100000000000003
100
AcDbArc
 50
180.0
 51
315.0
  0
LINE
  5
2F7
330
1F
100
AcDbEntity
  8
0
  6
Continuous
 62
     7
370
    25
100
AcDbLine
 10
27.0118102273
 20
83.1253258085
 30
0.0
 11
27.4590213022
 21
83.5725368834
 31
0.0
  0
LINE
  5
2F8
330
1F
100
AcDbEntity
  8
0
  6
Continuous
 62
     7
370
    25
100
AcDbLine
 10
4.2445985357
 20
60.358114117
 30
0.0
 11
4.6918096106
 21
60.8053251919
 31
0.0
  0
LINE
  5
2F9
330
1F
100
AcDbEntity
  8
0
  6
Continuous
 62
     7
370
    25
100
AcDbLine
 10
111.3945819465
 20
179.888363066
 30
0.0
 11
111.3945819465
 21
145.0949186817
 31
0.0
  0
ARC
  5
2FA
330
1F
100
AcDbEntity
  8
0
  6
Continuous
 62
     7
370
    25
100
AcDbCircle
 10
116.3945819465
 20
179.888363066
 30
0.0
 40
5.0
100
AcDbArc
 50
90.0
 51
180.0
  0
LINE
  5
2FB
330
1F
100
AcDbEntity
  8
0
  6
Continuous
 62
     7
370
    25
100
AcDbLine
 10
126.3945819465
 20
184.888363066
 30
0.0
 11
116.3945819465
 21
184.888363066
 31
0.0
  0
ARC
  5
2FC
330
1F
100
AcDbEntity
  8
0
  6
Continuous
 62
     7
370
    25
100
AcDbCircle
 10
126.3945819465
 20
179.888363066
 30
0.0
 40
5.0
100
AcDbArc
 50
0.0
 51
90.0
  0
LINE
  5
2FD
330
1F
100
AcDbEntity
  8
0
  6
Continuous
 62
     7
370
    25
100
AcDbLine
 10
131.3945819465
 20
169.888363066
 30
0.0
 11
131.3945819465
 21
179.888363066
 31
0.0
  0
ARC
  5
2FE
330
1F
100
AcDbEntity
  8
0
  6
Continuous
 62
     7
370
    25
100
AcDbCircle
 10
136.3945819465
 20
169.888363066
 30
0.0
 40
5.000000000000028
100
AcDbArc
 50
180.0
 51
270.0
  0
LINE
  5
2FF
330
1F
100
AcDbEntity
  8
0
  6
Continuous
 62
     7
370
    25
100
AcDbLine
 10
186.3945819465
 20
164.888363066
 30
0.0
 11
136.3945819465
 21
164.888363066
 31
0.0
  0
ARC
  5
300
330
1F
100
AcDbEntity
  8
0
  6
Continuous
 62
     7
370
    25
100
AcDbCircle
 10
186.3945819465
 20
169.888363066
 30
0.0
 40
5.0
100
AcDbArc
 50
270.0
 51
0.0
  0
LINE
  5
301
330
1F
100
AcDbEntity
  8
0
  6
Continuous
 62
     7
370
    25
100
AcDbLine
 10
191.3945819465
 20
179.888363066
 30
0.0
 11
191.3945819465
 21
169.888363066
 31
0.0
  0
ARC
  5
302
330
1F
100
AcDbEntity
  8
0
  6
Continuous
 62
     7
370
    25
100
AcDbCircle
 10
196.3945819465
 20
179.888363066
 30
0.0
 40
5.0
100
AcDbArc
 50
90.0
 51
180.0
  0
LINE
  5
303
330
1F
100
AcDbEntity
  8
0
  6
Continuous
 62
     7
370
    25
100
AcDbLine
 10
206.3945819465
 20
184.888363066
 30
0.0
 11
196.3945819465
 21
184.888363066
 31
0.0
  0
ARC
  5
304
330
1F
100
AcDbEntity
  8
0
  6
Continuous
 62
     7
370
    25
100
AcDbCircle
 10
206.3945819465
 20
179.888363066
 30
0.0
 40
5.0
100
AcDbArc
 50
0.0
 51
90.0
  0
LINE
  5
305
330
1F
100
AcDbEntity
  8
0
  6
Continuous
 62
     7
370
    25
100
AcDbLine
 10
211.3945819465
 20
145.0949186817
 30
0.0
 11
211.3945819465
 21
179.888363066
 31
0.0
  0
ARC
  5
306
330
1F
100
AcDbEntity
  8
0
  6
Continuous
 62
     7
370
    25
100
AcDbCircle
 10
201.3945819465
 20
145.0949186817
 30
0.0
 40
10.0
100
AcDbArc
 50
304.9920201986
 51
0.0
  0
LINE
  5
307
330
1F
100
AcDbEntity
  8
0
  6
Continuous
 62
     7
370
    25
100
AcDbLine
 10
207.1292053901
 20
136.9025994765
 30
0.0
 11
185.0141904538
 21
121.4220890211
 31
0.0
  0
ARC
  5
308
330
1F
100
AcDbEntity
  8
0
  6
Continuous
 62
     7
370
    25
100
AcDbCircle
 10
176.4122552884
 20
133.7105678289
 30
0.0
 40
15.00000000000002
100
AcDbArc
 50
242.4784464489
 51
304.9920201986
  0
ARC
  5
309
330
1F
100
AcDbEntity
  8
0
  6
Continuous
 62
     7
370
    25
100
AcDbCircle
 10
161.3945819465
 20
104.888363066
 30
0.0
 40
17.5
100
AcDbArc
 50
62.4784464489
 51
117.5215535511
  0
ARC
  5
30A
330
1F
100
AcDbEntity
  8
0
  6
Continuous
 62
     7
370
    25
100
AcDbCircle
 10
146.3769086046
 20
133.7105678289
 30
0.0
 40
15.00000000000001
100
AcDbArc
 50
235.0079798014
 51
297.5215535511
  0
LINE
  5
30B
330
1F
100
AcDbEntity
  8
0
  6
Continuous
 62
     7
370
    25
100
AcDbLine
 10
137.7749734391
 20
121.4220890211
 30
0.0
 11
115.6599585029
 21
136.9025994765
 31
0.0
  0
ARC
  5
30C
330
1F
100
AcDbEntity
  8
0
  6
Continuous
 62
     7
370
    25
100
AcDbCircle
 10
121.3945819465
 20
145.0949186817
 30
0.0
 40
9.999999999999986
100
AcDbArc
 50
180.0
 51
235.0079798014
  0
CIRCLE
  5
30D
330
1F
100
AcDbEntity
  8
0
  6
Continuous
 62
     7
370
    25
100
AcDbCircle
 10
161.3945819465
 20
154.888363066
 30
0.0
 40
2.549999999999983
  0
CIRCLE
  5
30E
330
1F
100
AcDbEntity
  8
0
  6
Continuous
 62
     7
370
    25
100
AcDbCircle
 10
201.3945819465
 20
154.888363066
 30
0.0
 40
2.550000000000011
  0
CIRCLE
  5
30F
330
1F
100
AcDbEntity
  8
0
  6
Continuous
 62
     7
370
    25
100
AcDbCircle
 10
121.3945819465
 20
154.888363066
 30
0.0
 40
2.549999999999997
  0
CIRCLE
  5
310
330
1F
100
AcDbEntity
  8
0
  6
Continuous
 62
     7
370
    25
100
AcDbCircle
 10
201.3945819465
 20
174.888363066
 30
0.0
 40
2.550000000000011
  0
CIRCLE
  5
311
330
1F
100
AcDbEntity
  8
0
  6
Continuous
 62
     7
370
    25
100
AcDbCircle
 10
121.3945819465
 20
174.888363066
 30
0.0
 40
2.549999999999983
  0
LINE
  5
312
330
1F
100
AcDbEntity
  8
0
  6
Continuous
 62
     7
370
    25
100
AcDbLine
 10
199.1767921501
 20
23.9746696756
 30
0.0
 11
233.9702365344
 21
23.9746696756
 31
0.0
  0
ARC
  5
313
330
1F
100
AcDbEntity
  8
0
  6
Continuous
 62
     7
370
    25
100
AcDbCircle
 10
199.1767921501
 20
28.9746696756
 30
0.0
 40
5.0
100
AcDbArc
 50
180.0
 51
270.0
  0
LINE
  5
314
330
1F
100
AcDbEntity
  8
0
  6
Continuous
 62
     7
370
    25
100
AcDbLine
 10
194.1767921501
 20
38.9746696756
 30
0.0
 11
194.1767921501
 21
28.9746696756
 31
0.0
  0
ARC
  5
315
330
1F
100
AcDbEntity
  8
0
  6
Continuous
 62
     7
370
    25
100
AcDbCircle
 10
199.1767921501
 20
38.9746696756
 30
0.0
 40
5.000000000000007
100
AcDbArc
 50
90.0
 51
180.0
  0
LINE
  5
316
330
1F
100
AcDbEntity
  8
0
  6
Continuous
 62
     7
370
    25
100
AcDbLine
 10
209.1767921501
 20
43.9746696756
 30
0.0
 11
199.1767921501
 21
43.9746696756
 31
0.0
  0
ARC
  5
317
330
1F
100
AcDbEntity
  8
0
  6
Continuous
 62
     7
370
    25
100
AcDbCircle
 10
209.1767921501
 20
48.9746696756
 30
0.0
 40
5.0
100
AcDbArc
 50
270.0
 51
0.0
  0
LINE
  5
318
330
1F
100
AcDbEntity
  8
0
  6
Continuous
 62
     7
370
    25
100
AcDbLine
 10
214.1767921501
 20
98.9746696756
 30
0.0
 11
214.1767921501
 21
48.9746696756
 31
0.0
  0
ARC
  5
319
330
1F
100
AcDbEntity
  8
0
  6
Continuous
 62
     7
370
    25
100
AcDbCircle
 10
209.1767921501
 20
98.9746696756
 30
0.0
 40
5.0
100
AcDbArc
 50
0.0
 51
90.0
  0
LINE
  5
31A
330
1F
100
AcDbEntity
  8
0
  6
Continuous
 62
     7
370
    25
100
AcDbLine
 10
199.1767921501
 20
103.9746696756
 30
0.0
 11
209.1767921501
 21
103.9746696756
 31
0.0
  0
ARC
  5
31B
330
1F
100
AcDbEntity
  8
0
  6
Continuous
 62
     7
370
    25
100
AcDbCircle
 10
199.1767921501
 20
108.9746696756
 30
0.0
 40
5.0
100
AcDbArc
 50
180.0
 51
270.0
  0
LINE
  5
31C
330
1F
100
AcDbEntity
  8
0
  6
Continuous
 62
     7
370
    25
100
AcDbLine
 10
194.1767921501
 20
118.9746696756
 30
0.0
 11
194.1767921501
 21
108.9746696756
 31
0.0
  0
ARC
  5
31D
330
1F
100
AcDbEntity
  8
0
  6
Continuous
 62
     7
370
    25
100
AcDbCircle
 10
199.1767921501
 20
118.9746696756
 30
0.0
 40
5.0
100
AcDbArc
 50
90.0
 51
180.0
  0
LINE
  5
31E
330
1F
100
AcDbEntity
  8
0
  6
Continuous
 62
     7
370
    25
100
AcDbLine
 10
233.9702365344
 20
123.9746696756
 30
0.0
 11
199.1767921501
 21
123.9746696756
 31
0.0
  0
ARC
  5
31F
330
1F
100
AcDbEntity
  8
0
  6
Continuous
 62
     7
370
    25
100
AcDbCircle
 10
233.9702365344
 20
113.9746696756
 30
0.0
 40
10.00000000000002
100
AcDbArc
 50
34.9920201986
 51
90.0
  0
LINE
  5
320
330
1F
100
AcDbEntity
  8
0
  6
Continuous
 62
     7
370
    25
100
AcDbLine
 10
242.1625557396
 20
119.7092931192
 30
0.0
 11
257.643066195
 21
97.594278183
 31
0.0
  0
ARC
  5
321
330
1F
100
AcDbEntity
  8
0
  6
Continuous
 62
     7
370
    25
100
AcDbCircle
 10
245.3545873872
 20
88.9923430175
 30
0.0
 40
15.00000000000001
100
AcDbArc
 50
332.4784464489
 51
34.9920201986
  0
ARC
  5
322
330
1F
100
AcDbEntity
  8
0
  6
Continuous
 62
     7
370
    25
100
AcDbCircle
 10
274.1767921501
 20
73.9746696756
 30
0.0
 40
17.50000000000001
100
AcDbArc
 50
152.4784464489
 51
207.5215535511
  0
ARC
  5
323
330
1F
100
AcDbEntity
  8
0
  6
Continuous
 62
     7
370
    25
100
AcDbCircle
 10
245.3545873872
 20
58.9569963337
 30
0.0
 40
15.00000000000001
100
AcDbArc
 50
325.0079798014
 51
27.5215535511
  0
LINE
  5
324
330
1F
100
AcDbEntity
  8
0
  6
Continuous
 62
     7
370
    25
100
AcDbLine
 10
257.643066195
 20
50.3550611683
 30
0.0
 11
242.1625557396
 21
28.240046232
 31
0.0
  0
ARC
  5
325
330
1F
100
AcDbEntity
  8
0
  6
Continuous
 62
     7
370
    25
100
AcDbCircle
 10
233.9702365344
 20
33.9746696756
 30
0.0
 40
9.99999999999999
100
AcDbArc
 50
270.0
 51
325.0079798014
  0
CIRCLE
  5
326
330
1F
100
AcDbEntity
  8
0
  6
Continuous
 62
     7
370
    25
100
AcDbCircle
 10
224.1767921501
 20
73.9746696756
 30
0.0
 40
2.550000000000011
  0
CIRCLE
  5
327
330
1F
100
AcDbEntity
  8
0
  6
Continuous
 62
     7
370
    25
100
AcDbCircle
 10
224.1767921501
 20
113.9746696756
 30
0.0
 40
2.549999999999997
  0
CIRCLE
  5
328
330
1F
100
AcDbEntity
  8
0
  6
Continuous
 62
     7
370
    25
100
AcDbCircle
 10
224.1767921501
 20
33.9746696756
 30
0.0
 40
2.549999999999997
  0
CIRCLE
  5
329
330
1F
100
AcDbEntity
  8
0
  6
Continuous
 62
     7
370
    25
100
AcDbCircle
 10
204.1767921501
 20
113.9746696756
 30
0.0
 40
2.549999999999983
  0
CIRCLE
  5
32A
330
1F
100
AcDbEntity
  8
0
  6
Continuous
 62
     7
370
    25
100
AcDbCircle
 10
204.1767921501
 20
33.9746696756
 30
0.0
 40
2.54999999999999
  0
LINE
  5
32B
330
1F
100
AcDbEntity
  8
0
  6
Continuous
 62
     7
370
    25
100
AcDbLine
 10
100.7851032133
 20
135.9333346024
 30
0.0
 11
100.7851032133
 21
170.7267789867
 31
0.0
  0
ARC
  5
32C
330
1F
100
AcDbEntity
  8
0
  6
Continuous
 62
     7
370
    25
100
AcDbCircle
 10
95.7851032133
 20
135.9333346024
 30
0.0
 40
5.000000000000014
100
AcDbArc
 50
270.0
 51
0.0
  0
LINE
  5
32D
330
1F
100
AcDbEntity
  8
0
  6
Continuous
 62
     7
370
    25
100
AcDbLine
 10
85.7851032133
 20
130.9333346024
 30
0.0
 11
95.7851032133
 21
130.9333346024
 31
0.0
  0
ARC
  5
32E
330
1F
100
AcDbEntity
  8
0
  6
Continuous
 62
     7
370
    25
100
AcDbCircle
 10
85.7851032133
 20
135.9333346024
 30
0.0
 40
5.0
100
AcDbArc
 50
180.0
 51
270.0
  0
LINE
  5
32F
330
1F
100
AcDbEntity
  8
0
  6
Continuous
 62
     7
370
    25
100
AcDbLine
 10
80.7851032133
 20
145.9333346024
 30
0.0
 11
80.7851032133
 21
135.9333346024
 31
0.0
  0
ARC
  5
330
330
1F
100
AcDbEntity
  8
0
  6
Continuous
 62
     7
370
    25
100
AcDbCircle
 10
75.7851032133
 20
145.9333346024
 30
0.0
 40
5.0
100
AcDbArc
 50
0.0
 51
90.0
  0
LINE
  5
331
330
1F
100
AcDbEntity
  8
0
  6
Continuous
 62
     7
370
    25
100
AcDbLine
 10
25.7851032133
 20
150.9333346024
 30
0.0
 11
75.7851032133
 21
150.9333346024
 31
0.0
  0
ARC
  5
332
330
1F
100
AcDbEntity
  8
0
  6
Continuous
 62
     7
370
    25
100
AcDbCircle
 10
25.7851032133
 20
145.9333346024
 30
0.0
 40
5.0
100
AcDbArc
 50
90.0
 51
180.0
  0
LINE
  5
333
330
1F
100
AcDbEntity
  8
0
  6
Continuous
 62
     7
370
    25
100
AcDbLine
 10
20.7851032133
 20
135.9333346024
 30
0.0
 11
20.7851032133
 21
145.9333346024
 31
0.0
  0
ARC
  5
334
330
1F
100
AcDbEntity
  8
0
  6
Continuous
 62
     7
370
    25
100
AcDbCircle
 10
15.7851032133
 20
135.9333346024
 30
0.0
 40
5.0
100
AcDbArc
 50
270.0
 51
0.0
  0
LINE
  5
335
330
1F
100
AcDbEntity
  8
0
  6
Continuous
 62
     7
370
    25
100
AcDbLine
 10
5.7851032133
 20
130.9333346024
 30
0.0
 11
15.7851032133
 21
130.9333346024
 31
0.0
  0
ARC
  5
336
330
1F
100
AcDbEntity
  8
0
  6
Continuous
 62
     7
370
    25
100
AcDbCircle
 10
5.7851032133
 20
135.9333346024
 30
0.0
 40
5.0
100
AcDbArc
 50
180.0
 51
270.0
  0
LINE
  5
337
330
1F
100
AcDbEntity
  8
0
  6
Continuous
 62
     7
370
    25
100
AcDbLine
 10
0.7851032133
 20
170.7267789867
 30
0.0
 11
0.7851032133
 21
135.9333346024
 31
0.0
  0
ARC
  5
338
330
1F
100
AcDbEntity
  8
0
  6
Continuous
 62
     7
370
    25
100
AcDbCircle
 10
10.7851032133
 20
170.7267789867
 30
0.0
 40
10.00000000000004
100
AcDbArc
 50
124.9920201986
 51
180.0
  0
LINE
  5
339
330
1F
100
AcDbEntity
  8
0
  6
Continuous
 62
     7
370
    25
100
AcDbLine
 10
5.0504797697
 20
178.9190981918
 30
0.0
 11
27.1654947059
 21
194.3996086472
 31
0.0
  0
ARC
  5
33A
330
1F
100
AcDbEntity
  8
0
  6
Continuous
 62
     7
370
    25
100
AcDbCircle
 10
35.7674298714
 20
182.1111298395
 30
0.0
 40
14.99999999999999
100
AcDbArc
 50
62.4784464489
 51
124.9920201986
  0
ARC
  5
33B
330
1F
100
AcDbEntity
  8
0
  6
Continuous
 62
     7
370
    25
100
AcDbCircle
 10
50.7851032133
 20
210.9333346024
 30
0.0
 40
17.50000000000001
100
AcDbArc
 50
242.4784464489
 51
297.5215535511
  0
ARC
  5
33C
330
1F
100
AcDbEntity
  8
0
  6
Continuous
 62
     7
370
    25
100
AcDbCircle
 10
65.8027765552
 20
182.1111298395
 30
0.0
 40
14.99999999999998
100
AcDbArc
 50
55.0079798014
 51
117.5215535511
  0
LINE
  5
33D
330
1F
100
AcDbEntity
  8
0
  6
Continuous
 62
     7
370
    25
100
AcDbLine
 10
74.4047117206
 20
194.3996086472
 30
0.0
 11
96.5197266569
 21
178.9190981918
 31
0.0
  0
ARC
  5
33E
330
1F
100
AcDbEntity
  8
0
  6
Continuous
 62
     7
370
    25
100
AcDbCircle
 10
90.7851032133
 20
170.7267789867
 30
0.0
 40
10.00000000000002
100
AcDbArc
 50
0.0
 51
55.0079798014
  0
CIRCLE
  5
33F
330
1F
100
AcDbEntity
  8
0
  6
Continuous
 62
     7
370
    25
100
AcDbCircle
 10
50.7851032133
 20
160.9333346024
 30
0.0
 40
2.550000000000004
  0
CIRCLE
  5
340
330
1F
100
AcDbEntity
  8
0
  6
Continuous
 62
     7
370
    25
100
AcDbCircle
 10
10.7851032133
 20
160.9333346024
 30
0.0
 40
2.54999999999999
  0
CIRCLE
  5
341
330
1F
100
AcDbEntity
  8
0
  6
Continuous
 62
     7
370
    25
100
AcDbCircle
 10
90.7851032133
 20
160.9333346024
 30
0.0
 40
2.549999999999997
  0
CIRCLE
  5
342
330
1F
100
AcDbEntity
  8
0
  6
Continuous
 62
     7
370
    25
100
AcDbCircle
 10
10.7851032133
 20
140.9333346024
 30
0.0
 40
2.54999999999999
  0
CIRCLE
  5
343
330
1F
100
AcDbEntity
  8
0
  6
Continuous
 62
     7
370
    25
100
AcDbCircle
 10
90.7851032133
 20
140.9333346024
 30
0.0
 40
2.549999999999997
  0
LINE
  5
344
330
1F
100
AcDbEntity
  8
0
  6
Continuous
 62
     7
370
    25
100
AcDbLine
 10
205.9261427213
 20
101.1396218888
 30
0.0
 11
171.132698337
 21
101.1396218888
 31
0.0
  0
ARC
  5
345
330
1F
100
AcDbEntity
  8
0
  6
Continuous
 62
     7
370
    25
100
AcDbCircle
 10
205.9261427213
 20
96.1396218888
 30
0.0
 40
5.0
100
AcDbArc
 50
0.0
 51
90.0
  0
LINE
  5
346
330
1F
100
AcDbEntity
  8
0
  6
Continuous
 62
     7
370
    25
100
AcDbLine
 10
210.9261427213
 20
86.1396218888
 30
0.0
 11
210.9261427213
 21
96.1396218888
 31
0.0
  0
ARC
  5
347
330
1F
100
AcDbEntity
  8
0
  6
Continuous
 62
     7
370
    25
100
AcDbCircle
 10
205.9261427213
 20
86.1396218888
 30
0.0
 40
5.0
100
AcDbArc
 50
270.0
 51
0.0
  0
LINE
  5
348
330
1F
100
AcDbEntity
  8
0
  6
Continuous
 62
     7
370
    25
100
AcDbLine
 10
195.9261427213
 20
81.1396218888
 30
0.0
 11
205.9261427213
 21
81.1396218888
 31
0.0
  0
ARC
  5
349
330
1F
100
AcDbEntity
  8
0
  6
Continuous
 62
     7
370
    25
100
AcDbCircle
 10
195.9261427213
 20
76.1396218888
 30
0.0
 40
5.0
100
AcDbArc
 50
90.0
 51
180.0
  0
LINE
  5
34A
330
1F
100
AcDbEntity
  8
0
  6
Continuous
 62
     7
370
    25
100
AcDbLine
 10
190.9261427213
 20
26.1396218888
 30
0.0
 11
190.9261427213
 21
76.1396218888
 31
0.0
  0
ARC
  5
34B
330
1F
100
AcDbEntity
  8
0
  6
Continuous
 62
     7
370
    25
100
AcDbCircle
 10
195.9261427213
 20
26.1396218888
 30
0.0
 40
5.0
100
AcDbArc
 50
180.0
 51
270.0
  0
LINE
  5
34C
330
1F
100
AcDbEntity
  8
0
  6
Continuous
 62
     7
370
    25
100
AcDbLine
 10
205.9261427213
 20
21.1396218888
 30
0.0
 11
195.9261427213
 21
21.1396218888
 31
0.0
  0
ARC
  5
34D
330
1F
100
AcDbEntity
  8
0
  6
Continuous
 62
     7
370
    25
100
AcDbCircle
 10
205.9261427213
 20
16.1396218888
 30
0.0
 40
5.000000000000004
100
AcDbArc
 50
0.0
 51
90.0
  0
LINE
  5
34E
330
1F
100
AcDbEntity
  8
0
  6
Continuous
 62
     7
370
    25
100
AcDbLine
 10
210.9261427213
 20
6.1396218888
 30
0.0
 11
210.9261427213
 21
16.1396218888
 31
0.0
  0
ARC
  5
34F
330
1F
100
AcDbEntity
  8
0
  6
Continuous
 62
     7
370
    25
100
AcDbCircle
 10
205.9261427213
 20
6.1396218888
 30
0.0
 40
5.0
100
AcDbArc
 50
270.0
 51
0.0
  0
LINE
  5
350
330
1F
100
AcDbEntity
  8
0
  6
Continuous
 62
     7
370
    25
100
AcDbLine
 10
171.132698337
 20
1.1396218888
 30
0.0
 11
205.9261427213
 21
1.1396218888
 31
0.0
  0
ARC
  5
351
330
1F
100
AcDbEntity
  8
0
  6
Continuous
 62
     7
370
    25
100
AcDbCircle
 10
171.132698337
 20
11.1396218888
 30
0.0
 40
10.00000000000004
100
AcDbArc
 50
214.9920201986
 51
270.0
  0
LINE
  5
352
330
1F
100
AcDbEntity
  8
0
  6
Continuous
 62
     7
370
    25
100
AcDbLine
 10
162.9403791318
 20
5.4049984452
 30
0.0
 11
147.4598686764
 21
27.5200133814
 31
0.0
  0
ARC
  5
353
330
1F
100
AcDbEntity
  8
0
  6
Continuous
 62
     7
370
    25
100
AcDbCircle
 10
159.7483474842
 20
36.1219485469
 30
0.0
 40
14.99999999999999
100
AcDbArc
 50
152.4784464489
 51
214.9920201986
  0
ARC
  5
354
330
1F
100
AcDbEntity
  8
0
  6
Continuous
 62
     7
370
    25
100
AcDbCircle
 10
130.9261427213
 20
51.1396218888
 30
0.0
 40
17.50000000000001
100
AcDbArc
 50
332.4784464489
 51
27.5215535511
  0
ARC
  5
355
330
1F
100
AcDbEntity
  8
0
  6
Continuous
 62
     7
370
    25
100
AcDbCircle
 10
159.7483474842
 20
66.1572952307
 30
0.0
 40
14.99999999999998
100
AcDbArc
 50
145.0079798014
 51
207.5215535511
  0
LINE
  5
356
330
1F
100
AcDbEntity
  8
0
  6
Continuous
 62
     7
370
    25
100
AcDbLine
 10
147.4598686764
 20
74.7592303961
 30
0.0
 11
162.9403791318
 21
96.8742453324
 31
0.0
  0
ARC
  5
357
330
1F
100
AcDbEntity
  8
0
  6
Continuous
 62
     7
370
    25
100
AcDbCircle
 10
171.132698337
 20
91.1396218888
 30
0.0
 40
10.00000000000002
100
AcDbArc
 50
90.0
 51
145.0079798014
  0
CIRCLE
  5
358
330
1F
100
AcDbEntity
  8
0
  6
Continuous
 62
     7
370
    25
100
AcDbCircle
 10
180.9261427213
 20
51.1396218888
 30
0.0
 40
2.550000000000004
  0
CIRCLE
  5
359
330
1F
100
AcDbEntity
  8
0
  6
Continuous
 62
     7
370
    25
100
AcDbCircle
 10
180.9261427213
 20
11.1396218888
 30
0.0
 40
2.54999999999999
  0
CIRCLE
  5
35A
330
1F
100
AcDbEntity
  8
0
  6
Continuous
 62
     7
370
    25
100
AcDbCircle
 10
180.9261427213
 20
91.1396218888
 30
0.0
 40
2.549999999999997
  0
CIRCLE
  5
35B
330
1F
100
AcDbEntity
  8
0
  6
Continuous
 62
     7
370
    25
100
AcDbCircle
 10
200.9261427213
 20
11.1396218888
 30
0.0
 40
2.54999999999999
  0
CIRCLE
  5
35C
330
1F
100
AcDbEntity
  8
0
  6
Continuous
 62
     7
370
    25
100
AcDbCircle
 10
200.9261427213
 20
91.1396218888
 30
0.0
 40
2.549999999999997
  0
MTEXT
  5
35E
330
1F
100
AcDbEntity
  8
0
  6
Continuous
 62
     7
100
AcDbMText
 10
0.0
 20
6.6902615694
 30
0.0
 40
5.19
 41
0.0
 71
     1
 72
     1
  1
SOLIDWORKS pi (pIgp)
  7
SLDTEXTSTYLE0
 73
     1
 44
1.0
  0
ENDSEC
  0
SECTION
  2
OBJECTS
  0
DICTIONARY
  5
C
330
0
100
AcDbDictionary
281
     1
  3
ACAD_GROUP
350
D
  3
ACAD_LAYOUT
350
1A
  3
ACAD_MLINESTYLE
350
17
  3
ACAD_PLOTSETTINGS
350
19
  3
ACAD_PLOTSTYLENAME
350
E
  3
ACAD_SCALELIST
350
47
  3
DWGPROPS
350
35F
  0
DICTIONARY
  5
D
102
{ACAD_REACTORS
330
C
102
}
330
C
100
AcDbDictionary
281
     1
  0
DICTIONARY
  5
1A
102
{ACAD_REACTORS
330
C
102
}
330
C
100
AcDbDictionary
281
     1
  3
Layout1
350
1E
  3
Layout2
350
26
  3
Model
350
22
  0
DICTIONARY
  5
17
102
{ACAD_REACTORS
330
C
102
}
330
C
100
AcDbDictionary
281
     1
  3
Standard
350
18
  0
DICTIONARY
  5
19
102
{ACAD_REACTORS
330
C
102
}
330
C
100
AcDbDictionary
281
     1
  0
ACDBDICTIONARYWDFLT
  5
E
102
{ACAD_REACTORS
330
C
102
}
330
C
100
AcDbDictionary
281
     1
  3
Normal
350
F
100
AcDbDictionaryWithDefault
340
F
  0
DICTIONARY
  5
47
102
{ACAD_REACTORS
330
C
102
}
330
C
100
AcDbDictionary
281
     1
  3
A0
350
48
  3
A1
350
49
  3
A2
350
4A
  3
A3
350
4B
  3
A4
350
4C
  3
A5
350
4D
  3
A6
350
4E
  3
A7
350
4F
  3
A8
350
50
  3
A9
350
51
  3
B0
350
52
  3
B1
350
53
  3
B2
350
54
  3
B3
350
55
  3
B4
350
56
  3
B5
350
57
  3
B6
350
58
  3
B7
350
59
  3
B8
350
5A
  3
B9
350
5B
  3
C0
350
5C
  3
C1
350
5D
  3
C2
350
5E
  3
C3
350
5F
  3
C4
350
60
  3
C5
350
61
  3
C6
350
62
  3
C7
350
63
  3
C8
350
64
  3
C9
350
65
  3
D0
350
66
  3
D1
350
67
  3
D2
350
68
  0
XRECORD
  5
35F
102
{ACAD_REACTORS
330
C
102
}
330
C
100
AcDbXrecord
280
     1
  1
DWGPROPS COOKIE
  2

  3

  4

  6

  7

  8
Kazuya Oguma
  9

300
=
301
=
302
=
303
=
304
=
305
=
306
=
307
=
308
=
309
=
 40
0.0
 41
2459474.059770857
 42
2459474.059772662
  1

 90
        0
  0
LAYOUT
  5
1E
102
{ACAD_REACTORS
330
1A
102
}
330
1A
100
AcDbPlotSettings
  1

  2
none_device
  4

  6

 40
0.0
 41
0.0
 42
0.0
 43
0.0
 44
0.0
 45
0.0
 46
0.0
 47
0.0
 48
0.0
 49
0.0
140
0.0
141
0.0
142
1.0
143
1.0
 70
   688
 72
     1
 73
     0
 74
     5
  7

 75
    16
147
1.0
148
0.0
149
0.0
100
AcDbLayout
  1
Layout1
 70
     1
 71
     1
 10
0.0
 20
0.0
 11
420.0
 21
297.0
 12
0.0
 22
0.0
 32
0.0
 14
1.0000000000E+20
 24
1.0000000000E+20
 34
1.0000000000E+20
 15
-1.0000000000E+20
 25
-1.0000000000E+20
 35
-1.0000000000E+20
146
0.0
 13
0.0
 23
0.0
 33
0.0
 16
1.0
 26
0.0
 36
0.0
 17
0.0
 27
1.0
 37
0.0
 76
     0
330
1B
  0
LAYOUT
  5
26
102
{ACAD_REACTORS
330
1A
102
}
330
1A
100
AcDbPlotSettings
  1

  2
none_device
  4

  6

 40
0.0
 41
0.0
 42
0.0
 43
0.0
 44
0.0
 45
0.0
 46
0.0
 47
0.0
 48
0.0
 49
0.0
140
0.0
141
0.0
142
1.0
143
1.0
 70
   688
 72
     1
 73
     0
 74
     5
  7

 75
    16
147
1.0
148
0.0
149
0.0
100
AcDbLayout
  1
Layout2
 70
     1
 71
     2
 10
0.0
 20
0.0
 11
0.0
 21
0.0
 12
0.0
 22
0.0
 32
0.0
 14
0.0
 24
0.0
 34
0.0
 15
0.0
 25
0.0
 35
0.0
146
0.0
 13
0.0
 23
0.0
 33
0.0
 16
1.0
 26
0.0
 36
0.0
 17
0.0
 27
1.0
 37
0.0
 76
     0
330
23
  0
LAYOUT
  5
22
102
{ACAD_REACTORS
330
1A
102
}
330
1A
100
AcDbPlotSettings
  1

  2
none_device
  4
Letter_(8.50_x_11.00_Inches)
  6

 40
6.35
 41
6.35
 42
6.35000508
 43
6.35000508
 44
215.9
 45
279.4
 46
0.0
 47
0.0
 48
0.0
 49
0.0
140
0.0
141
0.0
142
1.0
143
1.0
 70
  1712
 72
     1
 73
     0
 74
     0
  7

 75
     0
147
1.0
148
0.0
149
0.0
100
AcDbLayout
  1
Model
 70
     1
 71
     0
 10
0.0
 20
0.0
 11
300.0
 21
300.0
 12
0.0
 22
0.0
 32
0.0
 14
0.0
 24
0.0
 34
0.0
 15
300.0
 25
300.0
 35
0.0
146
0.0
 13
0.0
 23
0.0
 33
0.0
 16
1.0
 26
0.0
 36
0.0
 17
0.0
 27
1.0
 37
0.0
 76
     0
330
1F
331
29
  0
MLINESTYLE
  5
18
102
{ACAD_REACTORS
330
17
102
}
330
17
100
AcDbMlineStyle
  2
Standard
 70
     0
  3

 62
   256
 51
90.0
 52
90.0
 71
     2
 49
0.5
 62
   256
  6
BYLAYER
 49
-0.5
 62
   256
  6
BYLAYER
  0
ACDBPLACEHOLDER
  5
F
102
{ACAD_REACTORS
330
E
102
}
330
E
  0
SCALE
  5
48
102
{ACAD_REACTORS
330
47
102
}
330
47
100
AcDbScale
 70
     0
300
1:1
140
1.0
141
1.0
290
     1
  0
SCALE
  5
49
102
{ACAD_REACTORS
330
47
102
}
330
47
100
AcDbScale
 70
     0
300
1:2
140
1.0
141
2.0
290
     0
  0
SCALE
  5
4A
102
{ACAD_REACTORS
330
47
102
}
330
47
100
AcDbScale
 70
     0
300
1:4
140
1.0
141
4.0
290
     0
  0
SCALE
  5
4B
102
{ACAD_REACTORS
330
47
102
}
330
47
100
AcDbScale
 70
     0
300
1:5
140
1.0
141
5.0
290
     0
  0
SCALE
  5
4C
102
{ACAD_REACTORS
330
47
102
}
330
47
100
AcDbScale
 70
     0
300
1:8
140
1.0
141
8.0
290
     0
  0
SCALE
  5
4D
102
{ACAD_REACTORS
330
47
102
}
330
47
100
AcDbScale
 70
     0
300
1:10
140
1.0
141
10.0
290
     0
  0
SCALE
  5
4E
102
{ACAD_REACTORS
330
47
102
}
330
47
100
AcDbScale
 70
     0
300
1:16
140
1.0
141
16.0
290
     0
  0
SCALE
  5
4F
102
{ACAD_REACTORS
330
47
102
}
330
47
100
AcDbScale
 70
     0
300
1:20
140
1.0
141
20.0
290
     0
  0
SCALE
  5
50
102
{ACAD_REACTORS
330
47
102
}
330
47
100
AcDbScale
 70
     0
300
1:30
140
1.0
141
30.0
290
     0
  0
SCALE
  5
51
102
{ACAD_REACTORS
330
47
102
}
330
47
100
AcDbScale
 70
     0
300
1:40
140
1.0
141
40.0
290
     0
  0
SCALE
  5
52
102
{ACAD_REACTORS
330
47
102
}
330
47
100
AcDbScale
 70
     0
300
1:50
140
1.0
141
50.0
290
     0
  0
SCALE
  5
53
102
{ACAD_REACTORS
330
47
102
}
330
47
100
AcDbScale
 70
     0
300
1:100
140
1.0
141
100.0
290
     0
  0
SCALE
  5
54
102
{ACAD_REACTORS
330
47
102
}
330
47
100
AcDbScale
 70
     0
300
2:1
140
2.0
141
1.0
290
     0
  0
SCALE
  5
55
102
{ACAD_REACTORS
330
47
102
}
330
47
100
AcDbScale
 70
     0
300
4:1
140
4.0
141
1.0
290
     0
  0
SCALE
  5
56
102
{ACAD_REACTORS
330
47
102
}
330
47
100
AcDbScale
 70
     0
300
8:1
140
8.0
141
1.0
290
     0
  0
SCALE
  5
57
102
{ACAD_REACTORS
330
47
102
}
330
47
100
AcDbScale
 70
     0
300
10:1
140
10.0
141
1.0
290
     0
  0
SCALE
  5
58
102
{ACAD_REACTORS
330
47
102
}
330
47
100
AcDbScale
 70
     0
300
100:1
140
100.0
141
1.0
290
     0
  0
SCALE
  5
59
102
{ACAD_REACTORS
330
47
102
}
330
47
100
AcDbScale
 70
     0
300
1/128" = 1'-0"
140
0.0078125
141
12.0
290
     0
  0
SCALE
  5
5A
102
{ACAD_REACTORS
330
47
102
}
330
47
100
AcDbScale
 70
     0
300
1/64" = 1'-0"
140
0.015625
141
12.0
290
     0
  0
SCALE
  5
5B
102
{ACAD_REACTORS
330
47
102
}
330
47
100
AcDbScale
 70
     0
300
1/32" = 1'-0"
140
0.03125
141
12.0
290
     0
  0
SCALE
  5
5C
102
{ACAD_REACTORS
330
47
102
}
330
47
100
AcDbScale
 70
     0
300
1/16" = 1'-0"
140
0.0625
141
12.0
290
     0
  0
SCALE
  5
5D
102
{ACAD_REACTORS
330
47
102
}
330
47
100
AcDbScale
 70
     0
300
3/32" = 1'-0"
140
0.09375
141
12.0
290
     0
  0
SCALE
  5
5E
102
{ACAD_REACTORS
330
47
102
}
330
47
100
AcDbScale
 70
     0
300
1/8" = 1'-0"
140
0.125
141
12.0
290
     0
  0
SCALE
  5
5F
102
{ACAD_REACTORS
330
47
102
}
330
47
100
AcDbScale
 70
     0
300
3/16" = 1'-0"
140
0.1875
141
12.0
290
     0
  0
SCALE
  5
60
102
{ACAD_REACTORS
330
47
102
}
330
47
100
AcDbScale
 70
     0
300
1/4" = 1'-0"
140
0.25
141
12.0
290
     0
  0
SCALE
  5
61
102
{ACAD_REACTORS
330
47
102
}
330
47
100
AcDbScale
 70
     0
300
3/8" = 1'-0"
140
0.375
141
12.0
290
     0
  0
SCALE
  5
62
102
{ACAD_REACTORS
330
47
102
}
330
47
100
AcDbScale
 70
     0
300
1/2" = 1'-0"
140
0.5
141
12.0
290
     0
  0
SCALE
  5
63
102
{ACAD_REACTORS
330
47
102
}
330
47
100
AcDbScale
 70
     0
300
3/4" = 1'-0"
140
0.75
141
12.0
290
     0
  0
SCALE
  5
64
102
{ACAD_REACTORS
330
47
102
}
330
47
100
AcDbScale
 70
     0
300
1" = 1'-0"
140
1.0
141
12.0
290
     0
  0
SCALE
  5
65
102
{ACAD_REACTORS
330
47
102
}
330
47
100
AcDbScale
 70
     0
300
1-1/2" = 1'-0"
140
1.5
141
12.0
290
     0
  0
SCALE
  5
66
102
{ACAD_REACTORS
330
47
102
}
330
47
100
AcDbScale
 70
     0
300
3" = 1'-0"
140
3.0
141
12.0
290
     0
  0
SCALE
  5
67
102
{ACAD_REACTORS
330
47
102
}
330
47
100
AcDbScale
 70
     0
300
6" = 1'-0"
140
6.0
141
12.0
290
     0
  0
SCALE
  5
68
102
{ACAD_REACTORS
330
47
102
}
330
47
100
AcDbScale
 70
     0
300
1'-0" = 1'-0"
140
12.0
141
12.0
290
     0
  0
ENDSEC
  0
EOF
