  0
SECTION
  2
HEADER
  9
$ACADVER
  1
AC1015
  9
$ACADMAINTVER
 70
     6
  9
$DWGCODEPAGE
  3
DOS932
  9
$INSBASE
 10
0.0
 20
0.0
 30
0.0
  9
$EXTMIN
 10
0.0
 20
0.0
 30
0.0
  9
$EXTMAX
 10
300.0
 20
300.0
 30
0.0
  9
$LIMMIN
 10
0.0
 20
0.0
  9
$LIMMAX
 10
300.0
 20
300.0
  9
$ORTHOMODE
 70
     0
  9
$REGENMODE
 70
     1
  9
$FILLMODE
 70
     1
  9
$QTEXTMODE
 70
     0
  9
$MIRRTEXT
 70
     1
  9
$LTSCALE
 40
1.0
  9
$ATTMODE
 70
     1
  9
$TEXTSIZE
 40
3.5
  9
$TRACEWID
 40
1.0
  9
$TEXTSTYLE
  7
Standard
  9
$CLAYER
  8
0
  9
$CELTYPE
  6
ByLayer
  9
$CECOLOR
 62
   256
  9
$CELTSCALE
 40
1.0
  9
$DISPSILH
 70
     0
  9
$DIMSCALE
 40
1.0
  9
$DIMASZ
 40
3.302
  9
$DIMEXO
 40
1.0
  9
$DIMDLI
 40
3.75
  9
$DIMRND
 40
0.0
  9
$DIMDLE
 40
0.0
  9
$DIMEXE
 40
1.0
  9
$DIMTP
 40
0.0
  9
$DIMTM
 40
0.0
  9
$DIMTXT
 40
3.5
  9
$DIMCEN
 40
2.5
  9
$DIMTSZ
 40
0.0
  9
$DIMTOL
 70
     0
  9
$DIMLIM
 70
     0
  9
$DIMTIH
 70
     1
  9
$DIMTOH
 70
     1
  9
$DIMSE1
 70
     0
  9
$DIMSE2
 70
     0
  9
$DIMTAD
 70
     1
  9
$DIMZIN
 70
     1
  9
$DIMBLK
  1

  9
$DIMASO
 70
     1
  9
$DIMSHO
 70
     1
  9
$DIMPOST
  1

  9
$DIMAPOST
  1

  9
$DIMALT
 70
     0
  9
$DIMALTD
 70
     3
  9
$DIMALTF
 40
0.0393700787
  9
$DIMLFAC
 40
1.0
  9
$DIMTOFL
 70
     1
  9
$DIMTVP
 40
0.0
  9
$DIMTIX
 70
     0
  9
$DIMSOXD
 70
     0
  9
$DIMSAH
 70
     0
  9
$DIMBLK1
  1

  9
$DIMBLK2
  1

  9
$DIMSTYLE
  2
ISO-25
  9
$DIMCLRD
 70
     0
  9
$DIMCLRE
 70
     0
  9
$DIMCLRT
 70
     0
  9
$DIMTFAC
 40
1.0
  9
$DIMGAP
 40
1.524
  9
$DIMJUST
 70
     0
  9
$DIMSD1
 70
     0
  9
$DIMSD2
 70
     0
  9
$DIMTOLJ
 70
     0
  9
$DIMTZIN
 70
     1
  9
$DIMALTZ
 70
     0
  9
$DIMALTTZ
 70
     0
  9
$DIMUPT
 70
     0
  9
$DIMDEC
 70
     2
  9
$DIMTDEC
 70
     2
  9
$DIMALTU
 70
     2
  9
$DIMALTTD
 70
     3
  9
$DIMTXSTY
  7
Standard
  9
$DIMAUNIT
 70
     0
  9
$DIMADEC
 70
     2
  9
$DIMALTRND
 40
0.0
  9
$DIMAZIN
 70
     0
  9
$DIMDSEP
 70
    44
  9
$DIMATFIT
 70
     3
  9
$DIMFRAC
 70
     0
  9
$DIMLDRBLK
  1

  9
$DIMLUNIT
 70
     2
  9
$DIMLWD
 70
    -2
  9
$DIMLWE
 70
    -2
  9
$DIMTMOVE
 70
     0
  9
$LUNITS
 70
     2
  9
$LUPREC
 70
     2
  9
$SKETCHINC
 40
1.0
  9
$FILLETRAD
 40
10.0
  9
$AUNITS
 70
     0
  9
$AUPREC
 70
     2
  9
$MENU
  1
.
  9
$ELEVATION
 40
0.0
  9
$PELEVATION
 40
0.0
  9
$THICKNESS
 40
0.0
  9
$LIMCHECK
 70
     0
  9
$CHAMFERA
 40
0.0
  9
$CHAMFERB
 40
0.0
  9
$CHAMFERC
 40
0.0
  9
$CHAMFERD
 40
0.0
  9
$SKPOLY
 70
     0
  9
$TDCREATE
 40
2459478.953913044
  9
$TDUCREATE
 40
2459478.578913044
  9
$TDUPDATE
 40
2459478.953914826
  9
$TDUUPDATE
 40
2459478.578914826
  9
$TDINDWG
 40
0.0000000116
  9
$TDUSRTIMER
 40
0.0000000116
  9
$USRTIMER
 70
     1
  9
$ANGBASE
 50
0.0
  9
$ANGDIR
 70
     0
  9
$PDMODE
 70
     0
  9
$PDSIZE
 40
-1.0
  9
$PLINEWID
 40
0.0
  9
$SPLFRAME
 70
     0
  9
$SPLINETYPE
 70
     6
  9
$SPLINESEGS
 70
     8
  9
$HANDSEED
  5
36E
  9
$SURFTAB1
 70
     6
  9
$SURFTAB2
 70
     6
  9
$SURFTYPE
 70
     6
  9
$SURFU
 70
     6
  9
$SURFV
 70
     6
  9
$UCSBASE
  2

  9
$UCSNAME
  2

  9
$UCSORG
 10
0.0
 20
0.0
 30
0.0
  9
$UCSXDIR
 10
1.0
 20
0.0
 30
0.0
  9
$UCSYDIR
 10
0.0
 20
1.0
 30
0.0
  9
$UCSORTHOREF
  2

  9
$UCSORTHOVIEW
 70
     0
  9
$UCSORGTOP
 10
0.0
 20
0.0
 30
0.0
  9
$UCSORGBOTTOM
 10
0.0
 20
0.0
 30
0.0
  9
$UCSORGLEFT
 10
0.0
 20
0.0
 30
0.0
  9
$UCSORGRIGHT
 10
0.0
 20
0.0
 30
0.0
  9
$UCSORGFRONT
 10
0.0
 20
0.0
 30
0.0
  9
$UCSORGBACK
 10
0.0
 20
0.0
 30
0.0
  9
$PUCSBASE
  2

  9
$PUCSNAME
  2

  9
$PUCSORG
 10
0.0
 20
0.0
 30
0.0
  9
$PUCSXDIR
 10
1.0
 20
0.0
 30
0.0
  9
$PUCSYDIR
 10
0.0
 20
1.0
 30
0.0
  9
$PUCSORTHOREF
  2

  9
$PUCSORTHOVIEW
 70
     0
  9
$PUCSORGTOP
 10
0.0
 20
0.0
 30
0.0
  9
$PUCSORGBOTTOM
 10
0.0
 20
0.0
 30
0.0
  9
$PUCSORGLEFT
 10
0.0
 20
0.0
 30
0.0
  9
$PUCSORGRIGHT
 10
0.0
 20
0.0
 30
0.0
  9
$PUCSORGFRONT
 10
0.0
 20
0.0
 30
0.0
  9
$PUCSORGBACK
 10
0.0
 20
0.0
 30
0.0
  9
$USERI1
 70
     0
  9
$USERI2
 70
     0
  9
$USERI3
 70
     0
  9
$USERI4
 70
     0
  9
$USERI5
 70
     0
  9
$USERR1
 40
0.0
  9
$USERR2
 40
0.0
  9
$USERR3
 40
0.0
  9
$USERR4
 40
0.0
  9
$USERR5
 40
0.0
  9
$WORLDVIEW
 70
     1
  9
$SHADEDGE
 70
     3
  9
$SHADEDIF
 70
    70
  9
$TILEMODE
 70
     1
  9
$MAXACTVP
 70
    64
  9
$PINSBASE
 10
0.0
 20
0.0
 30
0.0
  9
$PLIMCHECK
 70
     0
  9
$PEXTMIN
 10
1.0000000000E+20
 20
1.0000000000E+20
 30
1.0000000000E+20
  9
$PEXTMAX
 10
-1.0000000000E+20
 20
-1.0000000000E+20
 30
-1.0000000000E+20
  9
$PLIMMIN
 10
0.0
 20
0.0
  9
$PLIMMAX
 10
420.0
 20
297.0
  9
$UNITMODE
 70
     0
  9
$VISRETAIN
 70
     1
  9
$PLINEGEN
 70
     0
  9
$PSLTSCALE
 70
     1
  9
$TREEDEPTH
 70
  3020
  9
$CMLSTYLE
  2
Standard
  9
$CMLJUST
 70
     0
  9
$CMLSCALE
 40
20.0
  9
$PROXYGRAPHICS
 70
     1
  9
$MEASUREMENT
 70
     1
  9
$CELWEIGHT
370
    -1
  9
$ENDCAPS
280
     0
  9
$JOINSTYLE
280
     0
  9
$LWDISPLAY
290
     1
  9
$INSUNITS
 70
     4
  9
$HYPERLINKBASE
  1

  9
$STYLESHEET
  1

  9
$XEDIT
290
     1
  9
$CEPSNTYPE
380
     0
  9
$PSTYLEMODE
290
     1
  9
$FINGERPRINTGUID
  2
{01dab72e-5b20-40cd-b341-46c36629606d}
  9
$VERSIONGUID
  2
{FAEB1C32-E019-11D5-929B-00C0DF256EC4}
  9
$EXTNAMES
290
     1
  9
$PSVPSCALE
 40
0.0
  9
$OLESTARTUP
290
     0
  0
ENDSEC
  0
SECTION
  2
CLASSES
  0
CLASS
  1
ACDBDICTIONARYWDFLT
  2
AcDbDictionaryWithDefault
  3
ObjectDBX Classes
 90
        0
280
     0
281
     0
  0
CLASS
  1
VISUALSTYLE
  2
AcDbVisualStyle
  3
ObjectDBX Classes
 90
     4095
280
     0
281
     0
  0
CLASS
  1
MATERIAL
  2
AcDbMaterial
  3
ObjectDBX Classes
 90
     1153
280
     0
281
     0
  0
CLASS
  1
SCALE
  2
AcDbScale
  3
ObjectDBX Classes
 90
     1153
280
     0
281
     0
  0
CLASS
  1
TABLESTYLE
  2
AcDbTableStyle
  3
ObjectDBX Classes
 90
     4095
280
     0
281
     0
  0
CLASS
  1
MLEADERSTYLE
  2
AcDbMLeaderStyle
  3
ACDB_MLEADERSTYLE_CLASS
 90
     4095
280
     0
281
     0
  0
CLASS
  1
SUN
  2
AcDbSun
  3
SCENEOE
 90
     1153
280
     0
281
     0
  0
CLASS
  1
ACDBPLACEHOLDER
  2
AcDbPlaceHolder
  3
ObjectDBX Classes
 90
        0
280
     0
281
     0
  0
CLASS
  1
LAYOUT
  2
AcDbLayout
  3
ObjectDBX Classes
 90
        0
280
     0
281
     0
  0
ENDSEC
  0
SECTION
  2
TABLES
  0
TABLE
  2
VPORT
  5
8
330
0
100
AcDbSymbolTable
 70
     1
  0
VPORT
  5
29
330
8
100
AcDbSymbolTableRecord
100
AcDbViewportTableRecord
  2
*Active
 70
     0
 10
0.0
 20
0.0
 11
1.0
 21
1.0
 12
150.0
 22
150.0
 13
0.0
 23
0.0
 14
10.0
 24
10.0
 15
10.0
 25
10.0
 16
0.0
 26
0.0
 36
1.0
 17
0.0
 27
0.0
 37
0.0
 40
300.0
 41
1.0
 42
50.0
 43
0.0
 44
0.0
 50
0.0
 51
0.0
 71
     0
 72
  2000
 73
     1
 74
     3
 75
     0
 76
     0
 77
     0
 78
     0
281
     0
 65
     1
110
0.0
120
0.0
130
0.0
111
1.0
121
0.0
131
0.0
112
0.0
122
1.0
132
0.0
 79
     0
146
0.0
  0
ENDTAB
  0
TABLE
  2
LTYPE
  5
5
330
0
100
AcDbSymbolTable
 70
     6
  0
LTYPE
  5
14
330
5
100
AcDbSymbolTableRecord
100
AcDbLinetypeTableRecord
  2
ByBlock
 70
     0
  3

 72
    65
 73
     0
 40
0.0
  0
LTYPE
  5
15
330
5
100
AcDbSymbolTableRecord
100
AcDbLinetypeTableRecord
  2
ByLayer
 70
     0
  3

 72
    65
 73
     0
 40
0.0
  0
LTYPE
  5
16
330
5
100
AcDbSymbolTableRecord
100
AcDbLinetypeTableRecord
  2
Continuous
 70
     0
  3
Solid line
 72
    65
 73
     0
 40
0.0
  0
LTYPE
  5
6E
330
5
100
AcDbSymbolTableRecord
100
AcDbLinetypeTableRecord
  2
HIDDEN
 70
     0
  3
Hidden __ __ __ __ __ __ __ __ __ __ __ __ __ __
 72
    65
 73
     2
 40
1.905
 49
1.27
 74
     0
 49
-0.635
 74
     0
  0
LTYPE
  5
6F
330
5
100
AcDbSymbolTableRecord
100
AcDbLinetypeTableRecord
  2
PHANTOM
 70
     0
  3
Phantom ______  __  __  ______  __  __  ______
 72
    65
 73
     6
 40
12.7
 49
6.35
 74
     0
 49
-1.27
 74
     0
 49
1.27
 74
     0
 49
-1.27
 74
     0
 49
1.27
 74
     0
 49
-1.27
 74
     0
  0
LTYPE
  5
70
330
5
100
AcDbSymbolTableRecord
100
AcDbLinetypeTableRecord
  2
CENTER
 70
     0
  3
Center ____ _ ____ _ ____ _ ____ _ ____ _ ____
 72
    65
 73
     4
 40
10.16
 49
6.35
 74
     0
 49
-1.27
 74
     0
 49
1.27
 74
     0
 49
-1.27
 74
     0
  0
LTYPE
  5
71
330
5
100
AcDbSymbolTableRecord
100
AcDbLinetypeTableRecord
  2
CENTERX2
 70
     0
  3
Center (2x) ________  __  ________  __  _____
 72
    65
 73
     4
 40
20.32
 49
12.7
 74
     0
 49
-2.54
 74
     0
 49
2.54
 74
     0
 49
-2.54
 74
     0
  0
LTYPE
  5
72
330
5
100
AcDbSymbolTableRecord
100
AcDbLinetypeTableRecord
  2
DOT2
 70
     0
  3
Dot (.5x) ........................................
 72
    65
 73
     2
 40
0.635
 49
0.0
 74
     0
 49
-0.635
 74
     0
  0
ENDTAB
  0
TABLE
  2
LAYER
  5
2
330
0
100
AcDbSymbolTable
 70
     1
  0
LAYER
  5
10
330
2
100
AcDbSymbolTableRecord
100
AcDbLayerTableRecord
  2
0
 70
     0
 62
     7
  6
Continuous
370
    -3
390
F
  0
ENDTAB
  0
TABLE
  2
STYLE
  5
3
330
0
100
AcDbSymbolTable
 70
     2
  0
STYLE
  5
11
330
3
100
AcDbSymbolTableRecord
100
AcDbTextStyleTableRecord
  2
Standard
 70
     0
 40
0.0
 41
1.0
 50
0.0
 71
     0
 42
3.5
  3
txt
  4
bigfont
  0
STYLE
  5
36B
330
3
100
AcDbSymbolTableRecord
100
AcDbTextStyleTableRecord
  2
SLDTEXTSTYLE0
 70
     0
 40
0.0
 41
0.7
 50
0.0
 71
     0
 42
3.5
  3
TXT
  4
bigfont
  0
ENDTAB
  0
TABLE
  2
VIEW
  5
6
330
0
100
AcDbSymbolTable
 70
     0
  0
ENDTAB
  0
TABLE
  2
UCS
  5
7
330
0
100
AcDbSymbolTable
 70
     0
  0
ENDTAB
  0
TABLE
  2
APPID
  5
9
330
0
100
AcDbSymbolTable
 70
     1
  0
APPID
  5
12
330
9
100
AcDbSymbolTableRecord
100
AcDbRegAppTableRecord
  2
ACAD
 70
     0
  0
ENDTAB
  0
TABLE
  2
DIMSTYLE
  5
A
330
0
100
AcDbSymbolTable
 70
     1
100
AcDbDimStyleTable
  0
DIMSTYLE
105
27
330
A
100
AcDbSymbolTableRecord
100
AcDbDimStyleTableRecord
  2
ISO-25
 70
     0
 41
2.5
 42
0.625
 43
3.75
 44
1.25
 73
     0
 74
     0
 77
     1
 78
     8
140
2.5
141
2.5
143
0.0393700787
147
0.625
171
     3
172
     1
178
     0
271
     2
272
     2
274
     3
278
    44
283
     0
284
     8
340
11
  0
ENDTAB
  0
TABLE
  2
BLOCK_RECORD
  5
1
330
0
100
AcDbSymbolTable
 70
     1
  0
BLOCK_RECORD
  5
1F
330
1
100
AcDbSymbolTableRecord
100
AcDbBlockTableRecord
  2
*Model_Space
340
22
  0
BLOCK_RECORD
  5
1B
330
1
100
AcDbSymbolTableRecord
100
AcDbBlockTableRecord
  2
*Paper_Space
340
1E
  0
BLOCK_RECORD
  5
23
330
1
100
AcDbSymbolTableRecord
100
AcDbBlockTableRecord
  2
*Paper_Space0
340
26
  0
ENDTAB
  0
ENDSEC
  0
SECTION
  2
BLOCKS
  0
BLOCK
  5
20
330
1F
100
AcDbEntity
  8
0
100
AcDbBlockBegin
  2
*Model_Space
 70
     0
 10
0.0
 20
0.0
 30
0.0
  3
*Model_Space
  1

  0
ENDBLK
  5
21
330
1F
100
AcDbEntity
  8
0
100
AcDbBlockEnd
  0
BLOCK
  5
1C
330
1B
100
AcDbEntity
 67
     1
  8
0
100
AcDbBlockBegin
  2
*Paper_Space
 70
     0
 10
0.0
 20
0.0
 30
0.0
  3
*Paper_Space
  1

  0
ENDBLK
  5
1D
330
1B
100
AcDbEntity
 67
     1
  8
0
100
AcDbBlockEnd
  0
BLOCK
  5
24
330
23
100
AcDbEntity
  8
0
100
AcDbBlockBegin
  2
*Paper_Space0
 70
     0
 10
0.0
 20
0.0
 30
0.0
  3
*Paper_Space0
  1

  0
ENDBLK
  5
25
330
23
100
AcDbEntity
  8
0
100
AcDbBlockEnd
  0
ENDSEC
  0
SECTION
  2
ENTITIES
  0
CIRCLE
  5
73
330
1F
100
AcDbEntity
  8
0
  6
Continuous
 62
     7
370
    25
100
AcDbCircle
 10
3.3328027536
 20
52.6868123631
 30
0.0
 40
1.600000000000009
  0
CIRCLE
  5
74
330
1F
100
AcDbEntity
  8
0
  6
Continuous
 62
     7
370
    25
100
AcDbCircle
 10
19.8328027536
 20
43.1605329215
 30
0.0
 40
1.600000000000001
  0
CIRCLE
  5
75
330
1F
100
AcDbEntity
  8
0
  6
Continuous
 62
     7
370
    25
100
AcDbCircle
 10
19.8328027536
 20
62.2130918048
 30
0.0
 40
1.600000000000001
  0
ARC
  5
76
330
1F
100
AcDbEntity
  8
0
  6
Continuous
 62
     7
370
    25
100
AcDbCircle
 10
22.9552429535
 20
47.3318123631
 30
0.0
 40
2.099999999999996
100
AcDbArc
 50
90.0
 51
144.3078773761
  0
ARC
  5
77
330
1F
100
AcDbEntity
  8
0
  6
Continuous
 62
     7
370
    25
100
AcDbCircle
 10
23.137370619
 20
47.6368534817
 30
0.0
 40
2.099999999999997
100
AcDbArc
 50
154.012702045
 51
210.0
  0
LINE
  5
78
330
1F
100
AcDbEntity
  8
0
  6
Continuous
 62
     7
370
    25
100
AcDbLine
 10
22.430878965
 20
44.6605329215
 30
0.0
 11
21.318717271
 21
46.5868534817
 31
0.0
  0
ARC
  5
79
330
1F
100
AcDbEntity
  8
0
  6
Continuous
 62
     7
370
    25
100
AcDbCircle
 10
19.8328027536
 20
43.1605329215
 30
0.0
 40
3.000000000000005
100
AcDbArc
 50
210.0
 51
30.0
  0
LINE
  5
7A
330
1F
100
AcDbEntity
  8
0
  6
Continuous
 62
     7
370
    25
100
AcDbLine
 10
16.1225648483
 20
43.5868534817
 30
0.0
 11
17.2347265423
 21
41.6605329215
 31
0.0
  0
ARC
  5
7B
330
1F
100
AcDbEntity
  8
0
  6
Continuous
 62
     7
370
    25
100
AcDbCircle
 10
14.3039115004
 20
42.5368534817
 30
0.0
 40
2.1
100
AcDbArc
 50
30.0
 51
89.8369114176
  0
ARC
  5
7C
330
1F
100
AcDbEntity
  8
0
  6
Continuous
 62
     7
370
    25
100
AcDbCircle
 10
5.5571261415
 20
47.5868123631
 30
0.0
 40
2.100000000000001
100
AcDbArc
 50
30.1630885824
 51
90.0
  0
LINE
  5
7D
330
1F
100
AcDbEntity
  8
0
  6
Continuous
 62
     7
370
    25
100
AcDbLine
 10
3.3328027536
 20
49.6868123631
 30
0.0
 11
5.5571261415
 21
49.6868123631
 31
0.0
  0
ARC
  5
7E
330
1F
100
AcDbEntity
  8
0
  6
Continuous
 62
     7
370
    25
100
AcDbCircle
 10
3.3328027536
 20
52.6868123631
 30
0.0
 40
3.000000000000007
100
AcDbArc
 50
90.0
 51
270.0
  0
LINE
  5
7F
330
1F
100
AcDbEntity
  8
0
  6
Continuous
 62
     7
370
    25
100
AcDbLine
 10
5.5571261415
 20
55.6868123631
 30
0.0
 11
3.3328027536
 21
55.6868123631
 31
0.0
  0
ARC
  5
80
330
1F
100
AcDbEntity
  8
0
  6
Continuous
 62
     7
370
    25
100
AcDbCircle
 10
5.5571261415
 20
57.7868123631
 30
0.0
 40
2.100000000000009
100
AcDbArc
 50
270.0
 51
329.8369114176
  0
ARC
  5
81
330
1F
100
AcDbEntity
  8
0
  6
Continuous
 62
     7
370
    25
100
AcDbCircle
 10
14.3039115004
 20
62.8367712446
 30
0.0
 40
2.100000000000006
100
AcDbArc
 50
270.1630885824
 51
330.0
  0
LINE
  5
82
330
1F
100
AcDbEntity
  8
0
  6
Continuous
 62
     7
370
    25
100
AcDbLine
 10
17.2347265423
 20
63.7130918048
 30
0.0
 11
16.1225648483
 21
61.7867712446
 31
0.0
  0
ARC
  5
83
330
1F
100
AcDbEntity
  8
0
  6
Continuous
 62
     7
370
    25
100
AcDbCircle
 10
19.8328027536
 20
62.2130918048
 30
0.0
 40
3.000000000000004
100
AcDbArc
 50
330.0
 51
150.0
  0
LINE
  5
84
330
1F
100
AcDbEntity
  8
0
  6
Continuous
 62
     7
370
    25
100
AcDbLine
 10
21.318717271
 20
58.7867712446
 30
0.0
 11
22.430878965
 21
60.7130918048
 31
0.0
  0
ARC
  5
85
330
1F
100
AcDbEntity
  8
0
  6
Continuous
 62
     7
370
    25
100
AcDbCircle
 10
23.137370619
 20
57.7367712446
 30
0.0
 40
2.100000000000001
100
AcDbArc
 50
150.0
 51
205.987297955
  0
ARC
  5
86
330
1F
100
AcDbEntity
  8
0
  6
Continuous
 62
     7
370
    25
100
AcDbCircle
 10
22.9552429535
 20
58.0418123631
 30
0.0
 40
2.1
100
AcDbArc
 50
215.6921226239
 51
270.0
  0
ARC
  5
87
330
1F
100
AcDbEntity
  8
0
  6
Continuous
 62
     7
370
    25
100
AcDbCircle
 10
25.8253091437
 20
56.9418123631
 30
0.0
 40
1.249999999999994
100
AcDbArc
 50
233.1301023542
 51
306.8698976458
  0
ARC
  5
88
330
1F
100
AcDbEntity
  8
0
  6
Continuous
 62
     7
370
    25
100
AcDbCircle
 10
21.0124341057
 20
54.9418123631
 30
0.0
 40
1.0
100
AcDbArc
 50
198.6543469823
 51
270.0
  0
ARC
  5
89
330
1F
100
AcDbEntity
  8
0
  6
Continuous
 62
     7
370
    25
100
AcDbCircle
 10
21.0124341057
 20
50.4318123631
 30
0.0
 40
1.000000000000007
100
AcDbArc
 50
90.0
 51
161.3456530177
  0
ARC
  5
8A
330
1F
100
AcDbEntity
  8
0
  6
Continuous
 62
     7
370
    25
100
AcDbCircle
 10
25.8253091437
 20
48.4318123631
 30
0.0
 40
1.25
100
AcDbArc
 50
53.1301023542
 51
126.8698976458
  0
LINE
  5
8B
330
1F
100
AcDbEntity
  8
0
  6
Continuous
 62
     7
370
    25
100
AcDbLine
 10
28.6953753339
 20
51.4318123631
 30
0.0
 11
21.0124341057
 21
51.4318123631
 31
0.0
  0
LINE
  5
8C
330
1F
100
AcDbEntity
  8
0
  6
Continuous
 62
     7
370
    25
100
AcDbLine
 10
28.6953753339
 20
49.4318123631
 30
0.0
 11
28.6953753339
 21
51.4318123631
 31
0.0
  0
LINE
  5
8D
330
1F
100
AcDbEntity
  8
0
  6
Continuous
 62
     7
370
    25
100
AcDbLine
 10
26.5753091437
 20
49.4318123631
 30
0.0
 11
28.6953753339
 21
49.4318123631
 31
0.0
  0
LINE
  5
8E
330
1F
100
AcDbEntity
  8
0
  6
Continuous
 62
     7
370
    25
100
AcDbLine
 10
25.0753091437
 20
55.9418123631
 30
0.0
 11
22.9552429535
 21
55.9418123631
 31
0.0
  0
LINE
  5
8F
330
1F
100
AcDbEntity
  8
0
  6
Continuous
 62
     7
370
    25
100
AcDbLine
 10
28.6953753339
 20
53.9418123631
 30
0.0
 11
28.6953753339
 21
55.9418123631
 31
0.0
  0
LINE
  5
90
330
1F
100
AcDbEntity
  8
0
  6
Continuous
 62
     7
370
    25
100
AcDbLine
 10
21.0124341057
 20
53.9418123631
 30
0.0
 11
28.6953753339
 21
53.9418123631
 31
0.0
  0
ARC
  5
91
330
1F
100
AcDbEntity
  8
0
  6
Continuous
 62
     7
370
    25
100
AcDbCircle
 10
14.3328027536
 20
52.6868123631
 30
0.0
 40
6.05
100
AcDbArc
 50
18.6543469823
 51
341.3456530177
  0
ARC
  5
92
330
1F
100
AcDbEntity
  8
0
  6
Continuous
 62
     7
370
    25
100
AcDbCircle
 10
14.3328027536
 20
52.6868123631
 30
0.0
 40
8.049999999999997
100
AcDbArc
 50
90.1630885824
 51
149.8369114176
  0
ARC
  5
93
330
1F
100
AcDbEntity
  8
0
  6
Continuous
 62
     7
370
    25
100
AcDbCircle
 10
14.3328027536
 20
52.6868123631
 30
0.0
 40
8.050000000000004
100
AcDbArc
 50
210.1630885824
 51
269.8369114176
  0
LINE
  5
94
330
1F
100
AcDbEntity
  8
0
  6
Continuous
 62
     7
370
    25
100
AcDbLine
 10
22.9552429535
 20
49.4318123631
 30
0.0
 11
25.0753091437
 21
49.4318123631
 31
0.0
  0
LINE
  5
95
330
1F
100
AcDbEntity
  8
0
  6
Continuous
 62
     7
370
    25
100
AcDbLine
 10
28.6953753339
 20
55.9418123631
 30
0.0
 11
26.5753091437
 21
55.9418123631
 31
0.0
  0
CIRCLE
  5
96
330
1F
100
AcDbEntity
  8
0
  6
Continuous
 62
     7
370
    25
100
AcDbCircle
 10
81.0712026318
 20
3.8343596558
 30
0.0
 40
1.599999999999994
  0
CIRCLE
  5
97
330
1F
100
AcDbEntity
  8
0
  6
Continuous
 62
     7
370
    25
100
AcDbCircle
 10
90.5974820735
 20
20.3343596558
 30
0.0
 40
1.599999999999994
  0
CIRCLE
  5
98
330
1F
100
AcDbEntity
  8
0
  6
Continuous
 62
     7
370
    25
100
AcDbCircle
 10
71.5449231902
 20
20.3343596558
 30
0.0
 40
1.600000000000009
  0
ARC
  5
99
330
1F
100
AcDbEntity
  8
0
  6
Continuous
 62
     7
370
    25
100
AcDbCircle
 10
86.4262026318
 20
23.4567998557
 30
0.0
 40
2.100000000000009
100
AcDbArc
 50
180.0
 51
234.3078773761
  0
ARC
  5
9A
330
1F
100
AcDbEntity
  8
0
  6
Continuous
 62
     7
370
    25
100
AcDbCircle
 10
86.1211615133
 20
23.6389275212
 30
0.0
 40
2.100000000000007
100
AcDbArc
 50
244.012702045
 51
300.0
  0
LINE
  5
9B
330
1F
100
AcDbEntity
  8
0
  6
Continuous
 62
     7
370
    25
100
AcDbLine
 10
89.0974820735
 20
22.9324358672
 30
0.0
 11
87.1711615133
 21
21.8202741732
 31
0.0
  0
ARC
  5
9C
330
1F
100
AcDbEntity
  8
0
  6
Continuous
 62
     7
370
    25
100
AcDbCircle
 10
90.5974820735
 20
20.3343596558
 30
0.0
 40
3.000000000000005
100
AcDbArc
 50
300.0
 51
120.0
  0
LINE
  5
9D
330
1F
100
AcDbEntity
  8
0
  6
Continuous
 62
     7
370
    25
100
AcDbLine
 10
90.1711615133
 20
16.6241217505
 30
0.0
 11
92.0974820735
 21
17.7362834445
 31
0.0
  0
ARC
  5
9E
330
1F
100
AcDbEntity
  8
0
  6
Continuous
 62
     7
370
    25
100
AcDbCircle
 10
91.2211615133
 20
14.8054684026
 30
0.0
 40
2.100000000000006
100
AcDbArc
 50
120.0
 51
179.8369114176
  0
ARC
  5
9F
330
1F
100
AcDbEntity
  8
0
  6
Continuous
 62
     7
370
    25
100
AcDbCircle
 10
86.1712026318
 20
6.0586830437
 30
0.0
 40
2.100000000000009
100
AcDbArc
 50
120.1630885824
 51
180.0
  0
LINE
  5
A0
330
1F
100
AcDbEntity
  8
0
  6
Continuous
 62
     7
370
    25
100
AcDbLine
 10
84.0712026318
 20
3.8343596558
 30
0.0
 11
84.0712026318
 21
6.0586830437
 31
0.0
  0
ARC
  5
A1
330
1F
100
AcDbEntity
  8
0
  6
Continuous
 62
     7
370
    25
100
AcDbCircle
 10
81.0712026318
 20
3.8343596558
 30
0.0
 40
3.0
100
AcDbArc
 50
180.0
 51
0.0
  0
LINE
  5
A2
330
1F
100
AcDbEntity
  8
0
  6
Continuous
 62
     7
370
    25
100
AcDbLine
 10
78.0712026318
 20
6.0586830437
 30
0.0
 11
78.0712026318
 21
3.8343596558
 31
0.0
  0
ARC
  5
A3
330
1F
100
AcDbEntity
  8
0
  6
Continuous
 62
     7
370
    25
100
AcDbCircle
 10
75.9712026318
 20
6.0586830437
 30
0.0
 40
2.099999999999999
100
AcDbArc
 50
360.0
 51
59.8369114176
  0
ARC
  5
A4
330
1F
100
AcDbEntity
  8
0
  6
Continuous
 62
     7
370
    25
100
AcDbCircle
 10
70.9212437504
 20
14.8054684026
 30
0.0
 40
2.100000000000006
100
AcDbArc
 50
0.1630885824
 51
60.0
  0
LINE
  5
A5
330
1F
100
AcDbEntity
  8
0
  6
Continuous
 62
     7
370
    25
100
AcDbLine
 10
70.0449231902
 20
17.7362834445
 30
0.0
 11
71.9712437504
 21
16.6241217505
 31
0.0
  0
ARC
  5
A6
330
1F
100
AcDbEntity
  8
0
  6
Continuous
 62
     7
370
    25
100
AcDbCircle
 10
71.5449231902
 20
20.3343596558
 30
0.0
 40
3.000000000000014
100
AcDbArc
 50
60.0
 51
240.0
  0
LINE
  5
A7
330
1F
100
AcDbEntity
  8
0
  6
Continuous
 62
     7
370
    25
100
AcDbLine
 10
74.9712437504
 20
21.8202741732
 30
0.0
 11
73.0449231902
 21
22.9324358672
 31
0.0
  0
ARC
  5
A8
330
1F
100
AcDbEntity
  8
0
  6
Continuous
 62
     7
370
    25
100
AcDbCircle
 10
76.0212437504
 20
23.6389275212
 30
0.0
 40
2.099999999999998
100
AcDbArc
 50
240.0
 51
295.987297955
  0
ARC
  5
A9
330
1F
100
AcDbEntity
  8
0
  6
Continuous
 62
     7
370
    25
100
AcDbCircle
 10
75.7162026318
 20
23.4567998557
 30
0.0
 40
2.100000000000009
100
AcDbArc
 50
305.6921226239
 51
0.0
  0
ARC
  5
AA
330
1F
100
AcDbEntity
  8
0
  6
Continuous
 62
     7
370
    25
100
AcDbCircle
 10
76.8162026318
 20
26.3268660459
 30
0.0
 40
1.25
100
AcDbArc
 50
323.1301023542
 51
36.8698976458
  0
ARC
  5
AB
330
1F
100
AcDbEntity
  8
0
  6
Continuous
 62
     7
370
    25
100
AcDbCircle
 10
78.8162026318
 20
21.5139910079
 30
0.0
 40
1.0
100
AcDbArc
 50
288.6543469823
 51
0.0
  0
ARC
  5
AC
330
1F
100
AcDbEntity
  8
0
  6
Continuous
 62
     7
370
    25
100
AcDbCircle
 10
83.3262026318
 20
21.5139910079
 30
0.0
 40
1.0
100
AcDbArc
 50
180.0
 51
251.3456530177
  0
ARC
  5
AD
330
1F
100
AcDbEntity
  8
0
  6
Continuous
 62
     7
370
    25
100
AcDbCircle
 10
85.3262026318
 20
26.3268660459
 30
0.0
 40
1.249999999999989
100
AcDbArc
 50
143.1301023542
 51
216.8698976458
  0
LINE
  5
AE
330
1F
100
AcDbEntity
  8
0
  6
Continuous
 62
     7
370
    25
100
AcDbLine
 10
82.3262026318
 20
29.1969322361
 30
0.0
 11
82.3262026318
 21
21.5139910079
 31
0.0
  0
LINE
  5
AF
330
1F
100
AcDbEntity
  8
0
  6
Continuous
 62
     7
370
    25
100
AcDbLine
 10
84.3262026318
 20
29.1969322361
 30
0.0
 11
82.3262026318
 21
29.1969322361
 31
0.0
  0
LINE
  5
B0
330
1F
100
AcDbEntity
  8
0
  6
Continuous
 62
     7
370
    25
100
AcDbLine
 10
84.3262026318
 20
27.0768660459
 30
0.0
 11
84.3262026318
 21
29.1969322361
 31
0.0
  0
LINE
  5
B1
330
1F
100
AcDbEntity
  8
0
  6
Continuous
 62
     7
370
    25
100
AcDbLine
 10
77.8162026318
 20
25.5768660459
 30
0.0
 11
77.8162026318
 21
23.4567998557
 31
0.0
  0
LINE
  5
B2
330
1F
100
AcDbEntity
  8
0
  6
Continuous
 62
     7
370
    25
100
AcDbLine
 10
79.8162026318
 20
29.1969322361
 30
0.0
 11
77.8162026318
 21
29.1969322361
 31
0.0
  0
LINE
  5
B3
330
1F
100
AcDbEntity
  8
0
  6
Continuous
 62
     7
370
    25
100
AcDbLine
 10
79.8162026318
 20
21.5139910079
 30
0.0
 11
79.8162026318
 21
29.1969322361
 31
0.0
  0
ARC
  5
B4
330
1F
100
AcDbEntity
  8
0
  6
Continuous
 62
     7
370
    25
100
AcDbCircle
 10
81.0712026318
 20
14.8343596558
 30
0.0
 40
6.050000000000001
100
AcDbArc
 50
108.6543469823
 51
71.3456530177
  0
ARC
  5
B5
330
1F
100
AcDbEntity
  8
0
  6
Continuous
 62
     7
370
    25
100
AcDbCircle
 10
81.0712026318
 20
14.8343596558
 30
0.0
 40
8.049999999999995
100
AcDbArc
 50
180.1630885824
 51
239.8369114176
  0
ARC
  5
B6
330
1F
100
AcDbEntity
  8
0
  6
Continuous
 62
     7
370
    25
100
AcDbCircle
 10
81.0712026318
 20
14.8343596558
 30
0.0
 40
8.050000000000004
100
AcDbArc
 50
300.1630885824
 51
359.8369114176
  0
LINE
  5
B7
330
1F
100
AcDbEntity
  8
0
  6
Continuous
 62
     7
370
    25
100
AcDbLine
 10
84.3262026318
 20
23.4567998557
 30
0.0
 11
84.3262026318
 21
25.5768660459
 31
0.0
  0
LINE
  5
B8
330
1F
100
AcDbEntity
  8
0
  6
Continuous
 62
     7
370
    25
100
AcDbLine
 10
77.8162026318
 20
29.1969322361
 30
0.0
 11
77.8162026318
 21
27.0768660459
 31
0.0
  0
CIRCLE
  5
B9
330
1F
100
AcDbEntity
  8
0
  6
Continuous
 62
     7
370
    25
100
AcDbCircle
 10
26.0235197446
 20
30.4103432051
 30
0.0
 40
1.599999999999994
  0
CIRCLE
  5
BA
330
1F
100
AcDbEntity
  8
0
  6
Continuous
 62
     7
370
    25
100
AcDbCircle
 10
9.5235197446
 20
39.9366226467
 30
0.0
 40
1.599999999999994
  0
CIRCLE
  5
BB
330
1F
100
AcDbEntity
  8
0
  6
Continuous
 62
     7
370
    25
100
AcDbCircle
 10
9.5235197446
 20
20.8840637635
 30
0.0
 40
1.600000000000001
  0
ARC
  5
BC
330
1F
100
AcDbEntity
  8
0
  6
Continuous
 62
     7
370
    25
100
AcDbCircle
 10
6.4010795448
 20
35.7653432051
 30
0.0
 40
2.100000000000001
100
AcDbArc
 50
270.0
 51
324.3078773761
  0
ARC
  5
BD
330
1F
100
AcDbEntity
  8
0
  6
Continuous
 62
     7
370
    25
100
AcDbCircle
 10
6.2189518793
 20
35.4603020866
 30
0.0
 40
2.100000000000003
100
AcDbArc
 50
334.012702045
 51
30.0
  0
LINE
  5
BE
330
1F
100
AcDbEntity
  8
0
  6
Continuous
 62
     7
370
    25
100
AcDbLine
 10
6.9254435333
 20
38.4366226467
 30
0.0
 11
8.0376052272
 21
36.5103020866
 31
0.0
  0
ARC
  5
BF
330
1F
100
AcDbEntity
  8
0
  6
Continuous
 62
     7
370
    25
100
AcDbCircle
 10
9.5235197446
 20
39.9366226467
 30
0.0
 40
3.000000000000001
100
AcDbArc
 50
30.0
 51
210.0
  0
LINE
  5
C0
330
1F
100
AcDbEntity
  8
0
  6
Continuous
 62
     7
370
    25
100
AcDbLine
 10
13.2337576499
 20
39.5103020866
 30
0.0
 11
12.121595956
 21
41.4366226467
 31
0.0
  0
ARC
  5
C1
330
1F
100
AcDbEntity
  8
0
  6
Continuous
 62
     7
370
    25
100
AcDbCircle
 10
15.0524109979
 20
40.5603020866
 30
0.0
 40
2.099999999999999
100
AcDbArc
 50
210.0
 51
269.8369114176
  0
ARC
  5
C2
330
1F
100
AcDbEntity
  8
0
  6
Continuous
 62
     7
370
    25
100
AcDbCircle
 10
23.7991963567
 20
35.5103432051
 30
0.0
 40
2.100000000000001
100
AcDbArc
 50
210.1630885824
 51
270.0
  0
LINE
  5
C3
330
1F
100
AcDbEntity
  8
0
  6
Continuous
 62
     7
370
    25
100
AcDbLine
 10
26.0235197446
 20
33.4103432051
 30
0.0
 11
23.7991963567
 21
33.4103432051
 31
0.0
  0
ARC
  5
C4
330
1F
100
AcDbEntity
  8
0
  6
Continuous
 62
     7
370
    25
100
AcDbCircle
 10
26.0235197446
 20
30.4103432051
 30
0.0
 40
3.000000000000004
100
AcDbArc
 50
270.0
 51
90.0
  0
LINE
  5
C5
330
1F
100
AcDbEntity
  8
0
  6
Continuous
 62
     7
370
    25
100
AcDbLine
 10
23.7991963567
 20
27.4103432051
 30
0.0
 11
26.0235197446
 21
27.4103432051
 31
0.0
  0
ARC
  5
C6
330
1F
100
AcDbEntity
  8
0
  6
Continuous
 62
     7
370
    25
100
AcDbCircle
 10
23.7991963567
 20
25.3103432051
 30
0.0
 40
2.099999999999999
100
AcDbArc
 50
90.0
 51
149.8369114176
  0
ARC
  5
C7
330
1F
100
AcDbEntity
  8
0
  6
Continuous
 62
     7
370
    25
100
AcDbCircle
 10
15.0524109979
 20
20.2603843236
 30
0.0
 40
2.100000000000002
100
AcDbArc
 50
90.1630885824
 51
150.0
  0
LINE
  5
C8
330
1F
100
AcDbEntity
  8
0
  6
Continuous
 62
     7
370
    25
100
AcDbLine
 10
12.121595956
 20
19.3840637635
 30
0.0
 11
13.2337576499
 21
21.3103843236
 31
0.0
  0
ARC
  5
C9
330
1F
100
AcDbEntity
  8
0
  6
Continuous
 62
     7
370
    25
100
AcDbCircle
 10
9.5235197446
 20
20.8840637635
 30
0.0
 40
3.000000000000006
100
AcDbArc
 50
150.0
 51
330.0
  0
LINE
  5
CA
330
1F
100
AcDbEntity
  8
0
  6
Continuous
 62
     7
370
    25
100
AcDbLine
 10
8.0376052272
 20
24.3103843236
 30
0.0
 11
6.9254435333
 21
22.3840637635
 31
0.0
  0
ARC
  5
CB
330
1F
100
AcDbEntity
  8
0
  6
Continuous
 62
     7
370
    25
100
AcDbCircle
 10
6.2189518793
 20
25.3603843236
 30
0.0
 40
2.099999999999999
100
AcDbArc
 50
330.0
 51
25.987297955
  0
ARC
  5
CC
330
1F
100
AcDbEntity
  8
0
  6
Continuous
 62
     7
370
    25
100
AcDbCircle
 10
6.4010795448
 20
25.0553432051
 30
0.0
 40
2.099999999999999
100
AcDbArc
 50
35.6921226239
 51
90.0
  0
ARC
  5
CD
330
1F
100
AcDbEntity
  8
0
  6
Continuous
 62
     7
370
    25
100
AcDbCircle
 10
3.5310133545
 20
26.1553432051
 30
0.0
 40
1.25
100
AcDbArc
 50
53.1301023542
 51
126.8698976458
  0
ARC
  5
CE
330
1F
100
AcDbEntity
  8
0
  6
Continuous
 62
     7
370
    25
100
AcDbCircle
 10
8.3438883925
 20
28.1553432051
 30
0.0
 40
1.000000000000004
100
AcDbArc
 50
18.6543469823
 51
90.0
  0
ARC
  5
CF
330
1F
100
AcDbEntity
  8
0
  6
Continuous
 62
     7
370
    25
100
AcDbCircle
 10
8.3438883925
 20
32.6653432051
 30
0.0
 40
1.0
100
AcDbArc
 50
270.0
 51
341.3456530177
  0
ARC
  5
D0
330
1F
100
AcDbEntity
  8
0
  6
Continuous
 62
     7
370
    25
100
AcDbCircle
 10
3.5310133545
 20
34.6653432051
 30
0.0
 40
1.249999999999995
100
AcDbArc
 50
233.1301023542
 51
306.8698976458
  0
LINE
  5
D1
330
1F
100
AcDbEntity
  8
0
  6
Continuous
 62
     7
370
    25
100
AcDbLine
 10
0.6609471643
 20
31.6653432051
 30
0.0
 11
8.3438883925
 21
31.6653432051
 31
0.0
  0
LINE
  5
D2
330
1F
100
AcDbEntity
  8
0
  6
Continuous
 62
     7
370
    25
100
AcDbLine
 10
0.6609471643
 20
33.6653432051
 30
0.0
 11
0.6609471643
 21
31.6653432051
 31
0.0
  0
LINE
  5
D3
330
1F
100
AcDbEntity
  8
0
  6
Continuous
 62
     7
370
    25
100
AcDbLine
 10
2.7810133545
 20
33.6653432051
 30
0.0
 11
0.6609471643
 21
33.6653432051
 31
0.0
  0
LINE
  5
D4
330
1F
100
AcDbEntity
  8
0
  6
Continuous
 62
     7
370
    25
100
AcDbLine
 10
4.2810133545
 20
27.1553432051
 30
0.0
 11
6.4010795448
 21
27.1553432051
 31
0.0
  0
LINE
  5
D5
330
1F
100
AcDbEntity
  8
0
  6
Continuous
 62
     7
370
    25
100
AcDbLine
 10
0.6609471643
 20
29.1553432051
 30
0.0
 11
0.6609471643
 21
27.1553432051
 31
0.0
  0
LINE
  5
D6
330
1F
100
AcDbEntity
  8
0
  6
Continuous
 62
     7
370
    25
100
AcDbLine
 10
8.3438883925
 20
29.1553432051
 30
0.0
 11
0.6609471643
 21
29.1553432051
 31
0.0
  0
ARC
  5
D7
330
1F
100
AcDbEntity
  8
0
  6
Continuous
 62
     7
370
    25
100
AcDbCircle
 10
15.0235197446
 20
30.4103432051
 30
0.0
 40
6.050000000000002
100
AcDbArc
 50
198.6543469823
 51
161.3456530177
  0
ARC
  5
D8
330
1F
100
AcDbEntity
  8
0
  6
Continuous
 62
     7
370
    25
100
AcDbCircle
 10
15.0235197446
 20
30.4103432051
 30
0.0
 40
8.050000000000004
100
AcDbArc
 50
270.1630885824
 51
329.8369114176
  0
ARC
  5
D9
330
1F
100
AcDbEntity
  8
0
  6
Continuous
 62
     7
370
    25
100
AcDbCircle
 10
15.0235197446
 20
30.4103432051
 30
0.0
 40
8.049999999999995
100
AcDbArc
 50
30.1630885824
 51
89.8369114176
  0
LINE
  5
DA
330
1F
100
AcDbEntity
  8
0
  6
Continuous
 62
     7
370
    25
100
AcDbLine
 10
6.4010795448
 20
33.6653432051
 30
0.0
 11
4.2810133545
 21
33.6653432051
 31
0.0
  0
LINE
  5
DB
330
1F
100
AcDbEntity
  8
0
  6
Continuous
 62
     7
370
    25
100
AcDbLine
 10
0.6609471643
 20
27.1553432051
 30
0.0
 11
2.7810133545
 21
27.1553432051
 31
0.0
  0
CIRCLE
  5
DC
330
1F
100
AcDbEntity
  8
0
  6
Continuous
 62
     7
370
    25
100
AcDbCircle
 10
58.8760020319
 20
25.9054903157
 30
0.0
 40
1.600000000000001
  0
CIRCLE
  5
DD
330
1F
100
AcDbEntity
  8
0
  6
Continuous
 62
     7
370
    25
100
AcDbCircle
 10
49.3497225903
 20
9.4054903157
 30
0.0
 40
1.600000000000001
  0
CIRCLE
  5
DE
330
1F
100
AcDbEntity
  8
0
  6
Continuous
 62
     7
370
    25
100
AcDbCircle
 10
68.4022814736
 20
9.4054903157
 30
0.0
 40
1.600000000000009
  0
ARC
  5
DF
330
1F
100
AcDbEntity
  8
0
  6
Continuous
 62
     7
370
    25
100
AcDbCircle
 10
53.5210020319
 20
6.2830501159
 30
0.0
 40
2.100000000000001
100
AcDbArc
 50
0.0
 51
54.3078773761
  0
ARC
  5
E0
330
1F
100
AcDbEntity
  8
0
  6
Continuous
 62
     7
370
    25
100
AcDbCircle
 10
53.8260431505
 20
6.1009224504
 30
0.0
 40
2.100000000000004
100
AcDbArc
 50
64.012702045
 51
120.0
  0
LINE
  5
E1
330
1F
100
AcDbEntity
  8
0
  6
Continuous
 62
     7
370
    25
100
AcDbLine
 10
50.8497225903
 20
6.8074141044
 30
0.0
 11
52.7760431505
 21
7.9195757983
 31
0.0
  0
ARC
  5
E2
330
1F
100
AcDbEntity
  8
0
  6
Continuous
 62
     7
370
    25
100
AcDbCircle
 10
49.3497225903
 20
9.4054903157
 30
0.0
 40
3.000000000000003
100
AcDbArc
 50
120.0
 51
300.0
  0
LINE
  5
E3
330
1F
100
AcDbEntity
  8
0
  6
Continuous
 62
     7
370
    25
100
AcDbLine
 10
49.7760431505
 20
13.115728221
 30
0.0
 11
47.8497225903
 21
12.0035665271
 31
0.0
  0
ARC
  5
E4
330
1F
100
AcDbEntity
  8
0
  6
Continuous
 62
     7
370
    25
100
AcDbCircle
 10
48.7260431505
 20
14.934381569
 30
0.0
 40
2.099999999999999
100
AcDbArc
 50
300.0
 51
359.8369114176
  0
ARC
  5
E5
330
1F
100
AcDbEntity
  8
0
  6
Continuous
 62
     7
370
    25
100
AcDbCircle
 10
53.7760020319
 20
23.6811669278
 30
0.0
 40
2.099999999999999
100
AcDbArc
 50
300.1630885824
 51
360.0
  0
LINE
  5
E6
330
1F
100
AcDbEntity
  8
0
  6
Continuous
 62
     7
370
    25
100
AcDbLine
 10
55.8760020319
 20
25.9054903157
 30
0.0
 11
55.8760020319
 21
23.6811669278
 31
0.0
  0
ARC
  5
E7
330
1F
100
AcDbEntity
  8
0
  6
Continuous
 62
     7
370
    25
100
AcDbCircle
 10
58.8760020319
 20
25.9054903157
 30
0.0
 40
3.0
100
AcDbArc
 50
0.0
 51
180.0
  0
LINE
  5
E8
330
1F
100
AcDbEntity
  8
0
  6
Continuous
 62
     7
370
    25
100
AcDbLine
 10
61.8760020319
 20
23.6811669278
 30
0.0
 11
61.8760020319
 21
25.9054903157
 31
0.0
  0
ARC
  5
E9
330
1F
100
AcDbEntity
  8
0
  6
Continuous
 62
     7
370
    25
100
AcDbCircle
 10
63.9760020319
 20
23.6811669278
 30
0.0
 40
2.100000000000002
100
AcDbArc
 50
180.0
 51
239.8369114176
  0
ARC
  5
EA
330
1F
100
AcDbEntity
  8
0
  6
Continuous
 62
     7
370
    25
100
AcDbCircle
 10
69.0259609134
 20
14.934381569
 30
0.0
 40
2.100000000000006
100
AcDbArc
 50
180.1630885824
 51
240.0
  0
LINE
  5
EB
330
1F
100
AcDbEntity
  8
0
  6
Continuous
 62
     7
370
    25
100
AcDbLine
 10
69.9022814736
 20
12.0035665271
 30
0.0
 11
67.9759609134
 21
13.115728221
 31
0.0
  0
ARC
  5
EC
330
1F
100
AcDbEntity
  8
0
  6
Continuous
 62
     7
370
    25
100
AcDbCircle
 10
68.4022814736
 20
9.4054903157
 30
0.0
 40
3.000000000000005
100
AcDbArc
 50
240.0
 51
60.0
  0
LINE
  5
ED
330
1F
100
AcDbEntity
  8
0
  6
Continuous
 62
     7
370
    25
100
AcDbLine
 10
64.9759609134
 20
7.9195757983
 30
0.0
 11
66.9022814736
 21
6.8074141044
 31
0.0
  0
ARC
  5
EE
330
1F
100
AcDbEntity
  8
0
  6
Continuous
 62
     7
370
    25
100
AcDbCircle
 10
63.9259609134
 20
6.1009224504
 30
0.0
 40
2.100000000000003
100
AcDbArc
 50
60.0
 51
115.987297955
  0
ARC
  5
EF
330
1F
100
AcDbEntity
  8
0
  6
Continuous
 62
     7
370
    25
100
AcDbCircle
 10
64.2310020319
 20
6.2830501159
 30
0.0
 40
2.100000000000001
100
AcDbArc
 50
125.6921226239
 51
180.0
  0
ARC
  5
F0
330
1F
100
AcDbEntity
  8
0
  6
Continuous
 62
     7
370
    25
100
AcDbCircle
 10
63.1310020319
 20
3.4129839256
 30
0.0
 40
1.250000000000006
100
AcDbArc
 50
143.1301023542
 51
216.8698976458
  0
ARC
  5
F1
330
1F
100
AcDbEntity
  8
0
  6
Continuous
 62
     7
370
    25
100
AcDbCircle
 10
61.1310020319
 20
8.2258589636
 30
0.0
 40
1.000000000000007
100
AcDbArc
 50
108.6543469823
 51
180.0
  0
ARC
  5
F2
330
1F
100
AcDbEntity
  8
0
  6
Continuous
 62
     7
370
    25
100
AcDbCircle
 10
56.6210020319
 20
8.2258589636
 30
0.0
 40
1.0
100
AcDbArc
 50
0.0
 51
71.3456530177
  0
ARC
  5
F3
330
1F
100
AcDbEntity
  8
0
  6
Continuous
 62
     7
370
    25
100
AcDbCircle
 10
54.6210020319
 20
3.4129839256
 30
0.0
 40
1.25
100
AcDbArc
 50
323.1301023542
 51
36.8698976458
  0
LINE
  5
F4
330
1F
100
AcDbEntity
  8
0
  6
Continuous
 62
     7
370
    25
100
AcDbLine
 10
57.6210020319
 20
0.5429177354
 30
0.0
 11
57.6210020319
 21
8.2258589636
 31
0.0
  0
LINE
  5
F5
330
1F
100
AcDbEntity
  8
0
  6
Continuous
 62
     7
370
    25
100
AcDbLine
 10
55.6210020319
 20
0.5429177354
 30
0.0
 11
57.6210020319
 21
0.5429177354
 31
0.0
  0
LINE
  5
F6
330
1F
100
AcDbEntity
  8
0
  6
Continuous
 62
     7
370
    25
100
AcDbLine
 10
55.6210020319
 20
2.6629839256
 30
0.0
 11
55.6210020319
 21
0.5429177354
 31
0.0
  0
LINE
  5
F7
330
1F
100
AcDbEntity
  8
0
  6
Continuous
 62
     7
370
    25
100
AcDbLine
 10
62.1310020319
 20
4.1629839256
 30
0.0
 11
62.1310020319
 21
6.2830501159
 31
0.0
  0
LINE
  5
F8
330
1F
100
AcDbEntity
  8
0
  6
Continuous
 62
     7
370
    25
100
AcDbLine
 10
60.1310020319
 20
0.5429177354
 30
0.0
 11
62.1310020319
 21
0.5429177354
 31
0.0
  0
LINE
  5
F9
330
1F
100
AcDbEntity
  8
0
  6
Continuous
 62
     7
370
    25
100
AcDbLine
 10
60.1310020319
 20
8.2258589636
 30
0.0
 11
60.1310020319
 21
0.5429177354
 31
0.0
  0
ARC
  5
FA
330
1F
100
AcDbEntity
  8
0
  6
Continuous
 62
     7
370
    25
100
AcDbCircle
 10
58.8760020319
 20
14.9054903157
 30
0.0
 40
6.050000000000001
100
AcDbArc
 50
288.6543469823
 51
251.3456530177
  0
ARC
  5
FB
330
1F
100
AcDbEntity
  8
0
  6
Continuous
 62
     7
370
    25
100
AcDbCircle
 10
58.8760020319
 20
14.9054903157
 30
0.0
 40
8.049999999999997
100
AcDbArc
 50
0.1630885824
 51
59.8369114176
  0
ARC
  5
FC
330
1F
100
AcDbEntity
  8
0
  6
Continuous
 62
     7
370
    25
100
AcDbCircle
 10
58.8760020319
 20
14.9054903157
 30
0.0
 40
8.050000000000004
100
AcDbArc
 50
120.1630885824
 51
179.8369114176
  0
LINE
  5
FD
330
1F
100
AcDbEntity
  8
0
  6
Continuous
 62
     7
370
    25
100
AcDbLine
 10
55.6210020319
 20
6.2830501159
 30
0.0
 11
55.6210020319
 21
4.1629839256
 31
0.0
  0
LINE
  5
FE
330
1F
100
AcDbEntity
  8
0
  6
Continuous
 62
     7
370
    25
100
AcDbLine
 10
62.1310020319
 20
0.5429177354
 30
0.0
 11
62.1310020319
 21
2.6629839256
 31
0.0
  0
CIRCLE
  5
FF
330
1F
100
AcDbEntity
  8
0
  6
Continuous
 62
     7
370
    25
100
AcDbCircle
 10
39.0252658877
 20
57.6573884211
 30
0.0
 40
1.600000000000001
  0
CIRCLE
  5
100
330
1F
100
AcDbEntity
  8
0
  6
Continuous
 62
     7
370
    25
100
AcDbCircle
 10
29.4989864461
 20
41.1573884211
 30
0.0
 40
1.599999999999998
  0
CIRCLE
  5
101
330
1F
100
AcDbEntity
  8
0
  6
Continuous
 62
     7
370
    25
100
AcDbCircle
 10
48.5515453294
 20
41.1573884211
 30
0.0
 40
1.599999999999994
  0
ARC
  5
102
330
1F
100
AcDbEntity
  8
0
  6
Continuous
 62
     7
370
    25
100
AcDbCircle
 10
33.6702658877
 20
38.0349482212
 30
0.0
 40
2.100000000000001
100
AcDbArc
 50
0.0
 51
54.3078773761
  0
ARC
  5
103
330
1F
100
AcDbEntity
  8
0
  6
Continuous
 62
     7
370
    25
100
AcDbCircle
 10
33.9753070063
 20
37.8528205557
 30
0.0
 40
2.100000000000001
100
AcDbArc
 50
64.012702045
 51
120.0
  0
LINE
  5
104
330
1F
100
AcDbEntity
  8
0
  6
Continuous
 62
     7
370
    25
100
AcDbLine
 10
30.9989864461
 20
38.5593122097
 30
0.0
 11
32.9253070063
 21
39.6714739037
 31
0.0
  0
ARC
  5
105
330
1F
100
AcDbEntity
  8
0
  6
Continuous
 62
     7
370
    25
100
AcDbCircle
 10
29.4989864461
 20
41.1573884211
 30
0.0
 40
3.000000000000002
100
AcDbArc
 50
120.0
 51
300.0
  0
LINE
  5
106
330
1F
100
AcDbEntity
  8
0
  6
Continuous
 62
     7
370
    25
100
AcDbLine
 10
29.9253070063
 20
44.8676263264
 30
0.0
 11
27.9989864461
 21
43.7554646324
 31
0.0
  0
ARC
  5
107
330
1F
100
AcDbEntity
  8
0
  6
Continuous
 62
     7
370
    25
100
AcDbCircle
 10
28.8753070063
 20
46.6862796743
 30
0.0
 40
2.099999999999999
100
AcDbArc
 50
300.0
 51
359.8369114176
  0
ARC
  5
108
330
1F
100
AcDbEntity
  8
0
  6
Continuous
 62
     7
370
    25
100
AcDbCircle
 10
33.9252658877
 20
55.4330650332
 30
0.0
 40
2.099999999999994
100
AcDbArc
 50
300.1630885824
 51
360.0
  0
LINE
  5
109
330
1F
100
AcDbEntity
  8
0
  6
Continuous
 62
     7
370
    25
100
AcDbLine
 10
36.0252658877
 20
57.6573884211
 30
0.0
 11
36.0252658877
 21
55.4330650332
 31
0.0
  0
ARC
  5
10A
330
1F
100
AcDbEntity
  8
0
  6
Continuous
 62
     7
370
    25
100
AcDbCircle
 10
39.0252658877
 20
57.6573884211
 30
0.0
 40
3.0
100
AcDbArc
 50
0.0
 51
180.0
  0
LINE
  5
10B
330
1F
100
AcDbEntity
  8
0
  6
Continuous
 62
     7
370
    25
100
AcDbLine
 10
42.0252658877
 20
55.4330650332
 30
0.0
 11
42.0252658877
 21
57.6573884211
 31
0.0
  0
ARC
  5
10C
330
1F
100
AcDbEntity
  8
0
  6
Continuous
 62
     7
370
    25
100
AcDbCircle
 10
44.1252658877
 20
55.4330650332
 30
0.0
 40
2.100000000000002
100
AcDbArc
 50
180.0
 51
239.8369114176
  0
ARC
  5
10D
330
1F
100
AcDbEntity
  8
0
  6
Continuous
 62
     7
370
    25
100
AcDbCircle
 10
49.1752247692
 20
46.6862796743
 30
0.0
 40
2.099999999999999
100
AcDbArc
 50
180.1630885824
 51
240.0
  0
LINE
  5
10E
330
1F
100
AcDbEntity
  8
0
  6
Continuous
 62
     7
370
    25
100
AcDbLine
 10
50.0515453294
 20
43.7554646324
 30
0.0
 11
48.1252247692
 21
44.8676263264
 31
0.0
  0
ARC
  5
10F
330
1F
100
AcDbEntity
  8
0
  6
Continuous
 62
     7
370
    25
100
AcDbCircle
 10
48.5515453294
 20
41.1573884211
 30
0.0
 40
3.000000000000007
100
AcDbArc
 50
240.0
 51
60.0
  0
LINE
  5
110
330
1F
100
AcDbEntity
  8
0
  6
Continuous
 62
     7
370
    25
100
AcDbLine
 10
45.1252247692
 20
39.6714739037
 30
0.0
 11
47.0515453294
 21
38.5593122097
 31
0.0
  0
ARC
  5
111
330
1F
100
AcDbEntity
  8
0
  6
Continuous
 62
     7
370
    25
100
AcDbCircle
 10
44.0752247692
 20
37.8528205557
 30
0.0
 40
2.099999999999997
100
AcDbArc
 50
60.0
 51
115.987297955
  0
ARC
  5
112
330
1F
100
AcDbEntity
  8
0
  6
Continuous
 62
     7
370
    25
100
AcDbCircle
 10
44.3802658877
 20
38.0349482212
 30
0.0
 40
2.100000000000001
100
AcDbArc
 50
125.6921226239
 51
180.0
  0
ARC
  5
113
330
1F
100
AcDbEntity
  8
0
  6
Continuous
 62
     7
370
    25
100
AcDbCircle
 10
43.2802658877
 20
35.164882031
 30
0.0
 40
1.25
100
AcDbArc
 50
143.1301023542
 51
216.8698976458
  0
ARC
  5
114
330
1F
100
AcDbEntity
  8
0
  6
Continuous
 62
     7
370
    25
100
AcDbCircle
 10
41.2802658877
 20
39.977757069
 30
0.0
 40
1.000000000000007
100
AcDbArc
 50
108.6543469823
 51
180.0
  0
ARC
  5
115
330
1F
100
AcDbEntity
  8
0
  6
Continuous
 62
     7
370
    25
100
AcDbCircle
 10
36.7702658877
 20
39.977757069
 30
0.0
 40
1.0
100
AcDbArc
 50
0.0
 51
71.3456530177
  0
ARC
  5
116
330
1F
100
AcDbEntity
  8
0
  6
Continuous
 62
     7
370
    25
100
AcDbCircle
 10
34.7702658877
 20
35.164882031
 30
0.0
 40
1.25
100
AcDbArc
 50
323.1301023542
 51
36.8698976458
  0
LINE
  5
117
330
1F
100
AcDbEntity
  8
0
  6
Continuous
 62
     7
370
    25
100
AcDbLine
 10
37.7702658877
 20
32.2948158408
 30
0.0
 11
37.7702658877
 21
39.977757069
 31
0.0
  0
LINE
  5
118
330
1F
100
AcDbEntity
  8
0
  6
Continuous
 62
     7
370
    25
100
AcDbLine
 10
35.7702658877
 20
32.2948158408
 30
0.0
 11
37.7702658877
 21
32.2948158408
 31
0.0
  0
LINE
  5
119
330
1F
100
AcDbEntity
  8
0
  6
Continuous
 62
     7
370
    25
100
AcDbLine
 10
35.7702658877
 20
34.414882031
 30
0.0
 11
35.7702658877
 21
32.2948158408
 31
0.0
  0
LINE
  5
11A
330
1F
100
AcDbEntity
  8
0
  6
Continuous
 62
     7
370
    25
100
AcDbLine
 10
42.2802658877
 20
35.914882031
 30
0.0
 11
42.2802658877
 21
38.0349482212
 31
0.0
  0
LINE
  5
11B
330
1F
100
AcDbEntity
  8
0
  6
Continuous
 62
     7
370
    25
100
AcDbLine
 10
40.2802658877
 20
32.2948158408
 30
0.0
 11
42.2802658877
 21
32.2948158408
 31
0.0
  0
LINE
  5
11C
330
1F
100
AcDbEntity
  8
0
  6
Continuous
 62
     7
370
    25
100
AcDbLine
 10
40.2802658877
 20
39.977757069
 30
0.0
 11
40.2802658877
 21
32.2948158408
 31
0.0
  0
ARC
  5
11D
330
1F
100
AcDbEntity
  8
0
  6
Continuous
 62
     7
370
    25
100
AcDbCircle
 10
39.0252658877
 20
46.6573884211
 30
0.0
 40
6.050000000000002
100
AcDbArc
 50
288.6543469823
 51
251.3456530177
  0
ARC
  5
11E
330
1F
100
AcDbEntity
  8
0
  6
Continuous
 62
     7
370
    25
100
AcDbCircle
 10
39.0252658877
 20
46.6573884211
 30
0.0
 40
8.049999999999997
100
AcDbArc
 50
0.1630885824
 51
59.8369114176
  0
ARC
  5
11F
330
1F
100
AcDbEntity
  8
0
  6
Continuous
 62
     7
370
    25
100
AcDbCircle
 10
39.0252658877
 20
46.6573884211
 30
0.0
 40
8.050000000000004
100
AcDbArc
 50
120.1630885824
 51
179.8369114176
  0
LINE
  5
120
330
1F
100
AcDbEntity
  8
0
  6
Continuous
 62
     7
370
    25
100
AcDbLine
 10
35.7702658877
 20
38.0349482212
 30
0.0
 11
35.7702658877
 21
35.914882031
 31
0.0
  0
LINE
  5
121
330
1F
100
AcDbEntity
  8
0
  6
Continuous
 62
     7
370
    25
100
AcDbLine
 10
42.2802658877
 20
32.2948158408
 30
0.0
 11
42.2802658877
 21
34.414882031
 31
0.0
  0
CIRCLE
  5
122
330
1F
100
AcDbEntity
  8
0
  6
Continuous
 62
     7
370
    25
100
AcDbCircle
 10
61.5598997094
 20
34.42396547
 30
0.0
 40
1.600000000000001
  0
CIRCLE
  5
123
330
1F
100
AcDbEntity
  8
0
  6
Continuous
 62
     7
370
    25
100
AcDbCircle
 10
71.086179151
 20
50.92396547
 30
0.0
 40
1.600000000000009
  0
CIRCLE
  5
124
330
1F
100
AcDbEntity
  8
0
  6
Continuous
 62
     7
370
    25
100
AcDbCircle
 10
52.0336202678
 20
50.92396547
 30
0.0
 40
1.600000000000009
  0
ARC
  5
125
330
1F
100
AcDbEntity
  8
0
  6
Continuous
 62
     7
370
    25
100
AcDbCircle
 10
66.9148997094
 20
54.0464056699
 30
0.0
 40
2.100000000000001
100
AcDbArc
 50
180.0
 51
234.3078773761
  0
ARC
  5
126
330
1F
100
AcDbEntity
  8
0
  6
Continuous
 62
     7
370
    25
100
AcDbCircle
 10
66.6098585909
 20
54.2285333354
 30
0.0
 40
2.100000000000001
100
AcDbArc
 50
244.012702045
 51
300.0
  0
LINE
  5
127
330
1F
100
AcDbEntity
  8
0
  6
Continuous
 62
     7
370
    25
100
AcDbLine
 10
69.586179151
 20
53.5220416814
 30
0.0
 11
67.6598585909
 21
52.4098799874
 31
0.0
  0
ARC
  5
128
330
1F
100
AcDbEntity
  8
0
  6
Continuous
 62
     7
370
    25
100
AcDbCircle
 10
71.086179151
 20
50.92396547
 30
0.0
 40
3.000000000000005
100
AcDbArc
 50
300.0
 51
120.0
  0
LINE
  5
129
330
1F
100
AcDbEntity
  8
0
  6
Continuous
 62
     7
370
    25
100
AcDbLine
 10
70.6598585909
 20
47.2137275647
 30
0.0
 11
72.586179151
 21
48.3258892587
 31
0.0
  0
ARC
  5
12A
330
1F
100
AcDbEntity
  8
0
  6
Continuous
 62
     7
370
    25
100
AcDbCircle
 10
71.7098585909
 20
45.3950742168
 30
0.0
 40
2.100000000000007
100
AcDbArc
 50
120.0
 51
179.8369114176
  0
ARC
  5
12B
330
1F
100
AcDbEntity
  8
0
  6
Continuous
 62
     7
370
    25
100
AcDbCircle
 10
66.6598997094
 20
36.6482888579
 30
0.0
 40
2.100000000000009
100
AcDbArc
 50
120.1630885824
 51
180.0
  0
LINE
  5
12C
330
1F
100
AcDbEntity
  8
0
  6
Continuous
 62
     7
370
    25
100
AcDbLine
 10
64.5598997094
 20
34.42396547
 30
0.0
 11
64.5598997094
 21
36.6482888579
 31
0.0
  0
ARC
  5
12D
330
1F
100
AcDbEntity
  8
0
  6
Continuous
 62
     7
370
    25
100
AcDbCircle
 10
61.5598997094
 20
34.42396547
 30
0.0
 40
3.000000000000007
100
AcDbArc
 50
180.0
 51
0.0
  0
LINE
  5
12E
330
1F
100
AcDbEntity
  8
0
  6
Continuous
 62
     7
370
    25
100
AcDbLine
 10
58.5598997094
 20
36.6482888579
 30
0.0
 11
58.5598997094
 21
34.42396547
 31
0.0
  0
ARC
  5
12F
330
1F
100
AcDbEntity
  8
0
  6
Continuous
 62
     7
370
    25
100
AcDbCircle
 10
56.4598997094
 20
36.6482888579
 30
0.0
 40
2.100000000000002
100
AcDbArc
 50
360.0
 51
59.8369114176
  0
ARC
  5
130
330
1F
100
AcDbEntity
  8
0
  6
Continuous
 62
     7
370
    25
100
AcDbCircle
 10
51.4099408279
 20
45.3950742168
 30
0.0
 40
2.099999999999999
100
AcDbArc
 50
0.1630885824
 51
60.0
  0
LINE
  5
131
330
1F
100
AcDbEntity
  8
0
  6
Continuous
 62
     7
370
    25
100
AcDbLine
 10
50.5336202678
 20
48.3258892587
 30
0.0
 11
52.4599408279
 21
47.2137275647
 31
0.0
  0
ARC
  5
132
330
1F
100
AcDbEntity
  8
0
  6
Continuous
 62
     7
370
    25
100
AcDbCircle
 10
52.0336202678
 20
50.92396547
 30
0.0
 40
3.000000000000007
100
AcDbArc
 50
60.0
 51
240.0
  0
LINE
  5
133
330
1F
100
AcDbEntity
  8
0
  6
Continuous
 62
     7
370
    25
100
AcDbLine
 10
55.4599408279
 20
52.4098799874
 30
0.0
 11
53.5336202678
 21
53.5220416814
 31
0.0
  0
ARC
  5
134
330
1F
100
AcDbEntity
  8
0
  6
Continuous
 62
     7
370
    25
100
AcDbCircle
 10
56.5099408279
 20
54.2285333354
 30
0.0
 40
2.099999999999997
100
AcDbArc
 50
240.0
 51
295.987297955
  0
ARC
  5
135
330
1F
100
AcDbEntity
  8
0
  6
Continuous
 62
     7
370
    25
100
AcDbCircle
 10
56.2048997094
 20
54.0464056699
 30
0.0
 40
2.100000000000001
100
AcDbArc
 50
305.6921226239
 51
0.0
  0
ARC
  5
136
330
1F
100
AcDbEntity
  8
0
  6
Continuous
 62
     7
370
    25
100
AcDbCircle
 10
57.3048997094
 20
56.9164718601
 30
0.0
 40
1.249999999999999
100
AcDbArc
 50
323.1301023542
 51
36.8698976458
  0
ARC
  5
137
330
1F
100
AcDbEntity
  8
0
  6
Continuous
 62
     7
370
    25
100
AcDbCircle
 10
59.3048997094
 20
52.1035968221
 30
0.0
 40
1.0
100
AcDbArc
 50
288.6543469823
 51
0.0
  0
ARC
  5
138
330
1F
100
AcDbEntity
  8
0
  6
Continuous
 62
     7
370
    25
100
AcDbCircle
 10
63.8148997094
 20
52.1035968221
 30
0.0
 40
1.0
100
AcDbArc
 50
180.0
 51
251.3456530177
  0
ARC
  5
139
330
1F
100
AcDbEntity
  8
0
  6
Continuous
 62
     7
370
    25
100
AcDbCircle
 10
65.8148997094
 20
56.9164718601
 30
0.0
 40
1.249999999999993
100
AcDbArc
 50
143.1301023542
 51
216.8698976458
  0
LINE
  5
13A
330
1F
100
AcDbEntity
  8
0
  6
Continuous
 62
     7
370
    25
100
AcDbLine
 10
62.8148997094
 20
59.7865380503
 30
0.0
 11
62.8148997094
 21
52.1035968221
 31
0.0
  0
LINE
  5
13B
330
1F
100
AcDbEntity
  8
0
  6
Continuous
 62
     7
370
    25
100
AcDbLine
 10
64.8148997094
 20
59.7865380503
 30
0.0
 11
62.8148997094
 21
59.7865380503
 31
0.0
  0
LINE
  5
13C
330
1F
100
AcDbEntity
  8
0
  6
Continuous
 62
     7
370
    25
100
AcDbLine
 10
64.8148997094
 20
57.6664718601
 30
0.0
 11
64.8148997094
 21
59.7865380503
 31
0.0
  0
LINE
  5
13D
330
1F
100
AcDbEntity
  8
0
  6
Continuous
 62
     7
370
    25
100
AcDbLine
 10
58.3048997094
 20
56.1664718601
 30
0.0
 11
58.3048997094
 21
54.0464056699
 31
0.0
  0
LINE
  5
13E
330
1F
100
AcDbEntity
  8
0
  6
Continuous
 62
     7
370
    25
100
AcDbLine
 10
60.3048997094
 20
59.7865380503
 30
0.0
 11
58.3048997094
 21
59.7865380503
 31
0.0
  0
LINE
  5
13F
330
1F
100
AcDbEntity
  8
0
  6
Continuous
 62
     7
370
    25
100
AcDbLine
 10
60.3048997094
 20
52.1035968221
 30
0.0
 11
60.3048997094
 21
59.7865380503
 31
0.0
  0
ARC
  5
140
330
1F
100
AcDbEntity
  8
0
  6
Continuous
 62
     7
370
    25
100
AcDbCircle
 10
61.5598997094
 20
45.42396547
 30
0.0
 40
6.050000000000007
100
AcDbArc
 50
108.6543469823
 51
71.3456530177
  0
ARC
  5
141
330
1F
100
AcDbEntity
  8
0
  6
Continuous
 62
     7
370
    25
100
AcDbCircle
 10
61.5598997094
 20
45.42396547
 30
0.0
 40
8.049999999999997
100
AcDbArc
 50
180.1630885824
 51
239.8369114176
  0
ARC
  5
142
330
1F
100
AcDbEntity
  8
0
  6
Continuous
 62
     7
370
    25
100
AcDbCircle
 10
61.5598997094
 20
45.42396547
 30
0.0
 40
8.050000000000004
100
AcDbArc
 50
300.1630885824
 51
359.8369114176
  0
LINE
  5
143
330
1F
100
AcDbEntity
  8
0
  6
Continuous
 62
     7
370
    25
100
AcDbLine
 10
64.8148997094
 20
54.0464056699
 30
0.0
 11
64.8148997094
 21
56.1664718601
 31
0.0
  0
LINE
  5
144
330
1F
100
AcDbEntity
  8
0
  6
Continuous
 62
     7
370
    25
100
AcDbLine
 10
58.3048997094
 20
59.7865380503
 30
0.0
 11
58.3048997094
 21
57.6664718601
 31
0.0
  0
CIRCLE
  5
145
330
1F
100
AcDbEntity
  8
0
  6
Continuous
 62
     7
370
    25
100
AcDbCircle
 10
84.0394452466
 20
57.4636265678
 30
0.0
 40
1.600000000000009
  0
CIRCLE
  5
146
330
1F
100
AcDbEntity
  8
0
  6
Continuous
 62
     7
370
    25
100
AcDbCircle
 10
74.513165805
 20
40.9636265678
 30
0.0
 40
1.59999999999998
  0
CIRCLE
  5
147
330
1F
100
AcDbEntity
  8
0
  6
Continuous
 62
     7
370
    25
100
AcDbCircle
 10
93.5657246882
 20
40.9636265678
 30
0.0
 40
1.599999999999994
  0
ARC
  5
148
330
1F
100
AcDbEntity
  8
0
  6
Continuous
 62
     7
370
    25
100
AcDbCircle
 10
78.6844452466
 20
37.8411863679
 30
0.0
 40
2.099999999999994
100
AcDbArc
 50
0.0
 51
54.3078773761
  0
ARC
  5
149
330
1F
100
AcDbEntity
  8
0
  6
Continuous
 62
     7
370
    25
100
AcDbCircle
 10
78.9894863651
 20
37.6590587024
 30
0.0
 40
2.100000000000007
100
AcDbArc
 50
64.012702045
 51
120.0
  0
LINE
  5
14A
330
1F
100
AcDbEntity
  8
0
  6
Continuous
 62
     7
370
    25
100
AcDbLine
 10
76.013165805
 20
38.3655503564
 30
0.0
 11
77.9394863651
 21
39.4777120504
 31
0.0
  0
ARC
  5
14B
330
1F
100
AcDbEntity
  8
0
  6
Continuous
 62
     7
370
    25
100
AcDbCircle
 10
74.513165805
 20
40.9636265678
 30
0.0
 40
3.000000000000005
100
AcDbArc
 50
120.0
 51
300.0
  0
LINE
  5
14C
330
1F
100
AcDbEntity
  8
0
  6
Continuous
 62
     7
370
    25
100
AcDbLine
 10
74.9394863651
 20
44.6738644731
 30
0.0
 11
73.013165805
 21
43.5617027791
 31
0.0
  0
ARC
  5
14D
330
1F
100
AcDbEntity
  8
0
  6
Continuous
 62
     7
370
    25
100
AcDbCircle
 10
73.8894863651
 20
46.492517821
 30
0.0
 40
2.100000000000001
100
AcDbArc
 50
300.0
 51
359.8369114176
  0
ARC
  5
14E
330
1F
100
AcDbEntity
  8
0
  6
Continuous
 62
     7
370
    25
100
AcDbCircle
 10
78.9394452466
 20
55.2393031798
 30
0.0
 40
2.100000000000009
100
AcDbArc
 50
300.1630885824
 51
360.0
  0
LINE
  5
14F
330
1F
100
AcDbEntity
  8
0
  6
Continuous
 62
     7
370
    25
100
AcDbLine
 10
81.0394452466
 20
57.4636265678
 30
0.0
 11
81.0394452466
 21
55.2393031798
 31
0.0
  0
ARC
  5
150
330
1F
100
AcDbEntity
  8
0
  6
Continuous
 62
     7
370
    25
100
AcDbCircle
 10
84.0394452466
 20
57.4636265678
 30
0.0
 40
3.0
100
AcDbArc
 50
0.0
 51
180.0
  0
LINE
  5
151
330
1F
100
AcDbEntity
  8
0
  6
Continuous
 62
     7
370
    25
100
AcDbLine
 10
87.0394452466
 20
55.2393031798
 30
0.0
 11
87.0394452466
 21
57.4636265678
 31
0.0
  0
ARC
  5
152
330
1F
100
AcDbEntity
  8
0
  6
Continuous
 62
     7
370
    25
100
AcDbCircle
 10
89.1394452466
 20
55.2393031798
 30
0.0
 40
2.100000000000009
100
AcDbArc
 50
180.0
 51
239.8369114176
  0
ARC
  5
153
330
1F
100
AcDbEntity
  8
0
  6
Continuous
 62
     7
370
    25
100
AcDbCircle
 10
94.1894041281
 20
46.492517821
 30
0.0
 40
2.100000000000006
100
AcDbArc
 50
180.1630885824
 51
240.0
  0
LINE
  5
154
330
1F
100
AcDbEntity
  8
0
  6
Continuous
 62
     7
370
    25
100
AcDbLine
 10
95.0657246882
 20
43.5617027791
 30
0.0
 11
93.1394041281
 21
44.6738644731
 31
0.0
  0
ARC
  5
155
330
1F
100
AcDbEntity
  8
0
  6
Continuous
 62
     7
370
    25
100
AcDbCircle
 10
93.5657246882
 20
40.9636265678
 30
0.0
 40
3.000000000000007
100
AcDbArc
 50
240.0
 51
60.0
  0
LINE
  5
156
330
1F
100
AcDbEntity
  8
0
  6
Continuous
 62
     7
370
    25
100
AcDbLine
 10
90.1394041281
 20
39.4777120504
 30
0.0
 11
92.0657246882
 21
38.3655503564
 31
0.0
  0
ARC
  5
157
330
1F
100
AcDbEntity
  8
0
  6
Continuous
 62
     7
370
    25
100
AcDbCircle
 10
89.0894041281
 20
37.6590587024
 30
0.0
 40
2.099999999999997
100
AcDbArc
 50
60.0
 51
115.987297955
  0
ARC
  5
158
330
1F
100
AcDbEntity
  8
0
  6
Continuous
 62
     7
370
    25
100
AcDbCircle
 10
89.3944452466
 20
37.8411863679
 30
0.0
 40
2.100000000000009
100
AcDbArc
 50
125.6921226239
 51
180.0
  0
ARC
  5
159
330
1F
100
AcDbEntity
  8
0
  6
Continuous
 62
     7
370
    25
100
AcDbCircle
 10
88.2944452466
 20
34.9711201777
 30
0.0
 40
1.25
100
AcDbArc
 50
143.1301023542
 51
216.8698976458
  0
ARC
  5
15A
330
1F
100
AcDbEntity
  8
0
  6
Continuous
 62
     7
370
    25
100
AcDbCircle
 10
86.2944452466
 20
39.7839952156
 30
0.0
 40
0.9999999999999982
100
AcDbArc
 50
108.6543469823
 51
180.0
  0
ARC
  5
15B
330
1F
100
AcDbEntity
  8
0
  6
Continuous
 62
     7
370
    25
100
AcDbCircle
 10
81.7844452466
 20
39.7839952156
 30
0.0
 40
1.000000000000003
100
AcDbArc
 50
0.0
 51
71.3456530177
  0
ARC
  5
15C
330
1F
100
AcDbEntity
  8
0
  6
Continuous
 62
     7
370
    25
100
AcDbCircle
 10
79.7844452466
 20
34.9711201777
 30
0.0
 40
1.25
100
AcDbArc
 50
323.1301023542
 51
36.8698976458
  0
LINE
  5
15D
330
1F
100
AcDbEntity
  8
0
  6
Continuous
 62
     7
370
    25
100
AcDbLine
 10
82.7844452466
 20
32.1010539875
 30
0.0
 11
82.7844452466
 21
39.7839952156
 31
0.0
  0
LINE
  5
15E
330
1F
100
AcDbEntity
  8
0
  6
Continuous
 62
     7
370
    25
100
AcDbLine
 10
80.7844452466
 20
32.1010539875
 30
0.0
 11
82.7844452466
 21
32.1010539875
 31
0.0
  0
LINE
  5
15F
330
1F
100
AcDbEntity
  8
0
  6
Continuous
 62
     7
370
    25
100
AcDbLine
 10
80.7844452466
 20
34.2211201777
 30
0.0
 11
80.7844452466
 21
32.1010539875
 31
0.0
  0
LINE
  5
160
330
1F
100
AcDbEntity
  8
0
  6
Continuous
 62
     7
370
    25
100
AcDbLine
 10
87.2944452466
 20
35.7211201777
 30
0.0
 11
87.2944452466
 21
37.8411863679
 31
0.0
  0
LINE
  5
161
330
1F
100
AcDbEntity
  8
0
  6
Continuous
 62
     7
370
    25
100
AcDbLine
 10
85.2944452466
 20
32.1010539875
 30
0.0
 11
87.2944452466
 21
32.1010539875
 31
0.0
  0
LINE
  5
162
330
1F
100
AcDbEntity
  8
0
  6
Continuous
 62
     7
370
    25
100
AcDbLine
 10
85.2944452466
 20
39.7839952156
 30
0.0
 11
85.2944452466
 21
32.1010539875
 31
0.0
  0
ARC
  5
163
330
1F
100
AcDbEntity
  8
0
  6
Continuous
 62
     7
370
    25
100
AcDbCircle
 10
84.0394452466
 20
46.4636265678
 30
0.0
 40
6.050000000000002
100
AcDbArc
 50
288.6543469823
 51
251.3456530177
  0
ARC
  5
164
330
1F
100
AcDbEntity
  8
0
  6
Continuous
 62
     7
370
    25
100
AcDbCircle
 10
84.0394452466
 20
46.4636265678
 30
0.0
 40
8.050000000000006
100
AcDbArc
 50
0.1630885824
 51
59.8369114176
  0
ARC
  5
165
330
1F
100
AcDbEntity
  8
0
  6
Continuous
 62
     7
370
    25
100
AcDbCircle
 10
84.0394452466
 20
46.4636265678
 30
0.0
 40
8.050000000000004
100
AcDbArc
 50
120.1630885824
 51
179.8369114176
  0
LINE
  5
166
330
1F
100
AcDbEntity
  8
0
  6
Continuous
 62
     7
370
    25
100
AcDbLine
 10
80.7844452466
 20
37.8411863679
 30
0.0
 11
80.7844452466
 21
35.7211201777
 31
0.0
  0
LINE
  5
167
330
1F
100
AcDbEntity
  8
0
  6
Continuous
 62
     7
370
    25
100
AcDbLine
 10
87.2944452466
 20
32.1010539875
 30
0.0
 11
87.2944452466
 21
34.2211201777
 31
0.0
  0
CIRCLE
  5
168
330
1F
100
AcDbEntity
  8
0
  6
Continuous
 62
     7
370
    25
100
AcDbCircle
 10
129.1488251802
 20
3.5242505267
 30
0.0
 40
1.599999999999994
  0
CIRCLE
  5
169
330
1F
100
AcDbEntity
  8
0
  6
Continuous
 62
     7
370
    25
100
AcDbCircle
 10
138.6751046218
 20
20.0242505267
 30
0.0
 40
1.599999999999994
  0
CIRCLE
  5
16A
330
1F
100
AcDbEntity
  8
0
  6
Continuous
 62
     7
370
    25
100
AcDbCircle
 10
119.6225457386
 20
20.0242505267
 30
0.0
 40
1.599999999999994
  0
ARC
  5
16B
330
1F
100
AcDbEntity
  8
0
  6
Continuous
 62
     7
370
    25
100
AcDbCircle
 10
134.5038251802
 20
23.1466907266
 30
0.0
 40
2.100000000000023
100
AcDbArc
 50
180.0
 51
234.3078773761
  0
ARC
  5
16C
330
1F
100
AcDbEntity
  8
0
  6
Continuous
 62
     7
370
    25
100
AcDbCircle
 10
134.1987840617
 20
23.3288183921
 30
0.0
 40
2.1
100
AcDbArc
 50
244.012702045
 51
300.0
  0
LINE
  5
16D
330
1F
100
AcDbEntity
  8
0
  6
Continuous
 62
     7
370
    25
100
AcDbLine
 10
137.1751046218
 20
22.6223267381
 30
0.0
 11
135.2487840617
 21
21.5101650441
 31
0.0
  0
ARC
  5
16E
330
1F
100
AcDbEntity
  8
0
  6
Continuous
 62
     7
370
    25
100
AcDbCircle
 10
138.6751046218
 20
20.0242505267
 30
0.0
 40
2.999999999999998
100
AcDbArc
 50
300.0
 51
120.0
  0
LINE
  5
16F
330
1F
100
AcDbEntity
  8
0
  6
Continuous
 62
     7
370
    25
100
AcDbLine
 10
138.2487840617
 20
16.3140126214
 30
0.0
 11
140.1751046218
 21
17.4261743154
 31
0.0
  0
ARC
  5
170
330
1F
100
AcDbEntity
  8
0
  6
Continuous
 62
     7
370
    25
100
AcDbCircle
 10
139.2987840617
 20
14.4953592735
 30
0.0
 40
2.100000000000006
100
AcDbArc
 50
120.0
 51
179.8369114176
  0
ARC
  5
171
330
1F
100
AcDbEntity
  8
0
  6
Continuous
 62
     7
370
    25
100
AcDbCircle
 10
134.2488251802
 20
5.7485739147
 30
0.0
 40
2.099999999999994
100
AcDbArc
 50
120.1630885824
 51
180.0
  0
LINE
  5
172
330
1F
100
AcDbEntity
  8
0
  6
Continuous
 62
     7
370
    25
100
AcDbLine
 10
132.1488251802
 20
3.5242505267
 30
0.0
 11
132.1488251802
 21
5.7485739147
 31
0.0
  0
ARC
  5
173
330
1F
100
AcDbEntity
  8
0
  6
Continuous
 62
     7
370
    25
100
AcDbCircle
 10
129.1488251802
 20
3.5242505267
 30
0.0
 40
3.000000000000028
100
AcDbArc
 50
180.0
 51
0.0
  0
LINE
  5
174
330
1F
100
AcDbEntity
  8
0
  6
Continuous
 62
     7
370
    25
100
AcDbLine
 10
126.1488251802
 20
5.7485739147
 30
0.0
 11
126.1488251802
 21
3.5242505267
 31
0.0
  0
ARC
  5
175
330
1F
100
AcDbEntity
  8
0
  6
Continuous
 62
     7
370
    25
100
AcDbCircle
 10
124.0488251802
 20
5.7485739147
 30
0.0
 40
2.100000000000009
100
AcDbArc
 50
360.0
 51
59.8369114176
  0
ARC
  5
176
330
1F
100
AcDbEntity
  8
0
  6
Continuous
 62
     7
370
    25
100
AcDbCircle
 10
118.9988662987
 20
14.4953592735
 30
0.0
 40
2.100000000000006
100
AcDbArc
 50
0.1630885824
 51
60.0
  0
LINE
  5
177
330
1F
100
AcDbEntity
  8
0
  6
Continuous
 62
     7
370
    25
100
AcDbLine
 10
118.1225457386
 20
17.4261743154
 30
0.0
 11
120.0488662987
 21
16.3140126214
 31
0.0
  0
ARC
  5
178
330
1F
100
AcDbEntity
  8
0
  6
Continuous
 62
     7
370
    25
100
AcDbCircle
 10
119.6225457386
 20
20.0242505267
 30
0.0
 40
3.000000000000007
100
AcDbArc
 50
60.0
 51
240.0
  0
LINE
  5
179
330
1F
100
AcDbEntity
  8
0
  6
Continuous
 62
     7
370
    25
100
AcDbLine
 10
123.0488662987
 20
21.5101650441
 30
0.0
 11
121.1225457386
 21
22.6223267381
 31
0.0
  0
ARC
  5
17A
330
1F
100
AcDbEntity
  8
0
  6
Continuous
 62
     7
370
    25
100
AcDbCircle
 10
124.0988662987
 20
23.3288183921
 30
0.0
 40
2.099999999999997
100
AcDbArc
 50
240.0
 51
295.987297955
  0
ARC
  5
17B
330
1F
100
AcDbEntity
  8
0
  6
Continuous
 62
     7
370
    25
100
AcDbCircle
 10
123.7938251802
 20
23.1466907266
 30
0.0
 40
2.100000000000009
100
AcDbArc
 50
305.6921226239
 51
0.0
  0
ARC
  5
17C
330
1F
100
AcDbEntity
  8
0
  6
Continuous
 62
     7
370
    25
100
AcDbCircle
 10
124.8938251802
 20
26.0167569168
 30
0.0
 40
1.25
100
AcDbArc
 50
323.1301023542
 51
36.8698976458
  0
ARC
  5
17D
330
1F
100
AcDbEntity
  8
0
  6
Continuous
 62
     7
370
    25
100
AcDbCircle
 10
126.8938251802
 20
21.2038818789
 30
0.0
 40
1.0
100
AcDbArc
 50
288.6543469823
 51
0.0
  0
ARC
  5
17E
330
1F
100
AcDbEntity
  8
0
  6
Continuous
 62
     7
370
    25
100
AcDbCircle
 10
131.4038251802
 20
21.2038818789
 30
0.0
 40
1.000000000000003
100
AcDbArc
 50
180.0
 51
251.3456530177
  0
ARC
  5
17F
330
1F
100
AcDbEntity
  8
0
  6
Continuous
 62
     7
370
    25
100
AcDbCircle
 10
133.4038251802
 20
26.0167569168
 30
0.0
 40
1.25
100
AcDbArc
 50
143.1301023542
 51
216.8698976458
  0
LINE
  5
180
330
1F
100
AcDbEntity
  8
0
  6
Continuous
 62
     7
370
    25
100
AcDbLine
 10
130.4038251802
 20
28.886823107
 30
0.0
 11
130.4038251802
 21
21.2038818789
 31
0.0
  0
LINE
  5
181
330
1F
100
AcDbEntity
  8
0
  6
Continuous
 62
     7
370
    25
100
AcDbLine
 10
132.4038251802
 20
28.886823107
 30
0.0
 11
130.4038251802
 21
28.886823107
 31
0.0
  0
LINE
  5
182
330
1F
100
AcDbEntity
  8
0
  6
Continuous
 62
     7
370
    25
100
AcDbLine
 10
132.4038251802
 20
26.7667569168
 30
0.0
 11
132.4038251802
 21
28.886823107
 31
0.0
  0
LINE
  5
183
330
1F
100
AcDbEntity
  8
0
  6
Continuous
 62
     7
370
    25
100
AcDbLine
 10
125.8938251802
 20
25.2667569168
 30
0.0
 11
125.8938251802
 21
23.1466907266
 31
0.0
  0
LINE
  5
184
330
1F
100
AcDbEntity
  8
0
  6
Continuous
 62
     7
370
    25
100
AcDbLine
 10
127.8938251802
 20
28.886823107
 30
0.0
 11
125.8938251802
 21
28.886823107
 31
0.0
  0
LINE
  5
185
330
1F
100
AcDbEntity
  8
0
  6
Continuous
 62
     7
370
    25
100
AcDbLine
 10
127.8938251802
 20
21.2038818789
 30
0.0
 11
127.8938251802
 21
28.886823107
 31
0.0
  0
ARC
  5
186
330
1F
100
AcDbEntity
  8
0
  6
Continuous
 62
     7
370
    25
100
AcDbCircle
 10
129.1488251802
 20
14.5242505267
 30
0.0
 40
6.050000000000001
100
AcDbArc
 50
108.6543469823
 51
71.3456530177
  0
ARC
  5
187
330
1F
100
AcDbEntity
  8
0
  6
Continuous
 62
     7
370
    25
100
AcDbCircle
 10
129.1488251802
 20
14.5242505267
 30
0.0
 40
8.050000000000004
100
AcDbArc
 50
180.1630885824
 51
239.8369114176
  0
ARC
  5
188
330
1F
100
AcDbEntity
  8
0
  6
Continuous
 62
     7
370
    25
100
AcDbCircle
 10
129.1488251802
 20
14.5242505267
 30
0.0
 40
8.050000000000006
100
AcDbArc
 50
300.1630885824
 51
359.8369114176
  0
LINE
  5
189
330
1F
100
AcDbEntity
  8
0
  6
Continuous
 62
     7
370
    25
100
AcDbLine
 10
132.4038251802
 20
23.1466907266
 30
0.0
 11
132.4038251802
 21
25.2667569168
 31
0.0
  0
LINE
  5
18A
330
1F
100
AcDbEntity
  8
0
  6
Continuous
 62
     7
370
    25
100
AcDbLine
 10
125.8938251802
 20
28.886823107
 30
0.0
 11
125.8938251802
 21
26.7667569168
 31
0.0
  0
CIRCLE
  5
18B
330
1F
100
AcDbEntity
  8
0
  6
Continuous
 62
     7
370
    25
100
AcDbCircle
 10
104.0684717204
 20
26.6875638541
 30
0.0
 40
1.599999999999994
  0
CIRCLE
  5
18C
330
1F
100
AcDbEntity
  8
0
  6
Continuous
 62
     7
370
    25
100
AcDbCircle
 10
94.5421922787
 20
10.1875638541
 30
0.0
 40
1.600000000000009
  0
CIRCLE
  5
18D
330
1F
100
AcDbEntity
  8
0
  6
Continuous
 62
     7
370
    25
100
AcDbCircle
 10
113.594751162
 20
10.1875638541
 30
0.0
 40
1.600000000000009
  0
ARC
  5
18E
330
1F
100
AcDbEntity
  8
0
  6
Continuous
 62
     7
370
    25
100
AcDbCircle
 10
98.7134717204
 20
7.0651236542
 30
0.0
 40
2.100000000000001
100
AcDbArc
 50
0.0
 51
54.3078773761
  0
ARC
  5
18F
330
1F
100
AcDbEntity
  8
0
  6
Continuous
 62
     7
370
    25
100
AcDbCircle
 10
99.0185128389
 20
6.8829959887
 30
0.0
 40
2.100000000000006
100
AcDbArc
 50
64.012702045
 51
120.0
  0
LINE
  5
190
330
1F
100
AcDbEntity
  8
0
  6
Continuous
 62
     7
370
    25
100
AcDbLine
 10
96.0421922787
 20
7.5894876427
 30
0.0
 11
97.9685128389
 21
8.7016493367
 31
0.0
  0
ARC
  5
191
330
1F
100
AcDbEntity
  8
0
  6
Continuous
 62
     7
370
    25
100
AcDbCircle
 10
94.5421922787
 20
10.1875638541
 30
0.0
 40
3.000000000000008
100
AcDbArc
 50
120.0
 51
300.0
  0
LINE
  5
192
330
1F
100
AcDbEntity
  8
0
  6
Continuous
 62
     7
370
    25
100
AcDbLine
 10
94.9685128389
 20
13.8978017594
 30
0.0
 11
93.0421922787
 21
12.7856400654
 31
0.0
  0
ARC
  5
193
330
1F
100
AcDbEntity
  8
0
  6
Continuous
 62
     7
370
    25
100
AcDbCircle
 10
93.9185128389
 20
15.7164551073
 30
0.0
 40
2.100000000000006
100
AcDbArc
 50
300.0
 51
359.8369114176
  0
ARC
  5
194
330
1F
100
AcDbEntity
  8
0
  6
Continuous
 62
     7
370
    25
100
AcDbCircle
 10
98.9684717204
 20
24.4632404661
 30
0.0
 40
2.1
100
AcDbArc
 50
300.1630885824
 51
360.0
  0
LINE
  5
195
330
1F
100
AcDbEntity
  8
0
  6
Continuous
 62
     7
370
    25
100
AcDbLine
 10
101.0684717204
 20
26.6875638541
 30
0.0
 11
101.0684717204
 21
24.4632404661
 31
0.0
  0
ARC
  5
196
330
1F
100
AcDbEntity
  8
0
  6
Continuous
 62
     7
370
    25
100
AcDbCircle
 10
104.0684717204
 20
26.6875638541
 30
0.0
 40
3.000000000000014
100
AcDbArc
 50
0.0
 51
180.0
  0
LINE
  5
197
330
1F
100
AcDbEntity
  8
0
  6
Continuous
 62
     7
370
    25
100
AcDbLine
 10
107.0684717204
 20
24.4632404661
 30
0.0
 11
107.0684717204
 21
26.6875638541
 31
0.0
  0
ARC
  5
198
330
1F
100
AcDbEntity
  8
0
  6
Continuous
 62
     7
370
    25
100
AcDbCircle
 10
109.1684717204
 20
24.4632404661
 30
0.0
 40
2.099999999999999
100
AcDbArc
 50
180.0
 51
239.8369114176
  0
ARC
  5
199
330
1F
100
AcDbEntity
  8
0
  6
Continuous
 62
     7
370
    25
100
AcDbCircle
 10
114.2184306018
 20
15.7164551073
 30
0.0
 40
2.10000000000002
100
AcDbArc
 50
180.1630885824
 51
240.0
  0
LINE
  5
19A
330
1F
100
AcDbEntity
  8
0
  6
Continuous
 62
     7
370
    25
100
AcDbLine
 10
115.094751162
 20
12.7856400654
 30
0.0
 11
113.1684306018
 21
13.8978017594
 31
0.0
  0
ARC
  5
19B
330
1F
100
AcDbEntity
  8
0
  6
Continuous
 62
     7
370
    25
100
AcDbCircle
 10
113.594751162
 20
10.1875638541
 30
0.0
 40
3.000000000000004
100
AcDbArc
 50
240.0
 51
60.0
  0
LINE
  5
19C
330
1F
100
AcDbEntity
  8
0
  6
Continuous
 62
     7
370
    25
100
AcDbLine
 10
110.1684306018
 20
8.7016493367
 30
0.0
 11
112.094751162
 21
7.5894876427
 31
0.0
  0
ARC
  5
19D
330
1F
100
AcDbEntity
  8
0
  6
Continuous
 62
     7
370
    25
100
AcDbCircle
 10
109.1184306018
 20
6.8829959887
 30
0.0
 40
2.099999999999999
100
AcDbArc
 50
60.0
 51
115.987297955
  0
ARC
  5
19E
330
1F
100
AcDbEntity
  8
0
  6
Continuous
 62
     7
370
    25
100
AcDbCircle
 10
109.4234717204
 20
7.0651236542
 30
0.0
 40
2.100000000000009
100
AcDbArc
 50
125.6921226239
 51
180.0
  0
ARC
  5
19F
330
1F
100
AcDbEntity
  8
0
  6
Continuous
 62
     7
370
    25
100
AcDbCircle
 10
108.3234717204
 20
4.195057464
 30
0.0
 40
1.250000000000012
100
AcDbArc
 50
143.1301023542
 51
216.8698976458
  0
ARC
  5
1A0
330
1F
100
AcDbEntity
  8
0
  6
Continuous
 62
     7
370
    25
100
AcDbCircle
 10
106.3234717204
 20
9.0079325019
 30
0.0
 40
1.0
100
AcDbArc
 50
108.6543469823
 51
180.0
  0
ARC
  5
1A1
330
1F
100
AcDbEntity
  8
0
  6
Continuous
 62
     7
370
    25
100
AcDbCircle
 10
101.8134717204
 20
9.0079325019
 30
0.0
 40
1.000000000000003
100
AcDbArc
 50
0.0
 51
71.3456530177
  0
ARC
  5
1A2
330
1F
100
AcDbEntity
  8
0
  6
Continuous
 62
     7
370
    25
100
AcDbCircle
 10
99.8134717204
 20
4.195057464
 30
0.0
 40
1.25
100
AcDbArc
 50
323.1301023542
 51
36.8698976458
  0
LINE
  5
1A3
330
1F
100
AcDbEntity
  8
0
  6
Continuous
 62
     7
370
    25
100
AcDbLine
 10
102.8134717204
 20
1.3249912738
 30
0.0
 11
102.8134717204
 21
9.0079325019
 31
0.0
  0
LINE
  5
1A4
330
1F
100
AcDbEntity
  8
0
  6
Continuous
 62
     7
370
    25
100
AcDbLine
 10
100.8134717204
 20
1.3249912738
 30
0.0
 11
102.8134717204
 21
1.3249912738
 31
0.0
  0
LINE
  5
1A5
330
1F
100
AcDbEntity
  8
0
  6
Continuous
 62
     7
370
    25
100
AcDbLine
 10
100.8134717204
 20
3.445057464
 30
0.0
 11
100.8134717204
 21
1.3249912738
 31
0.0
  0
LINE
  5
1A6
330
1F
100
AcDbEntity
  8
0
  6
Continuous
 62
     7
370
    25
100
AcDbLine
 10
107.3234717204
 20
4.945057464
 30
0.0
 11
107.3234717204
 21
7.0651236542
 31
0.0
  0
LINE
  5
1A7
330
1F
100
AcDbEntity
  8
0
  6
Continuous
 62
     7
370
    25
100
AcDbLine
 10
105.3234717204
 20
1.3249912738
 30
0.0
 11
107.3234717204
 21
1.3249912738
 31
0.0
  0
LINE
  5
1A8
330
1F
100
AcDbEntity
  8
0
  6
Continuous
 62
     7
370
    25
100
AcDbLine
 10
105.3234717204
 20
9.0079325019
 30
0.0
 11
105.3234717204
 21
1.3249912738
 31
0.0
  0
ARC
  5
1A9
330
1F
100
AcDbEntity
  8
0
  6
Continuous
 62
     7
370
    25
100
AcDbCircle
 10
104.0684717204
 20
15.6875638541
 30
0.0
 40
6.050000000000002
100
AcDbArc
 50
288.6543469823
 51
251.3456530177
  0
ARC
  5
1AA
330
1F
100
AcDbEntity
  8
0
  6
Continuous
 62
     7
370
    25
100
AcDbCircle
 10
104.0684717204
 20
15.6875638541
 30
0.0
 40
8.049999999999992
100
AcDbArc
 50
0.1630885824
 51
59.8369114176
  0
ARC
  5
1AB
330
1F
100
AcDbEntity
  8
0
  6
Continuous
 62
     7
370
    25
100
AcDbCircle
 10
104.0684717204
 20
15.6875638541
 30
0.0
 40
8.050000000000004
100
AcDbArc
 50
120.1630885824
 51
179.8369114176
  0
LINE
  5
1AC
330
1F
100
AcDbEntity
  8
0
  6
Continuous
 62
     7
370
    25
100
AcDbLine
 10
100.8134717204
 20
7.0651236542
 30
0.0
 11
100.8134717204
 21
4.945057464
 31
0.0
  0
LINE
  5
1AD
330
1F
100
AcDbEntity
  8
0
  6
Continuous
 62
     7
370
    25
100
AcDbLine
 10
107.3234717204
 20
1.3249912738
 30
0.0
 11
107.3234717204
 21
3.445057464
 31
0.0
  0
CIRCLE
  5
1AE
330
1F
100
AcDbEntity
  8
0
  6
Continuous
 62
     7
370
    25
100
AcDbCircle
 10
36.3415532824
 20
3.9998766408
 30
0.0
 40
1.600000000000009
  0
CIRCLE
  5
1AF
330
1F
100
AcDbEntity
  8
0
  6
Continuous
 62
     7
370
    25
100
AcDbCircle
 10
45.867832724
 20
20.4998766408
 30
0.0
 40
1.600000000000009
  0
CIRCLE
  5
1B0
330
1F
100
AcDbEntity
  8
0
  6
Continuous
 62
     7
370
    25
100
AcDbCircle
 10
26.8152738408
 20
20.4998766408
 30
0.0
 40
1.600000000000001
  0
ARC
  5
1B1
330
1F
100
AcDbEntity
  8
0
  6
Continuous
 62
     7
370
    25
100
AcDbCircle
 10
41.6965532824
 20
23.6223168406
 30
0.0
 40
2.100000000000001
100
AcDbArc
 50
180.0
 51
234.3078773761
  0
ARC
  5
1B2
330
1F
100
AcDbEntity
  8
0
  6
Continuous
 62
     7
370
    25
100
AcDbCircle
 10
41.3915121639
 20
23.8044445061
 30
0.0
 40
2.100000000000003
100
AcDbArc
 50
244.012702045
 51
300.0
  0
LINE
  5
1B3
330
1F
100
AcDbEntity
  8
0
  6
Continuous
 62
     7
370
    25
100
AcDbLine
 10
44.367832724
 20
23.0979528521
 30
0.0
 11
42.4415121639
 21
21.9857911582
 31
0.0
  0
ARC
  5
1B4
330
1F
100
AcDbEntity
  8
0
  6
Continuous
 62
     7
370
    25
100
AcDbCircle
 10
45.867832724
 20
20.4998766408
 30
0.0
 40
3.000000000000005
100
AcDbArc
 50
300.0
 51
120.0
  0
LINE
  5
1B5
330
1F
100
AcDbEntity
  8
0
  6
Continuous
 62
     7
370
    25
100
AcDbLine
 10
45.4415121639
 20
16.7896387355
 30
0.0
 11
47.367832724
 21
17.9018004294
 31
0.0
  0
ARC
  5
1B6
330
1F
100
AcDbEntity
  8
0
  6
Continuous
 62
     7
370
    25
100
AcDbCircle
 10
46.4915121639
 20
14.9709853875
 30
0.0
 40
2.099999999999999
100
AcDbArc
 50
120.0
 51
179.8369114176
  0
ARC
  5
1B7
330
1F
100
AcDbEntity
  8
0
  6
Continuous
 62
     7
370
    25
100
AcDbCircle
 10
41.4415532824
 20
6.2242000287
 30
0.0
 40
2.100000000000001
100
AcDbArc
 50
120.1630885824
 51
180.0
  0
LINE
  5
1B8
330
1F
100
AcDbEntity
  8
0
  6
Continuous
 62
     7
370
    25
100
AcDbLine
 10
39.3415532824
 20
3.9998766408
 30
0.0
 11
39.3415532824
 21
6.2242000287
 31
0.0
  0
ARC
  5
1B9
330
1F
100
AcDbEntity
  8
0
  6
Continuous
 62
     7
370
    25
100
AcDbCircle
 10
36.3415532824
 20
3.9998766408
 30
0.0
 40
3.000000000000007
100
AcDbArc
 50
180.0
 51
0.0
  0
LINE
  5
1BA
330
1F
100
AcDbEntity
  8
0
  6
Continuous
 62
     7
370
    25
100
AcDbLine
 10
33.3415532824
 20
6.2242000287
 30
0.0
 11
33.3415532824
 21
3.9998766408
 31
0.0
  0
ARC
  5
1BB
330
1F
100
AcDbEntity
  8
0
  6
Continuous
 62
     7
370
    25
100
AcDbCircle
 10
31.2415532824
 20
6.2242000287
 30
0.0
 40
2.100000000000005
100
AcDbArc
 50
360.0
 51
59.8369114176
  0
ARC
  5
1BC
330
1F
100
AcDbEntity
  8
0
  6
Continuous
 62
     7
370
    25
100
AcDbCircle
 10
26.1915944009
 20
14.9709853875
 30
0.0
 40
2.100000000000002
100
AcDbArc
 50
0.1630885824
 51
60.0
  0
LINE
  5
1BD
330
1F
100
AcDbEntity
  8
0
  6
Continuous
 62
     7
370
    25
100
AcDbLine
 10
25.3152738408
 20
17.9018004294
 30
0.0
 11
27.2415944009
 21
16.7896387355
 31
0.0
  0
ARC
  5
1BE
330
1F
100
AcDbEntity
  8
0
  6
Continuous
 62
     7
370
    25
100
AcDbCircle
 10
26.8152738408
 20
20.4998766408
 30
0.0
 40
3.000000000000009
100
AcDbArc
 50
60.0
 51
240.0
  0
LINE
  5
1BF
330
1F
100
AcDbEntity
  8
0
  6
Continuous
 62
     7
370
    25
100
AcDbLine
 10
30.2415944009
 20
21.9857911582
 30
0.0
 11
28.3152738408
 21
23.0979528521
 31
0.0
  0
ARC
  5
1C0
330
1F
100
AcDbEntity
  8
0
  6
Continuous
 62
     7
370
    25
100
AcDbCircle
 10
31.2915944009
 20
23.8044445061
 30
0.0
 40
2.100000000000003
100
AcDbArc
 50
240.0
 51
295.987297955
  0
ARC
  5
1C1
330
1F
100
AcDbEntity
  8
0
  6
Continuous
 62
     7
370
    25
100
AcDbCircle
 10
30.9865532824
 20
23.6223168406
 30
0.0
 40
2.100000000000002
100
AcDbArc
 50
305.6921226239
 51
0.0
  0
ARC
  5
1C2
330
1F
100
AcDbEntity
  8
0
  6
Continuous
 62
     7
370
    25
100
AcDbCircle
 10
32.0865532824
 20
26.4923830308
 30
0.0
 40
1.249999999999996
100
AcDbArc
 50
323.1301023542
 51
36.8698976458
  0
ARC
  5
1C3
330
1F
100
AcDbEntity
  8
0
  6
Continuous
 62
     7
370
    25
100
AcDbCircle
 10
34.0865532824
 20
21.6795079929
 30
0.0
 40
1.0
100
AcDbArc
 50
288.6543469823
 51
0.0
  0
ARC
  5
1C4
330
1F
100
AcDbEntity
  8
0
  6
Continuous
 62
     7
370
    25
100
AcDbCircle
 10
38.5965532824
 20
21.6795079929
 30
0.0
 40
1.0
100
AcDbArc
 50
180.0
 51
251.3456530177
  0
ARC
  5
1C5
330
1F
100
AcDbEntity
  8
0
  6
Continuous
 62
     7
370
    25
100
AcDbCircle
 10
40.5965532824
 20
26.4923830308
 30
0.0
 40
1.250000000000008
100
AcDbArc
 50
143.1301023542
 51
216.8698976458
  0
LINE
  5
1C6
330
1F
100
AcDbEntity
  8
0
  6
Continuous
 62
     7
370
    25
100
AcDbLine
 10
37.5965532824
 20
29.3624492211
 30
0.0
 11
37.5965532824
 21
21.6795079929
 31
0.0
  0
LINE
  5
1C7
330
1F
100
AcDbEntity
  8
0
  6
Continuous
 62
     7
370
    25
100
AcDbLine
 10
39.5965532824
 20
29.3624492211
 30
0.0
 11
37.5965532824
 21
29.3624492211
 31
0.0
  0
LINE
  5
1C8
330
1F
100
AcDbEntity
  8
0
  6
Continuous
 62
     7
370
    25
100
AcDbLine
 10
39.5965532824
 20
27.2423830308
 30
0.0
 11
39.5965532824
 21
29.3624492211
 31
0.0
  0
LINE
  5
1C9
330
1F
100
AcDbEntity
  8
0
  6
Continuous
 62
     7
370
    25
100
AcDbLine
 10
33.0865532824
 20
25.7423830308
 30
0.0
 11
33.0865532824
 21
23.6223168406
 31
0.0
  0
LINE
  5
1CA
330
1F
100
AcDbEntity
  8
0
  6
Continuous
 62
     7
370
    25
100
AcDbLine
 10
35.0865532824
 20
29.3624492211
 30
0.0
 11
33.0865532824
 21
29.3624492211
 31
0.0
  0
LINE
  5
1CB
330
1F
100
AcDbEntity
  8
0
  6
Continuous
 62
     7
370
    25
100
AcDbLine
 10
35.0865532824
 20
21.6795079929
 30
0.0
 11
35.0865532824
 21
29.3624492211
 31
0.0
  0
ARC
  5
1CC
330
1F
100
AcDbEntity
  8
0
  6
Continuous
 62
     7
370
    25
100
AcDbCircle
 10
36.3415532824
 20
14.9998766408
 30
0.0
 40
6.050000000000001
100
AcDbArc
 50
108.6543469823
 51
71.3456530177
  0
ARC
  5
1CD
330
1F
100
AcDbEntity
  8
0
  6
Continuous
 62
     7
370
    25
100
AcDbCircle
 10
36.3415532824
 20
14.9998766408
 30
0.0
 40
8.049999999999999
100
AcDbArc
 50
180.1630885824
 51
239.8369114176
  0
ARC
  5
1CE
330
1F
100
AcDbEntity
  8
0
  6
Continuous
 62
     7
370
    25
100
AcDbCircle
 10
36.3415532824
 20
14.9998766408
 30
0.0
 40
8.049999999999997
100
AcDbArc
 50
300.1630885824
 51
359.8369114176
  0
LINE
  5
1CF
330
1F
100
AcDbEntity
  8
0
  6
Continuous
 62
     7
370
    25
100
AcDbLine
 10
39.5965532824
 20
23.6223168406
 30
0.0
 11
39.5965532824
 21
25.7423830308
 31
0.0
  0
LINE
  5
1D0
330
1F
100
AcDbEntity
  8
0
  6
Continuous
 62
     7
370
    25
100
AcDbLine
 10
33.0865532824
 20
29.3624492211
 30
0.0
 11
33.0865532824
 21
27.2423830308
 31
0.0
  0
CIRCLE
  5
1D1
330
1F
100
AcDbEntity
  8
0
  6
Continuous
 62
     7
370
    25
100
AcDbCircle
 10
129.0455565148
 20
57.4238196771
 30
0.0
 40
1.599999999999994
  0
CIRCLE
  5
1D2
330
1F
100
AcDbEntity
  8
0
  6
Continuous
 62
     7
370
    25
100
AcDbCircle
 10
119.5192770732
 20
40.9238196771
 30
0.0
 40
1.600000000000009
  0
CIRCLE
  5
1D3
330
1F
100
AcDbEntity
  8
0
  6
Continuous
 62
     7
370
    25
100
AcDbCircle
 10
138.5718359564
 20
40.9238196771
 30
0.0
 40
1.600000000000023
  0
ARC
  5
1D4
330
1F
100
AcDbEntity
  8
0
  6
Continuous
 62
     7
370
    25
100
AcDbCircle
 10
123.6905565148
 20
37.8013794773
 30
0.0
 40
2.100000000000009
100
AcDbArc
 50
0.0
 51
54.3078773761
  0
ARC
  5
1D5
330
1F
100
AcDbEntity
  8
0
  6
Continuous
 62
     7
370
    25
100
AcDbCircle
 10
123.9955976333
 20
37.6192518118
 30
0.0
 40
2.100000000000013
100
AcDbArc
 50
64.012702045
 51
120.0
  0
LINE
  5
1D6
330
1F
100
AcDbEntity
  8
0
  6
Continuous
 62
     7
370
    25
100
AcDbLine
 10
121.0192770732
 20
38.3257434658
 30
0.0
 11
122.9455976333
 21
39.4379051597
 31
0.0
  0
ARC
  5
1D7
330
1F
100
AcDbEntity
  8
0
  6
Continuous
 62
     7
370
    25
100
AcDbCircle
 10
119.5192770732
 20
40.9238196771
 30
0.0
 40
2.999999999999998
100
AcDbArc
 50
120.0
 51
300.0
  0
LINE
  5
1D8
330
1F
100
AcDbEntity
  8
0
  6
Continuous
 62
     7
370
    25
100
AcDbLine
 10
119.9455976333
 20
44.6340575824
 30
0.0
 11
118.0192770732
 21
43.5218958885
 31
0.0
  0
ARC
  5
1D9
330
1F
100
AcDbEntity
  8
0
  6
Continuous
 62
     7
370
    25
100
AcDbCircle
 10
118.8955976333
 20
46.4527109304
 30
0.0
 40
2.100000000000006
100
AcDbArc
 50
300.0
 51
359.8369114176
  0
ARC
  5
1DA
330
1F
100
AcDbEntity
  8
0
  6
Continuous
 62
     7
370
    25
100
AcDbCircle
 10
123.9455565148
 20
55.1994962892
 30
0.0
 40
2.100000000000002
100
AcDbArc
 50
300.1630885824
 51
360.0
  0
LINE
  5
1DB
330
1F
100
AcDbEntity
  8
0
  6
Continuous
 62
     7
370
    25
100
AcDbLine
 10
126.0455565148
 20
57.4238196771
 30
0.0
 11
126.0455565148
 21
55.1994962892
 31
0.0
  0
ARC
  5
1DC
330
1F
100
AcDbEntity
  8
0
  6
Continuous
 62
     7
370
    25
100
AcDbCircle
 10
129.0455565148
 20
57.4238196771
 30
0.0
 40
3.000000000000014
100
AcDbArc
 50
0.0
 51
180.0
  0
LINE
  5
1DD
330
1F
100
AcDbEntity
  8
0
  6
Continuous
 62
     7
370
    25
100
AcDbLine
 10
132.0455565148
 20
55.1994962892
 30
0.0
 11
132.0455565148
 21
57.4238196771
 31
0.0
  0
ARC
  5
1DE
330
1F
100
AcDbEntity
  8
0
  6
Continuous
 62
     7
370
    25
100
AcDbCircle
 10
134.1455565148
 20
55.1994962892
 30
0.0
 40
2.099999999999999
100
AcDbArc
 50
180.0
 51
239.8369114176
  0
ARC
  5
1DF
330
1F
100
AcDbEntity
  8
0
  6
Continuous
 62
     7
370
    25
100
AcDbCircle
 10
139.1955153963
 20
46.4527109304
 30
0.0
 40
2.099999999999989
100
AcDbArc
 50
180.1630885824
 51
240.0
  0
LINE
  5
1E0
330
1F
100
AcDbEntity
  8
0
  6
Continuous
 62
     7
370
    25
100
AcDbLine
 10
140.0718359564
 20
43.5218958885
 30
0.0
 11
138.1455153963
 21
44.6340575824
 31
0.0
  0
ARC
  5
1E1
330
1F
100
AcDbEntity
  8
0
  6
Continuous
 62
     7
370
    25
100
AcDbCircle
 10
138.5718359564
 20
40.9238196771
 30
0.0
 40
3.000000000000014
100
AcDbArc
 50
240.0
 51
60.0
  0
LINE
  5
1E2
330
1F
100
AcDbEntity
  8
0
  6
Continuous
 62
     7
370
    25
100
AcDbLine
 10
135.1455153963
 20
39.4379051597
 30
0.0
 11
137.0718359564
 21
38.3257434658
 31
0.0
  0
ARC
  5
1E3
330
1F
100
AcDbEntity
  8
0
  6
Continuous
 62
     7
370
    25
100
AcDbCircle
 10
134.0955153963
 20
37.6192518118
 30
0.0
 40
2.100000000000012
100
AcDbArc
 50
60.0
 51
115.987297955
  0
ARC
  5
1E4
330
1F
100
AcDbEntity
  8
0
  6
Continuous
 62
     7
370
    25
100
AcDbCircle
 10
134.4005565148
 20
37.8013794773
 30
0.0
 40
2.099999999999994
100
AcDbArc
 50
125.6921226239
 51
180.0
  0
ARC
  5
1E5
330
1F
100
AcDbEntity
  8
0
  6
Continuous
 62
     7
370
    25
100
AcDbCircle
 10
133.3005565148
 20
34.9313132871
 30
0.0
 40
1.25
100
AcDbArc
 50
143.1301023542
 51
216.8698976458
  0
ARC
  5
1E6
330
1F
100
AcDbEntity
  8
0
  6
Continuous
 62
     7
370
    25
100
AcDbCircle
 10
131.3005565148
 20
39.744188325
 30
0.0
 40
1.0
100
AcDbArc
 50
108.6543469823
 51
180.0
  0
ARC
  5
1E7
330
1F
100
AcDbEntity
  8
0
  6
Continuous
 62
     7
370
    25
100
AcDbCircle
 10
126.7905565148
 20
39.744188325
 30
0.0
 40
1.0
100
AcDbArc
 50
0.0
 51
71.3456530177
  0
ARC
  5
1E8
330
1F
100
AcDbEntity
  8
0
  6
Continuous
 62
     7
370
    25
100
AcDbCircle
 10
124.7905565148
 20
34.9313132871
 30
0.0
 40
1.250000000000011
100
AcDbArc
 50
323.1301023542
 51
36.8698976458
  0
LINE
  5
1E9
330
1F
100
AcDbEntity
  8
0
  6
Continuous
 62
     7
370
    25
100
AcDbLine
 10
127.7905565148
 20
32.0612470968
 30
0.0
 11
127.7905565148
 21
39.744188325
 31
0.0
  0
LINE
  5
1EA
330
1F
100
AcDbEntity
  8
0
  6
Continuous
 62
     7
370
    25
100
AcDbLine
 10
125.7905565148
 20
32.0612470968
 30
0.0
 11
127.7905565148
 21
32.0612470968
 31
0.0
  0
LINE
  5
1EB
330
1F
100
AcDbEntity
  8
0
  6
Continuous
 62
     7
370
    25
100
AcDbLine
 10
125.7905565148
 20
34.1813132871
 30
0.0
 11
125.7905565148
 21
32.0612470968
 31
0.0
  0
LINE
  5
1EC
330
1F
100
AcDbEntity
  8
0
  6
Continuous
 62
     7
370
    25
100
AcDbLine
 10
132.3005565148
 20
35.6813132871
 30
0.0
 11
132.3005565148
 21
37.8013794773
 31
0.0
  0
LINE
  5
1ED
330
1F
100
AcDbEntity
  8
0
  6
Continuous
 62
     7
370
    25
100
AcDbLine
 10
130.3005565148
 20
32.0612470968
 30
0.0
 11
132.3005565148
 21
32.0612470968
 31
0.0
  0
LINE
  5
1EE
330
1F
100
AcDbEntity
  8
0
  6
Continuous
 62
     7
370
    25
100
AcDbLine
 10
130.3005565148
 20
39.744188325
 30
0.0
 11
130.3005565148
 21
32.0612470968
 31
0.0
  0
ARC
  5
1EF
330
1F
100
AcDbEntity
  8
0
  6
Continuous
 62
     7
370
    25
100
AcDbCircle
 10
129.0455565148
 20
46.4238196771
 30
0.0
 40
6.050000000000007
100
AcDbArc
 50
288.6543469823
 51
251.3456530177
  0
ARC
  5
1F0
330
1F
100
AcDbEntity
  8
0
  6
Continuous
 62
     7
370
    25
100
AcDbCircle
 10
129.0455565148
 20
46.4238196771
 30
0.0
 40
8.050000000000018
100
AcDbArc
 50
0.1630885824
 51
59.8369114176
  0
ARC
  5
1F1
330
1F
100
AcDbEntity
  8
0
  6
Continuous
 62
     7
370
    25
100
AcDbCircle
 10
129.0455565148
 20
46.4238196771
 30
0.0
 40
8.049999999999997
100
AcDbArc
 50
120.1630885824
 51
179.8369114176
  0
LINE
  5
1F2
330
1F
100
AcDbEntity
  8
0
  6
Continuous
 62
     7
370
    25
100
AcDbLine
 10
125.7905565148
 20
37.8013794773
 30
0.0
 11
125.7905565148
 21
35.6813132871
 31
0.0
  0
LINE
  5
1F3
330
1F
100
AcDbEntity
  8
0
  6
Continuous
 62
     7
370
    25
100
AcDbLine
 10
132.3005565148
 20
32.0612470968
 30
0.0
 11
132.3005565148
 21
34.1813132871
 31
0.0
  0
CIRCLE
  5
1F4
330
1F
100
AcDbEntity
  8
0
  6
Continuous
 62
     7
370
    25
100
AcDbCircle
 10
106.5636816184
 20
35.4793507102
 30
0.0
 40
1.600000000000009
  0
CIRCLE
  5
1F5
330
1F
100
AcDbEntity
  8
0
  6
Continuous
 62
     7
370
    25
100
AcDbCircle
 10
116.08996106
 20
51.9793507102
 30
0.0
 40
1.599999999999994
  0
CIRCLE
  5
1F6
330
1F
100
AcDbEntity
  8
0
  6
Continuous
 62
     7
370
    25
100
AcDbCircle
 10
97.0374021768
 20
51.9793507102
 30
0.0
 40
1.599999999999994
  0
ARC
  5
1F7
330
1F
100
AcDbEntity
  8
0
  6
Continuous
 62
     7
370
    25
100
AcDbCircle
 10
111.9186816184
 20
55.10179091
 30
0.0
 40
2.100000000000001
100
AcDbArc
 50
180.0
 51
234.3078773761
  0
ARC
  5
1F8
330
1F
100
AcDbEntity
  8
0
  6
Continuous
 62
     7
370
    25
100
AcDbCircle
 10
111.6136404999
 20
55.2839185755
 30
0.0
 40
2.100000000000001
100
AcDbArc
 50
244.012702045
 51
300.0
  0
LINE
  5
1F9
330
1F
100
AcDbEntity
  8
0
  6
Continuous
 62
     7
370
    25
100
AcDbLine
 10
114.58996106
 20
54.5774269215
 30
0.0
 11
112.6636404999
 21
53.4652652275
 31
0.0
  0
ARC
  5
1FA
330
1F
100
AcDbEntity
  8
0
  6
Continuous
 62
     7
370
    25
100
AcDbCircle
 10
116.08996106
 20
51.9793507102
 30
0.0
 40
3.000000000000005
100
AcDbArc
 50
300.0
 51
120.0
  0
LINE
  5
1FB
330
1F
100
AcDbEntity
  8
0
  6
Continuous
 62
     7
370
    25
100
AcDbLine
 10
115.6636404999
 20
48.2691128048
 30
0.0
 11
117.58996106
 21
49.3812744988
 31
0.0
  0
ARC
  5
1FC
330
1F
100
AcDbEntity
  8
0
  6
Continuous
 62
     7
370
    25
100
AcDbCircle
 10
116.7136404999
 20
46.4504594569
 30
0.0
 40
2.100000000000007
100
AcDbArc
 50
120.0
 51
179.8369114176
  0
ARC
  5
1FD
330
1F
100
AcDbEntity
  8
0
  6
Continuous
 62
     7
370
    25
100
AcDbCircle
 10
111.6636816184
 20
37.7036740981
 30
0.0
 40
2.100000000000009
100
AcDbArc
 50
120.1630885824
 51
180.0
  0
LINE
  5
1FE
330
1F
100
AcDbEntity
  8
0
  6
Continuous
 62
     7
370
    25
100
AcDbLine
 10
109.5636816184
 20
35.4793507102
 30
0.0
 11
109.5636816184
 21
37.7036740981
 31
0.0
  0
ARC
  5
1FF
330
1F
100
AcDbEntity
  8
0
  6
Continuous
 62
     7
370
    25
100
AcDbCircle
 10
106.5636816184
 20
35.4793507102
 30
0.0
 40
3.0
100
AcDbArc
 50
180.0
 51
0.0
  0
LINE
  5
200
330
1F
100
AcDbEntity
  8
0
  6
Continuous
 62
     7
370
    25
100
AcDbLine
 10
103.5636816184
 20
37.7036740981
 30
0.0
 11
103.5636816184
 21
35.4793507102
 31
0.0
  0
ARC
  5
201
330
1F
100
AcDbEntity
  8
0
  6
Continuous
 62
     7
370
    25
100
AcDbCircle
 10
101.4636816184
 20
37.7036740981
 30
0.0
 40
2.100000000000009
100
AcDbArc
 50
360.0
 51
59.8369114176
  0
ARC
  5
202
330
1F
100
AcDbEntity
  8
0
  6
Continuous
 62
     7
370
    25
100
AcDbCircle
 10
96.4137227369
 20
46.4504594569
 30
0.0
 40
2.100000000000006
100
AcDbArc
 50
0.1630885824
 51
60.0
  0
LINE
  5
203
330
1F
100
AcDbEntity
  8
0
  6
Continuous
 62
     7
370
    25
100
AcDbLine
 10
95.5374021768
 20
49.3812744988
 30
0.0
 11
97.4637227369
 21
48.2691128048
 31
0.0
  0
ARC
  5
204
330
1F
100
AcDbEntity
  8
0
  6
Continuous
 62
     7
370
    25
100
AcDbCircle
 10
97.0374021768
 20
51.9793507102
 30
0.0
 40
3.000000000000007
100
AcDbArc
 50
60.0
 51
240.0
  0
LINE
  5
205
330
1F
100
AcDbEntity
  8
0
  6
Continuous
 62
     7
370
    25
100
AcDbLine
 10
100.4637227369
 20
53.4652652275
 30
0.0
 11
98.5374021768
 21
54.5774269215
 31
0.0
  0
ARC
  5
206
330
1F
100
AcDbEntity
  8
0
  6
Continuous
 62
     7
370
    25
100
AcDbCircle
 10
101.5137227369
 20
55.2839185755
 30
0.0
 40
2.099999999999997
100
AcDbArc
 50
240.0
 51
295.987297955
  0
ARC
  5
207
330
1F
100
AcDbEntity
  8
0
  6
Continuous
 62
     7
370
    25
100
AcDbCircle
 10
101.2086816184
 20
55.10179091
 30
0.0
 40
2.100000000000009
100
AcDbArc
 50
305.6921226239
 51
0.0
  0
ARC
  5
208
330
1F
100
AcDbEntity
  8
0
  6
Continuous
 62
     7
370
    25
100
AcDbCircle
 10
102.3086816184
 20
57.9718571002
 30
0.0
 40
1.250000000000004
100
AcDbArc
 50
323.1301023542
 51
36.8698976458
  0
ARC
  5
209
330
1F
100
AcDbEntity
  8
0
  6
Continuous
 62
     7
370
    25
100
AcDbCircle
 10
104.3086816184
 20
53.1589820623
 30
0.0
 40
1.0
100
AcDbArc
 50
288.6543469823
 51
0.0
  0
ARC
  5
20A
330
1F
100
AcDbEntity
  8
0
  6
Continuous
 62
     7
370
    25
100
AcDbCircle
 10
108.8186816184
 20
53.1589820623
 30
0.0
 40
1.0
100
AcDbArc
 50
180.0
 51
251.3456530177
  0
ARC
  5
20B
330
1F
100
AcDbEntity
  8
0
  6
Continuous
 62
     7
370
    25
100
AcDbCircle
 10
110.8186816184
 20
57.9718571002
 30
0.0
 40
1.249999999999993
100
AcDbArc
 50
143.1301023542
 51
216.8698976458
  0
LINE
  5
20C
330
1F
100
AcDbEntity
  8
0
  6
Continuous
 62
     7
370
    25
100
AcDbLine
 10
107.8186816184
 20
60.8419232904
 30
0.0
 11
107.8186816184
 21
53.1589820623
 31
0.0
  0
LINE
  5
20D
330
1F
100
AcDbEntity
  8
0
  6
Continuous
 62
     7
370
    25
100
AcDbLine
 10
109.8186816184
 20
60.8419232904
 30
0.0
 11
107.8186816184
 21
60.8419232904
 31
0.0
  0
LINE
  5
20E
330
1F
100
AcDbEntity
  8
0
  6
Continuous
 62
     7
370
    25
100
AcDbLine
 10
109.8186816184
 20
58.7218571002
 30
0.0
 11
109.8186816184
 21
60.8419232904
 31
0.0
  0
LINE
  5
20F
330
1F
100
AcDbEntity
  8
0
  6
Continuous
 62
     7
370
    25
100
AcDbLine
 10
103.3086816184
 20
57.2218571002
 30
0.0
 11
103.3086816184
 21
55.10179091
 31
0.0
  0
LINE
  5
210
330
1F
100
AcDbEntity
  8
0
  6
Continuous
 62
     7
370
    25
100
AcDbLine
 10
105.3086816184
 20
60.8419232904
 30
0.0
 11
103.3086816184
 21
60.8419232904
 31
0.0
  0
LINE
  5
211
330
1F
100
AcDbEntity
  8
0
  6
Continuous
 62
     7
370
    25
100
AcDbLine
 10
105.3086816184
 20
53.1589820623
 30
0.0
 11
105.3086816184
 21
60.8419232904
 31
0.0
  0
ARC
  5
212
330
1F
100
AcDbEntity
  8
0
  6
Continuous
 62
     7
370
    25
100
AcDbCircle
 10
106.5636816184
 20
46.4793507102
 30
0.0
 40
6.05000000000001
100
AcDbArc
 50
108.6543469823
 51
71.3456530177
  0
ARC
  5
213
330
1F
100
AcDbEntity
  8
0
  6
Continuous
 62
     7
370
    25
100
AcDbCircle
 10
106.5636816184
 20
46.4793507102
 30
0.0
 40
8.050000000000004
100
AcDbArc
 50
180.1630885824
 51
239.8369114176
  0
ARC
  5
214
330
1F
100
AcDbEntity
  8
0
  6
Continuous
 62
     7
370
    25
100
AcDbCircle
 10
106.5636816184
 20
46.4793507102
 30
0.0
 40
8.050000000000004
100
AcDbArc
 50
300.1630885824
 51
359.8369114176
  0
LINE
  5
215
330
1F
100
AcDbEntity
  8
0
  6
Continuous
 62
     7
370
    25
100
AcDbLine
 10
109.8186816184
 20
55.10179091
 30
0.0
 11
109.8186816184
 21
57.2218571002
 31
0.0
  0
LINE
  5
216
330
1F
100
AcDbEntity
  8
0
  6
Continuous
 62
     7
370
    25
100
AcDbLine
 10
103.3086816184
 20
60.8419232904
 30
0.0
 11
103.3086816184
 21
58.7218571002
 31
0.0
  0
ARC
  5
217
330
1F
100
AcDbEntity
  8
0
  6
Continuous
 62
     7
370
    25
100
AcDbCircle
 10
117.1557986726
 20
116.5961858094
 30
0.0
 40
1.25000000000002
100
AcDbArc
 50
135.0
 51
225.0
  0
LINE
  5
218
330
1F
100
AcDbEntity
  8
0
  6
Continuous
 62
     7
370
    25
100
AcDbLine
 10
116.2719151961
 20
115.7123023329
 30
0.0
 11
120.6787694456
 21
111.3054480834
 31
0.0
  0
ARC
  5
219
330
1F
100
AcDbEntity
  8
0
  6
Continuous
 62
     7
370
    25
100
AcDbCircle
 10
119.7948859691
 20
110.4215646069
 30
0.0
 40
1.25
100
AcDbArc
 50
0.0
 51
45.0
  0
LINE
  5
21A
330
1F
100
AcDbEntity
  8
0
  6
Continuous
 62
     7
370
    25
100
AcDbLine
 10
121.0448859691
 20
109.1458477633
 30
0.0
 11
121.0448859691
 21
110.4215646069
 31
0.0
  0
ARC
  5
21B
330
1F
100
AcDbEntity
  8
0
  6
Continuous
 62
     7
370
    25
100
AcDbCircle
 10
131.0448859691
 20
109.1458477633
 30
0.0
 40
10.00000000000002
100
AcDbArc
 50
180.0
 51
225.0
  0
LINE
  5
21C
330
1F
100
AcDbEntity
  8
0
  6
Continuous
 62
     7
370
    25
100
AcDbLine
 10
125.1870215928
 20
100.8615765159
 30
0.0
 11
123.9738181572
 21
102.0747799515
 31
0.0
  0
ARC
  5
21D
330
1F
100
AcDbEntity
  8
0
  6
Continuous
 62
     7
370
    25
100
AcDbCircle
 10
132.2580894047
 20
107.9326443278
 30
0.0
 40
10.0
100
AcDbArc
 50
225.0
 51
270.0
  0
LINE
  5
21E
330
1F
100
AcDbEntity
  8
0
  6
Continuous
 62
     7
370
    25
100
AcDbLine
 10
133.5338062483
 20
97.9326443278
 30
0.0
 11
132.2580894047
 21
97.9326443278
 31
0.0
  0
ARC
  5
21F
330
1F
100
AcDbEntity
  8
0
  6
Continuous
 62
     7
370
    25
100
AcDbCircle
 10
133.5338062483
 20
96.6826443278
 30
0.0
 40
1.25
100
AcDbArc
 50
45.0
 51
90.0
  0
LINE
  5
220
330
1F
100
AcDbEntity
  8
0
  6
Continuous
 62
     7
370
    25
100
AcDbLine
 10
134.4176897247
 20
97.5665278042
 30
0.0
 11
138.8245439742
 21
93.1596735547
 31
0.0
  0
ARC
  5
221
330
1F
100
AcDbEntity
  8
0
  6
Continuous
 62
     7
370
    25
100
AcDbCircle
 10
139.7084274507
 20
94.0435570312
 30
0.0
 40
1.25000000000001
100
AcDbArc
 50
225.0
 51
315.0
  0
LINE
  5
222
330
1F
100
AcDbEntity
  8
0
  6
Continuous
 62
     7
370
    25
100
AcDbLine
 10
140.5923109272
 20
93.1596735547
 30
0.0
 11
144.443269639
 21
97.0106322665
 31
0.0
  0
ARC
  5
223
330
1F
100
AcDbEntity
  8
0
  6
Continuous
 62
     7
370
    25
100
AcDbCircle
 10
145.3271531155
 20
96.1267487901
 30
0.0
 40
1.25
100
AcDbArc
 50
69.4667962137
 51
135.0
  0
ARC
  5
224
330
1F
100
AcDbEntity
  8
0
  6
Continuous
 62
     7
370
    25
100
AcDbCircle
 10
142.2580894047
 20
87.9326443278
 30
0.0
 40
9.999999999999995
100
AcDbArc
 50
45.0
 51
69.4667962137
  0
LINE
  5
225
330
1F
100
AcDbEntity
  8
0
  6
Continuous
 62
     7
370
    25
100
AcDbLine
 10
149.3291572166
 20
95.0037121396
 30
0.0
 11
151.4002250284
 21
92.9326443278
 31
0.0
  0
LINE
  5
226
330
1F
100
AcDbEntity
  8
0
  6
Continuous
 62
     7
370
    25
100
AcDbLine
 10
148.3950212084
 20
89.9274405077
 30
0.0
 11
151.4002250284
 21
92.9326443278
 31
0.0
  0
LINE
  5
227
330
1F
100
AcDbEntity
  8
0
  6
Continuous
 62
     7
370
    25
100
AcDbLine
 10
146.4002250284
 20
87.9326443278
 30
0.0
 11
147.3343610366
 21
88.8667803359
 31
0.0
  0
LINE
  5
228
330
1F
100
AcDbEntity
  8
0
  6
Continuous
 62
     7
370
    25
100
AcDbLine
 10
132.2580894047
 20
87.9326443278
 30
0.0
 11
146.4002250284
 21
87.9326443278
 31
0.0
  0
ARC
  5
229
330
1F
100
AcDbEntity
  8
0
  6
Continuous
 62
     7
370
    25
100
AcDbCircle
 10
132.2580894047
 20
77.9326443278
 30
0.0
 40
10.00000000000001
100
AcDbArc
 50
90.0
 51
135.0
  0
LINE
  5
22A
330
1F
100
AcDbEntity
  8
0
  6
Continuous
 62
     7
370
    25
100
AcDbLine
 10
123.9738181572
 20
83.790508704
 30
0.0
 11
125.1870215928
 21
85.0037121396
 31
0.0
  0
ARC
  5
22B
330
1F
100
AcDbEntity
  8
0
  6
Continuous
 62
     7
370
    25
100
AcDbCircle
 10
131.0448859691
 20
76.7194408922
 30
0.0
 40
10.00000000000001
100
AcDbArc
 50
135.0
 51
180.0
  0
LINE
  5
22C
330
1F
100
AcDbEntity
  8
0
  6
Continuous
 62
     7
370
    25
100
AcDbLine
 10
121.0448859691
 20
62.5773052684
 30
0.0
 11
121.0448859691
 21
76.7194408922
 31
0.0
  0
LINE
  5
22D
330
1F
100
AcDbEntity
  8
0
  6
Continuous
 62
     7
370
    25
100
AcDbLine
 10
120.1107499609
 20
61.6431692602
 30
0.0
 11
121.0448859691
 21
62.5773052684
 31
0.0
  0
LINE
  5
22E
330
1F
100
AcDbEntity
  8
0
  6
Continuous
 62
     7
370
    25
100
AcDbLine
 10
116.0448859691
 20
57.5773052684
 30
0.0
 11
119.0500897891
 21
60.5825090885
 31
0.0
  0
LINE
  5
22F
330
1F
100
AcDbEntity
  8
0
  6
Continuous
 62
     7
370
    25
100
AcDbLine
 10
116.0448859691
 20
57.5773052684
 30
0.0
 11
113.9738181572
 21
59.6483730803
 31
0.0
  0
ARC
  5
230
330
1F
100
AcDbEntity
  8
0
  6
Continuous
 62
     7
370
    25
100
AcDbCircle
 10
112.8507815068
 20
63.6503771814
 30
0.0
 40
1.25000000000001
100
AcDbArc
 50
135.0
 51
200.5332037863
  0
LINE
  5
231
330
1F
100
AcDbEntity
  8
0
  6
Continuous
 62
     7
370
    25
100
AcDbLine
 10
111.9668980303
 20
64.5342606578
 30
0.0
 11
115.8178567421
 21
68.3852193696
 31
0.0
  0
ARC
  5
232
330
1F
100
AcDbEntity
  8
0
  6
Continuous
 62
     7
370
    25
100
AcDbCircle
 10
114.9339732656
 20
69.2691028461
 30
0.0
 40
1.25000000000001
100
AcDbArc
 50
315.0
 51
45.0
  0
LINE
  5
233
330
1F
100
AcDbEntity
  8
0
  6
Continuous
 62
     7
370
    25
100
AcDbLine
 10
115.8178567421
 20
70.1529863226
 30
0.0
 11
111.4110024926
 21
74.5598405721
 31
0.0
  0
ARC
  5
234
330
1F
100
AcDbEntity
  8
0
  6
Continuous
 62
     7
370
    25
100
AcDbCircle
 10
112.2948859691
 20
75.4437240486
 30
0.0
 40
1.25
100
AcDbArc
 50
180.0
 51
225.0
  0
LINE
  5
235
330
1F
100
AcDbEntity
  8
0
  6
Continuous
 62
     7
370
    25
100
AcDbLine
 10
111.0448859691
 20
76.7194408922
 30
0.0
 11
111.0448859691
 21
75.4437240486
 31
0.0
  0
ARC
  5
236
330
1F
100
AcDbEntity
  8
0
  6
Continuous
 62
     7
370
    25
100
AcDbCircle
 10
101.0448859691
 20
76.7194408922
 30
0.0
 40
10.0
100
AcDbArc
 50
0.0
 51
45.0
  0
LINE
  5
237
330
1F
100
AcDbEntity
  8
0
  6
Continuous
 62
     7
370
    25
100
AcDbLine
 10
106.9027503454
 20
85.0037121396
 30
0.0
 11
108.115953781
 21
83.790508704
 31
0.0
  0
ARC
  5
238
330
1F
100
AcDbEntity
  8
0
  6
Continuous
 62
     7
370
    25
100
AcDbCircle
 10
99.8316825335
 20
77.9326443278
 30
0.0
 40
10.0
100
AcDbArc
 50
45.0
 51
90.0
  0
LINE
  5
239
330
1F
100
AcDbEntity
  8
0
  6
Continuous
 62
     7
370
    25
100
AcDbLine
 10
98.5559656899
 20
87.9326443278
 30
0.0
 11
99.8316825335
 21
87.9326443278
 31
0.0
  0
ARC
  5
23A
330
1F
100
AcDbEntity
  8
0
  6
Continuous
 62
     7
370
    25
100
AcDbCircle
 10
98.5559656899
 20
89.1826443278
 30
0.0
 40
1.250000000000014
100
AcDbArc
 50
225.0
 51
270.0
  0
LINE
  5
23B
330
1F
100
AcDbEntity
  8
0
  6
Continuous
 62
     7
370
    25
100
AcDbLine
 10
97.6720822134
 20
88.2987608513
 30
0.0
 11
93.2652279639
 21
92.7056151008
 31
0.0
  0
ARC
  5
23C
330
1F
100
AcDbEntity
  8
0
  6
Continuous
 62
     7
370
    25
100
AcDbCircle
 10
92.3813444875
 20
91.8217316243
 30
0.0
 40
1.25000000000001
100
AcDbArc
 50
45.0
 51
135.0
  0
LINE
  5
23D
330
1F
100
AcDbEntity
  8
0
  6
Continuous
 62
     7
370
    25
100
AcDbLine
 10
91.497461011
 20
92.7056151008
 30
0.0
 11
87.6465022992
 21
88.854656389
 31
0.0
  0
ARC
  5
23E
330
1F
100
AcDbEntity
  8
0
  6
Continuous
 62
     7
370
    25
100
AcDbCircle
 10
86.7626188227
 20
89.7385398655
 30
0.0
 40
1.250000000000003
100
AcDbArc
 50
249.4667962137
 51
315.0
  0
ARC
  5
23F
330
1F
100
AcDbEntity
  8
0
  6
Continuous
 62
     7
370
    25
100
AcDbCircle
 10
89.8316825335
 20
97.9326443278
 30
0.0
 40
10.0
100
AcDbArc
 50
225.0
 51
249.4667962137
  0
LINE
  5
240
330
1F
100
AcDbEntity
  8
0
  6
Continuous
 62
     7
370
    25
100
AcDbLine
 10
82.7606147216
 20
90.8615765159
 30
0.0
 11
80.6895469098
 21
92.9326443278
 31
0.0
  0
LINE
  5
241
330
1F
100
AcDbEntity
  8
0
  6
Continuous
 62
     7
370
    25
100
AcDbLine
 10
83.6947507298
 20
95.9378481478
 30
0.0
 11
80.6895469098
 21
92.9326443278
 31
0.0
  0
ARC
  5
242
330
1F
100
AcDbEntity
  8
0
  6
Continuous
 62
     7
370
    25
100
AcDbCircle
 10
83.5179740345
 20
97.1752850149
 30
0.0
 40
1.250000000000012
100
AcDbArc
 50
278.1301023542
 51
351.8698976458
  0
LINE
  5
243
330
1F
100
AcDbEntity
  8
0
  6
Continuous
 62
     7
370
    25
100
AcDbLine
 10
85.6895469098
 20
97.9326443278
 30
0.0
 11
84.7554109016
 21
96.9985083196
 31
0.0
  0
LINE
  5
244
330
1F
100
AcDbEntity
  8
0
  6
Continuous
 62
     7
370
    25
100
AcDbLine
 10
99.8316825335
 20
97.9326443278
 30
0.0
 11
85.6895469098
 21
97.9326443278
 31
0.0
  0
ARC
  5
245
330
1F
100
AcDbEntity
  8
0
  6
Continuous
 62
     7
370
    25
100
AcDbCircle
 10
99.8316825335
 20
107.9326443278
 30
0.0
 40
10.0
100
AcDbArc
 50
270.0
 51
315.0
  0
LINE
  5
246
330
1F
100
AcDbEntity
  8
0
  6
Continuous
 62
     7
370
    25
100
AcDbLine
 10
108.115953781
 20
102.0747799515
 30
0.0
 11
106.9027503454
 21
100.8615765159
 31
0.0
  0
ARC
  5
247
330
1F
100
AcDbEntity
  8
0
  6
Continuous
 62
     7
370
    25
100
AcDbCircle
 10
101.0448859691
 20
109.1458477633
 30
0.0
 40
10.0
100
AcDbArc
 50
315.0
 51
0.0
  0
LINE
  5
248
330
1F
100
AcDbEntity
  8
0
  6
Continuous
 62
     7
370
    25
100
AcDbLine
 10
111.0448859691
 20
123.2879833871
 30
0.0
 11
111.0448859691
 21
109.1458477633
 31
0.0
  0
LINE
  5
249
330
1F
100
AcDbEntity
  8
0
  6
Continuous
 62
     7
370
    25
100
AcDbLine
 10
111.9790219773
 20
124.2221193953
 30
0.0
 11
111.0448859691
 21
123.2879833871
 31
0.0
  0
ARC
  5
24A
330
1F
100
AcDbEntity
  8
0
  6
Continuous
 62
     7
370
    25
100
AcDbCircle
 10
111.802245282
 20
125.4595562623
 30
0.0
 40
1.249999999999996
100
AcDbArc
 50
278.1301023542
 51
351.8698976458
  0
LINE
  5
24B
330
1F
100
AcDbEntity
  8
0
  6
Continuous
 62
     7
370
    25
100
AcDbLine
 10
116.0448859691
 20
128.2879833871
 30
0.0
 11
113.0396821491
 21
125.282779567
 31
0.0
  0
ARC
  5
24C
330
1F
100
AcDbEntity
  8
0
  6
Continuous
 62
     7
370
    25
100
AcDbCircle
 10
111.0448859691
 20
119.1458477633
 30
0.0
 40
9.999999999999996
100
AcDbArc
 50
20.5332037863
 51
45.0
  0
ARC
  5
24D
330
1F
100
AcDbEntity
  8
0
  6
Continuous
 62
     7
370
    25
100
AcDbCircle
 10
119.2389904314
 20
122.2149114741
 30
0.0
 40
1.25
100
AcDbArc
 50
315.0
 51
20.5332037863
  0
LINE
  5
24E
330
1F
100
AcDbEntity
  8
0
  6
Continuous
 62
     7
370
    25
100
AcDbLine
 10
120.1228739079
 20
121.3310279977
 30
0.0
 11
116.2719151961
 21
117.4800692859
 31
0.0
  0
ARC
  5
24F
330
1F
100
AcDbEntity
  8
0
  6
Continuous
 62
     7
370
    25
100
AcDbCircle
 10
121.0448859691
 20
66.7194408922
 30
0.0
 40
10.0
100
AcDbArc
 50
200.5332037863
 51
225.0
  0
LINE
  5
250
330
1F
100
AcDbEntity
  8
0
  6
Continuous
 62
     7
370
    25
100
AcDbLine
 10
116.0448859691
 20
128.2879833871
 30
0.0
 11
118.115953781
 21
126.2169155752
 31
0.0
  0
ARC
  5
251
330
1F
100
AcDbEntity
  8
0
  6
Continuous
 62
     7
370
    25
100
AcDbCircle
 10
148.5717979037
 20
88.6900036406
 30
0.0
 40
1.25000000000001
100
AcDbArc
 50
98.1301023542
 51
171.8698976458
  0
ARC
  5
252
330
1F
100
AcDbEntity
  8
0
  6
Continuous
 62
     7
370
    25
100
AcDbCircle
 10
120.2875266562
 20
60.4057323932
 30
0.0
 40
1.250000000000001
100
AcDbArc
 50
98.1301023542
 51
171.8698976458
  0
ARC
  5
253
330
1F
100
AcDbEntity
  8
0
  6
Continuous
 62
     7
370
    25
100
AcDbCircle
 10
46.1580438453
 20
121.0736885867
 30
0.0
 40
1.25
100
AcDbArc
 50
135.0
 51
225.0
  0
LINE
  5
254
330
1F
100
AcDbEntity
  8
0
  6
Continuous
 62
     7
370
    25
100
AcDbLine
 10
45.2741603688
 20
120.1898051102
 30
0.0
 11
49.6810146183
 21
115.7829508607
 31
0.0
  0
ARC
  5
255
330
1F
100
AcDbEntity
  8
0
  6
Continuous
 62
     7
370
    25
100
AcDbCircle
 10
48.7971311419
 20
114.8990673842
 30
0.0
 40
1.250000000000005
100
AcDbArc
 50
0.0
 51
45.0
  0
LINE
  5
256
330
1F
100
AcDbEntity
  8
0
  6
Continuous
 62
     7
370
    25
100
AcDbLine
 10
50.0471311419
 20
113.6233505407
 30
0.0
 11
50.0471311419
 21
114.8990673842
 31
0.0
  0
ARC
  5
257
330
1F
100
AcDbEntity
  8
0
  6
Continuous
 62
     7
370
    25
100
AcDbCircle
 10
60.0471311419
 20
113.6233505407
 30
0.0
 40
9.999999999999996
100
AcDbArc
 50
180.0
 51
225.0
  0
LINE
  5
258
330
1F
100
AcDbEntity
  8
0
  6
Continuous
 62
     7
370
    25
100
AcDbLine
 10
54.1892667656
 20
105.3390792932
 30
0.0
 11
52.97606333
 21
106.5522827288
 31
0.0
  0
ARC
  5
259
330
1F
100
AcDbEntity
  8
0
  6
Continuous
 62
     7
370
    25
100
AcDbCircle
 10
61.2603345775
 20
112.4101471051
 30
0.0
 40
10.0
100
AcDbArc
 50
225.0
 51
270.0
  0
LINE
  5
25A
330
1F
100
AcDbEntity
  8
0
  6
Continuous
 62
     7
370
    25
100
AcDbLine
 10
62.536051421
 20
102.4101471051
 30
0.0
 11
61.2603345775
 21
102.4101471051
 31
0.0
  0
ARC
  5
25B
330
1F
100
AcDbEntity
  8
0
  6
Continuous
 62
     7
370
    25
100
AcDbCircle
 10
62.536051421
 20
101.1601471051
 30
0.0
 40
1.25
100
AcDbArc
 50
45.0
 51
90.0
  0
LINE
  5
25C
330
1F
100
AcDbEntity
  8
0
  6
Continuous
 62
     7
370
    25
100
AcDbLine
 10
63.4199348975
 20
102.0440305816
 30
0.0
 11
67.826789147
 21
97.6371763321
 31
0.0
  0
ARC
  5
25D
330
1F
100
AcDbEntity
  8
0
  6
Continuous
 62
     7
370
    25
100
AcDbCircle
 10
68.7106726235
 20
98.5210598085
 30
0.0
 40
1.25
100
AcDbArc
 50
225.0
 51
315.0
  0
LINE
  5
25E
330
1F
100
AcDbEntity
  8
0
  6
Continuous
 62
     7
370
    25
100
AcDbLine
 10
69.5945561
 20
97.6371763321
 30
0.0
 11
73.4455148118
 21
101.4881350439
 31
0.0
  0
ARC
  5
25F
330
1F
100
AcDbEntity
  8
0
  6
Continuous
 62
     7
370
    25
100
AcDbCircle
 10
74.3293982882
 20
100.6042515674
 30
0.0
 40
1.250000000000003
100
AcDbArc
 50
69.4667962137
 51
135.0
  0
ARC
  5
260
330
1F
100
AcDbEntity
  8
0
  6
Continuous
 62
     7
370
    25
100
AcDbCircle
 10
71.2603345775
 20
92.4101471051
 30
0.0
 40
9.999999999999991
100
AcDbArc
 50
45.0
 51
69.4667962137
  0
LINE
  5
261
330
1F
100
AcDbEntity
  8
0
  6
Continuous
 62
     7
370
    25
100
AcDbLine
 10
78.3314023893
 20
99.4812149169
 30
0.0
 11
80.4024702012
 21
97.4101471051
 31
0.0
  0
LINE
  5
262
330
1F
100
AcDbEntity
  8
0
  6
Continuous
 62
     7
370
    25
100
AcDbLine
 10
77.3972663811
 20
94.404943285
 30
0.0
 11
80.4024702012
 21
97.4101471051
 31
0.0
  0
LINE
  5
263
330
1F
100
AcDbEntity
  8
0
  6
Continuous
 62
     7
370
    25
100
AcDbLine
 10
75.4024702012
 20
92.4101471051
 30
0.0
 11
76.3366062094
 21
93.3442831133
 31
0.0
  0
LINE
  5
264
330
1F
100
AcDbEntity
  8
0
  6
Continuous
 62
     7
370
    25
100
AcDbLine
 10
61.2603345775
 20
92.4101471051
 30
0.0
 11
75.4024702012
 21
92.4101471051
 31
0.0
  0
ARC
  5
265
330
1F
100
AcDbEntity
  8
0
  6
Continuous
 62
     7
370
    25
100
AcDbCircle
 10
61.2603345775
 20
82.4101471051
 30
0.0
 40
10.0
100
AcDbArc
 50
90.0
 51
135.0
  0
LINE
  5
266
330
1F
100
AcDbEntity
  8
0
  6
Continuous
 62
     7
370
    25
100
AcDbLine
 10
52.97606333
 20
88.2680114813
 30
0.0
 11
54.1892667656
 21
89.4812149169
 31
0.0
  0
ARC
  5
267
330
1F
100
AcDbEntity
  8
0
  6
Continuous
 62
     7
370
    25
100
AcDbCircle
 10
60.0471311419
 20
81.1969436695
 30
0.0
 40
9.999999999999996
100
AcDbArc
 50
135.0
 51
180.0
  0
LINE
  5
268
330
1F
100
AcDbEntity
  8
0
  6
Continuous
 62
     7
370
    25
100
AcDbLine
 10
50.0471311419
 20
67.0548080457
 30
0.0
 11
50.0471311419
 21
81.1969436695
 31
0.0
  0
LINE
  5
269
330
1F
100
AcDbEntity
  8
0
  6
Continuous
 62
     7
370
    25
100
AcDbLine
 10
49.1129951337
 20
66.1206720376
 30
0.0
 11
50.0471311419
 21
67.0548080457
 31
0.0
  0
LINE
  5
26A
330
1F
100
AcDbEntity
  8
0
  6
Continuous
 62
     7
370
    25
100
AcDbLine
 10
45.0471311419
 20
62.0548080457
 30
0.0
 11
48.0523349619
 21
65.0600118658
 31
0.0
  0
LINE
  5
26B
330
1F
100
AcDbEntity
  8
0
  6
Continuous
 62
     7
370
    25
100
AcDbLine
 10
45.0471311419
 20
62.0548080457
 30
0.0
 11
42.97606333
 21
64.1258758576
 31
0.0
  0
ARC
  5
26C
330
1F
100
AcDbEntity
  8
0
  6
Continuous
 62
     7
370
    25
100
AcDbCircle
 10
41.8530266796
 20
68.1278799587
 30
0.0
 40
1.25000000000001
100
AcDbArc
 50
135.0
 51
200.5332037863
  0
LINE
  5
26D
330
1F
100
AcDbEntity
  8
0
  6
Continuous
 62
     7
370
    25
100
AcDbLine
 10
40.9691432031
 20
69.0117634352
 30
0.0
 11
44.8201019149
 21
72.862722147
 31
0.0
  0
ARC
  5
26E
330
1F
100
AcDbEntity
  8
0
  6
Continuous
 62
     7
370
    25
100
AcDbCircle
 10
43.9362184384
 20
73.7466056234
 30
0.0
 40
1.250000000000005
100
AcDbArc
 50
315.0
 51
45.0
  0
LINE
  5
26F
330
1F
100
AcDbEntity
  8
0
  6
Continuous
 62
     7
370
    25
100
AcDbLine
 10
44.8201019149
 20
74.6304890999
 30
0.0
 11
40.4132476654
 21
79.0373433494
 31
0.0
  0
ARC
  5
270
330
1F
100
AcDbEntity
  8
0
  6
Continuous
 62
     7
370
    25
100
AcDbCircle
 10
41.2971311419
 20
79.9212268259
 30
0.0
 40
1.25000000000001
100
AcDbArc
 50
180.0
 51
225.0
  0
LINE
  5
271
330
1F
100
AcDbEntity
  8
0
  6
Continuous
 62
     7
370
    25
100
AcDbLine
 10
40.0471311419
 20
81.1969436695
 30
0.0
 11
40.0471311419
 21
79.9212268259
 31
0.0
  0
ARC
  5
272
330
1F
100
AcDbEntity
  8
0
  6
Continuous
 62
     7
370
    25
100
AcDbCircle
 10
30.0471311419
 20
81.1969436695
 30
0.0
 40
10.00000000000001
100
AcDbArc
 50
0.0
 51
45.0
  0
LINE
  5
273
330
1F
100
AcDbEntity
  8
0
  6
Continuous
 62
     7
370
    25
100
AcDbLine
 10
35.9049955181
 20
89.4812149169
 30
0.0
 11
37.1181989537
 21
88.2680114813
 31
0.0
  0
ARC
  5
274
330
1F
100
AcDbEntity
  8
0
  6
Continuous
 62
     7
370
    25
100
AcDbCircle
 10
28.8339277063
 20
82.4101471051
 30
0.0
 40
9.999999999999998
100
AcDbArc
 50
45.0
 51
90.0
  0
LINE
  5
275
330
1F
100
AcDbEntity
  8
0
  6
Continuous
 62
     7
370
    25
100
AcDbLine
 10
27.5582108627
 20
92.4101471051
 30
0.0
 11
28.8339277063
 21
92.4101471051
 31
0.0
  0
ARC
  5
276
330
1F
100
AcDbEntity
  8
0
  6
Continuous
 62
     7
370
    25
100
AcDbCircle
 10
27.5582108627
 20
93.6601471051
 30
0.0
 40
1.25
100
AcDbArc
 50
225.0
 51
270.0
  0
LINE
  5
277
330
1F
100
AcDbEntity
  8
0
  6
Continuous
 62
     7
370
    25
100
AcDbLine
 10
26.6743273862
 20
92.7762636286
 30
0.0
 11
22.2674731367
 21
97.1831178781
 31
0.0
  0
ARC
  5
278
330
1F
100
AcDbEntity
  8
0
  6
Continuous
 62
     7
370
    25
100
AcDbCircle
 10
21.3835896602
 20
96.2992344016
 30
0.0
 40
1.250000000000008
100
AcDbArc
 50
45.0
 51
135.0
  0
LINE
  5
279
330
1F
100
AcDbEntity
  8
0
  6
Continuous
 62
     7
370
    25
100
AcDbLine
 10
20.4997061837
 20
97.1831178781
 30
0.0
 11
16.648747472
 21
93.3321591663
 31
0.0
  0
ARC
  5
27A
330
1F
100
AcDbEntity
  8
0
  6
Continuous
 62
     7
370
    25
100
AcDbCircle
 10
15.7648639955
 20
94.2160426428
 30
0.0
 40
1.250000000000004
100
AcDbArc
 50
249.4667962137
 51
315.0
  0
ARC
  5
27B
330
1F
100
AcDbEntity
  8
0
  6
Continuous
 62
     7
370
    25
100
AcDbCircle
 10
18.8339277063
 20
102.4101471051
 30
0.0
 40
10.0
100
AcDbArc
 50
225.0
 51
249.4667962137
  0
LINE
  5
27C
330
1F
100
AcDbEntity
  8
0
  6
Continuous
 62
     7
370
    25
100
AcDbLine
 10
11.7628598944
 20
95.3390792932
 30
0.0
 11
9.6917920825
 21
97.4101471051
 31
0.0
  0
LINE
  5
27D
330
1F
100
AcDbEntity
  8
0
  6
Continuous
 62
     7
370
    25
100
AcDbLine
 10
12.6969959026
 20
100.4153509251
 30
0.0
 11
9.6917920825
 21
97.4101471051
 31
0.0
  0
ARC
  5
27E
330
1F
100
AcDbEntity
  8
0
  6
Continuous
 62
     7
370
    25
100
AcDbCircle
 10
12.5202192073
 20
101.6527877922
 30
0.0
 40
1.250000000000003
100
AcDbArc
 50
278.1301023542
 51
351.8698976458
  0
LINE
  5
27F
330
1F
100
AcDbEntity
  8
0
  6
Continuous
 62
     7
370
    25
100
AcDbLine
 10
14.6917920825
 20
102.4101471051
 30
0.0
 11
13.7576560744
 21
101.4760110969
 31
0.0
  0
LINE
  5
280
330
1F
100
AcDbEntity
  8
0
  6
Continuous
 62
     7
370
    25
100
AcDbLine
 10
28.8339277063
 20
102.4101471051
 30
0.0
 11
14.6917920825
 21
102.4101471051
 31
0.0
  0
ARC
  5
281
330
1F
100
AcDbEntity
  8
0
  6
Continuous
 62
     7
370
    25
100
AcDbCircle
 10
28.8339277063
 20
112.4101471051
 30
0.0
 40
10.00000000000001
100
AcDbArc
 50
270.0
 51
315.0
  0
LINE
  5
282
330
1F
100
AcDbEntity
  8
0
  6
Continuous
 62
     7
370
    25
100
AcDbLine
 10
37.1181989537
 20
106.5522827288
 30
0.0
 11
35.9049955181
 21
105.3390792932
 31
0.0
  0
ARC
  5
283
330
1F
100
AcDbEntity
  8
0
  6
Continuous
 62
     7
370
    25
100
AcDbCircle
 10
30.0471311419
 20
113.6233505407
 30
0.0
 40
10.00000000000001
100
AcDbArc
 50
315.0
 51
0.0
  0
LINE
  5
284
330
1F
100
AcDbEntity
  8
0
  6
Continuous
 62
     7
370
    25
100
AcDbLine
 10
40.0471311419
 20
127.7654861644
 30
0.0
 11
40.0471311419
 21
113.6233505407
 31
0.0
  0
LINE
  5
285
330
1F
100
AcDbEntity
  8
0
  6
Continuous
 62
     7
370
    25
100
AcDbLine
 10
40.98126715
 20
128.6996221726
 30
0.0
 11
40.0471311419
 21
127.7654861644
 31
0.0
  0
ARC
  5
286
330
1F
100
AcDbEntity
  8
0
  6
Continuous
 62
     7
370
    25
100
AcDbCircle
 10
40.8044904547
 20
129.9370590397
 30
0.0
 40
1.250000000000009
100
AcDbArc
 50
278.1301023542
 51
351.8698976458
  0
LINE
  5
287
330
1F
100
AcDbEntity
  8
0
  6
Continuous
 62
     7
370
    25
100
AcDbLine
 10
45.0471311419
 20
132.7654861644
 30
0.0
 11
42.0419273218
 21
129.7602823444
 31
0.0
  0
ARC
  5
288
330
1F
100
AcDbEntity
  8
0
  6
Continuous
 62
     7
370
    25
100
AcDbCircle
 10
40.0471311419
 20
123.6233505407
 30
0.0
 40
9.999999999999998
100
AcDbArc
 50
20.5332037863
 51
45.0
  0
ARC
  5
289
330
1F
100
AcDbEntity
  8
0
  6
Continuous
 62
     7
370
    25
100
AcDbCircle
 10
48.2412356042
 20
126.6924142515
 30
0.0
 40
1.250000000000005
100
AcDbArc
 50
315.0
 51
20.5332037863
  0
LINE
  5
28A
330
1F
100
AcDbEntity
  8
0
  6
Continuous
 62
     7
370
    25
100
AcDbLine
 10
49.1251190806
 20
125.808530775
 30
0.0
 11
45.2741603688
 21
121.9575720632
 31
0.0
  0
ARC
  5
28B
330
1F
100
AcDbEntity
  8
0
  6
Continuous
 62
     7
370
    25
100
AcDbCircle
 10
50.0471311419
 20
71.1969436695
 30
0.0
 40
9.999999999999996
100
AcDbArc
 50
200.5332037863
 51
225.0
  0
LINE
  5
28C
330
1F
100
AcDbEntity
  8
0
  6
Continuous
 62
     7
370
    25
100
AcDbLine
 10
45.0471311419
 20
132.7654861644
 30
0.0
 11
47.1181989537
 21
130.6944183525
 31
0.0
  0
ARC
  5
28D
330
1F
100
AcDbEntity
  8
0
  6
Continuous
 62
     7
370
    25
100
AcDbCircle
 10
77.5740430764
 20
93.167506418
 30
0.0
 40
1.249999999999996
100
AcDbArc
 50
98.1301023542
 51
171.8698976458
  0
ARC
  5
28E
330
1F
100
AcDbEntity
  8
0
  6
Continuous
 62
     7
370
    25
100
AcDbCircle
 10
49.289771829
 20
64.8832351705
 30
0.0
 40
1.249999999999996
100
AcDbArc
 50
98.1301023542
 51
171.8698976458
  0
ARC
  5
28F
330
1F
100
AcDbEntity
  8
0
  6
Continuous
 62
     7
370
    25
100
AcDbCircle
 10
60.114681095
 20
84.6214956049
 30
0.0
 40
3.0
100
AcDbArc
 50
90.0
 51
180.0
  0
LINE
  5
290
330
1F
100
AcDbEntity
  8
0
  6
Continuous
 62
     7
370
    25
100
AcDbLine
 10
72.114681095
 20
87.6214956049
 30
0.0
 11
60.114681095
 21
87.6214956049
 31
0.0
  0
LINE
  5
291
330
1F
100
AcDbEntity
  8
0
  6
Continuous
 62
     7
370
    25
100
AcDbLine
 10
72.114681095
 20
84.7463032858
 30
0.0
 11
72.114681095
 21
87.6214956049
 31
0.0
  0
ARC
  5
292
330
1F
100
AcDbEntity
  8
0
  6
Continuous
 62
     7
370
    25
100
AcDbCircle
 10
74.014681095
 20
67.1214956049
 30
0.0
 40
2.499999999999992
100
AcDbArc
 50
139.4641978887
 51
220.5358021113
  0
ARC
  5
293
330
1F
100
AcDbEntity
  8
0
  6
Continuous
 62
     7
370
    25
100
AcDbCircle
 10
60.114681095
 20
65.6214956049
 30
0.0
 40
2.999999999999993
100
AcDbArc
 50
180.0
 51
270.0
  0
LINE
  5
294
330
1F
100
AcDbEntity
  8
0
  6
Continuous
 62
     7
370
    25
100
AcDbLine
 10
57.114681095
 20
84.6214956049
 30
0.0
 11
57.114681095
 21
65.6214956049
 31
0.0
  0
CIRCLE
  5
295
330
1F
100
AcDbEntity
  8
0
  6
Continuous
 62
     7
370
    25
100
AcDbCircle
 10
63.114681095
 20
81.1214956049
 30
0.0
 40
3.0
  0
CIRCLE
  5
296
330
1F
100
AcDbEntity
  8
0
  6
Continuous
 62
     7
370
    25
100
AcDbCircle
 10
63.114681095
 20
69.1214956049
 30
0.0
 40
3.0
  0
LINE
  5
297
330
1F
100
AcDbEntity
  8
0
  6
Continuous
 62
     7
370
    25
100
AcDbLine
 10
72.114681095
 20
68.7463032858
 30
0.0
 11
72.114681095
 21
81.496687924
 31
0.0
  0
LINE
  5
298
330
1F
100
AcDbEntity
  8
0
  6
Continuous
 62
     7
370
    25
100
AcDbLine
 10
72.114681095
 20
62.6214956049
 30
0.0
 11
72.114681095
 21
65.496687924
 31
0.0
  0
LINE
  5
299
330
1F
100
AcDbEntity
  8
0
  6
Continuous
 62
     7
370
    25
100
AcDbLine
 10
60.114681095
 20
62.6214956049
 30
0.0
 11
72.114681095
 21
62.6214956049
 31
0.0
  0
ARC
  5
29A
330
1F
100
AcDbEntity
  8
0
  6
Continuous
 62
     7
370
    25
100
AcDbCircle
 10
74.014681095
 20
83.1214956049
 30
0.0
 40
2.499999999999992
100
AcDbArc
 50
139.4641978887
 51
220.5358021113
  0
CIRCLE
  5
29B
330
1F
100
AcDbEntity
  8
0
  6
Continuous
 62
     7
370
    25
100
AcDbCircle
 10
63.114681095
 20
81.1214956049
 30
0.0
 40
1.549999999999997
  0
CIRCLE
  5
29C
330
1F
100
AcDbEntity
  8
0
  6
Continuous
 62
     7
370
    25
100
AcDbCircle
 10
63.114681095
 20
69.1214956049
 30
0.0
 40
1.550000000000011
  0
ARC
  5
29D
330
1F
100
AcDbEntity
  8
0
  6
Continuous
 62
     7
370
    25
100
AcDbCircle
 10
22.3922549896
 20
12.2835418154
 30
0.0
 40
3.0
100
AcDbArc
 50
0.0
 51
90.0
  0
LINE
  5
29E
330
1F
100
AcDbEntity
  8
0
  6
Continuous
 62
     7
370
    25
100
AcDbLine
 10
25.3922549896
 20
0.2835418154
 30
0.0
 11
25.3922549896
 21
12.2835418154
 31
0.0
  0
LINE
  5
29F
330
1F
100
AcDbEntity
  8
0
  6
Continuous
 62
     7
370
    25
100
AcDbLine
 10
22.5170626705
 20
0.2835418154
 30
0.0
 11
25.3922549896
 21
0.2835418154
 31
0.0
  0
ARC
  5
2A0
330
1F
100
AcDbEntity
  8
0
  6
Continuous
 62
     7
370
    25
100
AcDbCircle
 10
4.8922549896
 20
-1.6164581846
 30
0.0
 40
2.5
100
AcDbArc
 50
49.4641978887
 51
130.5358021113
  0
ARC
  5
2A1
330
1F
100
AcDbEntity
  8
0
  6
Continuous
 62
     7
370
    25
100
AcDbCircle
 10
3.3922549896
 20
12.2835418154
 30
0.0
 40
3.000000000000001
100
AcDbArc
 50
90.0
 51
180.0
  0
LINE
  5
2A2
330
1F
100
AcDbEntity
  8
0
  6
Continuous
 62
     7
370
    25
100
AcDbLine
 10
22.3922549896
 20
15.2835418154
 30
0.0
 11
3.3922549896
 21
15.2835418154
 31
0.0
  0
CIRCLE
  5
2A3
330
1F
100
AcDbEntity
  8
0
  6
Continuous
 62
     7
370
    25
100
AcDbCircle
 10
18.8922549896
 20
9.2835418154
 30
0.0
 40
3.0
  0
CIRCLE
  5
2A4
330
1F
100
AcDbEntity
  8
0
  6
Continuous
 62
     7
370
    25
100
AcDbCircle
 10
6.8922549896
 20
9.2835418154
 30
0.0
 40
2.999999999999998
  0
LINE
  5
2A5
330
1F
100
AcDbEntity
  8
0
  6
Continuous
 62
     7
370
    25
100
AcDbLine
 10
6.5170626705
 20
0.2835418154
 30
0.0
 11
19.2674473087
 21
0.2835418154
 31
0.0
  0
LINE
  5
2A6
330
1F
100
AcDbEntity
  8
0
  6
Continuous
 62
     7
370
    25
100
AcDbLine
 10
0.3922549896
 20
0.2835418154
 30
0.0
 11
3.2674473087
 21
0.2835418154
 31
0.0
  0
LINE
  5
2A7
330
1F
100
AcDbEntity
  8
0
  6
Continuous
 62
     7
370
    25
100
AcDbLine
 10
0.3922549896
 20
12.2835418154
 30
0.0
 11
0.3922549896
 21
0.2835418154
 31
0.0
  0
ARC
  5
2A8
330
1F
100
AcDbEntity
  8
0
  6
Continuous
 62
     7
370
    25
100
AcDbCircle
 10
20.8922549896
 20
-1.6164581846
 30
0.0
 40
2.500000000000001
100
AcDbArc
 50
49.4641978887
 51
130.5358021113
  0
CIRCLE
  5
2A9
330
1F
100
AcDbEntity
  8
0
  6
Continuous
 62
     7
370
    25
100
AcDbCircle
 10
18.8922549896
 20
9.2835418154
 30
0.0
 40
1.549999999999997
  0
CIRCLE
  5
2AA
330
1F
100
AcDbEntity
  8
0
  6
Continuous
 62
     7
370
    25
100
AcDbCircle
 10
6.8922549896
 20
9.2835418154
 30
0.0
 40
1.549999999999999
  0
ARC
  5
2AB
330
1F
100
AcDbEntity
  8
0
  6
Continuous
 62
     7
370
    25
100
AcDbCircle
 10
100.8641665362
 20
78.403193351
 30
0.0
 40
2.999999999999986
100
AcDbArc
 50
0.0
 51
90.0
  0
LINE
  5
2AC
330
1F
100
AcDbEntity
  8
0
  6
Continuous
 62
     7
370
    25
100
AcDbLine
 10
103.8641665362
 20
66.403193351
 30
0.0
 11
103.8641665362
 21
78.403193351
 31
0.0
  0
LINE
  5
2AD
330
1F
100
AcDbEntity
  8
0
  6
Continuous
 62
     7
370
    25
100
AcDbLine
 10
100.9889742172
 20
66.403193351
 30
0.0
 11
103.8641665362
 21
66.403193351
 31
0.0
  0
ARC
  5
2AE
330
1F
100
AcDbEntity
  8
0
  6
Continuous
 62
     7
370
    25
100
AcDbCircle
 10
83.3641665362
 20
64.503193351
 30
0.0
 40
2.499999999999992
100
AcDbArc
 50
49.4641978887
 51
130.5358021113
  0
ARC
  5
2AF
330
1F
100
AcDbEntity
  8
0
  6
Continuous
 62
     7
370
    25
100
AcDbCircle
 10
81.8641665362
 20
78.403193351
 30
0.0
 40
3.0
100
AcDbArc
 50
90.0
 51
180.0
  0
LINE
  5
2B0
330
1F
100
AcDbEntity
  8
0
  6
Continuous
 62
     7
370
    25
100
AcDbLine
 10
100.8641665362
 20
81.403193351
 30
0.0
 11
81.8641665362
 21
81.403193351
 31
0.0
  0
CIRCLE
  5
2B1
330
1F
100
AcDbEntity
  8
0
  6
Continuous
 62
     7
370
    25
100
AcDbCircle
 10
97.3641665362
 20
75.403193351
 30
0.0
 40
2.999999999999986
  0
CIRCLE
  5
2B2
330
1F
100
AcDbEntity
  8
0
  6
Continuous
 62
     7
370
    25
100
AcDbCircle
 10
85.3641665362
 20
75.403193351
 30
0.0
 40
3.0
  0
LINE
  5
2B3
330
1F
100
AcDbEntity
  8
0
  6
Continuous
 62
     7
370
    25
100
AcDbLine
 10
84.9889742172
 20
66.403193351
 30
0.0
 11
97.7393588553
 21
66.403193351
 31
0.0
  0
LINE
  5
2B4
330
1F
100
AcDbEntity
  8
0
  6
Continuous
 62
     7
370
    25
100
AcDbLine
 10
78.8641665362
 20
66.403193351
 30
0.0
 11
81.7393588553
 21
66.403193351
 31
0.0
  0
LINE
  5
2B5
330
1F
100
AcDbEntity
  8
0
  6
Continuous
 62
     7
370
    25
100
AcDbLine
 10
78.8641665362
 20
78.403193351
 30
0.0
 11
78.8641665362
 21
66.403193351
 31
0.0
  0
ARC
  5
2B6
330
1F
100
AcDbEntity
  8
0
  6
Continuous
 62
     7
370
    25
100
AcDbCircle
 10
99.3641665362
 20
64.503193351
 30
0.0
 40
2.499999999999992
100
AcDbArc
 50
49.4641978887
 51
130.5358021113
  0
CIRCLE
  5
2B7
330
1F
100
AcDbEntity
  8
0
  6
Continuous
 62
     7
370
    25
100
AcDbCircle
 10
97.3641665362
 20
75.403193351
 30
0.0
 40
1.549999999999997
  0
CIRCLE
  5
2B8
330
1F
100
AcDbEntity
  8
0
  6
Continuous
 62
     7
370
    25
100
AcDbCircle
 10
85.3641665362
 20
75.403193351
 30
0.0
 40
1.550000000000011
  0
ARC
  5
2B9
330
1F
100
AcDbEntity
  8
0
  6
Continuous
 62
     7
370
    25
100
AcDbCircle
 10
25.0493532818
 20
122.1205879576
 30
0.0
 40
3.0
100
AcDbArc
 50
0.0
 51
90.0
  0
LINE
  5
2BA
330
1F
100
AcDbEntity
  8
0
  6
Continuous
 62
     7
370
    25
100
AcDbLine
 10
28.0493532818
 20
110.1205879576
 30
0.0
 11
28.0493532818
 21
122.1205879576
 31
0.0
  0
LINE
  5
2BB
330
1F
100
AcDbEntity
  8
0
  6
Continuous
 62
     7
370
    25
100
AcDbLine
 10
25.1741609627
 20
110.1205879576
 30
0.0
 11
28.0493532818
 21
110.1205879576
 31
0.0
  0
ARC
  5
2BC
330
1F
100
AcDbEntity
  8
0
  6
Continuous
 62
     7
370
    25
100
AcDbCircle
 10
7.5493532818
 20
108.2205879576
 30
0.0
 40
2.499999999999994
100
AcDbArc
 50
49.4641978887
 51
130.5358021113
  0
ARC
  5
2BD
330
1F
100
AcDbEntity
  8
0
  6
Continuous
 62
     7
370
    25
100
AcDbCircle
 10
6.0493532818
 20
122.1205879576
 30
0.0
 40
3.000000000000001
100
AcDbArc
 50
90.0
 51
180.0
  0
LINE
  5
2BE
330
1F
100
AcDbEntity
  8
0
  6
Continuous
 62
     7
370
    25
100
AcDbLine
 10
25.0493532818
 20
125.1205879576
 30
0.0
 11
6.0493532818
 21
125.1205879576
 31
0.0
  0
CIRCLE
  5
2BF
330
1F
100
AcDbEntity
  8
0
  6
Continuous
 62
     7
370
    25
100
AcDbCircle
 10
21.5493532818
 20
119.1205879576
 30
0.0
 40
3.0
  0
CIRCLE
  5
2C0
330
1F
100
AcDbEntity
  8
0
  6
Continuous
 62
     7
370
    25
100
AcDbCircle
 10
9.5493532818
 20
119.1205879576
 30
0.0
 40
3.0
  0
LINE
  5
2C1
330
1F
100
AcDbEntity
  8
0
  6
Continuous
 62
     7
370
    25
100
AcDbLine
 10
9.1741609627
 20
110.1205879576
 30
0.0
 11
21.9245456009
 21
110.1205879576
 31
0.0
  0
LINE
  5
2C2
330
1F
100
AcDbEntity
  8
0
  6
Continuous
 62
     7
370
    25
100
AcDbLine
 10
3.0493532818
 20
110.1205879576
 30
0.0
 11
5.9245456009
 21
110.1205879576
 31
0.0
  0
LINE
  5
2C3
330
1F
100
AcDbEntity
  8
0
  6
Continuous
 62
     7
370
    25
100
AcDbLine
 10
3.0493532818
 20
122.1205879576
 30
0.0
 11
3.0493532818
 21
110.1205879576
 31
0.0
  0
ARC
  5
2C4
330
1F
100
AcDbEntity
  8
0
  6
Continuous
 62
     7
370
    25
100
AcDbCircle
 10
23.5493532818
 20
108.2205879576
 30
0.0
 40
2.499999999999995
100
AcDbArc
 50
49.4641978887
 51
130.5358021113
  0
CIRCLE
  5
2C5
330
1F
100
AcDbEntity
  8
0
  6
Continuous
 62
     7
370
    25
100
AcDbCircle
 10
21.5493532818
 20
119.1205879576
 30
0.0
 40
1.549999999999997
  0
CIRCLE
  5
2C6
330
1F
100
AcDbEntity
  8
0
  6
Continuous
 62
     7
370
    25
100
AcDbCircle
 10
9.5493532818
 20
119.1205879576
 30
0.0
 40
1.550000000000001
  0
ARC
  5
2C7
330
1F
100
AcDbEntity
  8
0
  6
Continuous
 62
     7
370
    25
100
AcDbCircle
 10
87.640582767
 20
120.4073272958
 30
0.0
 40
2.100000000000009
100
AcDbArc
 50
90.0
 51
180.0
  0
ARC
  5
2C8
330
1F
100
AcDbEntity
  8
0
  6
Continuous
 62
     7
370
    25
100
AcDbCircle
 10
69.447480344
 20
120.4073272958
 30
0.0
 40
2.100000000000009
100
AcDbArc
 50
90.0
 51
225.0
  0
ARC
  5
2C9
330
1F
100
AcDbEntity
  8
0
  6
Continuous
 62
     7
370
    25
100
AcDbCircle
 10
78.440582767
 20
111.4142248728
 30
0.0
 40
2.099999999999994
100
AcDbArc
 50
225.0
 51
0.0
  0
LINE
  5
2CA
330
1F
100
AcDbEntity
  8
0
  6
Continuous
 62
     7
370
    25
100
AcDbLine
 10
101.3523673838
 20
127.5073272958
 30
0.0
 11
72.9176149681
 21
127.5073272958
 31
0.0
  0
ARC
  5
2CB
330
1F
100
AcDbEntity
  8
0
  6
Continuous
 62
     7
370
    25
100
AcDbCircle
 10
103.0349911759
 20
124.6073272958
 30
0.0
 40
2.100000000000009
100
AcDbArc
 50
270.0
 51
0.0
  0
LINE
  5
2CC
330
1F
100
AcDbEntity
  8
0
  6
Continuous
 62
     7
370
    25
100
AcDbLine
 10
78.440582767
 20
122.5073272958
 30
0.0
 11
69.447480344
 21
122.5073272958
 31
0.0
  0
LINE
  5
2CD
330
1F
100
AcDbEntity
  8
0
  6
Continuous
 62
     7
370
    25
100
AcDbLine
 10
80.540582767
 20
111.4142248728
 30
0.0
 11
80.540582767
 21
120.4073272958
 31
0.0
  0
ARC
  5
2CE
330
1F
100
AcDbEntity
  8
0
  6
Continuous
 62
     7
370
    25
100
AcDbCircle
 10
78.440582767
 20
120.4073272958
 30
0.0
 40
2.100000000000009
100
AcDbArc
 50
0.0
 51
90.0
  0
LINE
  5
2CF
330
1F
100
AcDbEntity
  8
0
  6
Continuous
 62
     7
370
    25
100
AcDbLine
 10
71.3523673838
 20
127.5073272958
 30
0.0
 11
60.2048396569
 21
127.5073272958
 31
0.0
  0
LINE
  5
2D0
330
1F
100
AcDbEntity
  8
0
  6
Continuous
 62
     7
370
    25
100
AcDbLine
 10
105.1349911759
 20
124.6073272958
 30
0.0
 11
105.1349911759
 21
127.5073272958
 31
0.0
  0
LINE
  5
2D1
330
1F
100
AcDbEntity
  8
0
  6
Continuous
 62
     7
370
    25
100
AcDbLine
 10
87.640582767
 20
122.5073272958
 30
0.0
 11
103.0349911759
 21
122.5073272958
 31
0.0
  0
LINE
  5
2D2
330
1F
100
AcDbEntity
  8
0
  6
Continuous
 62
     7
370
    25
100
AcDbLine
 10
85.540582767
 20
102.2142248728
 30
0.0
 11
85.540582767
 21
120.4073272958
 31
0.0
  0
LINE
  5
2D3
330
1F
100
AcDbEntity
  8
0
  6
Continuous
 62
     7
370
    25
100
AcDbLine
 10
84.9041866639
 20
100.7079802888
 30
0.0
 11
84.9255070075
 21
100.7293006324
 31
0.0
  0
LINE
  5
2D4
330
1F
100
AcDbEntity
  8
0
  6
Continuous
 62
     7
370
    25
100
AcDbLine
 10
67.9625561036
 20
118.9224030553
 30
0.0
 11
76.9556585265
 21
109.9293006324
 31
0.0
  0
LINE
  5
2D5
330
1F
100
AcDbEntity
  8
0
  6
Continuous
 62
     7
370
    25
100
AcDbLine
 10
105.1349911759
 20
127.5073272958
 30
0.0
 11
102.9176149681
 21
127.5073272958
 31
0.0
  0
LINE
  5
2D6
330
1F
100
AcDbEntity
  8
0
  6
Continuous
 62
     7
370
    25
100
AcDbLine
 10
60.2739236724
 20
122.3683947993
 30
0.0
 11
80.3803299269
 21
102.2619885448
 31
0.0
  0
ARC
  5
2D7
330
1F
100
AcDbEntity
  8
0
  6
Continuous
 62
     7
370
    25
100
AcDbCircle
 10
83.440582767
 20
102.2142248728
 30
0.0
 40
2.100000000000009
100
AcDbArc
 50
315.0
 51
0.0
  0
ARC
  5
2D8
330
1F
100
AcDbEntity
  8
0
  6
Continuous
 62
     7
370
    25
100
AcDbCircle
 10
59.225550335
 20
122.426818643
 30
0.0
 40
1.049999999999998
100
AcDbArc
 50
356.8103148958
 51
93.1896851042
  0
ARC
  5
2D9
330
1F
100
AcDbEntity
  8
0
  6
Continuous
 62
     7
370
    25
100
AcDbCircle
 10
80.4387537706
 20
101.2136152074
 30
0.0
 40
1.049999999999998
100
AcDbArc
 50
356.8103148958
 51
93.1896851042
  0
ARC
  5
2DA
330
1F
100
AcDbEntity
  8
0
  6
Continuous
 62
     7
370
    25
100
AcDbCircle
 10
102.1349911759
 20
128.2073272958
 30
0.0
 40
1.050000000000022
100
AcDbArc
 50
221.8103148958
 51
318.1896851042
  0
ARC
  5
2DB
330
1F
100
AcDbEntity
  8
0
  6
Continuous
 62
     7
370
    25
100
AcDbCircle
 10
72.1349911759
 20
128.2073272958
 30
0.0
 40
1.050000000000033
100
AcDbArc
 50
221.8103148958
 51
318.1896851042
  0
ARC
  5
2DC
330
1F
100
AcDbEntity
  8
0
  6
Continuous
 62
     7
370
    25
100
AcDbCircle
 10
83.4192624234
 20
102.1929045293
 30
0.0
 40
2.100000000000001
100
AcDbArc
 50
225.0
 51
315.0
  0
ARC
  5
2DD
330
1F
100
AcDbEntity
  8
0
  6
Continuous
 62
     7
370
    25
100
AcDbCircle
 10
60.2048396569
 20
125.4073272958
 30
0.0
 40
2.100000000000001
100
AcDbArc
 50
90.0
 51
225.0
  0
LINE
  5
2DE
330
1F
100
AcDbEntity
  8
0
  6
Continuous
 62
     7
370
    25
100
AcDbLine
 10
81.487127108
 20
101.1551913637
 30
0.0
 11
81.9343381829
 21
100.7079802888
 31
0.0
  0
LINE
  5
2DF
330
1F
100
AcDbEntity
  8
0
  6
Continuous
 62
     7
370
    25
100
AcDbLine
 10
58.7199154164
 20
123.9224030553
 30
0.0
 11
59.1671264913
 21
123.4751919804
 31
0.0
  0
ARC
  5
2E0
330
1F
100
AcDbEntity
  8
0
  6
Continuous
 62
     7
370
    25
100
AcDbCircle
 10
7.7596742952
 20
89.2787814675
 30
0.0
 40
2.100000000000009
100
AcDbArc
 50
180.0
 51
270.0
  0
ARC
  5
2E1
330
1F
100
AcDbEntity
  8
0
  6
Continuous
 62
     7
370
    25
100
AcDbCircle
 10
7.7596742952
 20
71.0856790446
 30
0.0
 40
2.100000000000001
100
AcDbArc
 50
180.0
 51
315.0
  0
ARC
  5
2E2
330
1F
100
AcDbEntity
  8
0
  6
Continuous
 62
     7
370
    25
100
AcDbCircle
 10
16.7527767182
 20
80.0787814675
 30
0.0
 40
2.100000000000009
100
AcDbArc
 50
315.0
 51
90.0
  0
LINE
  5
2E3
330
1F
100
AcDbEntity
  8
0
  6
Continuous
 62
     7
370
    25
100
AcDbLine
 10
0.6596742952
 20
102.9905660843
 30
0.0
 11
0.6596742952
 21
74.5558136686
 31
0.0
  0
ARC
  5
2E4
330
1F
100
AcDbEntity
  8
0
  6
Continuous
 62
     7
370
    25
100
AcDbCircle
 10
3.5596742952
 20
104.6731898765
 30
0.0
 40
2.100000000000009
100
AcDbArc
 50
0.0
 51
90.0
  0
LINE
  5
2E5
330
1F
100
AcDbEntity
  8
0
  6
Continuous
 62
     7
370
    25
100
AcDbLine
 10
5.6596742952
 20
80.0787814675
 30
0.0
 11
5.6596742952
 21
71.0856790446
 31
0.0
  0
LINE
  5
2E6
330
1F
100
AcDbEntity
  8
0
  6
Continuous
 62
     7
370
    25
100
AcDbLine
 10
16.7527767182
 20
82.1787814675
 30
0.0
 11
7.7596742952
 21
82.1787814675
 31
0.0
  0
ARC
  5
2E7
330
1F
100
AcDbEntity
  8
0
  6
Continuous
 62
     7
370
    25
100
AcDbCircle
 10
7.7596742952
 20
80.0787814675
 30
0.0
 40
2.100000000000001
100
AcDbArc
 50
90.0
 51
180.0
  0
LINE
  5
2E8
330
1F
100
AcDbEntity
  8
0
  6
Continuous
 62
     7
370
    25
100
AcDbLine
 10
0.6596742952
 20
72.9905660843
 30
0.0
 11
0.6596742952
 21
61.8430383575
 31
0.0
  0
LINE
  5
2E9
330
1F
100
AcDbEntity
  8
0
  6
Continuous
 62
     7
370
    25
100
AcDbLine
 10
3.5596742952
 20
106.7731898765
 30
0.0
 11
0.6596742952
 21
106.7731898765
 31
0.0
  0
LINE
  5
2EA
330
1F
100
AcDbEntity
  8
0
  6
Continuous
 62
     7
370
    25
100
AcDbLine
 10
5.6596742952
 20
89.2787814675
 30
0.0
 11
5.6596742952
 21
104.6731898765
 31
0.0
  0
LINE
  5
2EB
330
1F
100
AcDbEntity
  8
0
  6
Continuous
 62
     7
370
    25
100
AcDbLine
 10
25.9527767182
 20
87.1787814675
 30
0.0
 11
7.7596742952
 21
87.1787814675
 31
0.0
  0
LINE
  5
2EC
330
1F
100
AcDbEntity
  8
0
  6
Continuous
 62
     7
370
    25
100
AcDbLine
 10
27.4590213022
 20
86.5423853644
 30
0.0
 11
27.4377009587
 21
86.563705708
 31
0.0
  0
LINE
  5
2ED
330
1F
100
AcDbEntity
  8
0
  6
Continuous
 62
     7
370
    25
100
AcDbLine
 10
9.2445985357
 20
69.6007548041
 30
0.0
 11
18.2377009587
 21
78.593857227
 31
0.0
  0
LINE
  5
2EE
330
1F
100
AcDbEntity
  8
0
  6
Continuous
 62
     7
370
    25
100
AcDbLine
 10
0.6596742952
 20
106.7731898765
 30
0.0
 11
0.6596742952
 21
104.5558136686
 31
0.0
  0
LINE
  5
2EF
330
1F
100
AcDbEntity
  8
0
  6
Continuous
 62
     7
370
    25
100
AcDbLine
 10
5.7986067917
 20
61.9121223729
 30
0.0
 11
25.9050130462
 21
82.0185286275
 31
0.0
  0
ARC
  5
2F0
330
1F
100
AcDbEntity
  8
0
  6
Continuous
 62
     7
370
    25
100
AcDbCircle
 10
25.9527767182
 20
85.0787814675
 30
0.0
 40
2.099999999999998
100
AcDbArc
 50
45.0
 51
90.0
  0
ARC
  5
2F1
330
1F
100
AcDbEntity
  8
0
  6
Continuous
 62
     7
370
    25
100
AcDbCircle
 10
5.740182948
 20
60.8637490356
 30
0.0
 40
1.049999999999998
100
AcDbArc
 50
86.8103148958
 51
183.1896851042
  0
ARC
  5
2F2
330
1F
100
AcDbEntity
  8
0
  6
Continuous
 62
     7
370
    25
100
AcDbCircle
 10
26.9533863836
 20
82.0769524712
 30
0.0
 40
1.049999999999998
100
AcDbArc
 50
86.8103148958
 51
183.1896851042
  0
ARC
  5
2F3
330
1F
100
AcDbEntity
  8
0
  6
Continuous
 62
     7
370
    25
100
AcDbCircle
 10
-0.0403257048
 20
103.7731898765
 30
0.0
 40
1.050000000000002
100
AcDbArc
 50
311.8103148958
 51
48.1896851042
  0
ARC
  5
2F4
330
1F
100
AcDbEntity
  8
0
  6
Continuous
 62
     7
370
    25
100
AcDbCircle
 10
-0.0403257048
 20
73.7731898765
 30
0.0
 40
1.050000000000006
100
AcDbArc
 50
311.8103148958
 51
48.1896851042
  0
ARC
  5
2F5
330
1F
100
AcDbEntity
  8
0
  6
Continuous
 62
     7
370
    25
100
AcDbCircle
 10
25.9740970617
 20
85.0574611239
 30
0.0
 40
2.100000000000001
100
AcDbArc
 50
315.0
 51
45.0
  0
ARC
  5
2F6
330
1F
100
AcDbEntity
  8
0
  6
Continuous
 62
     7
370
    25
100
AcDbCircle
 10
2.7596742952
 20
61.8430383575
 30
0.0
 40
2.100000000000003
100
AcDbArc
 50
180.0
 51
315.0
  0
LINE
  5
2F7
330
1F
100
AcDbEntity
  8
0
  6
Continuous
 62
     7
370
    25
100
AcDbLine
 10
27.0118102273
 20
83.1253258085
 30
0.0
 11
27.4590213022
 21
83.5725368834
 31
0.0
  0
LINE
  5
2F8
330
1F
100
AcDbEntity
  8
0
  6
Continuous
 62
     7
370
    25
100
AcDbLine
 10
4.2445985357
 20
60.358114117
 30
0.0
 11
4.6918096106
 21
60.8053251919
 31
0.0
  0
LINE
  5
2F9
330
1F
100
AcDbEntity
  8
0
  6
Continuous
 62
     7
370
    25
100
AcDbLine
 10
148.6553170454
 20
187.875547441
 30
0.0
 11
148.6553170454
 21
153.0821030568
 31
0.0
  0
ARC
  5
2FA
330
1F
100
AcDbEntity
  8
0
  6
Continuous
 62
     7
370
    25
100
AcDbCircle
 10
153.6553170454
 20
187.875547441
 30
0.0
 40
5.0
100
AcDbArc
 50
90.0
 51
180.0
  0
LINE
  5
2FB
330
1F
100
AcDbEntity
  8
0
  6
Continuous
 62
     7
370
    25
100
AcDbLine
 10
163.6553170454
 20
192.875547441
 30
0.0
 11
153.6553170454
 21
192.875547441
 31
0.0
  0
ARC
  5
2FC
330
1F
100
AcDbEntity
  8
0
  6
Continuous
 62
     7
370
    25
100
AcDbCircle
 10
163.6553170454
 20
187.875547441
 30
0.0
 40
5.0
100
AcDbArc
 50
0.0
 51
90.0
  0
LINE
  5
2FD
330
1F
100
AcDbEntity
  8
0
  6
Continuous
 62
     7
370
    25
100
AcDbLine
 10
168.6553170454
 20
177.875547441
 30
0.0
 11
168.6553170454
 21
187.875547441
 31
0.0
  0
ARC
  5
2FE
330
1F
100
AcDbEntity
  8
0
  6
Continuous
 62
     7
370
    25
100
AcDbCircle
 10
173.6553170454
 20
177.875547441
 30
0.0
 40
5.0
100
AcDbArc
 50
180.0
 51
270.0
  0
LINE
  5
2FF
330
1F
100
AcDbEntity
  8
0
  6
Continuous
 62
     7
370
    25
100
AcDbLine
 10
223.6553170454
 20
172.875547441
 30
0.0
 11
173.6553170454
 21
172.875547441
 31
0.0
  0
ARC
  5
300
330
1F
100
AcDbEntity
  8
0
  6
Continuous
 62
     7
370
    25
100
AcDbCircle
 10
223.6553170454
 20
177.875547441
 30
0.0
 40
5.0
100
AcDbArc
 50
270.0
 51
0.0
  0
LINE
  5
301
330
1F
100
AcDbEntity
  8
0
  6
Continuous
 62
     7
370
    25
100
AcDbLine
 10
228.6553170454
 20
187.875547441
 30
0.0
 11
228.6553170454
 21
177.875547441
 31
0.0
  0
ARC
  5
302
330
1F
100
AcDbEntity
  8
0
  6
Continuous
 62
     7
370
    25
100
AcDbCircle
 10
233.6553170454
 20
187.875547441
 30
0.0
 40
5.0
100
AcDbArc
 50
90.0
 51
180.0
  0
LINE
  5
303
330
1F
100
AcDbEntity
  8
0
  6
Continuous
 62
     7
370
    25
100
AcDbLine
 10
243.6553170454
 20
192.875547441
 30
0.0
 11
233.6553170454
 21
192.875547441
 31
0.0
  0
ARC
  5
304
330
1F
100
AcDbEntity
  8
0
  6
Continuous
 62
     7
370
    25
100
AcDbCircle
 10
243.6553170454
 20
187.875547441
 30
0.0
 40
5.0
100
AcDbArc
 50
0.0
 51
90.0
  0
LINE
  5
305
330
1F
100
AcDbEntity
  8
0
  6
Continuous
 62
     7
370
    25
100
AcDbLine
 10
248.6553170454
 20
153.0821030568
 30
0.0
 11
248.6553170454
 21
187.875547441
 31
0.0
  0
ARC
  5
306
330
1F
100
AcDbEntity
  8
0
  6
Continuous
 62
     7
370
    25
100
AcDbCircle
 10
238.6553170454
 20
153.0821030568
 30
0.0
 40
10.0
100
AcDbArc
 50
304.9920201986
 51
0.0
  0
LINE
  5
307
330
1F
100
AcDbEntity
  8
0
  6
Continuous
 62
     7
370
    25
100
AcDbLine
 10
244.389940489
 20
144.8897838516
 30
0.0
 11
222.2749255527
 21
129.4092733962
 31
0.0
  0
ARC
  5
308
330
1F
100
AcDbEntity
  8
0
  6
Continuous
 62
     7
370
    25
100
AcDbCircle
 10
213.6729903872
 20
141.697752204
 30
0.0
 40
15.00000000000003
100
AcDbArc
 50
242.4784464489
 51
304.9920201986
  0
ARC
  5
309
330
1F
100
AcDbEntity
  8
0
  6
Continuous
 62
     7
370
    25
100
AcDbCircle
 10
198.6553170454
 20
112.875547441
 30
0.0
 40
17.49999999999999
100
AcDbArc
 50
62.4784464489
 51
117.5215535511
  0
ARC
  5
30A
330
1F
100
AcDbEntity
  8
0
  6
Continuous
 62
     7
370
    25
100
AcDbCircle
 10
183.6376437035
 20
141.697752204
 30
0.0
 40
15.00000000000002
100
AcDbArc
 50
235.0079798014
 51
297.5215535511
  0
LINE
  5
30B
330
1F
100
AcDbEntity
  8
0
  6
Continuous
 62
     7
370
    25
100
AcDbLine
 10
175.035708538
 20
129.4092733962
 30
0.0
 11
152.9206936017
 21
144.8897838516
 31
0.0
  0
ARC
  5
30C
330
1F
100
AcDbEntity
  8
0
  6
Continuous
 62
     7
370
    25
100
AcDbCircle
 10
158.6553170454
 20
153.0821030568
 30
0.0
 40
9.999999999999984
100
AcDbArc
 50
180.0
 51
235.0079798014
  0
CIRCLE
  5
30D
330
1F
100
AcDbEntity
  8
0
  6
Continuous
 62
     7
370
    25
100
AcDbCircle
 10
198.6553170454
 20
162.875547441
 30
0.0
 40
2.549999999999983
  0
CIRCLE
  5
30E
330
1F
100
AcDbEntity
  8
0
  6
Continuous
 62
     7
370
    25
100
AcDbCircle
 10
238.6553170454
 20
162.875547441
 30
0.0
 40
2.550000000000011
  0
CIRCLE
  5
30F
330
1F
100
AcDbEntity
  8
0
  6
Continuous
 62
     7
370
    25
100
AcDbCircle
 10
158.6553170454
 20
162.875547441
 30
0.0
 40
2.549999999999983
  0
CIRCLE
  5
310
330
1F
100
AcDbEntity
  8
0
  6
Continuous
 62
     7
370
    25
100
AcDbCircle
 10
238.6553170454
 20
182.875547441
 30
0.0
 40
2.550000000000011
  0
CIRCLE
  5
311
330
1F
100
AcDbEntity
  8
0
  6
Continuous
 62
     7
370
    25
100
AcDbCircle
 10
158.6553170454
 20
182.875547441
 30
0.0
 40
2.549999999999955
  0
LINE
  5
312
330
1F
100
AcDbEntity
  8
0
  6
Continuous
 62
     7
370
    25
100
AcDbLine
 10
199.1767921501
 20
23.9746696756
 30
0.0
 11
233.9702365344
 21
23.9746696756
 31
0.0
  0
ARC
  5
313
330
1F
100
AcDbEntity
  8
0
  6
Continuous
 62
     7
370
    25
100
AcDbCircle
 10
199.1767921501
 20
28.9746696756
 30
0.0
 40
5.0
100
AcDbArc
 50
180.0
 51
270.0
  0
LINE
  5
314
330
1F
100
AcDbEntity
  8
0
  6
Continuous
 62
     7
370
    25
100
AcDbLine
 10
194.1767921501
 20
38.9746696756
 30
0.0
 11
194.1767921501
 21
28.9746696756
 31
0.0
  0
ARC
  5
315
330
1F
100
AcDbEntity
  8
0
  6
Continuous
 62
     7
370
    25
100
AcDbCircle
 10
199.1767921501
 20
38.9746696756
 30
0.0
 40
5.000000000000007
100
AcDbArc
 50
90.0
 51
180.0
  0
LINE
  5
316
330
1F
100
AcDbEntity
  8
0
  6
Continuous
 62
     7
370
    25
100
AcDbLine
 10
209.1767921501
 20
43.9746696756
 30
0.0
 11
199.1767921501
 21
43.9746696756
 31
0.0
  0
ARC
  5
317
330
1F
100
AcDbEntity
  8
0
  6
Continuous
 62
     7
370
    25
100
AcDbCircle
 10
209.1767921501
 20
48.9746696756
 30
0.0
 40
5.0
100
AcDbArc
 50
270.0
 51
0.0
  0
LINE
  5
318
330
1F
100
AcDbEntity
  8
0
  6
Continuous
 62
     7
370
    25
100
AcDbLine
 10
214.1767921501
 20
98.9746696756
 30
0.0
 11
214.1767921501
 21
48.9746696756
 31
0.0
  0
ARC
  5
319
330
1F
100
AcDbEntity
  8
0
  6
Continuous
 62
     7
370
    25
100
AcDbCircle
 10
209.1767921501
 20
98.9746696756
 30
0.0
 40
5.0
100
AcDbArc
 50
0.0
 51
90.0
  0
LINE
  5
31A
330
1F
100
AcDbEntity
  8
0
  6
Continuous
 62
     7
370
    25
100
AcDbLine
 10
199.1767921501
 20
103.9746696756
 30
0.0
 11
209.1767921501
 21
103.9746696756
 31
0.0
  0
ARC
  5
31B
330
1F
100
AcDbEntity
  8
0
  6
Continuous
 62
     7
370
    25
100
AcDbCircle
 10
199.1767921501
 20
108.9746696756
 30
0.0
 40
5.0
100
AcDbArc
 50
180.0
 51
270.0
  0
LINE
  5
31C
330
1F
100
AcDbEntity
  8
0
  6
Continuous
 62
     7
370
    25
100
AcDbLine
 10
194.1767921501
 20
118.9746696756
 30
0.0
 11
194.1767921501
 21
108.9746696756
 31
0.0
  0
ARC
  5
31D
330
1F
100
AcDbEntity
  8
0
  6
Continuous
 62
     7
370
    25
100
AcDbCircle
 10
199.1767921501
 20
118.9746696756
 30
0.0
 40
5.0
100
AcDbArc
 50
90.0
 51
180.0
  0
LINE
  5
31E
330
1F
100
AcDbEntity
  8
0
  6
Continuous
 62
     7
370
    25
100
AcDbLine
 10
233.9702365344
 20
123.9746696756
 30
0.0
 11
199.1767921501
 21
123.9746696756
 31
0.0
  0
ARC
  5
31F
330
1F
100
AcDbEntity
  8
0
  6
Continuous
 62
     7
370
    25
100
AcDbCircle
 10
233.9702365344
 20
113.9746696756
 30
0.0
 40
10.00000000000002
100
AcDbArc
 50
34.9920201986
 51
90.0
  0
LINE
  5
320
330
1F
100
AcDbEntity
  8
0
  6
Continuous
 62
     7
370
    25
100
AcDbLine
 10
242.1625557396
 20
119.7092931192
 30
0.0
 11
257.643066195
 21
97.594278183
 31
0.0
  0
ARC
  5
321
330
1F
100
AcDbEntity
  8
0
  6
Continuous
 62
     7
370
    25
100
AcDbCircle
 10
245.3545873872
 20
88.9923430175
 30
0.0
 40
15.00000000000001
100
AcDbArc
 50
332.4784464489
 51
34.9920201986
  0
ARC
  5
322
330
1F
100
AcDbEntity
  8
0
  6
Continuous
 62
     7
370
    25
100
AcDbCircle
 10
274.1767921501
 20
73.9746696756
 30
0.0
 40
17.50000000000001
100
AcDbArc
 50
152.4784464489
 51
207.5215535511
  0
ARC
  5
323
330
1F
100
AcDbEntity
  8
0
  6
Continuous
 62
     7
370
    25
100
AcDbCircle
 10
245.3545873872
 20
58.9569963337
 30
0.0
 40
15.00000000000001
100
AcDbArc
 50
325.0079798014
 51
27.5215535511
  0
LINE
  5
324
330
1F
100
AcDbEntity
  8
0
  6
Continuous
 62
     7
370
    25
100
AcDbLine
 10
257.643066195
 20
50.3550611683
 30
0.0
 11
242.1625557396
 21
28.240046232
 31
0.0
  0
ARC
  5
325
330
1F
100
AcDbEntity
  8
0
  6
Continuous
 62
     7
370
    25
100
AcDbCircle
 10
233.9702365344
 20
33.9746696756
 30
0.0
 40
9.99999999999999
100
AcDbArc
 50
270.0
 51
325.0079798014
  0
CIRCLE
  5
326
330
1F
100
AcDbEntity
  8
0
  6
Continuous
 62
     7
370
    25
100
AcDbCircle
 10
224.1767921501
 20
73.9746696756
 30
0.0
 40
2.550000000000011
  0
CIRCLE
  5
327
330
1F
100
AcDbEntity
  8
0
  6
Continuous
 62
     7
370
    25
100
AcDbCircle
 10
224.1767921501
 20
113.9746696756
 30
0.0
 40
2.549999999999997
  0
CIRCLE
  5
328
330
1F
100
AcDbEntity
  8
0
  6
Continuous
 62
     7
370
    25
100
AcDbCircle
 10
224.1767921501
 20
33.9746696756
 30
0.0
 40
2.549999999999997
  0
CIRCLE
  5
329
330
1F
100
AcDbEntity
  8
0
  6
Continuous
 62
     7
370
    25
100
AcDbCircle
 10
204.1767921501
 20
113.9746696756
 30
0.0
 40
2.549999999999983
  0
CIRCLE
  5
32A
330
1F
100
AcDbEntity
  8
0
  6
Continuous
 62
     7
370
    25
100
AcDbCircle
 10
204.1767921501
 20
33.9746696756
 30
0.0
 40
2.54999999999999
  0
LINE
  5
32B
330
1F
100
AcDbEntity
  8
0
  6
Continuous
 62
     7
370
    25
100
AcDbLine
 10
100.8075891478
 20
135.1688128283
 30
0.0
 11
100.8075891478
 21
169.9622572126
 31
0.0
  0
ARC
  5
32C
330
1F
100
AcDbEntity
  8
0
  6
Continuous
 62
     7
370
    25
100
AcDbCircle
 10
95.8075891478
 20
135.1688128283
 30
0.0
 40
5.0
100
AcDbArc
 50
270.0
 51
0.0
  0
LINE
  5
32D
330
1F
100
AcDbEntity
  8
0
  6
Continuous
 62
     7
370
    25
100
AcDbLine
 10
85.8075891478
 20
130.1688128283
 30
0.0
 11
95.8075891478
 21
130.1688128283
 31
0.0
  0
ARC
  5
32E
330
1F
100
AcDbEntity
  8
0
  6
Continuous
 62
     7
370
    25
100
AcDbCircle
 10
85.8075891478
 20
135.1688128283
 30
0.0
 40
5.0
100
AcDbArc
 50
180.0
 51
270.0
  0
LINE
  5
32F
330
1F
100
AcDbEntity
  8
0
  6
Continuous
 62
     7
370
    25
100
AcDbLine
 10
80.8075891478
 20
145.1688128283
 30
0.0
 11
80.8075891478
 21
135.1688128283
 31
0.0
  0
ARC
  5
330
330
1F
100
AcDbEntity
  8
0
  6
Continuous
 62
     7
370
    25
100
AcDbCircle
 10
75.8075891478
 20
145.1688128283
 30
0.0
 40
5.0
100
AcDbArc
 50
0.0
 51
90.0
  0
LINE
  5
331
330
1F
100
AcDbEntity
  8
0
  6
Continuous
 62
     7
370
    25
100
AcDbLine
 10
25.8075891478
 20
150.1688128283
 30
0.0
 11
75.8075891478
 21
150.1688128283
 31
0.0
  0
ARC
  5
332
330
1F
100
AcDbEntity
  8
0
  6
Continuous
 62
     7
370
    25
100
AcDbCircle
 10
25.8075891478
 20
145.1688128283
 30
0.0
 40
5.0
100
AcDbArc
 50
90.0
 51
180.0
  0
LINE
  5
333
330
1F
100
AcDbEntity
  8
0
  6
Continuous
 62
     7
370
    25
100
AcDbLine
 10
20.8075891478
 20
135.1688128283
 30
0.0
 11
20.8075891478
 21
145.1688128283
 31
0.0
  0
ARC
  5
334
330
1F
100
AcDbEntity
  8
0
  6
Continuous
 62
     7
370
    25
100
AcDbCircle
 10
15.8075891478
 20
135.1688128283
 30
0.0
 40
5.000000000000002
100
AcDbArc
 50
270.0
 51
0.0
  0
LINE
  5
335
330
1F
100
AcDbEntity
  8
0
  6
Continuous
 62
     7
370
    25
100
AcDbLine
 10
5.8075891478
 20
130.1688128283
 30
0.0
 11
15.8075891478
 21
130.1688128283
 31
0.0
  0
ARC
  5
336
330
1F
100
AcDbEntity
  8
0
  6
Continuous
 62
     7
370
    25
100
AcDbCircle
 10
5.8075891478
 20
135.1688128283
 30
0.0
 40
5.0
100
AcDbArc
 50
180.0
 51
270.0
  0
LINE
  5
337
330
1F
100
AcDbEntity
  8
0
  6
Continuous
 62
     7
370
    25
100
AcDbLine
 10
0.8075891478
 20
169.9622572126
 30
0.0
 11
0.8075891478
 21
135.1688128283
 31
0.0
  0
ARC
  5
338
330
1F
100
AcDbEntity
  8
0
  6
Continuous
 62
     7
370
    25
100
AcDbCircle
 10
10.8075891478
 20
169.9622572126
 30
0.0
 40
10.0
100
AcDbArc
 50
124.9920201986
 51
180.0
  0
LINE
  5
339
330
1F
100
AcDbEntity
  8
0
  6
Continuous
 62
     7
370
    25
100
AcDbLine
 10
5.0729657042
 20
178.1545764178
 30
0.0
 11
27.1879806405
 21
193.6350868732
 31
0.0
  0
ARC
  5
33A
330
1F
100
AcDbEntity
  8
0
  6
Continuous
 62
     7
370
    25
100
AcDbCircle
 10
35.7899158059
 20
181.3466080654
 30
0.0
 40
15.0
100
AcDbArc
 50
62.4784464489
 51
124.9920201986
  0
ARC
  5
33B
330
1F
100
AcDbEntity
  8
0
  6
Continuous
 62
     7
370
    25
100
AcDbCircle
 10
50.8075891478
 20
210.1688128283
 30
0.0
 40
17.50000000000001
100
AcDbArc
 50
242.4784464489
 51
297.5215535511
  0
ARC
  5
33C
330
1F
100
AcDbEntity
  8
0
  6
Continuous
 62
     7
370
    25
100
AcDbCircle
 10
65.8252624897
 20
181.3466080654
 30
0.0
 40
15.0
100
AcDbArc
 50
55.0079798014
 51
117.5215535511
  0
LINE
  5
33D
330
1F
100
AcDbEntity
  8
0
  6
Continuous
 62
     7
370
    25
100
AcDbLine
 10
74.4271976552
 20
193.6350868732
 30
0.0
 11
96.5422125915
 21
178.1545764178
 31
0.0
  0
ARC
  5
33E
330
1F
100
AcDbEntity
  8
0
  6
Continuous
 62
     7
370
    25
100
AcDbCircle
 10
90.8075891478
 20
169.9622572126
 30
0.0
 40
10.0
100
AcDbArc
 50
0.0
 51
55.0079798014
  0
CIRCLE
  5
33F
330
1F
100
AcDbEntity
  8
0
  6
Continuous
 62
     7
370
    25
100
AcDbCircle
 10
50.8075891478
 20
160.1688128283
 30
0.0
 40
2.550000000000004
  0
CIRCLE
  5
340
330
1F
100
AcDbEntity
  8
0
  6
Continuous
 62
     7
370
    25
100
AcDbCircle
 10
10.8075891478
 20
160.1688128283
 30
0.0
 40
2.54999999999999
  0
CIRCLE
  5
341
330
1F
100
AcDbEntity
  8
0
  6
Continuous
 62
     7
370
    25
100
AcDbCircle
 10
90.8075891478
 20
160.1688128283
 30
0.0
 40
2.549999999999997
  0
CIRCLE
  5
342
330
1F
100
AcDbEntity
  8
0
  6
Continuous
 62
     7
370
    25
100
AcDbCircle
 10
10.8075891478
 20
140.1688128283
 30
0.0
 40
2.549999999999988
  0
CIRCLE
  5
343
330
1F
100
AcDbEntity
  8
0
  6
Continuous
 62
     7
370
    25
100
AcDbCircle
 10
90.8075891478
 20
140.1688128283
 30
0.0
 40
2.549999999999997
  0
LINE
  5
344
330
1F
100
AcDbEntity
  8
0
  6
Continuous
 62
     7
370
    25
100
AcDbLine
 10
205.9261427213
 20
101.1396218888
 30
0.0
 11
171.132698337
 21
101.1396218888
 31
0.0
  0
ARC
  5
345
330
1F
100
AcDbEntity
  8
0
  6
Continuous
 62
     7
370
    25
100
AcDbCircle
 10
205.9261427213
 20
96.1396218888
 30
0.0
 40
5.0
100
AcDbArc
 50
0.0
 51
90.0
  0
LINE
  5
346
330
1F
100
AcDbEntity
  8
0
  6
Continuous
 62
     7
370
    25
100
AcDbLine
 10
210.9261427213
 20
86.1396218888
 30
0.0
 11
210.9261427213
 21
96.1396218888
 31
0.0
  0
ARC
  5
347
330
1F
100
AcDbEntity
  8
0
  6
Continuous
 62
     7
370
    25
100
AcDbCircle
 10
205.9261427213
 20
86.1396218888
 30
0.0
 40
5.0
100
AcDbArc
 50
270.0
 51
0.0
  0
LINE
  5
348
330
1F
100
AcDbEntity
  8
0
  6
Continuous
 62
     7
370
    25
100
AcDbLine
 10
195.9261427213
 20
81.1396218888
 30
0.0
 11
205.9261427213
 21
81.1396218888
 31
0.0
  0
ARC
  5
349
330
1F
100
AcDbEntity
  8
0
  6
Continuous
 62
     7
370
    25
100
AcDbCircle
 10
195.9261427213
 20
76.1396218888
 30
0.0
 40
5.0
100
AcDbArc
 50
90.0
 51
180.0
  0
LINE
  5
34A
330
1F
100
AcDbEntity
  8
0
  6
Continuous
 62
     7
370
    25
100
AcDbLine
 10
190.9261427213
 20
26.1396218888
 30
0.0
 11
190.9261427213
 21
76.1396218888
 31
0.0
  0
ARC
  5
34B
330
1F
100
AcDbEntity
  8
0
  6
Continuous
 62
     7
370
    25
100
AcDbCircle
 10
195.9261427213
 20
26.1396218888
 30
0.0
 40
5.0
100
AcDbArc
 50
180.0
 51
270.0
  0
LINE
  5
34C
330
1F
100
AcDbEntity
  8
0
  6
Continuous
 62
     7
370
    25
100
AcDbLine
 10
205.9261427213
 20
21.1396218888
 30
0.0
 11
195.9261427213
 21
21.1396218888
 31
0.0
  0
ARC
  5
34D
330
1F
100
AcDbEntity
  8
0
  6
Continuous
 62
     7
370
    25
100
AcDbCircle
 10
205.9261427213
 20
16.1396218888
 30
0.0
 40
5.000000000000004
100
AcDbArc
 50
0.0
 51
90.0
  0
LINE
  5
34E
330
1F
100
AcDbEntity
  8
0
  6
Continuous
 62
     7
370
    25
100
AcDbLine
 10
210.9261427213
 20
6.1396218888
 30
0.0
 11
210.9261427213
 21
16.1396218888
 31
0.0
  0
ARC
  5
34F
330
1F
100
AcDbEntity
  8
0
  6
Continuous
 62
     7
370
    25
100
AcDbCircle
 10
205.9261427213
 20
6.1396218888
 30
0.0
 40
5.0
100
AcDbArc
 50
270.0
 51
0.0
  0
LINE
  5
350
330
1F
100
AcDbEntity
  8
0
  6
Continuous
 62
     7
370
    25
100
AcDbLine
 10
171.132698337
 20
1.1396218888
 30
0.0
 11
205.9261427213
 21
1.1396218888
 31
0.0
  0
ARC
  5
351
330
1F
100
AcDbEntity
  8
0
  6
Continuous
 62
     7
370
    25
100
AcDbCircle
 10
171.132698337
 20
11.1396218888
 30
0.0
 40
10.00000000000004
100
AcDbArc
 50
214.9920201986
 51
270.0
  0
LINE
  5
352
330
1F
100
AcDbEntity
  8
0
  6
Continuous
 62
     7
370
    25
100
AcDbLine
 10
162.9403791318
 20
5.4049984452
 30
0.0
 11
147.4598686764
 21
27.5200133814
 31
0.0
  0
ARC
  5
353
330
1F
100
AcDbEntity
  8
0
  6
Continuous
 62
     7
370
    25
100
AcDbCircle
 10
159.7483474842
 20
36.1219485469
 30
0.0
 40
14.99999999999999
100
AcDbArc
 50
152.4784464489
 51
214.9920201986
  0
ARC
  5
354
330
1F
100
AcDbEntity
  8
0
  6
Continuous
 62
     7
370
    25
100
AcDbCircle
 10
130.9261427213
 20
51.1396218888
 30
0.0
 40
17.50000000000001
100
AcDbArc
 50
332.4784464489
 51
27.5215535511
  0
ARC
  5
355
330
1F
100
AcDbEntity
  8
0
  6
Continuous
 62
     7
370
    25
100
AcDbCircle
 10
159.7483474842
 20
66.1572952307
 30
0.0
 40
14.99999999999998
100
AcDbArc
 50
145.0079798014
 51
207.5215535511
  0
LINE
  5
356
330
1F
100
AcDbEntity
  8
0
  6
Continuous
 62
     7
370
    25
100
AcDbLine
 10
147.4598686764
 20
74.7592303961
 30
0.0
 11
162.9403791318
 21
96.8742453324
 31
0.0
  0
ARC
  5
357
330
1F
100
AcDbEntity
  8
0
  6
Continuous
 62
     7
370
    25
100
AcDbCircle
 10
171.132698337
 20
91.1396218888
 30
0.0
 40
10.00000000000002
100
AcDbArc
 50
90.0
 51
145.0079798014
  0
CIRCLE
  5
358
330
1F
100
AcDbEntity
  8
0
  6
Continuous
 62
     7
370
    25
100
AcDbCircle
 10
180.9261427213
 20
51.1396218888
 30
0.0
 40
2.550000000000004
  0
CIRCLE
  5
359
330
1F
100
AcDbEntity
  8
0
  6
Continuous
 62
     7
370
    25
100
AcDbCircle
 10
180.9261427213
 20
11.1396218888
 30
0.0
 40
2.54999999999999
  0
CIRCLE
  5
35A
330
1F
100
AcDbEntity
  8
0
  6
Continuous
 62
     7
370
    25
100
AcDbCircle
 10
180.9261427213
 20
91.1396218888
 30
0.0
 40
2.549999999999997
  0
CIRCLE
  5
35B
330
1F
100
AcDbEntity
  8
0
  6
Continuous
 62
     7
370
    25
100
AcDbCircle
 10
200.9261427213
 20
11.1396218888
 30
0.0
 40
2.54999999999999
  0
CIRCLE
  5
35C
330
1F
100
AcDbEntity
  8
0
  6
Continuous
 62
     7
370
    25
100
AcDbCircle
 10
200.9261427213
 20
91.1396218888
 30
0.0
 40
2.549999999999997
  0
CIRCLE
  5
35D
330
1F
100
AcDbEntity
  8
0
  6
Continuous
 62
     7
370
    25
100
AcDbCircle
 10
109.2239715514
 20
155.0836358437
 30
0.0
 40
1.500000000000156
  0
CIRCLE
  5
35E
330
1F
100
AcDbEntity
  8
0
  6
Continuous
 62
     7
370
    25
100
AcDbCircle
 10
124.2239715514
 20
155.0836358437
 30
0.0
 40
20.0
  0
CIRCLE
  5
35F
330
1F
100
AcDbEntity
  8
0
  6
Continuous
 62
     7
370
    25
100
AcDbCircle
 10
124.2239715514
 20
170.0836358437
 30
0.0
 40
1.5
  0
CIRCLE
  5
360
330
1F
100
AcDbEntity
  8
0
  6
Continuous
 62
     7
370
    25
100
AcDbCircle
 10
124.2239715514
 20
140.0836358437
 30
0.0
 40
1.500000000000114
  0
CIRCLE
  5
361
330
1F
100
AcDbEntity
  8
0
  6
Continuous
 62
     7
370
    25
100
AcDbCircle
 10
124.2239715514
 20
155.0836358437
 30
0.0
 40
8.300000000000011
  0
CIRCLE
  5
362
330
1F
100
AcDbEntity
  8
0
  6
Continuous
 62
     7
370
    25
100
AcDbCircle
 10
139.2239715514
 20
155.0836358437
 30
0.0
 40
1.500000000000028
  0
CIRCLE
  5
363
330
1F
100
AcDbEntity
  8
0
  6
Continuous
 62
     7
370
    25
100
AcDbCircle
 10
124.2239715514
 20
155.0836358437
 30
0.0
 40
7.550000000000011
  0
CIRCLE
  5
364
330
1F
100
AcDbEntity
  8
0
  6
Continuous
 62
     7
370
    25
100
AcDbCircle
 10
133.7334228387
 20
119.8731209804
 30
0.0
 40
1.500000000000171
  0
CIRCLE
  5
365
330
1F
100
AcDbEntity
  8
0
  6
Continuous
 62
     7
370
    25
100
AcDbCircle
 10
148.7334228387
 20
119.8731209804
 30
0.0
 40
20.0
  0
CIRCLE
  5
366
330
1F
100
AcDbEntity
  8
0
  6
Continuous
 62
     7
370
    25
100
AcDbCircle
 10
148.7334228387
 20
134.8731209804
 30
0.0
 40
1.5
  0
CIRCLE
  5
367
330
1F
100
AcDbEntity
  8
0
  6
Continuous
 62
     7
370
    25
100
AcDbCircle
 10
148.7334228387
 20
104.8731209804
 30
0.0
 40
1.500000000000114
  0
CIRCLE
  5
368
330
1F
100
AcDbEntity
  8
0
  6
Continuous
 62
     7
370
    25
100
AcDbCircle
 10
148.7334228387
 20
119.8731209804
 30
0.0
 40
8.300000000000011
  0
CIRCLE
  5
369
330
1F
100
AcDbEntity
  8
0
  6
Continuous
 62
     7
370
    25
100
AcDbCircle
 10
163.7334228387
 20
119.8731209804
 30
0.0
 40
1.500000000000028
  0
CIRCLE
  5
36A
330
1F
100
AcDbEntity
  8
0
  6
Continuous
 62
     7
370
    25
100
AcDbCircle
 10
148.7334228387
 20
119.8731209804
 30
0.0
 40
7.549999999999983
  0
MTEXT
  5
36C
330
1F
100
AcDbEntity
  8
0
  6
Continuous
 62
     7
100
AcDbMText
 10
0.0
 20
6.6902615694
 30
0.0
 40
5.19
 41
0.0
 71
     1
 72
     1
  1
SOLIDWORKS pi (pIgp)
  7
SLDTEXTSTYLE0
 73
     1
 44
1.0
  0
ENDSEC
  0
SECTION
  2
OBJECTS
  0
DICTIONARY
  5
C
330
0
100
AcDbDictionary
281
     1
  3
ACAD_GROUP
350
D
  3
ACAD_LAYOUT
350
1A
  3
ACAD_MLINESTYLE
350
17
  3
ACAD_PLOTSETTINGS
350
19
  3
ACAD_PLOTSTYLENAME
350
E
  3
ACAD_SCALELIST
350
47
  3
DWGPROPS
350
36D
  0
DICTIONARY
  5
D
102
{ACAD_REACTORS
330
C
102
}
330
C
100
AcDbDictionary
281
     1
  0
DICTIONARY
  5
1A
102
{ACAD_REACTORS
330
C
102
}
330
C
100
AcDbDictionary
281
     1
  3
Layout1
350
1E
  3
Layout2
350
26
  3
Model
350
22
  0
DICTIONARY
  5
17
102
{ACAD_REACTORS
330
C
102
}
330
C
100
AcDbDictionary
281
     1
  3
Standard
350
18
  0
DICTIONARY
  5
19
102
{ACAD_REACTORS
330
C
102
}
330
C
100
AcDbDictionary
281
     1
  0
ACDBDICTIONARYWDFLT
  5
E
102
{ACAD_REACTORS
330
C
102
}
330
C
100
AcDbDictionary
281
     1
  3
Normal
350
F
100
AcDbDictionaryWithDefault
340
F
  0
DICTIONARY
  5
47
102
{ACAD_REACTORS
330
C
102
}
330
C
100
AcDbDictionary
281
     1
  3
A0
350
48
  3
A1
350
49
  3
A2
350
4A
  3
A3
350
4B
  3
A4
350
4C
  3
A5
350
4D
  3
A6
350
4E
  3
A7
350
4F
  3
A8
350
50
  3
A9
350
51
  3
B0
350
52
  3
B1
350
53
  3
B2
350
54
  3
B3
350
55
  3
B4
350
56
  3
B5
350
57
  3
B6
350
58
  3
B7
350
59
  3
B8
350
5A
  3
B9
350
5B
  3
C0
350
5C
  3
C1
350
5D
  3
C2
350
5E
  3
C3
350
5F
  3
C4
350
60
  3
C5
350
61
  3
C6
350
62
  3
C7
350
63
  3
C8
350
64
  3
C9
350
65
  3
D0
350
66
  3
D1
350
67
  3
D2
350
68
  0
XRECORD
  5
36D
102
{ACAD_REACTORS
330
C
102
}
330
C
100
AcDbXrecord
280
     1
  1
DWGPROPS COOKIE
  2

  3

  4

  6

  7

  8
Kazuya Oguma
  9

300
=
301
=
302
=
303
=
304
=
305
=
306
=
307
=
308
=
309
=
 40
0.0
 41
2459478.578913044
 42
2459478.578914826
  1

 90
        0
  0
LAYOUT
  5
1E
102
{ACAD_REACTORS
330
1A
102
}
330
1A
100
AcDbPlotSettings
  1

  2
none_device
  4

  6

 40
0.0
 41
0.0
 42
0.0
 43
0.0
 44
0.0
 45
0.0
 46
0.0
 47
0.0
 48
0.0
 49
0.0
140
0.0
141
0.0
142
1.0
143
1.0
 70
   688
 72
     1
 73
     0
 74
     5
  7

 75
    16
147
1.0
148
0.0
149
0.0
100
AcDbLayout
  1
Layout1
 70
     1
 71
     1
 10
0.0
 20
0.0
 11
420.0
 21
297.0
 12
0.0
 22
0.0
 32
0.0
 14
1.0000000000E+20
 24
1.0000000000E+20
 34
1.0000000000E+20
 15
-1.0000000000E+20
 25
-1.0000000000E+20
 35
-1.0000000000E+20
146
0.0
 13
0.0
 23
0.0
 33
0.0
 16
1.0
 26
0.0
 36
0.0
 17
0.0
 27
1.0
 37
0.0
 76
     0
330
1B
  0
LAYOUT
  5
26
102
{ACAD_REACTORS
330
1A
102
}
330
1A
100
AcDbPlotSettings
  1

  2
none_device
  4

  6

 40
0.0
 41
0.0
 42
0.0
 43
0.0
 44
0.0
 45
0.0
 46
0.0
 47
0.0
 48
0.0
 49
0.0
140
0.0
141
0.0
142
1.0
143
1.0
 70
   688
 72
     1
 73
     0
 74
     5
  7

 75
    16
147
1.0
148
0.0
149
0.0
100
AcDbLayout
  1
Layout2
 70
     1
 71
     2
 10
0.0
 20
0.0
 11
0.0
 21
0.0
 12
0.0
 22
0.0
 32
0.0
 14
0.0
 24
0.0
 34
0.0
 15
0.0
 25
0.0
 35
0.0
146
0.0
 13
0.0
 23
0.0
 33
0.0
 16
1.0
 26
0.0
 36
0.0
 17
0.0
 27
1.0
 37
0.0
 76
     0
330
23
  0
LAYOUT
  5
22
102
{ACAD_REACTORS
330
1A
102
}
330
1A
100
AcDbPlotSettings
  1

  2
none_device
  4
Letter_(8.50_x_11.00_Inches)
  6

 40
6.35
 41
6.35
 42
6.35000508
 43
6.35000508
 44
215.9
 45
279.4
 46
0.0
 47
0.0
 48
0.0
 49
0.0
140
0.0
141
0.0
142
1.0
143
1.0
 70
  1712
 72
     1
 73
     0
 74
     0
  7

 75
     0
147
1.0
148
0.0
149
0.0
100
AcDbLayout
  1
Model
 70
     1
 71
     0
 10
0.0
 20
0.0
 11
300.0
 21
300.0
 12
0.0
 22
0.0
 32
0.0
 14
0.0
 24
0.0
 34
0.0
 15
300.0
 25
300.0
 35
0.0
146
0.0
 13
0.0
 23
0.0
 33
0.0
 16
1.0
 26
0.0
 36
0.0
 17
0.0
 27
1.0
 37
0.0
 76
     0
330
1F
331
29
  0
MLINESTYLE
  5
18
102
{ACAD_REACTORS
330
17
102
}
330
17
100
AcDbMlineStyle
  2
Standard
 70
     0
  3

 62
   256
 51
90.0
 52
90.0
 71
     2
 49
0.5
 62
   256
  6
BYLAYER
 49
-0.5
 62
   256
  6
BYLAYER
  0
ACDBPLACEHOLDER
  5
F
102
{ACAD_REACTORS
330
E
102
}
330
E
  0
SCALE
  5
48
102
{ACAD_REACTORS
330
47
102
}
330
47
100
AcDbScale
 70
     0
300
1:1
140
1.0
141
1.0
290
     1
  0
SCALE
  5
49
102
{ACAD_REACTORS
330
47
102
}
330
47
100
AcDbScale
 70
     0
300
1:2
140
1.0
141
2.0
290
     0
  0
SCALE
  5
4A
102
{ACAD_REACTORS
330
47
102
}
330
47
100
AcDbScale
 70
     0
300
1:4
140
1.0
141
4.0
290
     0
  0
SCALE
  5
4B
102
{ACAD_REACTORS
330
47
102
}
330
47
100
AcDbScale
 70
     0
300
1:5
140
1.0
141
5.0
290
     0
  0
SCALE
  5
4C
102
{ACAD_REACTORS
330
47
102
}
330
47
100
AcDbScale
 70
     0
300
1:8
140
1.0
141
8.0
290
     0
  0
SCALE
  5
4D
102
{ACAD_REACTORS
330
47
102
}
330
47
100
AcDbScale
 70
     0
300
1:10
140
1.0
141
10.0
290
     0
  0
SCALE
  5
4E
102
{ACAD_REACTORS
330
47
102
}
330
47
100
AcDbScale
 70
     0
300
1:16
140
1.0
141
16.0
290
     0
  0
SCALE
  5
4F
102
{ACAD_REACTORS
330
47
102
}
330
47
100
AcDbScale
 70
     0
300
1:20
140
1.0
141
20.0
290
     0
  0
SCALE
  5
50
102
{ACAD_REACTORS
330
47
102
}
330
47
100
AcDbScale
 70
     0
300
1:30
140
1.0
141
30.0
290
     0
  0
SCALE
  5
51
102
{ACAD_REACTORS
330
47
102
}
330
47
100
AcDbScale
 70
     0
300
1:40
140
1.0
141
40.0
290
     0
  0
SCALE
  5
52
102
{ACAD_REACTORS
330
47
102
}
330
47
100
AcDbScale
 70
     0
300
1:50
140
1.0
141
50.0
290
     0
  0
SCALE
  5
53
102
{ACAD_REACTORS
330
47
102
}
330
47
100
AcDbScale
 70
     0
300
1:100
140
1.0
141
100.0
290
     0
  0
SCALE
  5
54
102
{ACAD_REACTORS
330
47
102
}
330
47
100
AcDbScale
 70
     0
300
2:1
140
2.0
141
1.0
290
     0
  0
SCALE
  5
55
102
{ACAD_REACTORS
330
47
102
}
330
47
100
AcDbScale
 70
     0
300
4:1
140
4.0
141
1.0
290
     0
  0
SCALE
  5
56
102
{ACAD_REACTORS
330
47
102
}
330
47
100
AcDbScale
 70
     0
300
8:1
140
8.0
141
1.0
290
     0
  0
SCALE
  5
57
102
{ACAD_REACTORS
330
47
102
}
330
47
100
AcDbScale
 70
     0
300
10:1
140
10.0
141
1.0
290
     0
  0
SCALE
  5
58
102
{ACAD_REACTORS
330
47
102
}
330
47
100
AcDbScale
 70
     0
300
100:1
140
100.0
141
1.0
290
     0
  0
SCALE
  5
59
102
{ACAD_REACTORS
330
47
102
}
330
47
100
AcDbScale
 70
     0
300
1/128" = 1'-0"
140
0.0078125
141
12.0
290
     0
  0
SCALE
  5
5A
102
{ACAD_REACTORS
330
47
102
}
330
47
100
AcDbScale
 70
     0
300
1/64" = 1'-0"
140
0.015625
141
12.0
290
     0
  0
SCALE
  5
5B
102
{ACAD_REACTORS
330
47
102
}
330
47
100
AcDbScale
 70
     0
300
1/32" = 1'-0"
140
0.03125
141
12.0
290
     0
  0
SCALE
  5
5C
102
{ACAD_REACTORS
330
47
102
}
330
47
100
AcDbScale
 70
     0
300
1/16" = 1'-0"
140
0.0625
141
12.0
290
     0
  0
SCALE
  5
5D
102
{ACAD_REACTORS
330
47
102
}
330
47
100
AcDbScale
 70
     0
300
3/32" = 1'-0"
140
0.09375
141
12.0
290
     0
  0
SCALE
  5
5E
102
{ACAD_REACTORS
330
47
102
}
330
47
100
AcDbScale
 70
     0
300
1/8" = 1'-0"
140
0.125
141
12.0
290
     0
  0
SCALE
  5
5F
102
{ACAD_REACTORS
330
47
102
}
330
47
100
AcDbScale
 70
     0
300
3/16" = 1'-0"
140
0.1875
141
12.0
290
     0
  0
SCALE
  5
60
102
{ACAD_REACTORS
330
47
102
}
330
47
100
AcDbScale
 70
     0
300
1/4" = 1'-0"
140
0.25
141
12.0
290
     0
  0
SCALE
  5
61
102
{ACAD_REACTORS
330
47
102
}
330
47
100
AcDbScale
 70
     0
300
3/8" = 1'-0"
140
0.375
141
12.0
290
     0
  0
SCALE
  5
62
102
{ACAD_REACTORS
330
47
102
}
330
47
100
AcDbScale
 70
     0
300
1/2" = 1'-0"
140
0.5
141
12.0
290
     0
  0
SCALE
  5
63
102
{ACAD_REACTORS
330
47
102
}
330
47
100
AcDbScale
 70
     0
300
3/4" = 1'-0"
140
0.75
141
12.0
290
     0
  0
SCALE
  5
64
102
{ACAD_REACTORS
330
47
102
}
330
47
100
AcDbScale
 70
     0
300
1" = 1'-0"
140
1.0
141
12.0
290
     0
  0
SCALE
  5
65
102
{ACAD_REACTORS
330
47
102
}
330
47
100
AcDbScale
 70
     0
300
1-1/2" = 1'-0"
140
1.5
141
12.0
290
     0
  0
SCALE
  5
66
102
{ACAD_REACTORS
330
47
102
}
330
47
100
AcDbScale
 70
     0
300
3" = 1'-0"
140
3.0
141
12.0
290
     0
  0
SCALE
  5
67
102
{ACAD_REACTORS
330
47
102
}
330
47
100
AcDbScale
 70
     0
300
6" = 1'-0"
140
6.0
141
12.0
290
     0
  0
SCALE
  5
68
102
{ACAD_REACTORS
330
47
102
}
330
47
100
AcDbScale
 70
     0
300
1'-0" = 1'-0"
140
12.0
141
12.0
290
     0
  0
ENDSEC
  0
EOF
